<?xml version="1.0" standalone="no"?>
<!DOCTYPE svg PUBLIC "-//W3C//DTD SVG 1.1//EN" "http://www.w3.org/Graphics/SVG/1.1/DTD/svg11.dtd" >
<svg xmlns="http://www.w3.org/2000/svg" xmlns:xlink="http://www.w3.org/1999/xlink" version="1.1">
<metadata>
Created by FontForge 20170731 at Wed Oct 19 11:25:54 2016
 By Aleksey,,,
Copyright (c) 2016 by Leroy Merlin. All rights reserved. Designed by Christophe Badani
</metadata>
<defs>
<font id="LeroyMerlinSansOffice-Regular" horiz-adv-x="0" >
  <font-face 
    font-family="Leroy Merlin Sans Office"
    font-weight="400"
    font-stretch="normal"
    units-per-em="1000"
    panose-1="0 0 5 0 0 0 0 0 0 0"
    ascent="770"
    descent="-230"
    x-height="537"
    cap-height="695"
    bbox="-731 -261 1125 1132"
    underline-thickness="50"
    underline-position="-150"
    unicode-range="U+000D-FB02"
  />
<missing-glyph horiz-adv-x="481" 
d="M430 649v-649h-379v649h379zM360 599h-239l119 -227zM96 551v-453l119 226zM385 551l-120 -227l120 -226v453zM240 276l-119 -226h239z" />
    <glyph glyph-name="fi" unicode="fi" horiz-adv-x="586" 
d="M503 0h-92v453h-218v-453h-92v453h-83v84h83v60q0 73 39.5 120.5t113.5 47.5q45 0 91 -20l-9 -79q-10 6 -26.5 10.5t-33.5 4.5q-37 0 -60 -21.5t-23 -67.5v-55h310v-537zM416.5 660.5q-16.5 15.5 -16.5 41.5t16.5 41t40.5 15q23 0 40 -15t17 -41t-17 -41.5t-40 -15.5
q-24 0 -40.5 15.5z" />
    <glyph glyph-name="fl" unicode="fl" horiz-adv-x="630" 
d="M101 453h-83v84h83v60q0 73 39.5 120.5t113.5 47.5q45 0 91 -20l-9 -79q-10 6 -26.5 10.5t-33.5 4.5q-37 0 -60 -21.5t-23 -67.5v-55h126v-84h-126v-453h-92v453zM453.5 41q-48.5 47 -48.5 132v577h92v-561q0 -52 26 -81.5t72 -29.5l-5 -84q-88 0 -136.5 47z" />
    <glyph glyph-name="f_f" unicode="ff" horiz-adv-x="624" 
d="M101 453h-83v84h83v39q0 74 39 118t113 44q44 0 92 -21l-9 -79q-37 16 -64 16q-38 0 -58.5 -18t-20.5 -61v-38h193v70q0 77 41.5 119.5t115.5 42.5q29 0 57 -6.5t46 -14.5l-13 -79q-38 18 -76 18q-36 0 -57 -18t-21 -63v-69h125v-84h-125v-453h-93v453h-193v-453h-92v453
z" />
    <glyph glyph-name="f_f_i" unicode="ffi" horiz-adv-x="847" 
d="M101 453h-83v84h83v39q0 74 39 118t113 44q44 0 92 -21l-9 -79q-37 16 -64 16q-38 0 -58.5 -18t-20.5 -61v-38h193v70q0 73 36.5 117.5t110.5 44.5q44 0 92 -20l-9 -76q-30 14 -59 14q-37 0 -57.5 -18t-20.5 -63v-69h285v-537h-92v453h-193v-453h-93v453h-193v-453h-92
v453zM678 624q-17 15 -17 41t17 41t40 15q24 0 40.5 -15t16.5 -41t-16.5 -41t-40.5 -15q-23 0 -40 15z" />
    <glyph glyph-name="f_f_l" unicode="ffl" horiz-adv-x="915" 
d="M101 453h-83v84h83v39q0 74 39 118t113 44q44 0 92 -21l-9 -79q-37 16 -64 16q-38 0 -58.5 -18t-20.5 -61v-38h193v70q0 73 39.5 117.5t114.5 44.5q46 0 90 -20l-9 -79q-27 16 -60 16q-82 0 -82 -84v-65h125v-84h-125v-453h-93v453h-193v-453h-92v453zM738.5 41
q-48.5 47 -48.5 132v577h92v-561q0 -52 26 -81.5t72 -29.5l-5 -84q-88 0 -136.5 47z" />
    <glyph glyph-name=".notdef" horiz-adv-x="481" 
d="M430 649v-649h-379v649h379zM360 599h-239l119 -227zM96 551v-453l119 226zM385 551l-120 -227l120 -226v453zM240 276l-119 -226h239z" />
    <glyph glyph-name=".null" horiz-adv-x="552" 
 />
    <glyph glyph-name="nonmarkingreturn" unicode="&#xd;" horiz-adv-x="552" 
 />
    <glyph glyph-name="space" unicode=" " horiz-adv-x="208" 
 />
    <glyph glyph-name="exclam" unicode="!" horiz-adv-x="306" 
d="M110 193l-5 502h97l-4 -502h-88zM113.5 8.5q-16.5 15.5 -16.5 41.5q0 25 16.5 40.5t39.5 15.5q24 0 40.5 -15.5t16.5 -40.5q0 -26 -16.5 -41.5t-40.5 -15.5q-23 0 -39.5 15.5z" />
    <glyph glyph-name="quotedbl" unicode="&#x22;" horiz-adv-x="377" 
d="M78 491l-5 259h83l-6 -259h-72zM227 491l-5 259h83l-6 -259h-72z" />
    <glyph glyph-name="numbersign" unicode="#" horiz-adv-x="607" 
d="M572 423h-92l-14 -152h93l-7 -73h-92l-17 -198h-83l17 198h-173l-17 -198h-83l17 198h-92l6 73h92l14 152h-92l6 74h92l17 198h83l-17 -198h173l17 198h83l-17 -198h92zM383 271l14 152h-173l-14 -152h173z" />
    <glyph glyph-name="dollar" unicode="$" horiz-adv-x="555" 
d="M456.5 45q-58.5 -53 -155.5 -58v-76h-47v77q-75 7 -131 44.5t-82 98.5l86 30q19 -37 51.5 -59t75.5 -28v237q-63 25 -104 48t-69 62.5t-28 98.5q0 81 56 131.5t145 55.5v63h47v-63q76 -5 127.5 -40t75.5 -96l-91 -29q-15 34 -44 54t-68 25v-228q71 -28 112.5 -49.5
t71.5 -60.5t30 -98q0 -87 -58.5 -140zM180 458q26 -25 74 -46v210q-45 -6 -72.5 -33t-27.5 -68q0 -38 26 -63zM382 105q31 28 31 74q0 40 -28.5 65t-83.5 48v-219q50 4 81 32z" />
    <glyph glyph-name="percent" unicode="%" horiz-adv-x="761" 
d="M249 654.5q33 -46.5 33 -133.5t-33 -134t-95 -47q-61 0 -93.5 47t-32.5 134t32.5 133.5t93.5 46.5q62 0 95 -46.5zM105 616.5q-17 -33.5 -17 -95.5t17 -95.5t49 -33.5q34 0 51.5 33.5t17.5 95.5t-17.5 95.5t-51.5 33.5q-32 0 -49 -33.5zM251 0h-69l328 695h69zM699 307.5
q33 -46.5 33 -133.5t-33 -134t-95 -47q-61 0 -93.5 47t-32.5 134t32.5 133.5t93.5 46.5q62 0 95 -46.5zM555 269.5q-17 -33.5 -17 -95.5t17 -95.5t49 -33.5q34 0 51.5 33.5t17.5 95.5t-17.5 95.5t-51.5 33.5q-32 0 -49 -33.5z" />
    <glyph glyph-name="ampersand" unicode="&#x26;" horiz-adv-x="653" 
d="M552 -13l-73 75q-39 -37 -91 -56t-113 -19q-97 0 -158.5 52.5t-61.5 143.5q0 62 31.5 108t86.5 87q-37 42 -56 81.5t-19 84.5q0 53 25.5 90t66.5 55.5t88 18.5q73 0 124 -39.5t51 -110.5q0 -38 -20.5 -71t-50.5 -59t-79 -61l161 -164q22 53 22 121h91q0 -110 -43 -191
l84 -86zM208 489.5q13 -28.5 40 -60.5q54 36 81 63.5t27 60.5q0 35 -23 55t-55 20q-34 0 -58.5 -21t-24.5 -59q0 -30 13 -58.5zM350.5 86q35.5 14 64.5 42l-173 177l-10 10q-38 -32 -59 -63t-21 -66q0 -51 36 -82.5t89 -31.5q38 0 73.5 14z" />
    <glyph glyph-name="quotesingle" unicode="'" horiz-adv-x="229" 
d="M78 491l-5 259h83l-6 -259h-72z" />
    <glyph glyph-name="parenleft" unicode="(" horiz-adv-x="309" 
d="M114.5 22.5q-49.5 139.5 -49.5 298.5t49.5 299.5t118.5 235.5l59 -28q-64 -99 -103.5 -227.5t-39.5 -279.5q0 -150 39.5 -278.5t103.5 -228.5l-59 -28q-69 97 -118.5 236.5z" />
    <glyph glyph-name="parenright" unicode=")" horiz-adv-x="309" 
d="M17 -186q64 100 103.5 228.5t39.5 278.5q0 151 -39.5 279.5t-103.5 227.5l59 28q69 -95 118.5 -235.5t49.5 -299.5t-49.5 -298.5t-118.5 -236.5z" />
    <glyph glyph-name="asterisk" unicode="*" horiz-adv-x="469" 
d="M152 358q-18 0 -32 13t-14 30q0 11 8 22q7 9 17.5 17.5t13.5 11.5q35 27 56 54q-27 9 -50 10t-26 1q-27 0 -43 5q-27 10 -27 38q0 17 11.5 30.5t28.5 13.5q8 0 13 -2q11 -4 38 -21q36 -25 69 -36q0 21 -3 37t-10 39q-8 30 -8 42q0 19 12.5 29.5t28.5 10.5q17 0 29 -10.5
t12 -29.5q0 -12 -8 -42q-12 -42 -12 -76q20 7 34.5 15t34.5 21q22 16 37 20q5 2 13 2q17 0 28 -13.5t11 -30.5q0 -12 -6.5 -22.5t-19.5 -14.5q-14 -4 -43 -6q-42 0 -76 -11q20 -27 55 -54q19 -14 30 -28q8 -13 8 -23q0 -17 -13.5 -29.5t-31.5 -12.5q-19 0 -30 16
q-9 13 -18 39q-14 40 -34 69q-13 -18 -20.5 -34t-14.5 -37q-1 -2 -5.5 -15t-11.5 -22q-13 -16 -31 -16z" />
    <glyph glyph-name="plus" unicode="+" horiz-adv-x="572" 
d="M517 390v-83h-188v-202h-86v202h-188v83h188v201h86v-201h188z" />
    <glyph glyph-name="comma" unicode="," horiz-adv-x="237" 
d="M51 -121q32 15 55.5 46.5t23.5 61.5q0 6 -2 14q-11 -7 -25 -7q-21 0 -36.5 15t-15.5 39q0 23 15.5 40.5t43.5 17.5q39 0 61 -29t22 -72q0 -53 -28.5 -99.5t-85.5 -69.5z" />
    <glyph glyph-name="hyphen" unicode="-" horiz-adv-x="462" 
d="M65 287v92h332v-92h-332z" />
    <glyph glyph-name="period" unicode="." horiz-adv-x="214" 
d="M67.5 8.5q-16.5 15.5 -16.5 41.5q0 25 16.5 40.5t39.5 15.5q24 0 40.5 -15.5t16.5 -40.5q0 -26 -16.5 -41.5t-40.5 -15.5q-23 0 -39.5 15.5z" />
    <glyph glyph-name="slash" unicode="/" horiz-adv-x="369" 
d="M324 776l68 -27l-340 -825l-69 28z" />
    <glyph glyph-name="zero" unicode="0" horiz-adv-x="606" 
d="M486.5 614.5q64.5 -93.5 64.5 -267.5q0 -173 -64.5 -266.5t-184.5 -93.5t-183.5 93.5t-63.5 266.5q0 174 63.5 267.5t183.5 93.5t184.5 -93.5zM191 552q-39 -72 -39 -205q0 -132 39 -204t111 -72q74 0 113 72t39 204q0 133 -39 205t-113 72q-72 0 -111 -72z" />
    <glyph glyph-name="one" unicode="1" horiz-adv-x="372" 
d="M180 0v590l-146 -85l-9 88l165 102h85v-695h-95z" />
    <glyph glyph-name="two" unicode="2" horiz-adv-x="579" 
d="M57 85l240 231q65 65 88 103t23 84q0 54 -35.5 87t-95.5 33q-48 0 -84 -21t-54 -60l-91 29q24 60 84 98.5t146 38.5q71 0 123.5 -26t80.5 -71t28 -101q0 -64 -31.5 -116.5t-106.5 -126.5l-183 -179h334v-88h-466v85z" />
    <glyph glyph-name="three" unicode="3" horiz-adv-x="588" 
d="M134 29.5q-63 42.5 -87 108.5l86 29q19 -42 61 -68.5t101 -26.5q55 0 96 32.5t41 90.5q0 60 -45 91t-108 31h-79v78h80q60 0 99 28.5t39 91.5q0 49 -36 78.5t-89 29.5q-49 0 -83 -21.5t-50 -59.5l-91 29q22 60 81 98.5t144 38.5q99 0 161 -49t62 -132q0 -63 -30 -104
t-82 -57v-1q49 -13 87.5 -56t38.5 -114q0 -62 -30 -109t-84 -73t-123 -26q-97 0 -160 42.5z" />
    <glyph glyph-name="four" unicode="4" horiz-adv-x="567" 
d="M351 0v155h-310v77l211 463h99l-208 -458h208v185h91v-185h84v-82h-84v-155h-91z" />
    <glyph glyph-name="five" unicode="5" horiz-adv-x="594" 
d="M135 29.5q-64 42.5 -88 108.5l86 29q20 -42 60.5 -68.5t99.5 -26.5q63 0 105 43t42 110q0 74 -44 115.5t-110 41.5q-30 0 -59.5 -10.5t-53.5 -30.5l-73 17l24 337h377v-87h-304l-14 -173q62 27 123 27q62 0 114.5 -27t84.5 -81t32 -129q0 -70 -32 -124.5t-86.5 -84
t-120.5 -29.5q-99 0 -163 42.5z" />
    <glyph glyph-name="six" unicode="6" horiz-adv-x="593" 
d="M121.5 72q-66.5 85 -66.5 239q0 128 34 217t95 134.5t141 45.5q75 0 124.5 -35t67.5 -90l-82 -26q-20 32 -46 49t-66 17q-78 0 -124 -71.5t-50 -194.5q25 44 72 70.5t103 26.5q61 0 112.5 -29t81.5 -82t30 -121q0 -65 -29.5 -118.5t-84 -85t-127.5 -31.5
q-119 0 -185.5 85zM410.5 113q40.5 41 40.5 108q0 64 -41 106.5t-102 42.5q-40 0 -72.5 -19.5t-51 -53.5t-18.5 -76q0 -67 40 -108t102 -41t102.5 41z" />
    <glyph glyph-name="seven" unicode="7" horiz-adv-x="511" 
d="M476 695v-79l-269 -616h-98l267 612h-341v83h441z" />
    <glyph glyph-name="eight" unicode="8" horiz-adv-x="589" 
d="M162.5 11.5q-55.5 24.5 -86.5 70t-31 105.5t34 103t91 66q-112 54 -112 161q0 55 29.5 98.5t81.5 68t119 24.5t119 -24.5t81.5 -68t29.5 -98.5q0 -107 -112 -161q57 -23 91 -66t34 -103t-31 -105.5t-86.5 -70t-125.5 -24.5t-125.5 24.5zM386.5 428.5q34.5 35.5 34.5 85.5
q0 55 -38.5 87t-94.5 32t-94.5 -32t-38.5 -87q0 -50 34.5 -85.5t98.5 -35.5t98.5 35.5zM392 97.5q42 34.5 42 94.5q0 55 -40.5 90.5t-105.5 35.5t-105.5 -35.5t-40.5 -90.5q0 -60 41.5 -94.5t104.5 -34.5q62 0 104 34.5z" />
    <glyph glyph-name="nine" unicode="9" horiz-adv-x="593" 
d="M471.5 623q66.5 -85 66.5 -239q0 -128 -34 -217t-95 -134.5t-141 -45.5q-75 0 -124.5 35t-67.5 90l82 26q20 -32 46 -49t66 -17q78 0 124 71.5t50 194.5q-25 -44 -72 -70.5t-103 -26.5q-61 0 -112.5 29t-81.5 82t-30 121q0 65 29.5 118.5t84 85t127.5 31.5
q119 0 185.5 -85zM182.5 582q-40.5 -41 -40.5 -108q0 -64 41 -106.5t102 -42.5q40 0 72.5 19.5t51 53.5t18.5 76q0 67 -40 108t-102 41t-102.5 -41z" />
    <glyph glyph-name="colon" unicode=":" horiz-adv-x="214" 
d="M67.5 8.5q-16.5 15.5 -16.5 41.5q0 25 16.5 40.5t39.5 15.5q24 0 40.5 -15.5t16.5 -40.5q0 -26 -16.5 -41.5t-40.5 -15.5q-23 0 -39.5 15.5zM67.5 447.5q-16.5 15.5 -16.5 41.5q0 25 16.5 40.5t39.5 15.5q24 0 40.5 -15.5t16.5 -40.5q0 -26 -16.5 -41.5t-40.5 -15.5
q-23 0 -39.5 15.5z" />
    <glyph glyph-name="semicolon" unicode=";" horiz-adv-x="240" 
d="M73.5 446.5q-16.5 15.5 -16.5 41.5q0 25 16.5 40.5t39.5 15.5q24 0 40.5 -15.5t16.5 -40.5q0 -26 -16.5 -41.5t-40.5 -15.5q-23 0 -39.5 15.5zM51 -121q32 15 55.5 46.5t23.5 61.5q0 6 -2 14q-11 -7 -25 -7q-21 0 -36.5 15t-15.5 39q0 23 15.5 40.5t43.5 17.5
q39 0 61 -29t22 -72q0 -53 -28.5 -99.5t-85.5 -69.5z" />
    <glyph glyph-name="less" unicode="&#x3c;" horiz-adv-x="572" 
d="M517 91l-462 220v74l462 220v-89l-361 -168l361 -168v-89z" />
    <glyph glyph-name="equal" unicode="=" horiz-adv-x="572" 
d="M55 167v83h462v-83h-462zM55 447v83h462v-83h-462z" />
    <glyph glyph-name="greater" unicode="&#x3e;" horiz-adv-x="572" 
d="M55 95v89l361 168l-361 168v89l462 -220v-74z" />
    <glyph glyph-name="question" unicode="?" horiz-adv-x="487" 
d="M165 240q0 44 14.5 75t35.5 50t55 43q42 29 61.5 51.5t19.5 59.5q0 48 -34.5 76t-83.5 28q-41 0 -74.5 -21t-51.5 -60l-91 29q28 67 84.5 102t136.5 35q56 0 104.5 -21.5t78 -63t29.5 -99.5q0 -36 -13.5 -63t-33 -45.5t-51.5 -42.5q-45 -34 -68 -62.5t-23 -73.5v-44h-95
v47zM173.5 8.5q-16.5 15.5 -16.5 41.5q0 25 16.5 40.5t39.5 15.5q24 0 40.5 -15.5t16.5 -40.5q0 -26 -16.5 -41.5t-40.5 -15.5q-23 0 -39.5 15.5z" />
    <glyph glyph-name="at" unicode="@" horiz-adv-x="672" 
d="M189.5 -52q-68.5 41 -106.5 118t-38 183q0 95 35 171.5t101 121t156 44.5q94 0 159 -40.5t98 -112.5t33 -165q0 -91 -36 -144.5t-95 -53.5q-66 0 -90 50q-33 -46 -86 -46q-52 0 -89 42.5t-37 125.5q0 79 41.5 121.5t105.5 42.5q57 0 110 -34v-192q0 -56 47 -56
q36 0 56 38t20 104q0 124 -62.5 196t-175.5 72q-71 0 -125 -38t-83.5 -103.5t-29.5 -145.5q0 -91 33 -155.5t90 -98t129 -33.5q40 0 79 9.5t69 30.5l20 -50q-34 -21 -78.5 -32t-90.5 -11q-91 0 -159.5 41zM362 139q13 9 24 29v171q-21 13 -47 13q-34 0 -55 -27.5t-21 -82.5
q0 -58 19.5 -85t48.5 -27q18 0 31 9z" />
    <glyph glyph-name="A" unicode="A" horiz-adv-x="615" 
d="M495 0l-52 163h-275l-52 -163h-97l229 695h120l228 -695h-101zM193 245h223l-112 350z" />
    <glyph glyph-name="B" unicode="B" horiz-adv-x="620" 
d="M97 695h220q83 0 147 -35t64 -136q0 -69 -30.5 -109t-75.5 -58v-1q47 -13 84 -54t37 -111q0 -104 -60 -147.5t-165 -43.5h-221v695zM305 393q60 0 92 30t32 87q0 102 -122 102h-115v-219h113zM314 83q130 0 130 113q0 56 -34.5 85t-98.5 29h-119v-227h122z" />
    <glyph glyph-name="C" unicode="C" horiz-adv-x="643" 
d="M203 28q-69 41 -108.5 122.5t-39.5 197.5q0 115 39.5 196.5t108.5 122.5t157 41q92 0 155 -43.5t86 -106.5l-88 -28q-46 93 -152 93q-95 0 -152 -69.5t-57 -205.5q0 -137 57.5 -206.5t153.5 -69.5q107 0 153 93l87 -28q-23 -63 -86 -106.5t-156 -43.5q-89 0 -158 41z" />
    <glyph glyph-name="D" unicode="D" horiz-adv-x="681" 
d="M97 695h206q92 0 164.5 -36.5t115.5 -114.5t43 -197t-43 -196.5t-115.5 -114t-164.5 -36.5h-206v695zM293 83q102 0 169 61.5t67 202.5t-66.5 203t-169.5 62h-101v-529h101z" />
    <glyph glyph-name="E" unicode="E" horiz-adv-x="598" 
d="M97 0v695h406v-83h-311v-222h271v-82h-271v-225h338v-83h-433z" />
    <glyph glyph-name="F" unicode="F" horiz-adv-x="548" 
d="M97 0v695h417v-83h-322v-233h270v-81h-270v-298h-95z" />
    <glyph glyph-name="G" unicode="G" horiz-adv-x="709" 
d="M521 529q-20 43 -60 68.5t-98 25.5q-61 0 -109 -32.5t-75 -94.5t-27 -148q0 -84 28.5 -147t78 -96t111.5 -33q54 0 97 16.5t71 49.5v146h-194v83h289v-278q-45 -49 -114 -75.5t-149 -26.5q-91 0 -162.5 45.5t-112 127.5t-40.5 188q0 109 38.5 190.5t108 125.5t159.5 44
q96 0 160.5 -42t88.5 -110z" />
    <glyph glyph-name="H" unicode="H" horiz-adv-x="742" 
d="M97 0v695h95v-303h358v303h95v-695h-95v309h-358v-309h-95z" />
    <glyph glyph-name="I" unicode="I" horiz-adv-x="288" 
d="M97 0v695h95v-695h-95z" />
    <glyph glyph-name="J" unicode="J" horiz-adv-x="481" 
d="M55 83h61q91 0 135 46t44 137v346h-200v83h295v-429q0 -135 -68.5 -200.5t-205.5 -65.5h-61v83z" />
    <glyph glyph-name="K" unicode="K" horiz-adv-x="631" 
d="M610 0h-119l-234 310l-65 -79v-231h-95v695h95v-319l268 319h115l-255 -309z" />
    <glyph glyph-name="L" unicode="L" horiz-adv-x="585" 
d="M97 0v695h95v-612h322v-83h-417z" />
    <glyph glyph-name="M" unicode="M" horiz-adv-x="850" 
d="M97 0v695h102l225 -415l226 415h103v-695h-95v527l-194 -364h-79l-193 364v-527h-95z" />
    <glyph glyph-name="N" unicode="N" horiz-adv-x="724" 
d="M97 0v695h91l345 -528v528h95v-695h-91l-345 529v-529h-95z" />
    <glyph glyph-name="O" unicode="O" horiz-adv-x="681" 
d="M131 79q-76 92 -76 269t76 268.5t209 91.5q134 0 210 -91.5t76 -268.5t-76 -269t-210 -92q-133 0 -209 92zM479 138.5q50 66.5 50 209.5q0 142 -50 208.5t-139 66.5t-138.5 -66.5t-49.5 -208.5q0 -143 49.5 -209.5t138.5 -66.5t139 66.5z" />
    <glyph glyph-name="P" unicode="P" horiz-adv-x="578" 
d="M97 695h211q103 0 165 -57t62 -156q0 -105 -63.5 -164.5t-170.5 -59.5h-109v-258h-95v695zM296 340q66 0 104 37t38 102q0 63 -37 98t-101 35h-108v-272h104z" />
    <glyph glyph-name="Q" unicode="Q" horiz-adv-x="681" 
d="M588 141q-38 -83 -109 -122l122 -141l-70 -54l-137 167q-23 -4 -54 -4q-133 0 -209 92t-76 269t76 268.5t209 91.5q134 0 210 -91.5t76 -268.5q0 -124 -38 -207zM201.5 138.5q49.5 -66.5 138.5 -66.5t139 66.5t50 209.5q0 142 -50 208.5t-139 66.5t-138.5 -66.5
t-49.5 -208.5q0 -143 49.5 -209.5z" />
    <glyph glyph-name="R" unicode="R" horiz-adv-x="600" 
d="M453 0l-146 264h-3h-112v-264h-95v695h218q56 0 107 -21.5t83.5 -68.5t32.5 -120q0 -76 -34.5 -128.5t-98.5 -76.5l161 -280h-113zM298 347q61 0 101.5 30t40.5 106q0 64 -35.5 96.5t-96.5 32.5h-116v-265h106z" />
    <glyph glyph-name="S" unicode="S" horiz-adv-x="567" 
d="M140 25.5q-64 38.5 -93 105.5l86 30q22 -43 63 -66t94 -23q57 0 93 29t36 78q0 32 -20 55t-50.5 38.5t-81.5 35.5q-67 27 -108 49.5t-70.5 62.5t-29.5 100q0 58 29 100.5t79.5 65t114.5 22.5q86 0 143.5 -35.5t84.5 -101.5l-91 -29q-17 39 -53 60t-83 21q-54 0 -88.5 -28
t-34.5 -74q0 -33 20.5 -56.5t50 -38t84.5 -36.5q66 -26 107 -48t70 -60.5t29 -96.5q0 -60 -29 -104.5t-81 -69t-121 -24.5q-86 0 -150 38.5z" />
    <glyph glyph-name="T" unicode="T" horiz-adv-x="609" 
d="M254 0v612h-225v83h545v-83h-225v-612h-95z" />
    <glyph glyph-name="U" unicode="U" horiz-adv-x="674" 
d="M158 55q-67 68 -67 201v439h95v-440q0 -84 35.5 -133.5t114.5 -49.5t115.5 49.5t36.5 133.5v440h95v-439q0 -133 -68 -201t-179 -68t-178 68z" />
    <glyph glyph-name="V" unicode="V" horiz-adv-x="664" 
d="M277 0l-246 695h103l201 -591l200 591h98l-245 -695h-111z" />
    <glyph glyph-name="W" unicode="W" horiz-adv-x="985" 
d="M227 0l-188 695h103l147 -582l142 582h123l142 -582l147 582h103l-188 -695h-121l-144 572l-146 -572h-120z" />
    <glyph glyph-name="X" unicode="X" horiz-adv-x="667" 
d="M622 0h-116l-177 268l-182 -268h-104l232 350l-228 345h116l175 -265l174 265h105l-225 -347z" />
    <glyph glyph-name="Y" unicode="Y" horiz-adv-x="620" 
d="M263 0v253l-236 442h107l177 -341l175 341h107l-235 -442v-253h-95z" />
    <glyph glyph-name="Z" unicode="Z" horiz-adv-x="608" 
d="M55 0v74l373 538h-364v83h479v-73l-377 -539h387v-83h-498z" />
    <glyph glyph-name="bracketleft" unicode="[" horiz-adv-x="279" 
d="M268 870v-71h-94v-922h94v-71h-171v1064h171z" />
    <glyph glyph-name="backslash" unicode="\" horiz-adv-x="369" 
d="M51 776l341 -824l-69 -28l-340 825z" />
    <glyph glyph-name="bracketright" unicode="]" horiz-adv-x="279" 
d="M11 870h171v-1064h-171v71h94v922h-94v71z" />
    <glyph glyph-name="asciicircum" unicode="^" horiz-adv-x="467" 
d="M107 195l-54 26l145 316h71l145 -316l-54 -26l-126 280z" />
    <glyph glyph-name="underscore" unicode="_" horiz-adv-x="706" 
d="M703 -33v-75h-700v75h700z" />
    <glyph glyph-name="grave" unicode="`" horiz-adv-x="606" 
d="M390 600l-258 117l32 69l255 -124z" />
    <glyph glyph-name="a" unicode="a" horiz-adv-x="553" 
d="M96.5 28q-45.5 41 -45.5 110q0 79 56 120.5t156 41.5h110v61q0 48 -29.5 77.5t-76.5 29.5q-39 0 -68.5 -21t-42.5 -56l-86 23q11 33 37 64.5t67 51.5t92 20q91 0 146 -50.5t55 -139.5v-206q0 -103 23 -154h-99q-15 31 -16 72q-22 -38 -66 -61.5t-97 -23.5
q-70 0 -115.5 41zM305.5 81.5q30.5 15.5 49 41.5t18.5 56v55h-107q-120 0 -120 -89q0 -35 27 -57t69 -22q33 0 63.5 15.5z" />
    <glyph glyph-name="b" unicode="b" horiz-adv-x="587" 
d="M226.5 17.5q-42.5 30.5 -58.5 74.5q0 -34 -3 -54t-10 -38h-92q9 31 14 72t5 68v610h92v-293q18 38 58.5 65.5t101.5 27.5q65 0 113.5 -33.5t74.5 -96t26 -147.5q0 -132 -55.5 -209t-158.5 -77q-65 0 -107.5 30.5zM416.5 121q36.5 52 36.5 148t-36.5 147.5t-102.5 51.5
q-68 0 -104 -51.5t-36 -147.5t36.5 -148t103.5 -52q66 0 102.5 52z" />
    <glyph glyph-name="c" unicode="c" horiz-adv-x="513" 
d="M153 20.5q-53 33.5 -83.5 97t-30.5 151.5q0 86 30.5 149.5t84 97.5t120.5 34q53 0 96 -20t70 -53t35 -72l-86 -26q-14 41 -44.5 65t-73.5 24q-62 0 -99.5 -54.5t-37.5 -144.5q0 -91 37.5 -145.5t99.5 -54.5q44 0 77.5 23t50.5 62l84 -18q-20 -66 -78 -107.5t-131 -41.5
q-68 0 -121 33.5z" />
    <glyph glyph-name="d" unicode="d" horiz-adv-x="587" 
d="M94.5 64q-55.5 77 -55.5 209q0 85 26 147.5t74.5 96t113.5 33.5q61 0 101.5 -27.5t58.5 -65.5v293h93v-610q0 -28 5 -68.5t13 -71.5h-91q-7 16 -10 35.5t-4 52.5q-21 -44 -61 -72.5t-105 -28.5q-103 0 -158.5 77zM376.5 121q36.5 52 36.5 148t-36 147.5t-103 51.5
t-103.5 -51.5t-36.5 -147.5t36.5 -148t103.5 -52q66 0 102.5 52z" />
    <glyph glyph-name="e" unicode="e" horiz-adv-x="541" 
d="M502 135q-22 -64 -84 -106t-136 -42q-73 0 -128 35t-85 100t-30 152q0 83 29.5 145.5t82.5 96.5t123 34q67 0 118 -32.5t78.5 -87.5t27.5 -119v-61h-363q4 -86 44 -134.5t105 -48.5q46 0 82.5 23.5t52.5 65.5zM183.5 433q-35.5 -37 -45.5 -106h266q-2 63 -38 103t-93 40
q-54 0 -89.5 -37z" />
    <glyph glyph-name="f" unicode="f" horiz-adv-x="354" 
d="M105 453h-87v84h87v57q0 77 44 122.5t118 45.5q29 0 61 -6.5t49 -14.5l-14 -79q-16 7 -38.5 12.5t-42.5 5.5q-36 0 -60.5 -21t-24.5 -67v-55h148v-84h-148v-453h-92v453z" />
    <glyph glyph-name="g" unicode="g" horiz-adv-x="543" 
d="M483.5 72.5q44.5 -38.5 44.5 -102.5q0 -80 -67.5 -129t-191.5 -49q-66 0 -118.5 19.5t-82.5 55.5t-30 84q0 30 15.5 59t41.5 51q-17 14 -26 33.5t-9 40.5q0 27 16.5 53.5t47.5 43.5q-30 24 -46 59t-16 76q0 54 26.5 95.5t74 64.5t110.5 23q74 0 126 -32q32 32 32 80h79
q0 -68 -66 -118q39 -47 39 -113q0 -54 -26 -95.5t-73.5 -65t-110.5 -23.5q-55 0 -98 18q-30 -19 -30 -46q0 -18 15.5 -31t44.5 -13h159q75 0 119.5 -38.5zM185 447q-33 -31 -33 -80q0 -50 32.5 -81t88.5 -31q55 0 88 31t33 81q0 49 -33.5 80t-87.5 31q-55 0 -88 -31z
M387.5 -104.5q46.5 25.5 46.5 70.5q0 31 -21 50t-54 19h-178q-11 0 -27 2q-30 -30 -30 -69q0 -45 40 -71.5t106 -26.5q71 0 117.5 25.5z" />
    <glyph glyph-name="h" unicode="h" horiz-adv-x="594" 
d="M420.5 526q42.5 -24 67 -70.5t24.5 -110.5v-345h-93v326q0 64 -34 99.5t-87 35.5q-51 0 -87 -38t-36 -104v-319h-92v750h92v-283q22 35 60.5 59t88.5 24q54 0 96.5 -24z" />
    <glyph glyph-name="i" unicode="i" horiz-adv-x="258" 
d="M83 0v537h92v-537h-92zM88.5 660.5q-16.5 15.5 -16.5 41.5t16.5 41t40.5 15q23 0 40 -15t17 -41t-17 -41.5t-40 -15.5q-24 0 -40.5 15.5z" />
    <glyph glyph-name="j" unicode="j" horiz-adv-x="257" 
d="M-21 -128q53 0 78.5 24t25.5 86v555h93v-552q0 -106 -50.5 -149.5t-146.5 -43.5v80zM89.5 660.5q-16.5 15.5 -16.5 41.5t16.5 41t40.5 15q23 0 40 -15t17 -41t-17 -41.5t-40 -15.5q-24 0 -40.5 15.5z" />
    <glyph glyph-name="k" unicode="k" horiz-adv-x="578" 
d="M547 0h-119l-176 244l-77 -79v-165h-92v750h92v-456l239 243h122l-217 -223z" />
    <glyph glyph-name="l" unicode="l" horiz-adv-x="302" 
d="M125.5 41q-48.5 47 -48.5 132v577h92v-561q0 -52 26 -81.5t72 -29.5l-5 -84q-88 0 -136.5 47z" />
    <glyph glyph-name="m" unicode="m" horiz-adv-x="894" 
d="M83 537h90v-73q20 36 58.5 61t89.5 25q49 0 86.5 -22.5t58.5 -68.5q23 42 64.5 66.5t94.5 24.5q51 0 93.5 -23t68 -69t25.5 -114v-344h-93v326q0 66 -31.5 100.5t-79.5 34.5t-81 -36.5t-33 -104.5v-320h-93v326q0 65 -32 100t-79 35q-49 0 -82 -37t-33 -105v-319h-92v537
z" />
    <glyph glyph-name="n" unicode="n" horiz-adv-x="594" 
d="M83 537h90v-73q21 36 60 61t91 25q54 0 96.5 -24t67 -70.5t24.5 -110.5v-345h-93v326q0 64 -34 99.5t-87 35.5q-51 0 -87 -38t-36 -104v-319h-92v537z" />
    <glyph glyph-name="o" unicode="o" horiz-adv-x="547" 
d="M102 60.5q-63 73.5 -63 208.5t63 208t171 73q109 0 172 -73t63 -208q0 -136 -63 -209t-172 -73q-108 0 -171 73.5zM376.5 121q36.5 52 36.5 148t-36.5 147.5t-103.5 51.5t-103 -51.5t-36 -147.5q0 -97 36 -148.5t103 -51.5t103.5 52z" />
    <glyph glyph-name="p" unicode="p" horiz-adv-x="588" 
d="M83 537h92v-91q16 41 57 72.5t104 31.5t111 -32t75 -95t27 -154q0 -136 -58.5 -209t-154.5 -73q-59 0 -99.5 28.5t-61.5 66.5v-277h-92v732zM417.5 121q36.5 52 36.5 148t-36.5 147.5t-103.5 51.5t-103 -51.5t-36 -147.5t36.5 -148t102.5 -52q67 0 103.5 52z" />
    <glyph glyph-name="q" unicode="q" horiz-adv-x="588" 
d="M413 84q-17 -38 -57.5 -67.5t-103.5 -29.5t-111.5 32.5t-75 96t-26.5 153.5q0 89 26.5 152t75 96t111.5 33t103.5 -31t57.5 -66v84h93v-732h-93v279zM376.5 121q36.5 52 36.5 148t-36 147.5t-103 51.5t-103.5 -51.5t-36.5 -147.5t36.5 -148t103.5 -52q66 0 102.5 52z" />
    <glyph glyph-name="r" unicode="r" horiz-adv-x="436" 
d="M83 537h92v-77q21 42 56.5 66t80.5 24q61 0 107 -37l-38 -84q-37 32 -82 32q-34 0 -62.5 -20.5t-45 -57.5t-16.5 -84v-299h-92v537z" />
    <glyph glyph-name="s" unicode="s" horiz-adv-x="484" 
d="M112 21.5q-54 34.5 -77 84.5l62 47q21 -38 59 -63t88 -25q41 0 70 21.5t29 53.5q0 24 -16 40.5t-39 27t-66 25.5q-55 18 -88.5 34.5t-57.5 46.5t-24 77q0 71 52 115t136 44q72 0 124 -30t73 -73l-62 -48q-19 33 -54.5 53t-78.5 20q-42 0 -68.5 -20.5t-26.5 -53.5
q0 -23 15.5 -39.5t38.5 -26.5t65 -25q55 -18 89 -35t58.5 -48t24.5 -79q0 -47 -25.5 -83t-69 -55.5t-95.5 -19.5q-82 0 -136 34.5z" />
    <glyph glyph-name="t" unicode="t" horiz-adv-x="405" 
d="M156 27.5q-40 40.5 -40 120.5v305h-98v84h98v153l93 17v-170h142v-84h-142v-287q0 -46 18.5 -67.5t55.5 -21.5q35 0 77 21l10 -88q-53 -23 -102 -23q-72 0 -112 40.5z" />
    <glyph glyph-name="u" unicode="u" horiz-adv-x="559" 
d="M140 10q-40 23 -62.5 64t-22.5 93v370h93v-354q0 -53 29.5 -83t77.5 -30q33 0 62 17t46.5 48.5t17.5 74.5v327h93v-382q0 -41 6 -83.5t16 -71.5h-91q-14 30 -17 75q-19 -37 -62 -62.5t-95 -25.5q-51 0 -91 23z" />
    <glyph glyph-name="v" unicode="v" horiz-adv-x="556" 
d="M227 0l-202 537h96l158 -438l158 438h94l-203 -537h-101z" />
    <glyph glyph-name="w" unicode="w" horiz-adv-x="859" 
d="M198 0l-159 537h91l121 -429l129 429h101l126 -429l122 429h91l-159 -537h-102l-129 427l-130 -427h-102z" />
    <glyph glyph-name="x" unicode="x" horiz-adv-x="525" 
d="M498 0h-112l-129 193l-125 -193h-107l182 268l-180 269h111l127 -189l126 189h106l-183 -263z" />
    <glyph glyph-name="y" unicode="y" horiz-adv-x="547" 
d="M512 537l-202 -561q-34 -97 -105.5 -140.5t-162.5 -43.5l-6 85q62 0 112 27t74 89l-215 544h102l158 -416l147 416h98z" />
    <glyph glyph-name="z" unicode="z" horiz-adv-x="507" 
d="M41 0l-1 76l294 377h-289v84h404v-70l-294 -383h302v-84h-416z" />
    <glyph glyph-name="braceleft" unicode="{" horiz-adv-x="302" 
d="M130.5 -163.5q-39.5 36.5 -39.5 107.5q0 30 7 66t21 99q2 10 12 54.5t10 68.5q0 33 -18 48t-54 17v71q36 2 54 17t18 47q0 19 -7 53.5t-15 70.5q-28 116 -28 165q0 70 39.5 107t100.5 37q36 0 72 -12l-9 -65q-24 8 -49 8q-36 0 -57.5 -20t-21.5 -60q0 -27 6.5 -62
t19.5 -86q2 -11 9 -41.5t10.5 -52.5t3.5 -37q0 -52 -25 -74.5t-52 -29.5v-1q27 -7 52 -30t25 -74q0 -19 -5.5 -50t-10.5 -52t-7 -30q-13 -51 -19.5 -86t-6.5 -62q0 -40 21.5 -59.5t57.5 -19.5q28 0 49 7l9 -65q-38 -11 -72 -11q-61 0 -100.5 36.5z" />
    <glyph glyph-name="bar" unicode="|" horiz-adv-x="272" 
d="M97 -230v1000h78v-1000h-78z" />
    <glyph glyph-name="braceright" unicode="}" horiz-adv-x="302" 
d="M-1 -189l9 65q21 -7 49 -7q36 0 57.5 19.5t21.5 59.5q0 27 -6.5 62t-19.5 86l-9 40.5t-10.5 54t-3.5 37.5q0 51 25 74t52 30v1q-27 7 -52 29.5t-25 74.5q0 19 5.5 49t10.5 50.5t7 31.5q13 51 19.5 86t6.5 62q0 40 -21.5 60t-57.5 20q-25 0 -49 -8l-9 65q36 12 72 12
q61 0 100.5 -37t39.5 -107q0 -49 -28 -165q-8 -36 -15 -70.5t-7 -53.5q0 -32 18 -47t54 -17v-71q-36 -2 -54 -17t-18 -48q0 -24 10 -68.5t12 -54.5q14 -62 21 -98.5t7 -66.5q0 -71 -39.5 -107.5t-100.5 -36.5q-34 0 -72 11z" />
    <glyph glyph-name="asciitilde" unicode="~" horiz-adv-x="542" 
d="M51 335q0 48 28 80.5t75 32.5q36 0 116 -12q74 -10 101 -10q50 0 53 56l67 -14q-2 -48 -31 -80.5t-81 -32.5q-38 0 -118 12q-74 10 -94 10q-24 0 -36.5 -15t-12.5 -41z" />
    <glyph glyph-name="uni00A0" unicode="&#xa0;" horiz-adv-x="136" 
 />
    <glyph glyph-name="exclamdown" unicode="&#xa1;" horiz-adv-x="306" 
d="M193.5 534.5q16.5 -15.5 16.5 -41.5q0 -25 -16.5 -40.5t-40.5 -15.5q-23 0 -39.5 15.5t-16.5 40.5q0 26 16.5 41.5t39.5 15.5q24 0 40.5 -15.5zM110 350h88l4 -502h-97z" />
    <glyph glyph-name="cent" unicode="&#xa2;" horiz-adv-x="533" 
d="M419.5 114.5q-52.5 -40.5 -120.5 -45.5v-69h-47v70q-60 7 -106.5 42t-72.5 96t-26 142q0 80 26 140.5t72.5 96t106.5 42.5v66h47v-65q73 -4 122.5 -45.5t61.5 -98.5l-86 -26q-12 36 -37.5 59t-60.5 29v-397q37 5 65.5 27.5t42.5 56.5l84 -18q-19 -62 -71.5 -102.5z
M171.5 217q29.5 -53 80.5 -64v393q-51 -11 -80.5 -63.5t-29.5 -132.5t29.5 -133z" />
    <glyph glyph-name="sterling" unicode="&#xa3;" horiz-adv-x="567" 
d="M510 83v-83h-435v80q41 25 65.5 76t24.5 104q0 25 -5 53h-105v58h91q-2 8 -11 39.5t-14 59.5t-5 52q0 88 52.5 137t135.5 49q81 0 132 -37t73 -100l-90 -29q-18 39 -44 60t-68 21q-40 0 -67 -26t-27 -75q0 -29 6 -56.5t18 -70.5l7 -24h170v-58h-157q5 -28 5 -53
q0 -51 -23.5 -101.5t-53.5 -75.5h325z" />
    <glyph glyph-name="currency" unicode="&#xa4;" horiz-adv-x="521" 
d="M45 186l79 80q-26 36 -26 89q0 52 26 90l-79 79l32 32l76 -78q46 41 107 41q63 0 107 -41l77 78l32 -32l-79 -79q26 -40 26 -90q0 -53 -26 -89l79 -80l-32 -32l-77 78q-44 -41 -107 -41q-61 0 -107 41l-76 -78zM323.5 292q26.5 26 26.5 63t-26.5 63.5t-63.5 26.5
t-63 -26.5t-26 -63.5t26 -63t63 -26t63.5 26z" />
    <glyph glyph-name="yen" unicode="&#xa5;" horiz-adv-x="620" 
d="M593 695l-210 -395h152v-57h-177v-82h177v-57h-177v-104h-95v104h-178v57h178v82h-178v57h153l-211 395h107l177 -341l175 341h107z" />
    <glyph glyph-name="brokenbar" unicode="&#xa6;" horiz-adv-x="272" 
d="M97 378v392h78v-392h-78zM97 -230v392h78v-392h-78z" />
    <glyph glyph-name="section" unicode="&#xa7;" horiz-adv-x="433" 
d="M101.5 -132.5q-30.5 29.5 -30.5 66.5q0 25 15 42.5t42 17.5q25 0 39 -15t14 -35t-14 -34t-40 -14q8 -11 23 -17t31 -6q29 0 49 18.5t20 55.5q0 39 -23 85t-71 122l-24 38q-51 79 -77 140t-26 134q0 70 28.5 125t77.5 86t109 31q55 0 85.5 -29.5t30.5 -66.5
q0 -25 -15 -42.5t-42 -17.5q-25 0 -38.5 14.5t-13.5 34.5t14 34.5t39 14.5q-7 10 -20.5 15t-28.5 5q-30 0 -52.5 -20t-22.5 -59q0 -34 20 -72t62 -102l18 -28q59 -91 92 -162t33 -149q0 -65 -31 -120t-81.5 -87.5t-105.5 -32.5t-85.5 29.5zM330 -1q18 37 18 79q0 58 -30 123
t-82 147l-11 17q-39 62 -59.5 101.5t-25.5 75.5q-3 15 -3 31q0 20 4 32q-22 -17 -38.5 -56.5t-16.5 -79.5q0 -63 22.5 -115.5t74.5 -132.5q55 -84 83.5 -139.5t28.5 -104.5q0 -15 -5 -33q22 18 40 55z" />
    <glyph glyph-name="dieresis" unicode="&#xa8;" horiz-adv-x="606" 
d="M149 637.5q-15 13.5 -15 36.5q0 24 15 37.5t36 13.5t36 -13.5t15 -37.5q0 -23 -15 -36.5t-36 -13.5t-36 13.5zM330 637.5q-15 13.5 -15 36.5q0 24 15 37.5t36 13.5t36 -13.5t15 -37.5q0 -23 -15 -36.5t-36 -13.5t-36 13.5z" />
    <glyph glyph-name="copyright" unicode="&#xa9;" horiz-adv-x="696" 
d="M187.5 32.5q-69.5 45.5 -108 127.5t-38.5 188q0 108 38.5 189.5t108 126.5t160.5 45t160.5 -45t108 -126.5t38.5 -189.5q0 -106 -38.5 -188t-108 -127.5t-160.5 -45.5t-160.5 45.5zM480.5 78.5q57.5 38.5 89 108.5t31.5 161q0 92 -31.5 161.5t-89 107.5t-132.5 38
t-132.5 -38t-89 -107.5t-31.5 -161.5q0 -91 31.5 -161t89 -108.5t132.5 -38.5t132.5 38.5zM228.5 188q-46.5 62 -46.5 159q0 64 21 114.5t60.5 79.5t92.5 29q35 0 71 -17t54 -49l-39 -41q-15 22 -36.5 34.5t-44.5 12.5q-52 0 -81.5 -44t-29.5 -119q0 -74 29.5 -117t81.5 -43
q25 0 48 12t39 33l39 -41q-22 -32 -57.5 -48.5t-73.5 -16.5q-81 0 -127.5 62z" />
    <glyph glyph-name="ordfeminine" unicode="&#xaa;" horiz-adv-x="367" 
d="M76.5 388q-27.5 25 -27.5 67q0 48 33 72t94 24h62v36q0 25 -16 41t-41 16q-22 0 -37.5 -11.5t-23.5 -31.5l-59 16q10 32 41 58t79 26q55 0 89.5 -31t34.5 -85v-118q0 -66 13 -96h-69q-8 15 -9 38q-13 -20 -38.5 -33t-55.5 -13q-42 0 -69.5 25zM214 433q24 19 24 45v31
h-62q-67 0 -67 -50q0 -20 14.5 -32.5t37.5 -12.5q29 0 53 19z" />
    <glyph glyph-name="guillemotleft" unicode="&#xab;" horiz-adv-x="468" 
d="M351 131l-118 192l118 192l62 -21l-99 -171l99 -171zM173 131l-118 192l118 192l62 -21l-99 -171l99 -171z" />
    <glyph glyph-name="logicalnot" unicode="&#xac;" horiz-adv-x="572" 
d="M517 390v-257h-77v174h-385v83h462z" />
    <glyph glyph-name="uni00AD" unicode="&#xad;" horiz-adv-x="462" 
d="M65 287v92h332v-92h-332z" />
    <glyph glyph-name="registered" unicode="&#xae;" horiz-adv-x="444" 
d="M116 452q-41 41 -41 107q0 67 40.5 108t106.5 41t106.5 -41t40.5 -108q0 -66 -40.5 -107t-106.5 -41q-65 0 -106 41zM304 474q31 31 31 85t-31 85.5t-82 31.5t-82 -31.5t-31 -85.5t31 -85t82 -31t82 31zM174 638h49q25 0 40.5 -14.5t15.5 -36.5q0 -15 -7 -26t-18 -17
l29 -57l-36 -1l-22 51h-17v-50h-34v151zM221 565q23 0 23 22t-23 22h-13v-44h13z" />
    <glyph glyph-name="macron" unicode="&#xaf;" horiz-adv-x="606" 
d="M409 708v-70h-267v70h267z" />
    <glyph glyph-name="degree" unicode="&#xb0;" horiz-adv-x="406" 
d="M139.5 469q-29.5 17 -47 46.5t-17.5 64.5q0 34 17.5 63.5t47 47t64.5 17.5q34 0 63.5 -17.5t46.5 -47t17 -63.5q0 -35 -17 -64.5t-46.5 -46.5t-63.5 -17q-35 0 -64.5 17zM257.5 525q22.5 23 22.5 55t-22.5 55t-53.5 23q-33 0 -55.5 -23t-22.5 -55t22.5 -55t55.5 -23
q31 0 53.5 23z" />
    <glyph glyph-name="plusminus" unicode="&#xb1;" horiz-adv-x="572" 
d="M329 426h188v-83h-188v-186h-86v186h-188v83h188v184h86v-184zM55 0v83h462v-83h-462z" />
    <glyph glyph-name="uni00B2" unicode="&#xb2;" horiz-adv-x="275" 
d="M21 399l121 114q29 28 39.5 45.5t10.5 37.5q0 24 -16 39t-43 15q-22 0 -39 -10.5t-24 -29.5l-56 16q10 32 41.5 53.5t78.5 21.5q56 0 88 -28t32 -72q0 -32 -15 -58.5t-50 -59.5l-86 -82h156v-54h-238v52z" />
    <glyph glyph-name="uni00B3" unicode="&#xb3;" horiz-adv-x="287" 
d="M69.5 362.5q-32.5 22.5 -44.5 57.5l54 18q8 -21 27 -33.5t47 -12.5q25 0 43 14.5t18 40.5t-20 40t-49 14h-39v47h39q28 0 45 12.5t17 40.5q0 22 -16 35.5t-39 13.5t-38 -11t-22 -29l-56 16q10 32 40 53.5t76 21.5q51 0 83 -25t32 -67q0 -31 -14 -50.5t-38 -27.5v-1
q24 -7 41.5 -28.5t17.5 -55.5q0 -47 -34 -76.5t-88 -29.5q-50 0 -82.5 22.5z" />
    <glyph glyph-name="acute" unicode="&#xb4;" horiz-adv-x="606" 
d="M163 598l-30 62l253 128l33 -69z" />
    <glyph glyph-name="uni00B5" unicode="&#xb5;" horiz-adv-x="559" 
d="M480 71.5q6 -42.5 16 -71.5h-91q-14 30 -17 75q-19 -37 -62 -62.5t-95 -25.5t-94 25l8 -207h-90v732h93v-354q0 -53 29.5 -83t77.5 -30q33 0 62 17t46.5 48.5t17.5 74.5v327h93v-382q0 -41 6 -83.5z" />
    <glyph glyph-name="paragraph" unicode="&#xb6;" horiz-adv-x="485" 
d="M257 251q-71 0 -121 31.5t-75.5 82t-25.5 108.5t25.5 108.5t75.5 82t121 31.5h65v-813h-65v369zM376 -118v813h65v-813h-65z" />
    <glyph glyph-name="periodcentered" unicode="&#xb7;" horiz-adv-x="254" 
d="M87.5 304.5q-16.5 15.5 -16.5 41.5q0 25 16.5 40.5t39.5 15.5q24 0 40.5 -15.5t16.5 -40.5q0 -26 -16.5 -41.5t-40.5 -15.5q-23 0 -39.5 15.5z" />
    <glyph glyph-name="cedilla" unicode="&#xb8;" horiz-adv-x="606" 
d="M218 -200q-25 7 -43 18l17 40q36 -22 73 -22q25 0 38.5 11t13.5 25t-12 24t-33 10q-24 0 -41 -11l-38 21l57 84h62l-42 -55q15 5 31 5q40 0 63.5 -22.5t23.5 -52.5q0 -34 -30.5 -58t-88.5 -24q-26 0 -51 7z" />
    <glyph glyph-name="uni00B9" unicode="&#xb9;" horiz-adv-x="192" 
d="M94 347v284l-73 -42l-6 54l85 52h52v-348h-58z" />
    <glyph glyph-name="ordmasculine" unicode="&#xba;" horiz-adv-x="351" 
d="M71.5 407q-38.5 44 -38.5 125t38.5 125t103.5 44q66 0 104.5 -44t38.5 -125t-38.5 -125t-104.5 -44q-65 0 -103.5 44zM232 449q20 29 20 83t-20 83t-57 29t-56.5 -29t-19.5 -83t19.5 -83t56.5 -29t57 29z" />
    <glyph glyph-name="guillemotright" unicode="&#xbb;" horiz-adv-x="468" 
d="M295 131l-62 21l99 171l-99 171l62 21l118 -192zM117 131l-62 21l99 171l-99 171l62 21l118 -192z" />
    <glyph glyph-name="onequarter" unicode="&#xbc;" horiz-adv-x="613" 
d="M94 347v284l-73 -42l-6 54l85 52h52v-348h-58zM132 0h-69l328 695h69zM501 0v76h-153v47l99 225h60l-96 -222h90v86h55v-86h41v-50h-41v-76h-55z" />
    <glyph glyph-name="onehalf" unicode="&#xbd;" horiz-adv-x="606" 
d="M94 347v284l-73 -42l-6 54l85 52h52v-348h-58zM132 0h-69l328 695h69zM352 52l121 114q29 28 39.5 45.5t10.5 37.5q0 24 -16 39t-43 15q-22 0 -39 -10.5t-24 -29.5l-56 16q10 32 41.5 53.5t78.5 21.5q56 0 88 -28t32 -72q0 -32 -15 -58.5t-50 -59.5l-86 -82h156v-54h-238
v52z" />
    <glyph glyph-name="threequarters" unicode="&#xbe;" horiz-adv-x="708" 
d="M60.5 362.5q-32.5 22.5 -44.5 57.5l54 18q8 -21 27 -33.5t47 -12.5q25 0 43 14.5t18 40.5t-20 40t-49 14h-39v47h39q28 0 45 12.5t17 40.5q0 22 -16 35.5t-39 13.5t-38 -11t-22 -29l-56 16q10 32 40 53.5t76 21.5q51 0 83 -25t32 -67q0 -31 -14 -50.5t-38 -27.5v-1
q24 -7 41.5 -28.5t17.5 -55.5q0 -47 -34 -76.5t-88 -29.5q-50 0 -82.5 22.5zM227 0h-69l328 695h69zM596 0v76h-153v47l99 225h60l-96 -222h90v86h55v-86h41v-50h-41v-76h-55z" />
    <glyph glyph-name="questiondown" unicode="&#xbf;" horiz-adv-x="461" 
d="M294.5 534.5q16.5 -15.5 16.5 -41.5q0 -25 -16.5 -40.5t-39.5 -15.5q-24 0 -40.5 15.5t-16.5 40.5q0 26 16.5 41.5t40.5 15.5q23 0 39.5 -15.5zM303 303q0 -44 -14.5 -75t-35.5 -50t-55 -43q-42 -29 -61.5 -51.5t-19.5 -59.5q0 -48 34.5 -76t83.5 -28q41 0 74.5 21
t51.5 60l91 -29q-28 -67 -84.5 -102t-136.5 -35q-56 0 -104.5 21.5t-78 63t-29.5 99.5q0 36 13.5 63t33 45.5t51.5 42.5q45 34 68 62.5t23 73.5v44h95v-47z" />
    <glyph glyph-name="Agrave" unicode="&#xc0;" horiz-adv-x="615" 
d="M495 0l-52 163h-275l-52 -163h-97l229 695h120l228 -695h-101zM193 245h223l-112 350zM417 758l-258 117l32 69l255 -124z" />
    <glyph glyph-name="Aacute" unicode="&#xc1;" horiz-adv-x="615" 
d="M495 0l-52 163h-275l-52 -163h-97l229 695h120l228 -695h-101zM193 245h223l-112 350zM186 758l-29 62l255 124l32 -69z" />
    <glyph glyph-name="Acircumflex" unicode="&#xc2;" horiz-adv-x="615" 
d="M495 0l-52 163h-275l-52 -163h-97l229 695h120l228 -695h-101zM193 245h223l-112 350zM213 753l-57 28l117 145h70l117 -145l-57 -28l-95 103z" />
    <glyph glyph-name="Atilde" unicode="&#xc3;" horiz-adv-x="615" 
d="M495 0l-52 163h-275l-52 -163h-97l229 695h120l228 -695h-101zM193 245h223l-112 350zM161 790q4 41 25.5 65.5t57.5 24.5q23 0 65 -8q36 -6 48 -6q18 0 26 11.5t9 32.5l63 -14q-5 -44 -29 -70t-65 -26q-24 0 -64 8q-32 6 -40 6q-17 0 -24.5 -9.5t-9.5 -29.5z" />
    <glyph glyph-name="Adieresis" unicode="&#xc4;" horiz-adv-x="615" 
d="M495 0l-52 163h-275l-52 -163h-97l229 695h120l228 -695h-101zM193 245h223l-112 350zM181 795.5q-15 13.5 -15 36.5q0 24 15 37.5t36 13.5t36 -13.5t15 -37.5q0 -23 -15 -36.5t-36 -13.5t-36 13.5zM362 795.5q-15 13.5 -15 36.5q0 24 15 37.5t36 13.5t36 -13.5t15 -37.5
q0 -23 -15 -36.5t-36 -13.5t-36 13.5z" />
    <glyph glyph-name="Aring" unicode="&#xc5;" horiz-adv-x="615" 
d="M495 0l-52 163h-275l-52 -163h-97l229 695h120l228 -695h-101zM193 245h223l-112 350zM377 915q27 -26 27 -67t-27 -67t-69 -26t-68.5 26t-26.5 67t26.5 67t68.5 26t69 -26zM275.5 882q-12.5 -13 -12.5 -34q0 -22 12.5 -35t32.5 -13t33 13.5t13 34.5t-13 34t-33 13
t-32.5 -13z" />
    <glyph glyph-name="AE" unicode="&#xc6;" horiz-adv-x="955" 
d="M548 83h338v-83h-433v184h-224l-97 -184h-98l372 695h453v-83h-311v-222h272v-82h-272v-225zM272 266h181v342z" />
    <glyph glyph-name="Ccedilla" unicode="&#xc7;" horiz-adv-x="643" 
d="M523 34.5q-58 -42.5 -143 -46.5l-32 -43q15 5 31 5q40 0 63.5 -22.5t23.5 -52.5q0 -34 -30.5 -58t-88.5 -24q-26 0 -51 7t-43 18l17 40q36 -22 73 -22q25 0 38.5 11t13.5 25t-12 24t-33 10q-24 0 -41 -11l-38 21l50 73q-78 9 -138 53t-94 121.5t-34 184.5
q0 115 39.5 196.5t108.5 122.5t157 41q92 0 155 -43.5t86 -106.5l-88 -28q-46 93 -152 93q-95 0 -152 -69.5t-57 -205.5q0 -137 57.5 -206.5t153.5 -69.5q107 0 153 93l87 -28q-22 -60 -80 -102.5z" />
    <glyph glyph-name="Egrave" unicode="&#xc8;" horiz-adv-x="598" 
d="M97 0v695h406v-83h-311v-222h271v-82h-271v-225h338v-83h-433zM411 758l-258 117l32 69l255 -124z" />
    <glyph glyph-name="Eacute" unicode="&#xc9;" horiz-adv-x="598" 
d="M97 0v695h406v-83h-311v-222h271v-82h-271v-225h338v-83h-433zM180 758l-29 62l255 124l32 -69z" />
    <glyph glyph-name="Ecircumflex" unicode="&#xca;" horiz-adv-x="598" 
d="M97 0v695h406v-83h-311v-222h271v-82h-271v-225h338v-83h-433zM207 753l-57 28l117 145h70l117 -145l-57 -28l-95 103z" />
    <glyph glyph-name="Edieresis" unicode="&#xcb;" horiz-adv-x="598" 
d="M97 0v695h406v-83h-311v-222h271v-82h-271v-225h338v-83h-433zM175 795.5q-15 13.5 -15 36.5q0 24 15 37.5t36 13.5t36 -13.5t15 -37.5q0 -23 -15 -36.5t-36 -13.5t-36 13.5zM356 795.5q-15 13.5 -15 36.5q0 24 15 37.5t36 13.5t36 -13.5t15 -37.5q0 -23 -15 -36.5
t-36 -13.5t-36 13.5z" />
    <glyph glyph-name="Igrave" unicode="&#xcc;" horiz-adv-x="288" 
d="M97 0v695h95v-695h-95zM253 758l-258 117l32 69l255 -124z" />
    <glyph glyph-name="Iacute" unicode="&#xcd;" horiz-adv-x="288" 
d="M97 0v695h95v-695h-95zM22 758l-29 62l255 124l32 -69z" />
    <glyph glyph-name="Icircumflex" unicode="&#xce;" horiz-adv-x="288" 
d="M97 0v695h95v-695h-95zM49 753l-57 28l117 145h70l117 -145l-57 -28l-95 103z" />
    <glyph glyph-name="Idieresis" unicode="&#xcf;" horiz-adv-x="288" 
d="M97 0v695h95v-695h-95zM17 795.5q-15 13.5 -15 36.5q0 24 15 37.5t36 13.5t36 -13.5t15 -37.5q0 -23 -15 -36.5t-36 -13.5t-36 13.5zM198 795.5q-15 13.5 -15 36.5q0 24 15 37.5t36 13.5t36 -13.5t15 -37.5q0 -23 -15 -36.5t-36 -13.5t-36 13.5z" />
    <glyph glyph-name="Eth" unicode="&#xd0;" horiz-adv-x="681" 
d="M467.5 658.5q72.5 -36.5 115.5 -114.5t43 -197t-43 -196.5t-115.5 -114t-164.5 -36.5h-206v311h-84v75h84v309h206q92 0 164.5 -36.5zM462 144.5q67 61.5 67 202.5t-66.5 203t-169.5 62h-101v-226h154v-75h-154v-228h101q102 0 169 61.5z" />
    <glyph glyph-name="Ntilde" unicode="&#xd1;" horiz-adv-x="724" 
d="M97 0v695h91l345 -528v528h95v-695h-91l-345 529v-529h-95zM210 790q4 41 25.5 65.5t57.5 24.5q23 0 65 -8q36 -6 48 -6q18 0 26 11.5t9 32.5l63 -14q-5 -44 -29 -70t-65 -26q-24 0 -64 8q-32 6 -40 6q-17 0 -24.5 -9.5t-9.5 -29.5z" />
    <glyph glyph-name="Ograve" unicode="&#xd2;" horiz-adv-x="681" 
d="M131 79q-76 92 -76 269t76 268.5t209 91.5q134 0 210 -91.5t76 -268.5t-76 -269t-210 -92q-133 0 -209 92zM479 138.5q50 66.5 50 209.5q0 142 -50 208.5t-139 66.5t-138.5 -66.5t-49.5 -208.5q0 -143 49.5 -209.5t138.5 -66.5t139 66.5zM450 758l-258 117l32 69
l255 -124z" />
    <glyph glyph-name="Oacute" unicode="&#xd3;" horiz-adv-x="681" 
d="M131 79q-76 92 -76 269t76 268.5t209 91.5q134 0 210 -91.5t76 -268.5t-76 -269t-210 -92q-133 0 -209 92zM479 138.5q50 66.5 50 209.5q0 142 -50 208.5t-139 66.5t-138.5 -66.5t-49.5 -208.5q0 -143 49.5 -209.5t138.5 -66.5t139 66.5zM219 758l-29 62l255 124l32 -69z
" />
    <glyph glyph-name="Ocircumflex" unicode="&#xd4;" horiz-adv-x="681" 
d="M131 79q-76 92 -76 269t76 268.5t209 91.5q134 0 210 -91.5t76 -268.5t-76 -269t-210 -92q-133 0 -209 92zM479 138.5q50 66.5 50 209.5q0 142 -50 208.5t-139 66.5t-138.5 -66.5t-49.5 -208.5q0 -143 49.5 -209.5t138.5 -66.5t139 66.5zM246 753l-57 28l117 145h70
l117 -145l-57 -28l-95 103z" />
    <glyph glyph-name="Otilde" unicode="&#xd5;" horiz-adv-x="681" 
d="M131 79q-76 92 -76 269t76 268.5t209 91.5q134 0 210 -91.5t76 -268.5t-76 -269t-210 -92q-133 0 -209 92zM479 138.5q50 66.5 50 209.5q0 142 -50 208.5t-139 66.5t-138.5 -66.5t-49.5 -208.5q0 -143 49.5 -209.5t138.5 -66.5t139 66.5zM194 790q4 41 25.5 65.5
t57.5 24.5q23 0 65 -8q36 -6 48 -6q18 0 26 11.5t9 32.5l63 -14q-5 -44 -29 -70t-65 -26q-24 0 -64 8q-32 6 -40 6q-17 0 -24.5 -9.5t-9.5 -29.5z" />
    <glyph glyph-name="Odieresis" unicode="&#xd6;" horiz-adv-x="681" 
d="M131 79q-76 92 -76 269t76 268.5t209 91.5q134 0 210 -91.5t76 -268.5t-76 -269t-210 -92q-133 0 -209 92zM479 138.5q50 66.5 50 209.5q0 142 -50 208.5t-139 66.5t-138.5 -66.5t-49.5 -208.5q0 -143 49.5 -209.5t138.5 -66.5t139 66.5zM214 795.5q-15 13.5 -15 36.5
q0 24 15 37.5t36 13.5t36 -13.5t15 -37.5q0 -23 -15 -36.5t-36 -13.5t-36 13.5zM395 795.5q-15 13.5 -15 36.5q0 24 15 37.5t36 13.5t36 -13.5t15 -37.5q0 -23 -15 -36.5t-36 -13.5t-36 13.5z" />
    <glyph glyph-name="multiply" unicode="&#xd7;" horiz-adv-x="566" 
d="M511 506l-169 -169l169 -170l-59 -59l-169 170l-170 -170l-58 59l169 169l-169 170l59 58l169 -169l169 169z" />
    <glyph glyph-name="Oslash" unicode="&#xd8;" horiz-adv-x="681" 
d="M596 534.5q30 -77.5 30 -186.5q0 -177 -76 -269t-210 -92q-56 0 -105 17l-30 -71l-65 21l35 83q-58 43 -89 121t-31 190q0 177 76 268.5t209 91.5q63 0 111 -19l26 62l65 -21l-32 -75q56 -43 86 -120.5zM212 125l205 483q-34 15 -77 15q-89 0 -138.5 -66.5t-49.5 -208.5
q0 -155 60 -223zM479 138.5q50 66.5 50 209.5q0 147 -57 217l-203 -480q30 -13 71 -13q89 0 139 66.5z" />
    <glyph glyph-name="Ugrave" unicode="&#xd9;" horiz-adv-x="674" 
d="M158 55q-67 68 -67 201v439h95v-440q0 -84 35.5 -133.5t114.5 -49.5t115.5 49.5t36.5 133.5v440h95v-439q0 -133 -68 -201t-179 -68t-178 68zM446 758l-258 117l32 69l255 -124z" />
    <glyph glyph-name="Uacute" unicode="&#xda;" horiz-adv-x="674" 
d="M158 55q-67 68 -67 201v439h95v-440q0 -84 35.5 -133.5t114.5 -49.5t115.5 49.5t36.5 133.5v440h95v-439q0 -133 -68 -201t-179 -68t-178 68zM215 758l-29 62l255 124l32 -69z" />
    <glyph glyph-name="Ucircumflex" unicode="&#xdb;" horiz-adv-x="674" 
d="M158 55q-67 68 -67 201v439h95v-440q0 -84 35.5 -133.5t114.5 -49.5t115.5 49.5t36.5 133.5v440h95v-439q0 -133 -68 -201t-179 -68t-178 68zM242 753l-57 28l117 145h70l117 -145l-57 -28l-95 103z" />
    <glyph glyph-name="Udieresis" unicode="&#xdc;" horiz-adv-x="674" 
d="M158 55q-67 68 -67 201v439h95v-440q0 -84 35.5 -133.5t114.5 -49.5t115.5 49.5t36.5 133.5v440h95v-439q0 -133 -68 -201t-179 -68t-178 68zM210 795.5q-15 13.5 -15 36.5q0 24 15 37.5t36 13.5t36 -13.5t15 -37.5q0 -23 -15 -36.5t-36 -13.5t-36 13.5zM391 795.5
q-15 13.5 -15 36.5q0 24 15 37.5t36 13.5t36 -13.5t15 -37.5q0 -23 -15 -36.5t-36 -13.5t-36 13.5z" />
    <glyph glyph-name="Yacute" unicode="&#xdd;" horiz-adv-x="620" 
d="M263 0v253l-236 442h107l177 -341l175 341h107l-235 -442v-253h-95zM189 758l-29 62l255 124l32 -69z" />
    <glyph glyph-name="Thorn" unicode="&#xde;" horiz-adv-x="563" 
d="M97 695h95v-128h110q107 0 167 -56t60 -154q0 -105 -64 -163t-170 -58h-103v-136h-95v695zM290 212q66 0 104 37.5t38 105.5q0 63 -36.5 99t-101.5 36h-102v-278h98z" />
    <glyph glyph-name="germandbls" unicode="&#xdf;" horiz-adv-x="641" 
d="M301 18q-51 31 -81 74l48 58q22 -36 59.5 -61t86.5 -25q41 0 68.5 22t27.5 56q0 37 -26 57.5t-79 43.5q-40 16 -65 31t-42.5 39.5t-17.5 61.5q0 39 20 62.5t58 48.5q33 23 49 41t16 45q0 45 -34 70.5t-81 25.5q-53 0 -92 -33t-39 -92v-543h-94v540q0 70 32.5 117.5
t84.5 70t112 22.5q54 0 101.5 -20t76.5 -59t29 -93q0 -40 -20 -63t-59 -49q-31 -21 -47 -38t-16 -43q0 -27 21.5 -43.5t69.5 -38.5q43 -20 71 -38t48 -47.5t20 -72.5q0 -47 -25.5 -83t-69.5 -55.5t-96 -19.5q-64 0 -115 31z" />
    <glyph glyph-name="agrave" unicode="&#xe0;" horiz-adv-x="553" 
d="M96.5 28q-45.5 41 -45.5 110q0 79 56 120.5t156 41.5h110v61q0 48 -29.5 77.5t-76.5 29.5q-39 0 -68.5 -21t-42.5 -56l-86 23q11 33 37 64.5t67 51.5t92 20q91 0 146 -50.5t55 -139.5v-206q0 -103 23 -154h-99q-15 31 -16 72q-22 -38 -66 -61.5t-97 -23.5
q-70 0 -115.5 41zM305.5 81.5q30.5 15.5 49 41.5t18.5 56v55h-107q-120 0 -120 -89q0 -35 27 -57t69 -22q33 0 63.5 15.5zM392 600l-258 117l32 69l255 -124z" />
    <glyph glyph-name="aacute" unicode="&#xe1;" horiz-adv-x="553" 
d="M96.5 28q-45.5 41 -45.5 110q0 79 56 120.5t156 41.5h110v61q0 48 -29.5 77.5t-76.5 29.5q-39 0 -68.5 -21t-42.5 -56l-86 23q11 33 37 64.5t67 51.5t92 20q91 0 146 -50.5t55 -139.5v-206q0 -103 23 -154h-99q-15 31 -16 72q-22 -38 -66 -61.5t-97 -23.5
q-70 0 -115.5 41zM305.5 81.5q30.5 15.5 49 41.5t18.5 56v55h-107q-120 0 -120 -89q0 -35 27 -57t69 -22q33 0 63.5 15.5zM161 600l-29 62l255 124l32 -69z" />
    <glyph glyph-name="acircumflex" unicode="&#xe2;" horiz-adv-x="553" 
d="M96.5 28q-45.5 41 -45.5 110q0 79 56 120.5t156 41.5h110v61q0 48 -29.5 77.5t-76.5 29.5q-39 0 -68.5 -21t-42.5 -56l-86 23q11 33 37 64.5t67 51.5t92 20q91 0 146 -50.5t55 -139.5v-206q0 -103 23 -154h-99q-15 31 -16 72q-22 -38 -66 -61.5t-97 -23.5
q-70 0 -115.5 41zM305.5 81.5q30.5 15.5 49 41.5t18.5 56v55h-107q-120 0 -120 -89q0 -35 27 -57t69 -22q33 0 63.5 15.5zM188 595l-57 28l117 145h70l117 -145l-57 -28l-95 103z" />
    <glyph glyph-name="atilde" unicode="&#xe3;" horiz-adv-x="553" 
d="M96.5 28q-45.5 41 -45.5 110q0 79 56 120.5t156 41.5h110v61q0 48 -29.5 77.5t-76.5 29.5q-39 0 -68.5 -21t-42.5 -56l-86 23q11 33 37 64.5t67 51.5t92 20q91 0 146 -50.5t55 -139.5v-206q0 -103 23 -154h-99q-15 31 -16 72q-22 -38 -66 -61.5t-97 -23.5
q-70 0 -115.5 41zM305.5 81.5q30.5 15.5 49 41.5t18.5 56v55h-107q-120 0 -120 -89q0 -35 27 -57t69 -22q33 0 63.5 15.5zM136 632q4 41 25.5 65.5t57.5 24.5q23 0 65 -8q36 -6 48 -6q18 0 26 11.5t9 32.5l63 -14q-5 -44 -29 -70t-65 -26q-24 0 -64 8q-32 6 -40 6
q-17 0 -24.5 -9.5t-9.5 -29.5z" />
    <glyph glyph-name="adieresis" unicode="&#xe4;" horiz-adv-x="553" 
d="M96.5 28q-45.5 41 -45.5 110q0 79 56 120.5t156 41.5h110v61q0 48 -29.5 77.5t-76.5 29.5q-39 0 -68.5 -21t-42.5 -56l-86 23q11 33 37 64.5t67 51.5t92 20q91 0 146 -50.5t55 -139.5v-206q0 -103 23 -154h-99q-15 31 -16 72q-22 -38 -66 -61.5t-97 -23.5
q-70 0 -115.5 41zM305.5 81.5q30.5 15.5 49 41.5t18.5 56v55h-107q-120 0 -120 -89q0 -35 27 -57t69 -22q33 0 63.5 15.5zM156 637.5q-15 13.5 -15 36.5q0 24 15 37.5t36 13.5t36 -13.5t15 -37.5q0 -23 -15 -36.5t-36 -13.5t-36 13.5zM337 637.5q-15 13.5 -15 36.5
q0 24 15 37.5t36 13.5t36 -13.5t15 -37.5q0 -23 -15 -36.5t-36 -13.5t-36 13.5z" />
    <glyph glyph-name="aring" unicode="&#xe5;" horiz-adv-x="553" 
d="M96.5 28q-45.5 41 -45.5 110q0 79 56 120.5t156 41.5h110v61q0 48 -29.5 77.5t-76.5 29.5q-39 0 -68.5 -21t-42.5 -56l-86 23q11 33 37 64.5t67 51.5t92 20q91 0 146 -50.5t55 -139.5v-206q0 -103 23 -154h-99q-15 31 -16 72q-22 -38 -66 -61.5t-97 -23.5
q-70 0 -115.5 41zM305.5 81.5q30.5 15.5 49 41.5t18.5 56v55h-107q-120 0 -120 -89q0 -35 27 -57t69 -22q33 0 63.5 15.5zM352 757q27 -26 27 -67t-27 -67t-69 -26t-68.5 26t-26.5 67t26.5 67t68.5 26t69 -26zM250.5 724q-12.5 -13 -12.5 -34q0 -22 12.5 -35t32.5 -13
t33 13.5t13 34.5t-13 34t-33 13t-32.5 -13z" />
    <glyph glyph-name="ae" unicode="&#xe6;" horiz-adv-x="876" 
d="M837 135q-23 -64 -84.5 -106t-135.5 -42q-62 0 -111.5 26t-81.5 74q-35 -48 -82.5 -74t-112.5 -26q-79 0 -128.5 45t-49.5 119q0 50 24.5 90t73 63t117.5 23h107v35q0 47 -29.5 76.5t-76.5 29.5q-38 0 -68 -21t-43 -56l-86 23q18 54 70 95t127 41q56 0 100 -20.5
t69 -57.5q31 38 75 58t97 20q68 0 119.5 -32t79 -87t27.5 -121v-69h-364q7 -80 47 -126t100 -46q48 0 83.5 22.5t53.5 64.5zM518 432q-35 -36 -45 -105h266q-1 63 -36.5 102t-95.5 39q-54 0 -89 -36zM373 241h-107q-61 0 -90.5 -22.5t-29.5 -67.5q0 -37 27 -60t69 -22
q34 -1 64 15t48.5 45.5t18.5 67.5v44z" />
    <glyph glyph-name="ccedilla" unicode="&#xe7;" horiz-adv-x="513" 
d="M413 35q-51 -40 -116 -47l-33 -43q15 5 31 5q40 0 63.5 -22.5t23.5 -52.5q0 -34 -30.5 -58t-88.5 -24q-26 0 -51 7t-43 18l17 40q36 -22 73 -22q25 0 38.5 11t13.5 25t-12 24t-33 10q-24 0 -41 -11l-38 21l50 74q-89 13 -143.5 86.5t-54.5 192.5q0 86 30.5 149.5t84 97.5
t120.5 34q53 0 96 -20t70 -53t35 -72l-86 -26q-14 41 -44.5 65t-73.5 24q-62 0 -99.5 -54.5t-37.5 -144.5q0 -91 37.5 -145.5t99.5 -54.5q44 0 77.5 23t50.5 62l84 -18q-19 -61 -70 -101z" />
    <glyph glyph-name="egrave" unicode="&#xe8;" horiz-adv-x="541" 
d="M502 135q-22 -64 -84 -106t-136 -42q-73 0 -128 35t-85 100t-30 152q0 83 29.5 145.5t82.5 96.5t123 34q67 0 118 -32.5t78.5 -87.5t27.5 -119v-61h-363q4 -86 44 -134.5t105 -48.5q46 0 82.5 23.5t52.5 65.5zM183.5 433q-35.5 -37 -45.5 -106h266q-2 63 -38 103t-93 40
q-54 0 -89.5 -37zM377 600l-258 117l32 69l255 -124z" />
    <glyph glyph-name="eacute" unicode="&#xe9;" horiz-adv-x="541" 
d="M502 135q-22 -64 -84 -106t-136 -42q-73 0 -128 35t-85 100t-30 152q0 83 29.5 145.5t82.5 96.5t123 34q67 0 118 -32.5t78.5 -87.5t27.5 -119v-61h-363q4 -86 44 -134.5t105 -48.5q46 0 82.5 23.5t52.5 65.5zM183.5 433q-35.5 -37 -45.5 -106h266q-2 63 -38 103t-93 40
q-54 0 -89.5 -37zM146 600l-29 62l255 124l32 -69z" />
    <glyph glyph-name="ecircumflex" unicode="&#xea;" horiz-adv-x="541" 
d="M502 135q-22 -64 -84 -106t-136 -42q-73 0 -128 35t-85 100t-30 152q0 83 29.5 145.5t82.5 96.5t123 34q67 0 118 -32.5t78.5 -87.5t27.5 -119v-61h-363q4 -86 44 -134.5t105 -48.5q46 0 82.5 23.5t52.5 65.5zM183.5 433q-35.5 -37 -45.5 -106h266q-2 63 -38 103t-93 40
q-54 0 -89.5 -37zM173 595l-57 28l117 145h70l117 -145l-57 -28l-95 103z" />
    <glyph glyph-name="edieresis" unicode="&#xeb;" horiz-adv-x="541" 
d="M502 135q-22 -64 -84 -106t-136 -42q-73 0 -128 35t-85 100t-30 152q0 83 29.5 145.5t82.5 96.5t123 34q67 0 118 -32.5t78.5 -87.5t27.5 -119v-61h-363q4 -86 44 -134.5t105 -48.5q46 0 82.5 23.5t52.5 65.5zM183.5 433q-35.5 -37 -45.5 -106h266q-2 63 -38 103t-93 40
q-54 0 -89.5 -37zM141 637.5q-15 13.5 -15 36.5q0 24 15 37.5t36 13.5t36 -13.5t15 -37.5q0 -23 -15 -36.5t-36 -13.5t-36 13.5zM322 637.5q-15 13.5 -15 36.5q0 24 15 37.5t36 13.5t36 -13.5t15 -37.5q0 -23 -15 -36.5t-36 -13.5t-36 13.5z" />
    <glyph glyph-name="igrave" unicode="&#xec;" horiz-adv-x="258" 
d="M83 0v537h92v-537h-92zM238 600l-258 117l32 69l255 -124z" />
    <glyph glyph-name="iacute" unicode="&#xed;" horiz-adv-x="258" 
d="M83 0v537h92v-537h-92zM7 600l-29 62l255 124l32 -69z" />
    <glyph glyph-name="icircumflex" unicode="&#xee;" horiz-adv-x="258" 
d="M83 0v537h92v-537h-92zM34 595l-57 28l117 145h70l117 -145l-57 -28l-95 103z" />
    <glyph glyph-name="idieresis" unicode="&#xef;" horiz-adv-x="258" 
d="M83 0v537h92v-537h-92zM2 637.5q-15 13.5 -15 36.5q0 24 15 37.5t36 13.5t36 -13.5t15 -37.5q0 -23 -15 -36.5t-36 -13.5t-36 13.5zM183 637.5q-15 13.5 -15 36.5q0 24 15 37.5t36 13.5t36 -13.5t15 -37.5q0 -23 -15 -36.5t-36 -13.5t-36 13.5z" />
    <glyph glyph-name="eth" unicode="&#xf0;" horiz-adv-x="532" 
d="M493 256q0 -85 -29 -145.5t-80.5 -92t-118.5 -31.5t-118 31.5t-79.5 92t-28.5 145.5t28.5 145t79.5 91t118 31q36 0 67 -9q-31 51 -70 91l-104 -48l-30 52l89 41q-47 42 -94 65l73 52q57 -32 106 -78l102 47l31 -51l-90 -41q67 -77 107.5 -176t40.5 -211v-1zM363.5 114.5
q34.5 48.5 34.5 141.5q0 91 -34.5 139.5t-98.5 48.5q-63 0 -97 -48.5t-34 -139.5q0 -93 34 -141.5t97 -48.5q64 0 98.5 48.5z" />
    <glyph glyph-name="ntilde" unicode="&#xf1;" horiz-adv-x="594" 
d="M83 537h90v-73q21 36 60 61t91 25q54 0 96.5 -24t67 -70.5t24.5 -110.5v-345h-93v326q0 64 -34 99.5t-87 35.5q-51 0 -87 -38t-36 -104v-319h-92v537zM150 632q4 41 25.5 65.5t57.5 24.5q23 0 65 -8q36 -6 48 -6q18 0 26 11.5t9 32.5l63 -14q-5 -44 -29 -70t-65 -26
q-24 0 -64 8q-32 6 -40 6q-17 0 -24.5 -9.5t-9.5 -29.5z" />
    <glyph glyph-name="ograve" unicode="&#xf2;" horiz-adv-x="547" 
d="M102 60.5q-63 73.5 -63 208.5t63 208t171 73q109 0 172 -73t63 -208q0 -136 -63 -209t-172 -73q-108 0 -171 73.5zM376.5 121q36.5 52 36.5 148t-36.5 147.5t-103.5 51.5t-103 -51.5t-36 -147.5q0 -97 36 -148.5t103 -51.5t103.5 52zM383 600l-258 117l32 69l255 -124z
" />
    <glyph glyph-name="oacute" unicode="&#xf3;" horiz-adv-x="547" 
d="M102 60.5q-63 73.5 -63 208.5t63 208t171 73q109 0 172 -73t63 -208q0 -136 -63 -209t-172 -73q-108 0 -171 73.5zM376.5 121q36.5 52 36.5 148t-36.5 147.5t-103.5 51.5t-103 -51.5t-36 -147.5q0 -97 36 -148.5t103 -51.5t103.5 52zM152 600l-29 62l255 124l32 -69z" />
    <glyph glyph-name="ocircumflex" unicode="&#xf4;" horiz-adv-x="547" 
d="M102 60.5q-63 73.5 -63 208.5t63 208t171 73q109 0 172 -73t63 -208q0 -136 -63 -209t-172 -73q-108 0 -171 73.5zM376.5 121q36.5 52 36.5 148t-36.5 147.5t-103.5 51.5t-103 -51.5t-36 -147.5q0 -97 36 -148.5t103 -51.5t103.5 52zM179 595l-57 28l117 145h70l117 -145
l-57 -28l-95 103z" />
    <glyph glyph-name="otilde" unicode="&#xf5;" horiz-adv-x="547" 
d="M102 60.5q-63 73.5 -63 208.5t63 208t171 73q109 0 172 -73t63 -208q0 -136 -63 -209t-172 -73q-108 0 -171 73.5zM376.5 121q36.5 52 36.5 148t-36.5 147.5t-103.5 51.5t-103 -51.5t-36 -147.5q0 -97 36 -148.5t103 -51.5t103.5 52zM127 632q4 41 25.5 65.5t57.5 24.5
q23 0 65 -8q36 -6 48 -6q18 0 26 11.5t9 32.5l63 -14q-5 -44 -29 -70t-65 -26q-24 0 -64 8q-32 6 -40 6q-17 0 -24.5 -9.5t-9.5 -29.5z" />
    <glyph glyph-name="odieresis" unicode="&#xf6;" horiz-adv-x="547" 
d="M102 60.5q-63 73.5 -63 208.5t63 208t171 73q109 0 172 -73t63 -208q0 -136 -63 -209t-172 -73q-108 0 -171 73.5zM376.5 121q36.5 52 36.5 148t-36.5 147.5t-103.5 51.5t-103 -51.5t-36 -147.5q0 -97 36 -148.5t103 -51.5t103.5 52zM147 637.5q-15 13.5 -15 36.5
q0 24 15 37.5t36 13.5t36 -13.5t15 -37.5q0 -23 -15 -36.5t-36 -13.5t-36 13.5zM328 637.5q-15 13.5 -15 36.5q0 24 15 37.5t36 13.5t36 -13.5t15 -37.5q0 -23 -15 -36.5t-36 -13.5t-36 13.5z" />
    <glyph glyph-name="divide" unicode="&#xf7;" horiz-adv-x="575" 
d="M237.5 100.5q-16.5 15.5 -16.5 41.5q0 25 16.5 40.5t39.5 15.5q24 0 40.5 -15.5t16.5 -40.5q0 -26 -16.5 -41.5t-40.5 -15.5q-23 0 -39.5 15.5zM55 307v83h462v-83h-462zM237.5 514.5q-16.5 15.5 -16.5 41.5q0 25 16.5 40.5t39.5 15.5q24 0 40.5 -15.5t16.5 -40.5
q0 -26 -16.5 -41.5t-40.5 -15.5q-23 0 -39.5 15.5z" />
    <glyph glyph-name="oslash" unicode="&#xf8;" horiz-adv-x="547" 
d="M486.5 405q21.5 -58 21.5 -136q0 -136 -63 -209t-172 -73q-61 0 -109 24l-29 -54l-47 27l31 58q-39 36 -59.5 93.5t-20.5 133.5q0 135 63 208t171 73q61 0 106 -22l33 62l47 -27l-35 -65q41 -35 62.5 -93zM165 128l173 324q-26 16 -65 16q-67 0 -103 -51.5t-36 -147.5
q0 -88 31 -141zM376.5 121q36.5 52 36.5 148q0 91 -34 144l-174 -326q29 -18 68 -18q67 0 103.5 52z" />
    <glyph glyph-name="ugrave" unicode="&#xf9;" horiz-adv-x="559" 
d="M140 10q-40 23 -62.5 64t-22.5 93v370h93v-354q0 -53 29.5 -83t77.5 -30q33 0 62 17t46.5 48.5t17.5 74.5v327h93v-382q0 -41 6 -83.5t16 -71.5h-91q-14 30 -17 75q-19 -37 -62 -62.5t-95 -25.5q-51 0 -91 23zM375 600l-258 117l32 69l255 -124z" />
    <glyph glyph-name="uacute" unicode="&#xfa;" horiz-adv-x="559" 
d="M140 10q-40 23 -62.5 64t-22.5 93v370h93v-354q0 -53 29.5 -83t77.5 -30q33 0 62 17t46.5 48.5t17.5 74.5v327h93v-382q0 -41 6 -83.5t16 -71.5h-91q-14 30 -17 75q-19 -37 -62 -62.5t-95 -25.5q-51 0 -91 23zM144 600l-29 62l255 124l32 -69z" />
    <glyph glyph-name="ucircumflex" unicode="&#xfb;" horiz-adv-x="559" 
d="M140 10q-40 23 -62.5 64t-22.5 93v370h93v-354q0 -53 29.5 -83t77.5 -30q33 0 62 17t46.5 48.5t17.5 74.5v327h93v-382q0 -41 6 -83.5t16 -71.5h-91q-14 30 -17 75q-19 -37 -62 -62.5t-95 -25.5q-51 0 -91 23zM171 595l-57 28l117 145h70l117 -145l-57 -28l-95 103z" />
    <glyph glyph-name="udieresis" unicode="&#xfc;" horiz-adv-x="559" 
d="M140 10q-40 23 -62.5 64t-22.5 93v370h93v-354q0 -53 29.5 -83t77.5 -30q33 0 62 17t46.5 48.5t17.5 74.5v327h93v-382q0 -41 6 -83.5t16 -71.5h-91q-14 30 -17 75q-19 -37 -62 -62.5t-95 -25.5q-51 0 -91 23zM139 637.5q-15 13.5 -15 36.5q0 24 15 37.5t36 13.5
t36 -13.5t15 -37.5q0 -23 -15 -36.5t-36 -13.5t-36 13.5zM320 637.5q-15 13.5 -15 36.5q0 24 15 37.5t36 13.5t36 -13.5t15 -37.5q0 -23 -15 -36.5t-36 -13.5t-36 13.5z" />
    <glyph glyph-name="yacute" unicode="&#xfd;" horiz-adv-x="547" 
d="M512 537l-202 -561q-34 -97 -105.5 -140.5t-162.5 -43.5l-6 85q62 0 112 27t74 89l-215 544h102l158 -416l147 416h98zM143 600l-29 62l255 124l32 -69z" />
    <glyph glyph-name="thorn" unicode="&#xfe;" horiz-adv-x="588" 
d="M447 518q48 -32 75 -95t27 -154q0 -136 -58.5 -209t-154.5 -73q-59 0 -99.5 28.5t-61.5 66.5v-277h-92v945h92v-304q16 41 57 72.5t104 31.5t111 -32zM417.5 121q36.5 52 36.5 148t-36.5 147.5t-103.5 51.5t-103 -51.5t-36 -147.5t36.5 -148t102.5 -52q67 0 103.5 52z
" />
    <glyph glyph-name="ydieresis" unicode="&#xff;" horiz-adv-x="547" 
d="M512 537l-202 -561q-34 -97 -105.5 -140.5t-162.5 -43.5l-6 85q62 0 112 27t74 89l-215 544h102l158 -416l147 416h98zM138 637.5q-15 13.5 -15 36.5q0 24 15 37.5t36 13.5t36 -13.5t15 -37.5q0 -23 -15 -36.5t-36 -13.5t-36 13.5zM319 637.5q-15 13.5 -15 36.5
q0 24 15 37.5t36 13.5t36 -13.5t15 -37.5q0 -23 -15 -36.5t-36 -13.5t-36 13.5z" />
    <glyph glyph-name="Amacron" unicode="&#x100;" horiz-adv-x="615" 
d="M495 0l-52 163h-275l-52 -163h-97l229 695h120l228 -695h-101zM193 245h223l-112 350zM441 866v-70h-267v70h267z" />
    <glyph glyph-name="amacron" unicode="&#x101;" horiz-adv-x="553" 
d="M96.5 28q-45.5 41 -45.5 110q0 79 56 120.5t156 41.5h110v61q0 48 -29.5 77.5t-76.5 29.5q-39 0 -68.5 -21t-42.5 -56l-86 23q11 33 37 64.5t67 51.5t92 20q91 0 146 -50.5t55 -139.5v-206q0 -103 23 -154h-99q-15 31 -16 72q-22 -38 -66 -61.5t-97 -23.5
q-70 0 -115.5 41zM305.5 81.5q30.5 15.5 49 41.5t18.5 56v55h-107q-120 0 -120 -89q0 -35 27 -57t69 -22q33 0 63.5 15.5zM416 708v-70h-267v70h267z" />
    <glyph glyph-name="Abreve" unicode="&#x102;" horiz-adv-x="615" 
d="M495 0l-52 163h-275l-52 -163h-97l229 695h120l228 -695h-101zM193 245h223l-112 350zM212.5 801q-36.5 35 -37.5 104h67q0 -36 18 -56t48 -20t47.5 20t17.5 56h68q-1 -69 -37.5 -104t-95.5 -35t-95.5 35z" />
    <glyph glyph-name="abreve" unicode="&#x103;" horiz-adv-x="553" 
d="M96.5 28q-45.5 41 -45.5 110q0 79 56 120.5t156 41.5h110v61q0 48 -29.5 77.5t-76.5 29.5q-39 0 -68.5 -21t-42.5 -56l-86 23q11 33 37 64.5t67 51.5t92 20q91 0 146 -50.5t55 -139.5v-206q0 -103 23 -154h-99q-15 31 -16 72q-22 -38 -66 -61.5t-97 -23.5
q-70 0 -115.5 41zM305.5 81.5q30.5 15.5 49 41.5t18.5 56v55h-107q-120 0 -120 -89q0 -35 27 -57t69 -22q33 0 63.5 15.5zM187.5 643q-36.5 35 -37.5 104h67q0 -36 18 -56t48 -20t47.5 20t17.5 56h68q-1 -69 -37.5 -104t-95.5 -35t-95.5 35z" />
    <glyph glyph-name="Aogonek" unicode="&#x104;" horiz-adv-x="615" 
d="M495 0l-52 163h-275l-52 -163h-97l229 695h120l228 -695h-101zM193 245h223l-112 350zM523 -71q0 -24 14.5 -37.5t41.5 -14.5l-13 -61q-52 1 -81.5 27.5t-29.5 67.5q0 24 11.5 47t28.5 42h65q-37 -39 -37 -71z" />
    <glyph glyph-name="aogonek" unicode="&#x105;" horiz-adv-x="553" 
d="M433.5 -108.5q14.5 -13.5 41.5 -14.5l-13 -61q-52 1 -81.5 27.5t-29.5 67.5q0 24 11.5 47t28.5 42q-15 31 -16 72q-22 -38 -66 -61.5t-97 -23.5q-70 0 -115.5 41t-45.5 110q0 79 56 120.5t156 41.5h110v61q0 48 -29.5 77.5t-76.5 29.5q-39 0 -68.5 -21t-42.5 -56l-86 23
q11 33 37 64.5t67 51.5t92 20q91 0 146 -50.5t55 -139.5v-206q0 -103 23 -154h-34q-37 -39 -37 -71q0 -24 14.5 -37.5zM373 234h-107q-120 0 -120 -89q0 -35 27 -57t69 -22q33 0 63.5 15.5t49 41.5t18.5 56v55z" />
    <glyph glyph-name="Cacute" unicode="&#x106;" horiz-adv-x="643" 
d="M203 28q-69 41 -108.5 122.5t-39.5 197.5q0 115 39.5 196.5t108.5 122.5t157 41q92 0 155 -43.5t86 -106.5l-88 -28q-46 93 -152 93q-95 0 -152 -69.5t-57 -205.5q0 -137 57.5 -206.5t153.5 -69.5q107 0 153 93l87 -28q-23 -63 -86 -106.5t-156 -43.5q-89 0 -158 41z
M237 758l-29 62l255 124l32 -69z" />
    <glyph glyph-name="cacute" unicode="&#x107;" horiz-adv-x="513" 
d="M153 20.5q-53 33.5 -83.5 97t-30.5 151.5q0 86 30.5 149.5t84 97.5t120.5 34q53 0 96 -20t70 -53t35 -72l-86 -26q-14 41 -44.5 65t-73.5 24q-62 0 -99.5 -54.5t-37.5 -144.5q0 -91 37.5 -145.5t99.5 -54.5q44 0 77.5 23t50.5 62l84 -18q-20 -66 -78 -107.5t-131 -41.5
q-68 0 -121 33.5zM153 600l-29 62l255 124l32 -69z" />
    <glyph glyph-name="Ccircumflex" unicode="&#x108;" horiz-adv-x="643" 
d="M203 28q-69 41 -108.5 122.5t-39.5 197.5q0 115 39.5 196.5t108.5 122.5t157 41q92 0 155 -43.5t86 -106.5l-88 -28q-46 93 -152 93q-95 0 -152 -69.5t-57 -205.5q0 -137 57.5 -206.5t153.5 -69.5q107 0 153 93l87 -28q-23 -63 -86 -106.5t-156 -43.5q-89 0 -158 41z
M264 753l-57 28l117 145h70l117 -145l-57 -28l-95 103z" />
    <glyph glyph-name="ccircumflex" unicode="&#x109;" horiz-adv-x="513" 
d="M153 20.5q-53 33.5 -83.5 97t-30.5 151.5q0 86 30.5 149.5t84 97.5t120.5 34q53 0 96 -20t70 -53t35 -72l-86 -26q-14 41 -44.5 65t-73.5 24q-62 0 -99.5 -54.5t-37.5 -144.5q0 -91 37.5 -145.5t99.5 -54.5q44 0 77.5 23t50.5 62l84 -18q-20 -66 -78 -107.5t-131 -41.5
q-68 0 -121 33.5zM180 595l-57 28l117 145h70l117 -145l-57 -28l-95 103z" />
    <glyph glyph-name="Cdotaccent" unicode="&#x10a;" horiz-adv-x="643" 
d="M203 28q-69 41 -108.5 122.5t-39.5 197.5q0 115 39.5 196.5t108.5 122.5t157 41q92 0 155 -43.5t86 -106.5l-88 -28q-46 93 -152 93q-95 0 -152 -69.5t-57 -205.5q0 -137 57.5 -206.5t153.5 -69.5q107 0 153 93l87 -28q-23 -63 -86 -106.5t-156 -43.5q-89 0 -158 41z
M321.5 794.5q-15.5 14.5 -15.5 38.5t15.5 38.5t37.5 14.5t37.5 -14.5t15.5 -38.5t-15.5 -38.5t-37.5 -14.5t-37.5 14.5z" />
    <glyph glyph-name="cdotaccent" unicode="&#x10b;" horiz-adv-x="513" 
d="M153 20.5q-53 33.5 -83.5 97t-30.5 151.5q0 86 30.5 149.5t84 97.5t120.5 34q53 0 96 -20t70 -53t35 -72l-86 -26q-14 41 -44.5 65t-73.5 24q-62 0 -99.5 -54.5t-37.5 -144.5q0 -91 37.5 -145.5t99.5 -54.5q44 0 77.5 23t50.5 62l84 -18q-20 -66 -78 -107.5t-131 -41.5
q-68 0 -121 33.5zM237.5 636.5q-15.5 14.5 -15.5 38.5t15.5 37.5t37.5 13.5q21 0 36.5 -13.5t15.5 -37.5t-15.5 -38.5t-36.5 -14.5q-22 0 -37.5 14.5z" />
    <glyph glyph-name="Ccaron" unicode="&#x10c;" horiz-adv-x="643" 
d="M203 28q-69 41 -108.5 122.5t-39.5 197.5q0 115 39.5 196.5t108.5 122.5t157 41q92 0 155 -43.5t86 -106.5l-88 -28q-46 93 -152 93q-95 0 -152 -69.5t-57 -205.5q0 -137 57.5 -206.5t153.5 -69.5q107 0 153 93l87 -28q-23 -63 -86 -106.5t-156 -43.5q-89 0 -158 41z
M330 762l-124 131l64 22l90 -91l89 91l64 -22l-124 -131h-59z" />
    <glyph glyph-name="ccaron" unicode="&#x10d;" horiz-adv-x="513" 
d="M153 20.5q-53 33.5 -83.5 97t-30.5 151.5q0 86 30.5 149.5t84 97.5t120.5 34q53 0 96 -20t70 -53t35 -72l-86 -26q-14 41 -44.5 65t-73.5 24q-62 0 -99.5 -54.5t-37.5 -144.5q0 -91 37.5 -145.5t99.5 -54.5q44 0 77.5 23t50.5 62l84 -18q-20 -66 -78 -107.5t-131 -41.5
q-68 0 -121 33.5zM246 604l-124 131l64 22l90 -91l89 91l64 -22l-124 -131h-59z" />
    <glyph glyph-name="Dcaron" unicode="&#x10e;" horiz-adv-x="681" 
d="M97 695h206q92 0 164.5 -36.5t115.5 -114.5t43 -197t-43 -196.5t-115.5 -114t-164.5 -36.5h-206v695zM293 83q102 0 169 61.5t67 202.5t-66.5 203t-169.5 62h-101v-529h101zM283 762l-124 131l64 22l90 -91l89 91l64 -22l-124 -131h-59z" />
    <glyph glyph-name="dcaron" unicode="&#x10f;" horiz-adv-x="587" 
d="M94.5 64q-55.5 77 -55.5 209q0 85 26 147.5t74.5 96t113.5 33.5q61 0 101.5 -27.5t58.5 -65.5v293h93v-610q0 -28 5 -68.5t13 -71.5h-91q-7 16 -10 35.5t-4 52.5q-21 -44 -61 -72.5t-105 -28.5q-103 0 -158.5 77zM376.5 121q36.5 52 36.5 148t-36 147.5t-103 51.5
t-103.5 -51.5t-36.5 -147.5t36.5 -148t103.5 -52q66 0 102.5 52zM622 566h-67l19 184h77z" />
    <glyph glyph-name="Dcroat" unicode="&#x110;" horiz-adv-x="681" 
d="M467.5 658.5q72.5 -36.5 115.5 -114.5t43 -197t-43 -196.5t-115.5 -114t-164.5 -36.5h-206v311h-84v75h84v309h206q92 0 164.5 -36.5zM462 144.5q67 61.5 67 202.5t-66.5 203t-169.5 62h-101v-226h154v-75h-154v-228h101q102 0 169 61.5z" />
    <glyph glyph-name="dcroat" unicode="&#x111;" horiz-adv-x="587" 
d="M506 617v-477q0 -28 5 -68.5t13 -71.5h-91q-7 16 -10 35.5t-4 52.5q-21 -44 -61 -72.5t-105 -28.5q-103 0 -158.5 77t-55.5 209q0 85 26 147.5t74.5 96t113.5 33.5q61 0 101.5 -27.5t58.5 -65.5v160h-134v67h134v66h93v-66h63v-67h-63zM376.5 121q36.5 52 36.5 148
t-36 147.5t-103 51.5t-103.5 -51.5t-36.5 -147.5t36.5 -148t103.5 -52q66 0 102.5 52z" />
    <glyph glyph-name="Emacron" unicode="&#x112;" horiz-adv-x="598" 
d="M97 0v695h406v-83h-311v-222h271v-82h-271v-225h338v-83h-433zM435 866v-70h-267v70h267z" />
    <glyph glyph-name="emacron" unicode="&#x113;" horiz-adv-x="541" 
d="M502 135q-22 -64 -84 -106t-136 -42q-73 0 -128 35t-85 100t-30 152q0 83 29.5 145.5t82.5 96.5t123 34q67 0 118 -32.5t78.5 -87.5t27.5 -119v-61h-363q4 -86 44 -134.5t105 -48.5q46 0 82.5 23.5t52.5 65.5zM183.5 433q-35.5 -37 -45.5 -106h266q-2 63 -38 103t-93 40
q-54 0 -89.5 -37zM401 708v-70h-267v70h267z" />
    <glyph glyph-name="Ebreve" unicode="&#x114;" horiz-adv-x="598" 
d="M97 0v695h406v-83h-311v-222h271v-82h-271v-225h338v-83h-433zM206.5 801q-36.5 35 -37.5 104h67q0 -36 18 -56t48 -20t47.5 20t17.5 56h68q-1 -69 -37.5 -104t-95.5 -35t-95.5 35z" />
    <glyph glyph-name="ebreve" unicode="&#x115;" horiz-adv-x="541" 
d="M502 135q-22 -64 -84 -106t-136 -42q-73 0 -128 35t-85 100t-30 152q0 83 29.5 145.5t82.5 96.5t123 34q67 0 118 -32.5t78.5 -87.5t27.5 -119v-61h-363q4 -86 44 -134.5t105 -48.5q46 0 82.5 23.5t52.5 65.5zM183.5 433q-35.5 -37 -45.5 -106h266q-2 63 -38 103t-93 40
q-54 0 -89.5 -37zM172.5 643q-36.5 35 -37.5 104h67q0 -36 18 -56t48 -20t47.5 20t17.5 56h68q-1 -69 -37.5 -104t-95.5 -35t-95.5 35z" />
    <glyph glyph-name="Edotaccent" unicode="&#x116;" horiz-adv-x="598" 
d="M97 0v695h406v-83h-311v-222h271v-82h-271v-225h338v-83h-433zM264.5 794.5q-15.5 14.5 -15.5 38.5t15.5 38.5t37.5 14.5t37.5 -14.5t15.5 -38.5t-15.5 -38.5t-37.5 -14.5t-37.5 14.5z" />
    <glyph glyph-name="edotaccent" unicode="&#x117;" horiz-adv-x="541" 
d="M502 135q-22 -64 -84 -106t-136 -42q-73 0 -128 35t-85 100t-30 152q0 83 29.5 145.5t82.5 96.5t123 34q67 0 118 -32.5t78.5 -87.5t27.5 -119v-61h-363q4 -86 44 -134.5t105 -48.5q46 0 82.5 23.5t52.5 65.5zM183.5 433q-35.5 -37 -45.5 -106h266q-2 63 -38 103t-93 40
q-54 0 -89.5 -37zM230.5 636.5q-15.5 14.5 -15.5 38.5t15.5 37.5t37.5 13.5q21 0 36.5 -13.5t15.5 -37.5t-15.5 -38.5t-36.5 -14.5q-22 0 -37.5 14.5z" />
    <glyph glyph-name="Eogonek" unicode="&#x118;" horiz-adv-x="598" 
d="M97 0v695h406v-83h-311v-222h271v-82h-271v-225h338v-83h-433zM492 -71q0 -24 14.5 -37.5t41.5 -14.5l-13 -61q-52 1 -81.5 27.5t-29.5 67.5q0 24 11.5 47t28.5 42h65q-37 -39 -37 -71z" />
    <glyph glyph-name="eogonek" unicode="&#x119;" horiz-adv-x="541" 
d="M446 51q-40 -36 -92 -53q-35 -37 -35 -69q0 -24 14.5 -37.5t41.5 -14.5l-13 -61q-52 1 -81.5 27.5t-29.5 67.5q0 37 29 76q-72 0 -127 35.5t-84.5 100t-29.5 151.5q0 83 29.5 145.5t82.5 96.5t123 34q67 0 118 -32.5t78.5 -87.5t27.5 -119v-61h-363q4 -86 44 -134.5
t105 -48.5q46 0 82.5 23.5t52.5 65.5l83 -21q-16 -48 -56 -84zM183.5 433q-35.5 -37 -45.5 -106h266q-2 63 -38 103t-93 40q-54 0 -89.5 -37z" />
    <glyph glyph-name="Ecaron" unicode="&#x11a;" horiz-adv-x="598" 
d="M97 0v695h406v-83h-311v-222h271v-82h-271v-225h338v-83h-433zM273 762l-124 131l64 22l90 -91l89 91l64 -22l-124 -131h-59z" />
    <glyph glyph-name="ecaron" unicode="&#x11b;" horiz-adv-x="541" 
d="M502 135q-22 -64 -84 -106t-136 -42q-73 0 -128 35t-85 100t-30 152q0 83 29.5 145.5t82.5 96.5t123 34q67 0 118 -32.5t78.5 -87.5t27.5 -119v-61h-363q4 -86 44 -134.5t105 -48.5q46 0 82.5 23.5t52.5 65.5zM183.5 433q-35.5 -37 -45.5 -106h266q-2 63 -38 103t-93 40
q-54 0 -89.5 -37zM239 604l-124 131l64 22l90 -91l89 91l64 -22l-124 -131h-59z" />
    <glyph glyph-name="Gcircumflex" unicode="&#x11c;" horiz-adv-x="709" 
d="M521 529q-20 43 -60 68.5t-98 25.5q-61 0 -109 -32.5t-75 -94.5t-27 -148q0 -84 28.5 -147t78 -96t111.5 -33q54 0 97 16.5t71 49.5v146h-194v83h289v-278q-45 -49 -114 -75.5t-149 -26.5q-91 0 -162.5 45.5t-112 127.5t-40.5 188q0 109 38.5 190.5t108 125.5t159.5 44
q96 0 160.5 -42t88.5 -110zM263 753l-57 28l117 145h70l117 -145l-57 -28l-95 103z" />
    <glyph glyph-name="gcircumflex" unicode="&#x11d;" horiz-adv-x="543" 
d="M483.5 72.5q44.5 -38.5 44.5 -102.5q0 -80 -67.5 -129t-191.5 -49q-66 0 -118.5 19.5t-82.5 55.5t-30 84q0 30 15.5 59t41.5 51q-17 14 -26 33.5t-9 40.5q0 27 16.5 53.5t47.5 43.5q-30 24 -46 59t-16 76q0 54 26.5 95.5t74 64.5t110.5 23q74 0 126 -32q32 32 32 80h79
q0 -68 -66 -118q39 -47 39 -113q0 -54 -26 -95.5t-73.5 -65t-110.5 -23.5q-55 0 -98 18q-30 -19 -30 -46q0 -18 15.5 -31t44.5 -13h159q75 0 119.5 -38.5zM185 447q-33 -31 -33 -80q0 -50 32.5 -81t88.5 -31q55 0 88 31t33 81q0 49 -33.5 80t-87.5 31q-55 0 -88 -31z
M387.5 -104.5q46.5 25.5 46.5 70.5q0 31 -21 50t-54 19h-178q-11 0 -27 2q-30 -30 -30 -69q0 -45 40 -71.5t106 -26.5q71 0 117.5 25.5zM178 600l-57 28l117 145h70l117 -145l-57 -28l-95 103z" />
    <glyph glyph-name="Gbreve" unicode="&#x11e;" horiz-adv-x="709" 
d="M521 529q-20 43 -60 68.5t-98 25.5q-61 0 -109 -32.5t-75 -94.5t-27 -148q0 -84 28.5 -147t78 -96t111.5 -33q54 0 97 16.5t71 49.5v146h-194v83h289v-278q-45 -49 -114 -75.5t-149 -26.5q-91 0 -162.5 45.5t-112 127.5t-40.5 188q0 109 38.5 190.5t108 125.5t159.5 44
q96 0 160.5 -42t88.5 -110zM262.5 801q-36.5 35 -37.5 104h67q0 -36 18 -56t48 -20t47.5 20t17.5 56h68q-1 -69 -37.5 -104t-95.5 -35t-95.5 35z" />
    <glyph glyph-name="gbreve" unicode="&#x11f;" horiz-adv-x="543" 
d="M483.5 72.5q44.5 -38.5 44.5 -102.5q0 -80 -67.5 -129t-191.5 -49q-66 0 -118.5 19.5t-82.5 55.5t-30 84q0 30 15.5 59t41.5 51q-17 14 -26 33.5t-9 40.5q0 27 16.5 53.5t47.5 43.5q-30 24 -46 59t-16 76q0 54 26.5 95.5t74 64.5t110.5 23q74 0 126 -32q32 32 32 80h79
q0 -68 -66 -118q39 -47 39 -113q0 -54 -26 -95.5t-73.5 -65t-110.5 -23.5q-55 0 -98 18q-30 -19 -30 -46q0 -18 15.5 -31t44.5 -13h159q75 0 119.5 -38.5zM185 447q-33 -31 -33 -80q0 -50 32.5 -81t88.5 -31q55 0 88 31t33 81q0 49 -33.5 80t-87.5 31q-55 0 -88 -31z
M387.5 -104.5q46.5 25.5 46.5 70.5q0 31 -21 50t-54 19h-178q-11 0 -27 2q-30 -30 -30 -69q0 -45 40 -71.5t106 -26.5q71 0 117.5 25.5zM177.5 648q-36.5 35 -37.5 104h67q0 -36 18 -56t48 -20t47.5 20t17.5 56h68q-1 -69 -37.5 -104t-95.5 -35t-95.5 35z" />
    <glyph glyph-name="Gdotaccent" unicode="&#x120;" horiz-adv-x="709" 
d="M521 529q-20 43 -60 68.5t-98 25.5q-61 0 -109 -32.5t-75 -94.5t-27 -148q0 -84 28.5 -147t78 -96t111.5 -33q54 0 97 16.5t71 49.5v146h-194v83h289v-278q-45 -49 -114 -75.5t-149 -26.5q-91 0 -162.5 45.5t-112 127.5t-40.5 188q0 109 38.5 190.5t108 125.5t159.5 44
q96 0 160.5 -42t88.5 -110zM320.5 794.5q-15.5 14.5 -15.5 38.5t15.5 38.5t37.5 14.5t37.5 -14.5t15.5 -38.5t-15.5 -38.5t-37.5 -14.5t-37.5 14.5z" />
    <glyph glyph-name="gdotaccent" unicode="&#x121;" horiz-adv-x="543" 
d="M483.5 72.5q44.5 -38.5 44.5 -102.5q0 -80 -67.5 -129t-191.5 -49q-66 0 -118.5 19.5t-82.5 55.5t-30 84q0 30 15.5 59t41.5 51q-17 14 -26 33.5t-9 40.5q0 27 16.5 53.5t47.5 43.5q-30 24 -46 59t-16 76q0 54 26.5 95.5t74 64.5t110.5 23q74 0 126 -32q32 32 32 80h79
q0 -68 -66 -118q39 -47 39 -113q0 -54 -26 -95.5t-73.5 -65t-110.5 -23.5q-55 0 -98 18q-30 -19 -30 -46q0 -18 15.5 -31t44.5 -13h159q75 0 119.5 -38.5zM185 447q-33 -31 -33 -80q0 -50 32.5 -81t88.5 -31q55 0 88 31t33 81q0 49 -33.5 80t-87.5 31q-55 0 -88 -31z
M387.5 -104.5q46.5 25.5 46.5 70.5q0 31 -21 50t-54 19h-178q-11 0 -27 2q-30 -30 -30 -69q0 -45 40 -71.5t106 -26.5q71 0 117.5 25.5zM235.5 641.5q-15.5 14.5 -15.5 38.5t15.5 37.5t37.5 13.5q21 0 36.5 -13.5t15.5 -37.5t-15.5 -38.5t-36.5 -14.5q-22 0 -37.5 14.5z" />
    <glyph glyph-name="Gcommaaccent" unicode="&#x122;" horiz-adv-x="709" 
d="M521 529q-20 43 -60 68.5t-98 25.5q-61 0 -109 -32.5t-75 -94.5t-27 -148q0 -84 28.5 -147t78 -96t111.5 -33q54 0 97 16.5t71 49.5v146h-194v83h289v-278q-45 -49 -114 -75.5t-149 -26.5q-91 0 -162.5 45.5t-112 127.5t-40.5 188q0 109 38.5 190.5t108 125.5t159.5 44
q96 0 160.5 -42t88.5 -110zM322 -227q52 28 60 89q-8 -7 -21 -7q-24 0 -37.5 14t-13.5 34t15 35t41 15q33 0 51 -20.5t18 -53.5q0 -42 -20.5 -79.5t-62.5 -60.5z" />
    <glyph glyph-name="gcommaaccent" unicode="&#x123;" horiz-adv-x="543" 
d="M483.5 72.5q44.5 -38.5 44.5 -102.5q0 -80 -67.5 -129t-191.5 -49q-66 0 -118.5 19.5t-82.5 55.5t-30 84q0 30 15.5 59t41.5 51q-17 14 -26 33.5t-9 40.5q0 27 16.5 53.5t47.5 43.5q-30 24 -46 59t-16 76q0 54 26.5 95.5t74 64.5t110.5 23q74 0 126 -32q32 32 32 80h79
q0 -68 -66 -118q39 -47 39 -113q0 -54 -26 -95.5t-73.5 -65t-110.5 -23.5q-55 0 -98 18q-30 -19 -30 -46q0 -18 15.5 -31t44.5 -13h159q75 0 119.5 -38.5zM185 447q-33 -31 -33 -80q0 -50 32.5 -81t88.5 -31q55 0 88 31t33 81q0 49 -33.5 80t-87.5 31q-55 0 -88 -31z
M387.5 -104.5q46.5 25.5 46.5 70.5q0 31 -21 50t-54 19h-178q-11 0 -27 2q-30 -30 -30 -69q0 -45 40 -71.5t106 -26.5q71 0 117.5 25.5zM320 793q-52 -28 -60 -89q8 7 21 7q24 0 37.5 -14t13.5 -34t-15 -35t-41 -15q-33 0 -51 20.5t-18 53.5q0 42 20.5 79.5t62.5 60.5z" />
    <glyph glyph-name="Hcircumflex" unicode="&#x124;" horiz-adv-x="742" 
d="M97 0v695h95v-303h358v303h95v-695h-95v309h-358v-309h-95zM276 753l-57 28l117 145h70l117 -145l-57 -28l-95 103z" />
    <glyph glyph-name="hcircumflex" unicode="&#x125;" horiz-adv-x="594" 
d="M420.5 526q42.5 -24 67 -70.5t24.5 -110.5v-345h-93v326q0 64 -34 99.5t-87 35.5q-51 0 -87 -38t-36 -104v-319h-92v750h92v-283q22 35 60.5 59t88.5 24q54 0 96.5 -24zM26 788l-57 28l117 145h70l117 -145l-57 -28l-95 103z" />
    <glyph glyph-name="Hbar" unicode="&#x126;" horiz-adv-x="742" 
d="M720 589v-75h-75v-514h-95v309h-358v-309h-95v514h-75v75h75v106h95v-106h358v106h95v-106h75zM550 392v122h-358v-122h358z" />
    <glyph glyph-name="hbar" unicode="&#x127;" horiz-adv-x="594" 
d="M420.5 526q42.5 -24 67 -70.5t24.5 -110.5v-345h-93v326q0 64 -34 99.5t-87 35.5q-51 0 -87 -38t-36 -104v-319h-92v629h-77v67h77v54h92v-54h121v-67h-121v-162q22 35 60.5 59t88.5 24q54 0 96.5 -24z" />
    <glyph glyph-name="Itilde" unicode="&#x128;" horiz-adv-x="288" 
d="M97 0v695h95v-695h-95zM-3 790q4 41 25.5 65.5t57.5 24.5q23 0 65 -8q36 -6 48 -6q18 0 26 11.5t9 32.5l63 -14q-5 -44 -29 -70t-65 -26q-24 0 -64 8q-32 6 -40 6q-17 0 -24.5 -9.5t-9.5 -29.5z" />
    <glyph glyph-name="itilde" unicode="&#x129;" horiz-adv-x="258" 
d="M83 0v537h92v-537h-92zM-18 632q4 41 25.5 65.5t57.5 24.5q23 0 65 -8q36 -6 48 -6q18 0 26 11.5t9 32.5l63 -14q-5 -44 -29 -70t-65 -26q-24 0 -64 8q-32 6 -40 6q-17 0 -24.5 -9.5t-9.5 -29.5z" />
    <glyph glyph-name="Imacron" unicode="&#x12a;" horiz-adv-x="288" 
d="M97 0v695h95v-695h-95zM277 866v-70h-267v70h267z" />
    <glyph glyph-name="imacron" unicode="&#x12b;" horiz-adv-x="258" 
d="M83 0v537h92v-537h-92zM262 708v-70h-267v70h267z" />
    <glyph glyph-name="Ibreve" unicode="&#x12c;" horiz-adv-x="288" 
d="M97 0v695h95v-695h-95zM48.5 801q-36.5 35 -37.5 104h67q0 -36 18 -56t48 -20t47.5 20t17.5 56h68q-1 -69 -37.5 -104t-95.5 -35t-95.5 35z" />
    <glyph glyph-name="ibreve" unicode="&#x12d;" horiz-adv-x="258" 
d="M83 0v537h92v-537h-92zM33.5 643q-36.5 35 -37.5 104h67q0 -36 18 -56t48 -20t47.5 20t17.5 56h68q-1 -69 -37.5 -104t-95.5 -35t-95.5 35z" />
    <glyph glyph-name="Iogonek" unicode="&#x12e;" horiz-adv-x="288" 
d="M97 0v695h95v-695h-95zM135 -71q0 -24 14.5 -37.5t41.5 -14.5l-13 -61q-52 1 -81.5 27.5t-29.5 67.5q0 24 11.5 47t28.5 42h65q-37 -39 -37 -71z" />
    <glyph glyph-name="iogonek" unicode="&#x12f;" horiz-adv-x="258" 
d="M83 0v537h92v-537h-92zM88.5 660.5q-16.5 15.5 -16.5 41.5t16.5 41t40.5 15q23 0 40 -15t17 -41t-17 -41.5t-40 -15.5q-24 0 -40.5 15.5zM120 -71q0 -24 14.5 -37.5t41.5 -14.5l-13 -61q-52 1 -81.5 27.5t-29.5 67.5q0 24 11.5 47t28.5 42h65q-37 -39 -37 -71z" />
    <glyph glyph-name="Idotaccent" unicode="&#x130;" horiz-adv-x="288" 
d="M97 0v695h95v-695h-95zM106.5 794.5q-15.5 14.5 -15.5 38.5t15.5 38.5t37.5 14.5t37.5 -14.5t15.5 -38.5t-15.5 -38.5t-37.5 -14.5t-37.5 14.5z" />
    <glyph glyph-name="dotlessi" unicode="&#x131;" horiz-adv-x="258" 
d="M83 0v537h92v-537h-92z" />
    <glyph glyph-name="IJ" unicode="&#x132;" horiz-adv-x="769" 
d="M97 0v695h95v-695h-95zM343 83h61q91 0 135 46t44 137v346h-200v83h295v-429q0 -135 -68.5 -200.5t-205.5 -65.5h-61v83z" />
    <glyph glyph-name="ij" unicode="&#x133;" horiz-adv-x="533" 
d="M83 0v537h92v-537h-92zM88.5 660.5q-16.5 15.5 -16.5 41.5t16.5 41t40.5 15q23 0 40 -15t17 -41t-17 -41.5t-40 -15.5q-24 0 -40.5 15.5zM255 -128q53 0 78.5 24t25.5 86v555h93v-552q0 -106 -50.5 -149.5t-146.5 -43.5v80zM365.5 660.5q-16.5 15.5 -16.5 41.5t16.5 41
t40.5 15q23 0 40 -15t17 -41t-17 -41.5t-40 -15.5q-24 0 -40.5 15.5z" />
    <glyph glyph-name="Jcircumflex" unicode="&#x134;" horiz-adv-x="481" 
d="M55 83h61q91 0 135 46t44 137v346h-200v83h295v-429q0 -135 -68.5 -200.5t-205.5 -65.5h-61v83zM168 753l-57 28l117 145h70l117 -145l-57 -28l-95 103z" />
    <glyph glyph-name="jcircumflex" unicode="&#x135;" horiz-adv-x="257" 
d="M-21 -128q53 0 78.5 24t25.5 86v555h93v-552q0 -106 -50.5 -149.5t-146.5 -43.5v80zM35 595l-57 28l117 145h70l117 -145l-57 -28l-95 103z" />
    <glyph glyph-name="Kcommaaccent" unicode="&#x136;" horiz-adv-x="631" 
d="M610 0h-119l-234 310l-65 -79v-231h-95v695h95v-319l268 319h115l-255 -309zM288 -227q52 28 60 89q-8 -7 -21 -7q-24 0 -37.5 14t-13.5 34t15 35t41 15q33 0 51 -20.5t18 -53.5q0 -42 -20.5 -79.5t-62.5 -60.5z" />
    <glyph glyph-name="kcommaaccent" unicode="&#x137;" horiz-adv-x="578" 
d="M547 0h-119l-176 244l-77 -79v-165h-92v750h92v-456l239 243h122l-217 -223zM224 -227q52 28 60 89q-8 -7 -21 -7q-24 0 -37.5 14t-13.5 34t15 35t41 15q33 0 51 -20.5t18 -53.5q0 -42 -20.5 -79.5t-62.5 -60.5z" />
    <glyph glyph-name="kgreenlandic" unicode="&#x138;" horiz-adv-x="519" 
d="M495 0h-112l-155 224l-53 -68v-156h-92v537h92v-244l194 244h103l-181 -232z" />
    <glyph glyph-name="Lacute" unicode="&#x139;" horiz-adv-x="585" 
d="M97 0v695h95v-612h322v-83h-417zM38 758l-29 62l255 124l32 -69z" />
    <glyph glyph-name="lacute" unicode="&#x13a;" horiz-adv-x="302" 
d="M125.5 41q-48.5 47 -48.5 132v577h92v-561q0 -52 26 -81.5t72 -29.5l-5 -84q-88 0 -136.5 47zM2 809l-29 62l255 124l32 -69z" />
    <glyph glyph-name="Lcommaaccent" unicode="&#x13b;" horiz-adv-x="585" 
d="M97 0v695h95v-612h322v-83h-417zM259 -227q52 28 60 89q-8 -7 -21 -7q-24 0 -37.5 14t-13.5 34t15 35t41 15q33 0 51 -20.5t18 -53.5q0 -42 -20.5 -79.5t-62.5 -60.5z" />
    <glyph glyph-name="lcommaaccent" unicode="&#x13c;" horiz-adv-x="302" 
d="M125.5 41q-48.5 47 -48.5 132v577h92v-561q0 -52 26 -81.5t72 -29.5l-5 -84q-88 0 -136.5 47zM122 -227q52 28 60 89q-8 -7 -21 -7q-24 0 -37.5 14t-13.5 34t15 35t41 15q33 0 51 -20.5t18 -53.5q0 -42 -20.5 -79.5t-62.5 -60.5z" />
    <glyph glyph-name="Lcaron" unicode="&#x13d;" horiz-adv-x="585" 
d="M97 0v695h95v-612h322v-83h-417zM338 511h-67l19 184h77z" />
    <glyph glyph-name="lcaron" unicode="&#x13e;" horiz-adv-x="302" 
d="M125.5 41q-48.5 47 -48.5 132v577h92v-561q0 -52 26 -81.5t72 -29.5l-5 -84q-88 0 -136.5 47zM286 566h-67l19 184h77z" />
    <glyph glyph-name="Ldot" unicode="&#x13f;" horiz-adv-x="588" 
d="M97 0v695h95v-612h322v-83h-417zM316.5 332.5q-16.5 15.5 -16.5 41.5q0 25 16.5 40.5t39.5 15.5q24 0 40.5 -15.5t16.5 -40.5q0 -26 -16.5 -41.5t-40.5 -15.5q-23 0 -39.5 15.5z" />
    <glyph glyph-name="ldot" unicode="&#x140;" horiz-adv-x="347" 
d="M125.5 41q-48.5 47 -48.5 132v577h92v-561q0 -52 26 -81.5t72 -29.5l-5 -84q-88 0 -136.5 47zM243.5 356.5q-16.5 15.5 -16.5 41.5q0 25 16.5 40.5t39.5 15.5q24 0 40.5 -15.5t16.5 -40.5q0 -26 -16.5 -41.5t-40.5 -15.5q-23 0 -39.5 15.5z" />
    <glyph glyph-name="Lslash" unicode="&#x141;" horiz-adv-x="585" 
d="M192 83h322v-83h-417v290l-89 -15v83l89 15v322h95v-305l123 21v-83l-123 -21v-224z" />
    <glyph glyph-name="lslash" unicode="&#x142;" horiz-adv-x="302" 
d="M195 107.5q26 -29.5 72 -29.5l-5 -84q-88 0 -136.5 47t-48.5 132v162l-69 -24v83l69 24v332h92v-301l95 33v-83l-95 -33v-177q0 -52 26 -81.5z" />
    <glyph glyph-name="Nacute" unicode="&#x143;" horiz-adv-x="724" 
d="M97 0v695h91l345 -528v528h95v-695h-91l-345 529v-529h-95zM235 758l-29 62l255 124l32 -69z" />
    <glyph glyph-name="nacute" unicode="&#x144;" horiz-adv-x="594" 
d="M83 537h90v-73q21 36 60 61t91 25q54 0 96.5 -24t67 -70.5t24.5 -110.5v-345h-93v326q0 64 -34 99.5t-87 35.5q-51 0 -87 -38t-36 -104v-319h-92v537zM175 600l-29 62l255 124l32 -69z" />
    <glyph glyph-name="Ncommaaccent" unicode="&#x145;" horiz-adv-x="724" 
d="M97 0v695h91l345 -528v528h95v-695h-91l-345 529v-529h-95zM310 -227q52 28 60 89q-8 -7 -21 -7q-24 0 -37.5 14t-13.5 34t15 35t41 15q33 0 51 -20.5t18 -53.5q0 -42 -20.5 -79.5t-62.5 -60.5z" />
    <glyph glyph-name="ncommaaccent" unicode="&#x146;" horiz-adv-x="594" 
d="M83 537h90v-73q21 36 60 61t91 25q54 0 96.5 -24t67 -70.5t24.5 -110.5v-345h-93v326q0 64 -34 99.5t-87 35.5q-51 0 -87 -38t-36 -104v-319h-92v537zM250 -227q52 28 60 89q-8 -7 -21 -7q-24 0 -37.5 14t-13.5 34t15 35t41 15q33 0 51 -20.5t18 -53.5q0 -42 -20.5 -79.5
t-62.5 -60.5z" />
    <glyph glyph-name="Ncaron" unicode="&#x147;" horiz-adv-x="724" 
d="M97 0v695h91l345 -528v528h95v-695h-91l-345 529v-529h-95zM328 762l-124 131l64 22l90 -91l89 91l64 -22l-124 -131h-59z" />
    <glyph glyph-name="ncaron" unicode="&#x148;" horiz-adv-x="594" 
d="M83 537h90v-73q21 36 60 61t91 25q54 0 96.5 -24t67 -70.5t24.5 -110.5v-345h-93v326q0 64 -34 99.5t-87 35.5q-51 0 -87 -38t-36 -104v-319h-92v537zM268 604l-124 131l64 22l90 -91l89 91l64 -22l-124 -131h-59z" />
    <glyph glyph-name="Eng" unicode="&#x14a;" horiz-adv-x="724" 
d="M428 -115q53 0 79 22.5t26 79.5v30l-341 513v-530h-95v695h91l345 -530v530h95v-705q0 -101 -52 -143t-148 -42v80z" />
    <glyph glyph-name="eng" unicode="&#x14b;" horiz-adv-x="574" 
d="M292 -115q60 0 89.5 26t29.5 96v319q0 65 -33 100t-83 35t-85 -37t-35 -105v-319h-92v537h90v-73q18 34 55 60t92 26q51 0 92.5 -23.5t66.5 -71t25 -118.5v-327q0 -114 -55 -159.5t-157 -45.5v80z" />
    <glyph glyph-name="Omacron" unicode="&#x14c;" horiz-adv-x="681" 
d="M131 79q-76 92 -76 269t76 268.5t209 91.5q134 0 210 -91.5t76 -268.5t-76 -269t-210 -92q-133 0 -209 92zM479 138.5q50 66.5 50 209.5q0 142 -50 208.5t-139 66.5t-138.5 -66.5t-49.5 -208.5q0 -143 49.5 -209.5t138.5 -66.5t139 66.5zM474 866v-70h-267v70h267z" />
    <glyph glyph-name="omacron" unicode="&#x14d;" horiz-adv-x="547" 
d="M102 60.5q-63 73.5 -63 208.5t63 208t171 73q109 0 172 -73t63 -208q0 -136 -63 -209t-172 -73q-108 0 -171 73.5zM376.5 121q36.5 52 36.5 148t-36.5 147.5t-103.5 51.5t-103 -51.5t-36 -147.5q0 -97 36 -148.5t103 -51.5t103.5 52zM407 708v-70h-267v70h267z" />
    <glyph glyph-name="Obreve" unicode="&#x14e;" horiz-adv-x="681" 
d="M131 79q-76 92 -76 269t76 268.5t209 91.5q134 0 210 -91.5t76 -268.5t-76 -269t-210 -92q-133 0 -209 92zM479 138.5q50 66.5 50 209.5q0 142 -50 208.5t-139 66.5t-138.5 -66.5t-49.5 -208.5q0 -143 49.5 -209.5t138.5 -66.5t139 66.5zM245.5 801q-36.5 35 -37.5 104
h67q0 -36 18 -56t48 -20t47.5 20t17.5 56h68q-1 -69 -37.5 -104t-95.5 -35t-95.5 35z" />
    <glyph glyph-name="obreve" unicode="&#x14f;" horiz-adv-x="547" 
d="M102 60.5q-63 73.5 -63 208.5t63 208t171 73q109 0 172 -73t63 -208q0 -136 -63 -209t-172 -73q-108 0 -171 73.5zM376.5 121q36.5 52 36.5 148t-36.5 147.5t-103.5 51.5t-103 -51.5t-36 -147.5q0 -97 36 -148.5t103 -51.5t103.5 52zM178.5 643q-36.5 35 -37.5 104h67
q0 -36 18 -56t48 -20t47.5 20t17.5 56h68q-1 -69 -37.5 -104t-95.5 -35t-95.5 35z" />
    <glyph glyph-name="Ohungarumlaut" unicode="&#x150;" horiz-adv-x="681" 
d="M131 79q-76 92 -76 269t76 268.5t209 91.5q134 0 210 -91.5t76 -268.5t-76 -269t-210 -92q-133 0 -209 92zM479 138.5q50 66.5 50 209.5q0 142 -50 208.5t-139 66.5t-138.5 -66.5t-49.5 -208.5q0 -143 49.5 -209.5t138.5 -66.5t139 66.5zM242 760l86 160h80l-92 -160h-74
zM370 760l91 160h83l-99 -160h-75z" />
    <glyph glyph-name="ohungarumlaut" unicode="&#x151;" horiz-adv-x="547" 
d="M102 60.5q-63 73.5 -63 208.5t63 208t171 73q109 0 172 -73t63 -208q0 -136 -63 -209t-172 -73q-108 0 -171 73.5zM376.5 121q36.5 52 36.5 148t-36.5 147.5t-103.5 51.5t-103 -51.5t-36 -147.5q0 -97 36 -148.5t103 -51.5t103.5 52zM175 602l86 160h80l-92 -160h-74z
M303 602l91 160h83l-99 -160h-75z" />
    <glyph glyph-name="OE" unicode="&#x152;" horiz-adv-x="895" 
d="M132.5 79q-77.5 92 -77.5 269t77.5 268.5t213.5 91.5q57 0 97 -13h364v-83h-295v-221h256v-79h-256v-229h314v-83h-383q-47 -13 -97 -13q-136 0 -213.5 92zM417 83v528q-28 12 -71 12q-92 0 -143 -66.5t-51 -208.5q0 -143 51 -209.5t143 -66.5q39 0 71 11z" />
    <glyph glyph-name="oe" unicode="&#x153;" horiz-adv-x="922" 
d="M877 135q-22 -64 -84 -106t-136 -42q-62 0 -111.5 25.5t-81.5 73.5q-31 -49 -79.5 -74t-111.5 -25q-108 0 -171 73.5t-63 208.5t63 208t171 73q62 0 110.5 -24.5t78.5 -71.5q31 46 79 71t108 25q67 0 118 -32.5t78.5 -87.5t27.5 -119v-61h-363q4 -86 44 -134.5t105 -48.5
q46 0 82.5 23.5t52.5 65.5zM558.5 433q-35.5 -37 -45.5 -106h266q-2 63 -38 103t-93 40q-54 0 -89.5 -37zM376.5 121q36.5 52 36.5 148t-36.5 147.5t-103.5 51.5t-103 -51.5t-36 -147.5q0 -97 36 -148.5t103 -51.5t103.5 52z" />
    <glyph glyph-name="Racute" unicode="&#x154;" horiz-adv-x="600" 
d="M453 0l-146 264h-3h-112v-264h-95v695h218q56 0 107 -21.5t83.5 -68.5t32.5 -120q0 -76 -34.5 -128.5t-98.5 -76.5l161 -280h-113zM298 347q61 0 101.5 30t40.5 106q0 64 -35.5 96.5t-96.5 32.5h-116v-265h106zM172 758l-29 62l255 124l32 -69z" />
    <glyph glyph-name="racute" unicode="&#x155;" horiz-adv-x="436" 
d="M83 537h92v-77q21 42 56.5 66t80.5 24q61 0 107 -37l-38 -84q-37 32 -82 32q-34 0 -62.5 -20.5t-45 -57.5t-16.5 -84v-299h-92v537zM120 600l-29 62l255 124l32 -69z" />
    <glyph glyph-name="Rcommaaccent" unicode="&#x156;" horiz-adv-x="600" 
d="M453 0l-146 264h-3h-112v-264h-95v695h218q56 0 107 -21.5t83.5 -68.5t32.5 -120q0 -76 -34.5 -128.5t-98.5 -76.5l161 -280h-113zM298 347q61 0 101.5 30t40.5 106q0 64 -35.5 96.5t-96.5 32.5h-116v-265h106zM257 -227q52 28 60 89q-8 -7 -21 -7q-24 0 -37.5 14
t-13.5 34t15 35t41 15q33 0 51 -20.5t18 -53.5q0 -42 -20.5 -79.5t-62.5 -60.5z" />
    <glyph glyph-name="rcommaaccent" unicode="&#x157;" horiz-adv-x="436" 
d="M83 537h92v-77q21 42 56.5 66t80.5 24q61 0 107 -37l-38 -84q-37 32 -82 32q-34 0 -62.5 -20.5t-45 -57.5t-16.5 -84v-299h-92v537zM82 -227q52 28 60 89q-8 -7 -21 -7q-24 0 -37.5 14t-13.5 34t15 35t41 15q33 0 51 -20.5t18 -53.5q0 -42 -20.5 -79.5t-62.5 -60.5z" />
    <glyph glyph-name="Rcaron" unicode="&#x158;" horiz-adv-x="600" 
d="M453 0l-146 264h-3h-112v-264h-95v695h218q56 0 107 -21.5t83.5 -68.5t32.5 -120q0 -76 -34.5 -128.5t-98.5 -76.5l161 -280h-113zM298 347q61 0 101.5 30t40.5 106q0 64 -35.5 96.5t-96.5 32.5h-116v-265h106zM265 762l-124 131l64 22l90 -91l89 91l64 -22l-124 -131
h-59z" />
    <glyph glyph-name="rcaron" unicode="&#x159;" horiz-adv-x="436" 
d="M83 537h92v-77q21 42 56.5 66t80.5 24q61 0 107 -37l-38 -84q-37 32 -82 32q-34 0 -62.5 -20.5t-45 -57.5t-16.5 -84v-299h-92v537zM213 604l-124 131l64 22l90 -91l89 91l64 -22l-124 -131h-59z" />
    <glyph glyph-name="Sacute" unicode="&#x15a;" horiz-adv-x="567" 
d="M140 25.5q-64 38.5 -93 105.5l86 30q22 -43 63 -66t94 -23q57 0 93 29t36 78q0 32 -20 55t-50.5 38.5t-81.5 35.5q-67 27 -108 49.5t-70.5 62.5t-29.5 100q0 58 29 100.5t79.5 65t114.5 22.5q86 0 143.5 -35.5t84.5 -101.5l-91 -29q-17 39 -53 60t-83 21q-54 0 -88.5 -28
t-34.5 -74q0 -33 20.5 -56.5t50 -38t84.5 -36.5q66 -26 107 -48t70 -60.5t29 -96.5q0 -60 -29 -104.5t-81 -69t-121 -24.5q-86 0 -150 38.5zM180 758l-29 62l255 124l32 -69z" />
    <glyph glyph-name="sacute" unicode="&#x15b;" horiz-adv-x="484" 
d="M112 21.5q-54 34.5 -77 84.5l62 47q21 -38 59 -63t88 -25q41 0 70 21.5t29 53.5q0 24 -16 40.5t-39 27t-66 25.5q-55 18 -88.5 34.5t-57.5 46.5t-24 77q0 71 52 115t136 44q72 0 124 -30t73 -73l-62 -48q-19 33 -54.5 53t-78.5 20q-42 0 -68.5 -20.5t-26.5 -53.5
q0 -23 15.5 -39.5t38.5 -26.5t65 -25q55 -18 89 -35t58.5 -48t24.5 -79q0 -47 -25.5 -83t-69 -55.5t-95.5 -19.5q-82 0 -136 34.5zM116 600l-29 62l255 124l32 -69z" />
    <glyph glyph-name="Scircumflex" unicode="&#x15c;" horiz-adv-x="567" 
d="M140 25.5q-64 38.5 -93 105.5l86 30q22 -43 63 -66t94 -23q57 0 93 29t36 78q0 32 -20 55t-50.5 38.5t-81.5 35.5q-67 27 -108 49.5t-70.5 62.5t-29.5 100q0 58 29 100.5t79.5 65t114.5 22.5q86 0 143.5 -35.5t84.5 -101.5l-91 -29q-17 39 -53 60t-83 21q-54 0 -88.5 -28
t-34.5 -74q0 -33 20.5 -56.5t50 -38t84.5 -36.5q66 -26 107 -48t70 -60.5t29 -96.5q0 -60 -29 -104.5t-81 -69t-121 -24.5q-86 0 -150 38.5zM207 753l-57 28l117 145h70l117 -145l-57 -28l-95 103z" />
    <glyph glyph-name="scircumflex" unicode="&#x15d;" horiz-adv-x="484" 
d="M112 21.5q-54 34.5 -77 84.5l62 47q21 -38 59 -63t88 -25q41 0 70 21.5t29 53.5q0 24 -16 40.5t-39 27t-66 25.5q-55 18 -88.5 34.5t-57.5 46.5t-24 77q0 71 52 115t136 44q72 0 124 -30t73 -73l-62 -48q-19 33 -54.5 53t-78.5 20q-42 0 -68.5 -20.5t-26.5 -53.5
q0 -23 15.5 -39.5t38.5 -26.5t65 -25q55 -18 89 -35t58.5 -48t24.5 -79q0 -47 -25.5 -83t-69 -55.5t-95.5 -19.5q-82 0 -136 34.5zM143 595l-57 28l117 145h70l117 -145l-57 -28l-95 103z" />
    <glyph glyph-name="Scedilla" unicode="&#x15e;" horiz-adv-x="567" 
d="M465 47.5q-56 -52.5 -150 -59.5l-33 -43q15 5 31 5q40 0 63.5 -22.5t23.5 -52.5q0 -34 -30.5 -58t-88.5 -24q-26 0 -51 7t-43 18l17 40q36 -22 73 -22q25 0 38.5 11t13.5 25t-12 24t-33 10q-24 0 -41 -11l-38 21l49 73q-73 7 -127 44.5t-80 97.5l86 30q22 -43 63 -66
t94 -23q57 0 93 29t36 78q0 32 -20 55t-50.5 38.5t-81.5 35.5q-67 27 -108 49.5t-70.5 62.5t-29.5 100q0 58 29 100.5t79.5 65t114.5 22.5q86 0 143.5 -35.5t84.5 -101.5l-91 -29q-17 39 -53 60t-83 21q-54 0 -88.5 -28t-34.5 -74q0 -33 20.5 -56.5t50 -38t84.5 -36.5
q66 -26 107 -48t70 -60.5t29 -96.5q0 -85 -56 -137.5z" />
    <glyph glyph-name="scedilla" unicode="&#x15f;" horiz-adv-x="484" 
d="M389.5 36q-48.5 -43 -121.5 -48l-33 -43q15 5 31 5q40 0 63.5 -22.5t23.5 -52.5q0 -34 -30.5 -58t-88.5 -24q-26 0 -51 7t-43 18l17 40q36 -22 73 -22q25 0 38.5 11t13.5 25t-12 24t-33 10q-24 0 -41 -11l-38 21l50 73q-65 8 -109 41t-64 76l62 47q21 -38 59 -63t88 -25
q41 0 70 21.5t29 53.5q0 24 -16 40.5t-39 27t-66 25.5q-55 18 -88.5 34.5t-57.5 46.5t-24 77q0 71 52 115t136 44q72 0 124 -30t73 -73l-62 -48q-19 33 -54.5 53t-78.5 20q-42 0 -68.5 -20.5t-26.5 -53.5q0 -23 15.5 -39.5t38.5 -26.5t65 -25q55 -18 89 -35t58.5 -48
t24.5 -79q0 -66 -48.5 -109z" />
    <glyph glyph-name="Scaron" unicode="&#x160;" horiz-adv-x="567" 
d="M140 25.5q-64 38.5 -93 105.5l86 30q22 -43 63 -66t94 -23q57 0 93 29t36 78q0 32 -20 55t-50.5 38.5t-81.5 35.5q-67 27 -108 49.5t-70.5 62.5t-29.5 100q0 58 29 100.5t79.5 65t114.5 22.5q86 0 143.5 -35.5t84.5 -101.5l-91 -29q-17 39 -53 60t-83 21q-54 0 -88.5 -28
t-34.5 -74q0 -33 20.5 -56.5t50 -38t84.5 -36.5q66 -26 107 -48t70 -60.5t29 -96.5q0 -60 -29 -104.5t-81 -69t-121 -24.5q-86 0 -150 38.5zM273 762l-124 131l64 22l90 -91l89 91l64 -22l-124 -131h-59z" />
    <glyph glyph-name="scaron" unicode="&#x161;" horiz-adv-x="484" 
d="M112 21.5q-54 34.5 -77 84.5l62 47q21 -38 59 -63t88 -25q41 0 70 21.5t29 53.5q0 24 -16 40.5t-39 27t-66 25.5q-55 18 -88.5 34.5t-57.5 46.5t-24 77q0 71 52 115t136 44q72 0 124 -30t73 -73l-62 -48q-19 33 -54.5 53t-78.5 20q-42 0 -68.5 -20.5t-26.5 -53.5
q0 -23 15.5 -39.5t38.5 -26.5t65 -25q55 -18 89 -35t58.5 -48t24.5 -79q0 -47 -25.5 -83t-69 -55.5t-95.5 -19.5q-82 0 -136 34.5zM209 604l-124 131l64 22l90 -91l89 91l64 -22l-124 -131h-59z" />
    <glyph glyph-name="uni0162" unicode="&#x162;" horiz-adv-x="609" 
d="M254 0v612h-225v83h545v-83h-225v-612h-95zM239 -200q-25 7 -43 18l17 40q36 -22 73 -22q25 0 38.5 11t13.5 25t-12 24t-33 10q-24 0 -41 -11l-38 21l57 84h62l-42 -55q15 5 31 5q40 0 63.5 -22.5t23.5 -52.5q0 -34 -30.5 -58t-88.5 -24q-26 0 -51 7z" />
    <glyph glyph-name="uni0163" unicode="&#x163;" horiz-adv-x="405" 
d="M329.5 -72.5q23.5 -22.5 23.5 -52.5q0 -34 -30.5 -58t-88.5 -24q-26 0 -51 7t-43 18l17 40q36 -22 73 -22q25 0 38.5 11t13.5 25t-12 24t-33 10q-24 0 -41 -11l-38 21l53 79q-45 14 -70 52.5t-25 100.5v305h-98v84h98v153l93 17v-170h142v-84h-142v-287q0 -46 18.5 -67.5
t55.5 -21.5q35 0 77 21l10 -88q-53 -23 -102 -23h-1l-32 -42q15 5 31 5q40 0 63.5 -22.5z" />
    <glyph glyph-name="Tcaron" unicode="&#x164;" horiz-adv-x="609" 
d="M254 0v612h-225v83h545v-83h-225v-612h-95zM275 762l-124 131l64 22l90 -91l89 91l64 -22l-124 -131h-59z" />
    <glyph glyph-name="tcaron" unicode="&#x165;" horiz-adv-x="405" 
d="M156 27.5q-40 40.5 -40 120.5v305h-98v84h98v153l93 17v-170h142v-84h-142v-287q0 -46 18.5 -67.5t55.5 -21.5q35 0 77 21l10 -88q-53 -23 -102 -23q-72 0 -112 40.5zM325 566h-67l19 184h77z" />
    <glyph glyph-name="Tbar" unicode="&#x166;" horiz-adv-x="609" 
d="M574 612h-225v-224h118v-75h-118v-313h-95v313h-120v75h120v224h-225v83h545v-83z" />
    <glyph glyph-name="tbar" unicode="&#x167;" horiz-adv-x="405" 
d="M370 10q-53 -23 -102 -23q-72 0 -112 40.5t-40 120.5v115h-66v66h66v124h-98v84h98v153l93 17v-170h142v-84h-142v-124h91v-66h-91v-97q0 -46 18.5 -67.5t55.5 -21.5q35 0 77 21z" />
    <glyph glyph-name="Utilde" unicode="&#x168;" horiz-adv-x="674" 
d="M158 55q-67 68 -67 201v439h95v-440q0 -84 35.5 -133.5t114.5 -49.5t115.5 49.5t36.5 133.5v440h95v-439q0 -133 -68 -201t-179 -68t-178 68zM190 790q4 41 25.5 65.5t57.5 24.5q23 0 65 -8q36 -6 48 -6q18 0 26 11.5t9 32.5l63 -14q-5 -44 -29 -70t-65 -26q-24 0 -64 8
q-32 6 -40 6q-17 0 -24.5 -9.5t-9.5 -29.5z" />
    <glyph glyph-name="utilde" unicode="&#x169;" horiz-adv-x="559" 
d="M140 10q-40 23 -62.5 64t-22.5 93v370h93v-354q0 -53 29.5 -83t77.5 -30q33 0 62 17t46.5 48.5t17.5 74.5v327h93v-382q0 -41 6 -83.5t16 -71.5h-91q-14 30 -17 75q-19 -37 -62 -62.5t-95 -25.5q-51 0 -91 23zM119 632q4 41 25.5 65.5t57.5 24.5q23 0 65 -8q36 -6 48 -6
q18 0 26 11.5t9 32.5l63 -14q-5 -44 -29 -70t-65 -26q-24 0 -64 8q-32 6 -40 6q-17 0 -24.5 -9.5t-9.5 -29.5z" />
    <glyph glyph-name="Umacron" unicode="&#x16a;" horiz-adv-x="674" 
d="M158 55q-67 68 -67 201v439h95v-440q0 -84 35.5 -133.5t114.5 -49.5t115.5 49.5t36.5 133.5v440h95v-439q0 -133 -68 -201t-179 -68t-178 68zM470 866v-70h-267v70h267z" />
    <glyph glyph-name="umacron" unicode="&#x16b;" horiz-adv-x="559" 
d="M140 10q-40 23 -62.5 64t-22.5 93v370h93v-354q0 -53 29.5 -83t77.5 -30q33 0 62 17t46.5 48.5t17.5 74.5v327h93v-382q0 -41 6 -83.5t16 -71.5h-91q-14 30 -17 75q-19 -37 -62 -62.5t-95 -25.5q-51 0 -91 23zM399 708v-70h-267v70h267z" />
    <glyph glyph-name="Ubreve" unicode="&#x16c;" horiz-adv-x="674" 
d="M158 55q-67 68 -67 201v439h95v-440q0 -84 35.5 -133.5t114.5 -49.5t115.5 49.5t36.5 133.5v440h95v-439q0 -133 -68 -201t-179 -68t-178 68zM241.5 801q-36.5 35 -37.5 104h67q0 -36 18 -56t48 -20t47.5 20t17.5 56h68q-1 -69 -37.5 -104t-95.5 -35t-95.5 35z" />
    <glyph glyph-name="ubreve" unicode="&#x16d;" horiz-adv-x="559" 
d="M140 10q-40 23 -62.5 64t-22.5 93v370h93v-354q0 -53 29.5 -83t77.5 -30q33 0 62 17t46.5 48.5t17.5 74.5v327h93v-382q0 -41 6 -83.5t16 -71.5h-91q-14 30 -17 75q-19 -37 -62 -62.5t-95 -25.5q-51 0 -91 23zM170.5 643q-36.5 35 -37.5 104h67q0 -36 18 -56t48 -20
t47.5 20t17.5 56h68q-1 -69 -37.5 -104t-95.5 -35t-95.5 35z" />
    <glyph glyph-name="Uring" unicode="&#x16e;" horiz-adv-x="674" 
d="M158 55q-67 68 -67 201v439h95v-440q0 -84 35.5 -133.5t114.5 -49.5t115.5 49.5t36.5 133.5v440h95v-439q0 -133 -68 -201t-179 -68t-178 68zM406 915q27 -26 27 -67t-27 -67t-69 -26t-68.5 26t-26.5 67t26.5 67t68.5 26t69 -26zM304.5 882q-12.5 -13 -12.5 -34
q0 -22 12.5 -35t32.5 -13t33 13.5t13 34.5t-13 34t-33 13t-32.5 -13z" />
    <glyph glyph-name="uring" unicode="&#x16f;" horiz-adv-x="559" 
d="M140 10q-40 23 -62.5 64t-22.5 93v370h93v-354q0 -53 29.5 -83t77.5 -30q33 0 62 17t46.5 48.5t17.5 74.5v327h93v-382q0 -41 6 -83.5t16 -71.5h-91q-14 30 -17 75q-19 -37 -62 -62.5t-95 -25.5q-51 0 -91 23zM335 757q27 -26 27 -67t-27 -67t-69 -26t-68.5 26t-26.5 67
t26.5 67t68.5 26t69 -26zM233.5 724q-12.5 -13 -12.5 -34q0 -22 12.5 -35t32.5 -13t33 13.5t13 34.5t-13 34t-33 13t-32.5 -13z" />
    <glyph glyph-name="Uhungarumlaut" unicode="&#x170;" horiz-adv-x="674" 
d="M158 55q-67 68 -67 201v439h95v-440q0 -84 35.5 -133.5t114.5 -49.5t115.5 49.5t36.5 133.5v440h95v-439q0 -133 -68 -201t-179 -68t-178 68zM238 760l86 160h80l-92 -160h-74zM366 760l91 160h83l-99 -160h-75z" />
    <glyph glyph-name="uhungarumlaut" unicode="&#x171;" horiz-adv-x="559" 
d="M140 10q-40 23 -62.5 64t-22.5 93v370h93v-354q0 -53 29.5 -83t77.5 -30q33 0 62 17t46.5 48.5t17.5 74.5v327h93v-382q0 -41 6 -83.5t16 -71.5h-91q-14 30 -17 75q-19 -37 -62 -62.5t-95 -25.5q-51 0 -91 23zM167 602l86 160h80l-92 -160h-74zM295 602l91 160h83
l-99 -160h-75z" />
    <glyph glyph-name="Uogonek" unicode="&#x172;" horiz-adv-x="674" 
d="M583 695v-439q0 -123 -58.5 -190.5t-156.5 -77.5q-27 -30 -27 -59q0 -24 14.5 -37.5t41.5 -14.5l-13 -61q-52 1 -81.5 27.5t-29.5 67.5q0 36 30 78q-97 9 -154.5 76.5t-57.5 190.5v439h95v-440q0 -84 35.5 -133.5t114.5 -49.5t115.5 49.5t36.5 133.5v440h95z" />
    <glyph glyph-name="uogonek" unicode="&#x173;" horiz-adv-x="559" 
d="M447.5 -108.5q14.5 -13.5 41.5 -14.5l-13 -61q-52 1 -81.5 27.5t-29.5 67.5q0 24 11.5 47t28.5 42q-14 30 -17 75q-19 -37 -62 -62.5t-95 -25.5q-51 0 -91 23t-62.5 64t-22.5 93v370h93v-354q0 -53 29.5 -83t77.5 -30q33 0 62 17t46.5 48.5t17.5 74.5v327h93v-382
q0 -41 6 -83.5t16 -71.5h-26q-37 -39 -37 -71q0 -24 14.5 -37.5z" />
    <glyph glyph-name="Wcircumflex" unicode="&#x174;" horiz-adv-x="985" 
d="M227 0l-188 695h103l147 -582l142 582h123l142 -582l147 582h103l-188 -695h-121l-144 572l-146 -572h-120zM399 753l-57 28l117 145h70l117 -145l-57 -28l-95 103z" />
    <glyph glyph-name="wcircumflex" unicode="&#x175;" horiz-adv-x="859" 
d="M198 0l-159 537h91l121 -429l129 429h101l126 -429l122 429h91l-159 -537h-102l-129 427l-130 -427h-102zM335 595l-57 28l117 145h70l117 -145l-57 -28l-95 103z" />
    <glyph glyph-name="Ycircumflex" unicode="&#x176;" horiz-adv-x="620" 
d="M263 0v253l-236 442h107l177 -341l175 341h107l-235 -442v-253h-95zM216 753l-57 28l117 145h70l117 -145l-57 -28l-95 103z" />
    <glyph glyph-name="ycircumflex" unicode="&#x177;" horiz-adv-x="547" 
d="M512 537l-202 -561q-34 -97 -105.5 -140.5t-162.5 -43.5l-6 85q62 0 112 27t74 89l-215 544h102l158 -416l147 416h98zM170 595l-57 28l117 145h70l117 -145l-57 -28l-95 103z" />
    <glyph glyph-name="Ydieresis" unicode="&#x178;" horiz-adv-x="620" 
d="M263 0v253l-236 442h107l177 -341l175 341h107l-235 -442v-253h-95zM184 795.5q-15 13.5 -15 36.5q0 24 15 37.5t36 13.5t36 -13.5t15 -37.5q0 -23 -15 -36.5t-36 -13.5t-36 13.5zM365 795.5q-15 13.5 -15 36.5q0 24 15 37.5t36 13.5t36 -13.5t15 -37.5q0 -23 -15 -36.5
t-36 -13.5t-36 13.5z" />
    <glyph glyph-name="Zacute" unicode="&#x179;" horiz-adv-x="608" 
d="M55 0v74l373 538h-364v83h479v-73l-377 -539h387v-83h-498zM199 758l-29 62l255 124l32 -69z" />
    <glyph glyph-name="zacute" unicode="&#x17a;" horiz-adv-x="507" 
d="M41 0l-1 76l294 377h-289v84h404v-70l-294 -383h302v-84h-416zM127 600l-29 62l255 124l32 -69z" />
    <glyph glyph-name="Zdotaccent" unicode="&#x17b;" horiz-adv-x="608" 
d="M55 0v74l373 538h-364v83h479v-73l-377 -539h387v-83h-498zM283.5 794.5q-15.5 14.5 -15.5 38.5t15.5 38.5t37.5 14.5t37.5 -14.5t15.5 -38.5t-15.5 -38.5t-37.5 -14.5t-37.5 14.5z" />
    <glyph glyph-name="zdotaccent" unicode="&#x17c;" horiz-adv-x="507" 
d="M41 0l-1 76l294 377h-289v84h404v-70l-294 -383h302v-84h-416zM211.5 636.5q-15.5 14.5 -15.5 38.5t15.5 37.5t37.5 13.5q21 0 36.5 -13.5t15.5 -37.5t-15.5 -38.5t-36.5 -14.5q-22 0 -37.5 14.5z" />
    <glyph glyph-name="Zcaron" unicode="&#x17d;" horiz-adv-x="608" 
d="M55 0v74l373 538h-364v83h479v-73l-377 -539h387v-83h-498zM292 762l-124 131l64 22l90 -91l89 91l64 -22l-124 -131h-59z" />
    <glyph glyph-name="zcaron" unicode="&#x17e;" horiz-adv-x="507" 
d="M41 0l-1 76l294 377h-289v84h404v-70l-294 -383h302v-84h-416zM220 604l-124 131l64 22l90 -91l89 91l64 -22l-124 -131h-59z" />
    <glyph glyph-name="uni018F" unicode="&#x18f;" horiz-adv-x="674" 
d="M543 616.5q77 -91.5 77 -265.5q0 -116 -35 -198t-99 -124t-151 -42q-84 0 -146.5 39.5t-96 111t-33.5 165.5v48h463q0 138 -51.5 205t-139.5 67q-64 0 -109 -32.5t-67 -85.5l-83 23q32 82 99.5 131t159.5 49q135 0 212 -91.5zM458 123q48 51 60 154h-363q2 -91 50.5 -148
t129.5 -57q75 0 123 51z" />
    <glyph glyph-name="florin" unicode="&#x192;" horiz-adv-x="444" 
d="M13 7l20 73q24 -12 50 -12q42 0 65 25t23 77v160h-130v57h130v139q0 90 45 136t121 46q51 0 94 -22l-21 -73q-25 14 -55 14q-88 0 -88 -101v-139h130v-57h-130v-160q0 -88 -44 -135.5t-123 -47.5q-44 0 -87 20z" />
    <glyph glyph-name="uni019D" unicode="&#x19d;" horiz-adv-x="724" 
d="M-8 -115q54 0 79.5 24t25.5 86v700h92l344 -528v528h95v-695h-92l-344 529v-531q0 -106 -52 -149.5t-148 -43.5v80z" />
    <glyph glyph-name="Gcaron" unicode="&#x1e6;" horiz-adv-x="709" 
d="M521 529q-20 43 -60 68.5t-98 25.5q-61 0 -109 -32.5t-75 -94.5t-27 -148q0 -84 28.5 -147t78 -96t111.5 -33q54 0 97 16.5t71 49.5v146h-194v83h289v-278q-45 -49 -114 -75.5t-149 -26.5q-91 0 -162.5 45.5t-112 127.5t-40.5 188q0 109 38.5 190.5t108 125.5t159.5 44
q96 0 160.5 -42t88.5 -110zM329 762l-124 131l64 22l90 -91l89 91l64 -22l-124 -131h-59z" />
    <glyph glyph-name="gcaron" unicode="&#x1e7;" horiz-adv-x="543" 
d="M483.5 72.5q44.5 -38.5 44.5 -102.5q0 -80 -67.5 -129t-191.5 -49q-66 0 -118.5 19.5t-82.5 55.5t-30 84q0 30 15.5 59t41.5 51q-17 14 -26 33.5t-9 40.5q0 27 16.5 53.5t47.5 43.5q-30 24 -46 59t-16 76q0 54 26.5 95.5t74 64.5t110.5 23q74 0 126 -32q32 32 32 80h79
q0 -68 -66 -118q39 -47 39 -113q0 -54 -26 -95.5t-73.5 -65t-110.5 -23.5q-55 0 -98 18q-30 -19 -30 -46q0 -18 15.5 -31t44.5 -13h159q75 0 119.5 -38.5zM185 447q-33 -31 -33 -80q0 -50 32.5 -81t88.5 -31q55 0 88 31t33 81q0 49 -33.5 80t-87.5 31q-55 0 -88 -31z
M387.5 -104.5q46.5 25.5 46.5 70.5q0 31 -21 50t-54 19h-178q-11 0 -27 2q-30 -30 -30 -69q0 -45 40 -71.5t106 -26.5q71 0 117.5 25.5zM244 609l-124 131l64 22l90 -91l89 91l64 -22l-124 -131h-59z" />
    <glyph glyph-name="uni01EA" unicode="&#x1ea;" horiz-adv-x="681" 
d="M560.5 92.5q-65.5 -91.5 -182.5 -103.5q-24 -29 -24 -56q0 -24 14.5 -37.5t41.5 -14.5l-13 -61q-52 1 -81.5 27.5t-29.5 67.5q0 34 27 73q-121 9 -189.5 100.5t-68.5 259.5q0 177 76 268.5t209 91.5q134 0 210 -91.5t76 -268.5q0 -164 -65.5 -255.5zM201.5 138.5
q49.5 -66.5 138.5 -66.5t139 66.5t50 209.5q0 142 -50 208.5t-139 66.5t-138.5 -66.5t-49.5 -208.5q0 -143 49.5 -209.5z" />
    <glyph glyph-name="uni01EB" unicode="&#x1eb;" horiz-adv-x="547" 
d="M458 77.5q-50 -71.5 -139 -86.5q-24 -31 -24 -57q0 -24 14.5 -37.5t41.5 -14.5l-13 -61q-52 1 -81.5 27.5t-29.5 67.5q0 35 26 72q-99 7 -156.5 79.5t-57.5 201.5q0 135 63 208t171 73q109 0 172 -73t63 -208q0 -120 -50 -191.5zM170 120.5q36 -51.5 103 -51.5t103.5 52
t36.5 148t-36.5 147.5t-103.5 51.5t-103 -51.5t-36 -147.5q0 -97 36 -148.5z" />
    <glyph glyph-name="Aringacute" unicode="&#x1fa;" horiz-adv-x="615" 
d="M495 0l-52 163h-275l-52 -163h-97l229 695h120l228 -695h-101zM193 245h223l-112 350zM377 915q27 -26 27 -67t-27 -67t-69 -26t-68.5 26t-26.5 67t26.5 67t68.5 26t69 -26zM275.5 882q-12.5 -13 -12.5 -34q0 -22 12.5 -35t32.5 -13t33 13.5t13 34.5t-13 34t-33 13
t-32.5 -13zM193 946l-29 62l255 124l32 -69z" />
    <glyph glyph-name="aringacute" unicode="&#x1fb;" horiz-adv-x="553" 
d="M96.5 28q-45.5 41 -45.5 110q0 79 56 120.5t156 41.5h110v61q0 48 -29.5 77.5t-76.5 29.5q-39 0 -68.5 -21t-42.5 -56l-86 23q11 33 37 64.5t67 51.5t92 20q91 0 146 -50.5t55 -139.5v-206q0 -103 23 -154h-99q-15 31 -16 72q-22 -38 -66 -61.5t-97 -23.5
q-70 0 -115.5 41zM305.5 81.5q30.5 15.5 49 41.5t18.5 56v55h-107q-120 0 -120 -89q0 -35 27 -57t69 -22q33 0 63.5 15.5zM352 757q27 -26 27 -67t-27 -67t-69 -26t-68.5 26t-26.5 67t26.5 67t68.5 26t69 -26zM250.5 724q-12.5 -13 -12.5 -34q0 -22 12.5 -35t32.5 -13
t33 13.5t13 34.5t-13 34t-33 13t-32.5 -13zM168 788l-29 62l255 124l32 -69z" />
    <glyph glyph-name="AEacute" unicode="&#x1fc;" horiz-adv-x="955" 
d="M548 83h338v-83h-433v184h-224l-97 -184h-98l372 695h453v-83h-311v-222h272v-82h-272v-225zM272 266h181v342zM494 758l-29 62l255 124l32 -69z" />
    <glyph glyph-name="aeacute" unicode="&#x1fd;" horiz-adv-x="876" 
d="M837 135q-23 -64 -84.5 -106t-135.5 -42q-62 0 -111.5 26t-81.5 74q-35 -48 -82.5 -74t-112.5 -26q-79 0 -128.5 45t-49.5 119q0 50 24.5 90t73 63t117.5 23h107v35q0 47 -29.5 76.5t-76.5 29.5q-38 0 -68 -21t-43 -56l-86 23q18 54 70 95t127 41q56 0 100 -20.5
t69 -57.5q31 38 75 58t97 20q68 0 119.5 -32t79 -87t27.5 -121v-69h-364q7 -80 47 -126t100 -46q48 0 83.5 22.5t53.5 64.5zM518 432q-35 -36 -45 -105h266q-1 63 -36.5 102t-95.5 39q-54 0 -89 -36zM373 241h-107q-61 0 -90.5 -22.5t-29.5 -67.5q0 -37 27 -60t69 -22
q34 -1 64 15t48.5 45.5t18.5 67.5v44zM326 600l-29 62l255 124l32 -69z" />
    <glyph glyph-name="Oslashacute" unicode="&#x1fe;" horiz-adv-x="681" 
d="M596 534.5q30 -77.5 30 -186.5q0 -177 -76 -269t-210 -92q-56 0 -105 17l-30 -71l-65 21l35 83q-58 43 -89 121t-31 190q0 177 76 268.5t209 91.5q63 0 111 -19l26 62l65 -21l-32 -75q56 -43 86 -120.5zM212 125l205 483q-34 15 -77 15q-89 0 -138.5 -66.5t-49.5 -208.5
q0 -155 60 -223zM479 138.5q50 66.5 50 209.5q0 147 -57 217l-203 -480q30 -13 71 -13q89 0 139 66.5zM224 758l-29 62l255 124l32 -69z" />
    <glyph glyph-name="oslashacute" unicode="&#x1ff;" horiz-adv-x="547" 
d="M486.5 405q21.5 -58 21.5 -136q0 -136 -63 -209t-172 -73q-61 0 -109 24l-29 -54l-47 27l31 58q-39 36 -59.5 93.5t-20.5 133.5q0 135 63 208t171 73q61 0 106 -22l33 62l47 -27l-35 -65q41 -35 62.5 -93zM165 128l173 324q-26 16 -65 16q-67 0 -103 -51.5t-36 -147.5
q0 -88 31 -141zM376.5 121q36.5 52 36.5 148q0 91 -34 144l-174 -326q29 -18 68 -18q67 0 103.5 52zM150 600l-29 62l255 124l32 -69z" />
    <glyph glyph-name="Scommaaccent" unicode="&#x218;" horiz-adv-x="567" 
d="M140 25.5q-64 38.5 -93 105.5l86 30q22 -43 63 -66t94 -23q57 0 93 29t36 78q0 32 -20 55t-50.5 38.5t-81.5 35.5q-67 27 -108 49.5t-70.5 62.5t-29.5 100q0 58 29 100.5t79.5 65t114.5 22.5q86 0 143.5 -35.5t84.5 -101.5l-91 -29q-17 39 -53 60t-83 21q-54 0 -88.5 -28
t-34.5 -74q0 -33 20.5 -56.5t50 -38t84.5 -36.5q66 -26 107 -48t70 -60.5t29 -96.5q0 -60 -29 -104.5t-81 -69t-121 -24.5q-86 0 -150 38.5zM241 -227q52 28 60 89q-8 -7 -21 -7q-24 0 -37.5 14t-13.5 34t15 35t41 15q33 0 51 -20.5t18 -53.5q0 -42 -20.5 -79.5t-62.5 -60.5
z" />
    <glyph glyph-name="scommaaccent" unicode="&#x219;" horiz-adv-x="484" 
d="M112 21.5q-54 34.5 -77 84.5l62 47q21 -38 59 -63t88 -25q41 0 70 21.5t29 53.5q0 24 -16 40.5t-39 27t-66 25.5q-55 18 -88.5 34.5t-57.5 46.5t-24 77q0 71 52 115t136 44q72 0 124 -30t73 -73l-62 -48q-19 33 -54.5 53t-78.5 20q-42 0 -68.5 -20.5t-26.5 -53.5
q0 -23 15.5 -39.5t38.5 -26.5t65 -25q55 -18 89 -35t58.5 -48t24.5 -79q0 -47 -25.5 -83t-69 -55.5t-95.5 -19.5q-82 0 -136 34.5zM194 -227q52 28 60 89q-8 -7 -21 -7q-24 0 -37.5 14t-13.5 34t15 35t41 15q33 0 51 -20.5t18 -53.5q0 -42 -20.5 -79.5t-62.5 -60.5z" />
    <glyph glyph-name="uni021A" unicode="&#x21a;" horiz-adv-x="609" 
d="M254 0v612h-225v83h545v-83h-225v-612h-95zM250 -227q52 28 60 89q-8 -7 -21 -7q-24 0 -37.5 14t-13.5 34t15 35t41 15q33 0 51 -20.5t18 -53.5q0 -42 -20.5 -79.5t-62.5 -60.5z" />
    <glyph glyph-name="uni021B" unicode="&#x21b;" horiz-adv-x="405" 
d="M156 27.5q-40 40.5 -40 120.5v305h-98v84h98v153l93 17v-170h142v-84h-142v-287q0 -46 18.5 -67.5t55.5 -21.5q35 0 77 21l10 -88q-53 -23 -102 -23q-72 0 -112 40.5zM194 -227q52 28 60 89q-8 -7 -21 -7q-24 0 -37.5 14t-13.5 34t15 35t41 15q33 0 51 -20.5t18 -53.5
q0 -42 -20.5 -79.5t-62.5 -60.5z" />
    <glyph glyph-name="uni0232" unicode="&#x232;" horiz-adv-x="620" 
d="M263 0v253l-236 442h107l177 -341l175 341h107l-235 -442v-253h-95zM444 866v-70h-267v70h267z" />
    <glyph glyph-name="uni0233" unicode="&#x233;" horiz-adv-x="547" 
d="M512 537l-202 -561q-34 -97 -105.5 -140.5t-162.5 -43.5l-6 85q62 0 112 27t74 89l-215 544h102l158 -416l147 416h98zM398 708v-70h-267v70h267z" />
    <glyph glyph-name="uni0237" unicode="&#x237;" horiz-adv-x="257" 
d="M-21 -128q53 0 78.5 24t25.5 86v555h93v-552q0 -106 -50.5 -149.5t-146.5 -43.5v80z" />
    <glyph glyph-name="uni0259" unicode="&#x259;" horiz-adv-x="523" 
d="M372 517.5q53 -32.5 82.5 -96t29.5 -152.5q0 -90 -29.5 -153.5t-82.5 -96t-123 -32.5q-65 0 -115.5 33.5t-78.5 90t-28 122.5v57h362q-4 86 -40.5 132t-98.5 46q-45 0 -76 -23.5t-48 -63.5l-88 21q23 66 79 107t132 41q70 0 123 -32.5zM341.5 105q35.5 38 44.5 112h-266
q0 -62 35.5 -106t92.5 -44q58 0 93.5 38z" />
    <glyph glyph-name="uni0272" unicode="&#x272;" horiz-adv-x="578" 
d="M-20 -115q48 0 71.5 25.5t23.5 84.5v542h90v-73q18 34 55 60t92 26q51 0 92.5 -23.5t66.5 -71t25 -118.5v-337h-93v326q0 65 -33 100t-83 35t-85 -37t-35 -105v-321q0 -103 -48 -148t-139 -45v80z" />
    <glyph glyph-name="circumflex" unicode="&#x2c6;" horiz-adv-x="606" 
d="M181 596l-57 28l117 145h70l117 -145l-57 -28l-95 103z" />
    <glyph glyph-name="caron" unicode="&#x2c7;" horiz-adv-x="606" 
d="M247 604l-124 131l64 22l90 -91l89 91l64 -22l-124 -131h-59z" />
    <glyph glyph-name="breve" unicode="&#x2d8;" horiz-adv-x="606" 
d="M180.5 643q-36.5 35 -37.5 104h67q0 -36 18 -56t48 -20t47.5 20t17.5 56h68q-1 -69 -37.5 -104t-95.5 -35t-95.5 35z" />
    <glyph glyph-name="dotaccent" unicode="&#x2d9;" horiz-adv-x="606" 
d="M235.5 660.5q-16.5 15.5 -16.5 41.5t16.5 41t40.5 15q23 0 40 -15t17 -41t-17 -41.5t-40 -15.5q-24 0 -40.5 15.5z" />
    <glyph glyph-name="ring" unicode="&#x2da;" horiz-adv-x="606" 
d="M345 757q27 -26 27 -67t-27 -67t-69 -26t-68.5 26t-26.5 67t26.5 67t68.5 26t69 -26zM243.5 724q-12.5 -13 -12.5 -34q0 -22 12.5 -35t32.5 -13t33 13.5t13 34.5t-13 34t-33 13t-32.5 -13z" />
    <glyph glyph-name="ogonek" unicode="&#x2db;" horiz-adv-x="606" 
d="M285 -71q0 -24 14.5 -37.5t41.5 -14.5l-13 -61q-52 1 -81.5 27.5t-29.5 67.5q0 24 11.5 47t28.5 42h65q-37 -39 -37 -71z" />
    <glyph glyph-name="tilde" unicode="&#x2dc;" horiz-adv-x="606" 
d="M129 632q4 41 25.5 65.5t57.5 24.5q23 0 65 -8q36 -6 48 -6q18 0 26 11.5t9 32.5l63 -14q-5 -44 -29 -70t-65 -26q-24 0 -64 8q-32 6 -40 6q-17 0 -24.5 -9.5t-9.5 -29.5z" />
    <glyph glyph-name="hungarumlaut" unicode="&#x2dd;" horiz-adv-x="606" 
d="M125 602l86 160h80l-92 -160h-74zM253 602l91 160h83l-99 -160h-75z" />
    <glyph glyph-name="gravecomb" unicode="&#x300;" 
d="M-161 600l-258 117l32 69l255 -124z" />
    <glyph glyph-name="acutecomb" unicode="&#x301;" 
d="M-390 600l-29 62l255 124l32 -69z" />
    <glyph glyph-name="uni0302" unicode="&#x302;" 
d="M-371 596l-57 28l117 145h70l117 -145l-57 -28l-95 103z" />
    <glyph glyph-name="tildecomb" unicode="&#x303;" 
d="M-423 632q4 41 25.5 65.5t57.5 24.5q23 0 65 -8q36 -6 48 -6q18 0 26 11.5t9 32.5l63 -14q-5 -44 -29 -70t-65 -26q-24 0 -64 8q-32 6 -40 6q-17 0 -24.5 -9.5t-9.5 -29.5z" />
    <glyph glyph-name="uni0304" unicode="&#x304;" 
d="M-143 708v-70h-267v70h267z" />
    <glyph glyph-name="uni0306" unicode="&#x306;" 
d="M-372.5 643q-36.5 35 -37.5 104h67q0 -36 18 -56t48 -20t47.5 20t17.5 56h68q-1 -69 -37.5 -104t-95.5 -35t-95.5 35z" />
    <glyph glyph-name="uni0307" unicode="&#x307;" 
d="M-316.5 660.5q-16.5 15.5 -16.5 41.5t16.5 41t40.5 15q23 0 40 -15t17 -41t-17 -41.5t-40 -15.5q-24 0 -40.5 15.5z" />
    <glyph glyph-name="uni0308" unicode="&#x308;" 
d="M-402 637.5q-15 13.5 -15 36.5q0 24 15 37.5t36 13.5t36 -13.5t15 -37.5q0 -23 -15 -36.5t-36 -13.5t-36 13.5zM-221 637.5q-15 13.5 -15 36.5q0 24 15 37.5t36 13.5t36 -13.5t15 -37.5q0 -23 -15 -36.5t-36 -13.5t-36 13.5z" />
    <glyph glyph-name="uni030A" unicode="&#x30a;" 
d="M-208 757q27 -26 27 -67t-27 -67t-69 -26t-68.5 26t-26.5 67t26.5 67t68.5 26t69 -26zM-309.5 724q-12.5 -13 -12.5 -34q0 -22 12.5 -35t32.5 -13t33 13.5t13 34.5t-13 34t-33 13t-32.5 -13z" />
    <glyph glyph-name="uni030B" unicode="&#x30b;" 
d="M-427 602l86 160h80l-92 -160h-74zM-299 602l91 160h83l-99 -160h-75z" />
    <glyph glyph-name="uni030C" unicode="&#x30c;" 
d="M-305 604l-124 131l64 22l90 -91l89 91l64 -22l-124 -131h-59z" />
    <glyph glyph-name="uni0312" unicode="&#x312;" 
d="M-224 788q-52 -28 -60 -89q8 7 21 7q24 0 37.5 -14t13.5 -34t-15 -35t-41 -15q-33 0 -51 20.5t-18 53.5q0 42 20.5 79.5t62.5 60.5z" />
    <glyph glyph-name="dotbelowcomb" unicode="&#x323;" 
d="M-325.5 -163.5q-15.5 14.5 -15.5 38.5t15.5 37.5t37.5 13.5q21 0 36.5 -14t15.5 -37q0 -24 -15.5 -38.5t-36.5 -14.5q-22 0 -37.5 14.5z" />
    <glyph glyph-name="uni0326" unicode="&#x326;" 
d="M-329 -227q52 28 60 89q-8 -7 -21 -7q-24 0 -37.5 14t-13.5 34t15 35t41 15q33 0 51 -20.5t18 -53.5q0 -42 -20.5 -79.5t-62.5 -60.5z" />
    <glyph glyph-name="uni0327" unicode="&#x327;" 
d="M-335 -200q-25 7 -43 18l17 40q36 -22 73 -22q25 0 38.5 11t13.5 25t-12 24t-33 10q-24 0 -41 -11l-38 21l57 84h62l-42 -55q15 5 31 5q40 0 63.5 -22.5t23.5 -52.5q0 -34 -30.5 -58t-88.5 -24q-26 0 -51 7z" />
    <glyph glyph-name="uni0328" unicode="&#x328;" 
d="M-267 -71q0 -24 14.5 -37.5t41.5 -14.5l-13 -61q-52 1 -81.5 27.5t-29.5 67.5q0 24 11.5 47t28.5 42h65q-37 -39 -37 -71z" />
    <glyph glyph-name="uni0335" unicode="&#x335;" 
d="M-401 200v66h250v-66h-250z" />
    <glyph glyph-name="uni0336" unicode="&#x336;" 
d="M-421 220v67h290v-67h-290z" />
    <glyph glyph-name="uni0337" unicode="&#x337;" 
d="M-404 274v83l256 88v-83z" />
    <glyph glyph-name="uni0338" unicode="&#x338;" 
d="M-462 -55l324 606l47 -27l-324 -606z" />
    <glyph glyph-name="tonos" unicode="&#x384;" horiz-adv-x="606" 
d="M262 591l29 179h95l-42 -179h-82z" />
    <glyph glyph-name="dieresistonos" unicode="&#x385;" horiz-adv-x="606" 
d="M266 591l29 179h83l-43 -179h-69zM163 646q-15 14 -15 37t15 37t36 14t36 -14t15 -37t-15 -37t-36 -14t-36 14zM399 646q-15 14 -15 37t15 37t36 14t36 -14t15 -37t-15 -37t-36 -14t-36 14z" />
    <glyph glyph-name="Alphatonos" unicode="&#x386;" horiz-adv-x="615" 
d="M495 0l-52 163h-275l-52 -163h-97l229 695h120l228 -695h-101zM193 245h223l-112 350zM56 489l45 206h75l-51 -206h-69z" />
    <glyph glyph-name="Epsilontonos" unicode="&#x388;" horiz-adv-x="672" 
d="M171 0v695h406v-83h-311v-222h271v-82h-271v-225h338v-83h-433zM13 489l45 206h75l-51 -206h-69z" />
    <glyph glyph-name="Etatonos" unicode="&#x389;" horiz-adv-x="816" 
d="M171 0v695h95v-303h358v303h95v-695h-95v309h-358v-309h-95zM13 489l45 206h75l-51 -206h-69z" />
    <glyph glyph-name="Iotatonos" unicode="&#x38a;" horiz-adv-x="362" 
d="M171 0v695h95v-695h-95zM13 489l45 206h75l-51 -206h-69z" />
    <glyph glyph-name="Omicrontonos" unicode="&#x38c;" horiz-adv-x="714" 
d="M164 79q-76 92 -76 269t76 268.5t209 91.5q134 0 210 -91.5t76 -268.5t-76 -269t-210 -92q-133 0 -209 92zM512 138.5q50 66.5 50 209.5q0 142 -50 208.5t-139 66.5t-138.5 -66.5t-49.5 -208.5q0 -143 49.5 -209.5t138.5 -66.5t139 66.5zM-7 489l45 206h75l-51 -206h-69z
" />
    <glyph glyph-name="Upsilontonos" unicode="&#x38e;" horiz-adv-x="677" 
d="M320 0v253l-236 442h107l177 -341l175 341h107l-235 -442v-253h-95zM-52 489l45 206h75l-51 -206h-69z" />
    <glyph glyph-name="Omegatonos" unicode="&#x38f;" horiz-adv-x="708" 
d="M73 72l152 -1q-76 39 -125 119.5t-49 185.5q0 86 36.5 162t108.5 123t175 47q102 0 174 -47t108.5 -123t36.5 -162q0 -105 -49 -185.5t-125 -119.5l152 1v-72h-268v74q96 46 148 124.5t52 177.5q0 66 -26.5 122.5t-78 90.5t-124.5 34t-125 -34t-78.5 -90.5t-26.5 -122.5
q0 -99 52 -177.5t149 -124.5v-74h-269v72zM-40 489l45 206h75l-51 -206h-69z" />
    <glyph glyph-name="iotadieresistonos" unicode="&#x390;" horiz-adv-x="283" 
d="M75 537h92v-369q0 -46 19 -69t55 -23q12 0 28 3l-4 -84q-19 -3 -37 -3q-69 0 -111 41.5t-42 132.5v371zM85 591l29 179h83l-43 -179h-69zM-18 646q-15 14 -15 37t15 37t36 14t36 -14t15 -37t-15 -37t-36 -14t-36 14zM218 646q-15 14 -15 37t15 37t36 14t36 -14t15 -37
t-15 -37t-36 -14t-36 14z" />
    <glyph glyph-name="Alpha" unicode="&#x391;" horiz-adv-x="615" 
d="M495 0l-52 163h-275l-52 -163h-97l229 695h120l228 -695h-101zM193 245h223l-112 350z" />
    <glyph glyph-name="Beta" unicode="&#x392;" horiz-adv-x="620" 
d="M97 695h220q83 0 147 -35t64 -136q0 -69 -30.5 -109t-75.5 -58v-1q47 -13 84 -54t37 -111q0 -104 -60 -147.5t-165 -43.5h-221v695zM305 393q60 0 92 30t32 87q0 102 -122 102h-115v-219h113zM314 83q130 0 130 113q0 56 -34.5 85t-98.5 29h-119v-227h122z" />
    <glyph glyph-name="Gamma" unicode="&#x393;" horiz-adv-x="532" 
d="M97 0v695h394v-83h-299v-612h-95z" />
    <glyph glyph-name="uni0394" unicode="&#x394;" horiz-adv-x="599" 
d="M23 0l212 695h128l213 -695h-553zM136 82h327l-164 530z" />
    <glyph glyph-name="Epsilon" unicode="&#x395;" horiz-adv-x="598" 
d="M97 0v695h406v-83h-311v-222h271v-82h-271v-225h338v-83h-433z" />
    <glyph glyph-name="Zeta" unicode="&#x396;" horiz-adv-x="608" 
d="M55 0v74l373 538h-364v83h479v-73l-377 -539h387v-83h-498z" />
    <glyph glyph-name="Eta" unicode="&#x397;" horiz-adv-x="742" 
d="M97 0v695h95v-303h358v303h95v-695h-95v309h-358v-309h-95z" />
    <glyph glyph-name="Theta" unicode="&#x398;" horiz-adv-x="681" 
d="M131 79q-76 92 -76 269t76 268.5t209 91.5q134 0 210 -91.5t76 -268.5t-76 -269t-210 -92q-133 0 -209 92zM479 138.5q50 66.5 50 209.5q0 142 -50 208.5t-139 66.5t-138.5 -66.5t-49.5 -208.5q0 -143 49.5 -209.5t138.5 -66.5t139 66.5zM469 382v-70h-260v70h260z" />
    <glyph glyph-name="Iota" unicode="&#x399;" horiz-adv-x="288" 
d="M97 0v695h95v-695h-95z" />
    <glyph glyph-name="Kappa" unicode="&#x39a;" horiz-adv-x="631" 
d="M610 0h-119l-234 310l-65 -79v-231h-95v695h95v-319l268 319h115l-255 -309z" />
    <glyph glyph-name="Lambda" unicode="&#x39b;" horiz-adv-x="615" 
d="M19 0l229 695h120l228 -695h-101l-191 595l-188 -595h-97z" />
    <glyph glyph-name="Mu" unicode="&#x39c;" horiz-adv-x="850" 
d="M97 0v695h102l225 -415l226 415h103v-695h-95v527l-194 -364h-79l-193 364v-527h-95z" />
    <glyph glyph-name="Nu" unicode="&#x39d;" horiz-adv-x="724" 
d="M97 0v695h91l345 -528v528h95v-695h-91l-345 529v-529h-95z" />
    <glyph glyph-name="Xi" unicode="&#x39e;" horiz-adv-x="618" 
d="M75 612v83h469v-83h-469zM125 308v82h369v-82h-369zM75 0v83h469v-83h-469z" />
    <glyph glyph-name="Omicron" unicode="&#x39f;" horiz-adv-x="681" 
d="M131 79q-76 92 -76 269t76 268.5t209 91.5q134 0 210 -91.5t76 -268.5t-76 -269t-210 -92q-133 0 -209 92zM479 138.5q50 66.5 50 209.5q0 142 -50 208.5t-139 66.5t-138.5 -66.5t-49.5 -208.5q0 -143 49.5 -209.5t138.5 -66.5t139 66.5z" />
    <glyph glyph-name="Pi" unicode="&#x3a0;" horiz-adv-x="742" 
d="M97 0v695h548v-695h-95v612h-358v-612h-95z" />
    <glyph glyph-name="Rho" unicode="&#x3a1;" horiz-adv-x="578" 
d="M97 695h211q103 0 165 -57t62 -156q0 -105 -63.5 -164.5t-170.5 -59.5h-109v-258h-95v695zM296 340q66 0 104 37t38 102q0 63 -37 98t-101 35h-108v-272h104z" />
    <glyph glyph-name="Sigma" unicode="&#x3a3;" horiz-adv-x="650" 
d="M85 0v76l194 272l-191 271v76h469v-83h-361l181 -264l-184 -265h372v-83h-480z" />
    <glyph glyph-name="Tau" unicode="&#x3a4;" horiz-adv-x="609" 
d="M254 0v612h-225v83h545v-83h-225v-612h-95z" />
    <glyph glyph-name="Upsilon" unicode="&#x3a5;" horiz-adv-x="620" 
d="M263 0v253l-236 442h107l177 -341l175 341h107l-235 -442v-253h-95z" />
    <glyph glyph-name="Phi" unicode="&#x3a6;" horiz-adv-x="785" 
d="M345 76h-17q-80 0 -143.5 34.5t-99.5 96.5t-36 141t36 141t99.5 96.5t143.5 34.5h17v83h95v-83h17q80 0 143.5 -34.5t99.5 -96.5t36 -141t-36 -141t-99.5 -96.5t-143.5 -34.5h-17v-84h-95v84zM345 159v378h-14q-53 0 -95 -23t-66 -66t-24 -100t24 -100t66 -66t95 -23h14z
M453 159q53 0 95.5 23t66.5 66t24 100t-24 100t-66.5 66t-95.5 23h-13v-378h13z" />
    <glyph glyph-name="Chi" unicode="&#x3a7;" horiz-adv-x="667" 
d="M622 0h-116l-177 268l-182 -268h-104l232 350l-228 345h116l175 -265l174 265h105l-225 -347z" />
    <glyph glyph-name="Psi" unicode="&#x3a8;" horiz-adv-x="785" 
d="M345 158h-17q-77 0 -138 33t-95 93t-34 140v271h95v-271q0 -57 23 -98.5t62.5 -63.5t89.5 -22h14v455h95v-455h13q77 0 126.5 49.5t49.5 134.5v271h95v-271q0 -80 -34 -140t-95 -93t-138 -33h-17v-158h-95v158z" />
    <glyph glyph-name="uni03A9" unicode="&#x3a9;" horiz-adv-x="675" 
d="M40 72l152 -1q-76 39 -125 119.5t-49 185.5q0 86 36.5 162t108.5 123t175 47q102 0 174 -47t108.5 -123t36.5 -162q0 -105 -49 -185.5t-125 -119.5l152 1v-72h-268v74q96 46 148 124.5t52 177.5q0 66 -26.5 122.5t-78 90.5t-124.5 34t-125 -34t-78.5 -90.5t-26.5 -122.5
q0 -99 52 -177.5t149 -124.5v-74h-269v72z" />
    <glyph glyph-name="Iotadieresis" unicode="&#x3aa;" horiz-adv-x="288" 
d="M97 0v695h95v-695h-95zM17 795.5q-15 13.5 -15 36.5q0 24 15 37.5t36 13.5t36 -13.5t15 -37.5q0 -23 -15 -36.5t-36 -13.5t-36 13.5zM198 795.5q-15 13.5 -15 36.5q0 24 15 37.5t36 13.5t36 -13.5t15 -37.5q0 -23 -15 -36.5t-36 -13.5t-36 13.5z" />
    <glyph glyph-name="Upsilondieresis" unicode="&#x3ab;" horiz-adv-x="620" 
d="M263 0v253l-236 442h107l177 -341l175 341h107l-235 -442v-253h-95zM183 795.5q-15 13.5 -15 36.5q0 24 15 37.5t36 13.5t36 -13.5t15 -37.5q0 -23 -15 -36.5t-36 -13.5t-36 13.5zM364 795.5q-15 13.5 -15 36.5q0 24 15 37.5t36 13.5t36 -13.5t15 -37.5q0 -23 -15 -36.5
t-36 -13.5t-36 13.5z" />
    <glyph glyph-name="alphatonos" unicode="&#x3ac;" horiz-adv-x="644" 
d="M140 20q-48 33 -74.5 96.5t-26.5 152.5q0 87 27.5 150.5t75.5 97t109 33.5q60 0 103 -27t63 -66v80h89v-349q0 -55 25.5 -82.5t72.5 -27.5l-5 -84q-67 0 -109 28t-56 78q-58 -113 -183 -113q-63 0 -111 33zM376.5 121q36.5 52 36.5 148t-36.5 147.5t-103.5 51.5
t-103 -51.5t-36 -147.5q0 -97 36 -148.5t103 -51.5t103.5 52zM236 591l29 179h95l-42 -179h-82z" />
    <glyph glyph-name="epsilontonos" unicode="&#x3ad;" horiz-adv-x="498" 
d="M138 8q-47 21 -73 59.5t-26 87.5q0 51 31 84.5t71 43.5v1q-42 13 -66 43.5t-24 76.5q0 66 54.5 106t136.5 40q74 0 124.5 -35.5t71.5 -85.5l-91 -24q-13 28 -40.5 45t-62.5 17q-40 0 -69 -22t-29 -56q0 -44 31 -64.5t77 -20.5h81v-60h-80q-48 0 -83 -22t-35 -64
q0 -41 32 -65t76 -24q47 0 79.5 20.5t48.5 50.5l86 -28q-20 -56 -74.5 -90.5t-139.5 -34.5q-60 0 -107 21zM199 591l29 179h95l-42 -179h-82z" />
    <glyph glyph-name="etatonos" unicode="&#x3ae;" horiz-adv-x="594" 
d="M419 326q0 64 -34 99.5t-87 35.5q-51 0 -87 -38t-36 -104v-319h-92v403q0 73 -53 73q-15 0 -28 -4v71q28 7 49 7q40 0 67 -21t36 -68q23 39 66.5 64t98.5 25q53 0 97 -23t70 -69.5t26 -112.5v-540h-93v521zM256 591l29 179h95l-42 -179h-82z" />
    <glyph glyph-name="iotatonos" unicode="&#x3af;" horiz-adv-x="283" 
d="M75 537h92v-369q0 -46 19 -69t55 -23q12 0 28 3l-4 -84q-19 -3 -37 -3q-69 0 -111 41.5t-42 132.5v371zM81 591l29 179h95l-42 -179h-82z" />
    <glyph glyph-name="upsilondieresistonos" unicode="&#x3b0;" horiz-adv-x="544" 
d="M113 38.5q-58 51.5 -58 146.5v352h93v-349q0 -56 30.5 -87.5t81.5 -31.5q65 0 99.5 55.5t34.5 165.5q0 57 -12 123t-31 124h92q46 -130 46 -247q0 -140 -59.5 -221.5t-169.5 -81.5q-89 0 -147 51.5zM209 591l29 179h83l-43 -179h-69zM106 646q-15 14 -15 37t15 37t36 14
t36 -14t15 -37t-15 -37t-36 -14t-36 14zM342 646q-15 14 -15 37t15 37t36 14t36 -14t15 -37t-15 -37t-36 -14t-36 14z" />
    <glyph glyph-name="alpha" unicode="&#x3b1;" horiz-adv-x="644" 
d="M140 20q-48 33 -74.5 96.5t-26.5 152.5q0 87 27.5 150.5t75.5 97t109 33.5q60 0 103 -27t63 -66v80h89v-349q0 -55 25.5 -82.5t72.5 -27.5l-5 -84q-67 0 -109 28t-56 78q-58 -113 -183 -113q-63 0 -111 33zM376.5 121q36.5 52 36.5 148t-36.5 147.5t-103.5 51.5
t-103 -51.5t-36 -147.5q0 -97 36 -148.5t103 -51.5t103.5 52z" />
    <glyph glyph-name="beta" unicode="&#x3b2;" horiz-adv-x="611" 
d="M83 497q0 66 28.5 113.5t78 72.5t110.5 25q62 0 108 -23t70 -62.5t24 -87.5q0 -44 -21.5 -80.5t-58.5 -54.5q61 -18 100 -72t39 -123q0 -63 -30.5 -113t-82.5 -77.5t-113 -27.5q-52 0 -95 21.5t-65 56.5v-260h-92v692zM421 107q38 38 38 97t-37.5 96t-101.5 37h-41v80h35
q45 0 71 28.5t26 74.5q0 47 -30 76.5t-81 29.5q-58 0 -91.5 -35.5t-33.5 -93.5v-260q0 -78 39 -123t109 -45q60 0 98 38z" />
    <glyph glyph-name="gamma" unicode="&#x3b3;" horiz-adv-x="578" 
d="M227 12l-202 525h105l157 -430q36 34 67 93t49 130.5t18 140.5q0 35 -4 66h105q1 -15 1 -44q0 -88 -26.5 -180t-73 -171t-103.5 -130v-207h-93v207z" />
    <glyph glyph-name="delta" unicode="&#x3b4;" horiz-adv-x="528" 
d="M100.5 50.5q-61.5 62.5 -61.5 176.5q0 96 45.5 153t124.5 68q-51 13 -83.5 45t-32.5 77q0 65 53.5 101.5t128.5 36.5q41 0 81.5 -10.5t72.5 -31.5l-20 -65q-56 38 -122 38q-43 0 -71 -19t-28 -50q0 -36 26 -54.5t81 -39.5q60 -24 98.5 -47.5t67 -72.5t28.5 -129
q0 -114 -61.5 -176.5t-163.5 -62.5t-163.5 62.5zM360.5 111q33.5 41 33.5 117q0 77 -33.5 118t-96.5 41t-96.5 -41t-33.5 -118q0 -76 33.5 -117t96.5 -41t96.5 41z" />
    <glyph glyph-name="epsilon" unicode="&#x3b5;" horiz-adv-x="498" 
d="M138 8q-47 21 -73 59.5t-26 87.5q0 51 31 84.5t71 43.5v1q-42 13 -66 43.5t-24 76.5q0 66 54.5 106t136.5 40q74 0 124.5 -35.5t71.5 -85.5l-91 -24q-13 28 -40.5 45t-62.5 17q-40 0 -69 -22t-29 -56q0 -44 31 -64.5t77 -20.5h81v-60h-80q-48 0 -83 -22t-35 -64
q0 -41 32 -65t76 -24q47 0 79.5 20.5t48.5 50.5l86 -28q-20 -56 -74.5 -90.5t-139.5 -34.5q-60 0 -107 21z" />
    <glyph glyph-name="zeta" unicode="&#x3b6;" horiz-adv-x="493" 
d="M280 -178q29 24 45.5 51t16.5 54q0 36 -30.5 53.5t-93.5 34.5q-60 17 -97.5 34t-64.5 52t-27 93q0 68 39.5 136.5t95 127t154.5 153.5h-196v84h326l-1 -79q-108 -88 -176 -153.5t-107.5 -128t-39.5 -122.5q0 -34 20 -56t49.5 -35t78.5 -28q57 -18 89.5 -33t56 -43
t23.5 -73q0 -41 -22.5 -78t-60.5 -63z" />
    <glyph glyph-name="eta" unicode="&#x3b7;" horiz-adv-x="594" 
d="M419 326q0 64 -34 99.5t-87 35.5q-51 0 -87 -38t-36 -104v-319h-92v403q0 73 -53 73q-15 0 -28 -4v71q28 7 49 7q40 0 67 -21t36 -68q23 39 66.5 64t98.5 25q53 0 97 -23t70 -69.5t26 -112.5v-540h-93v521z" />
    <glyph glyph-name="theta" unicode="&#x3b8;" horiz-adv-x="584" 
d="M118.5 79q-63.5 92 -63.5 269q0 176 63.5 268t173.5 92t173.5 -92t63.5 -268q0 -177 -63.5 -269t-173.5 -92t-173.5 92zM431 386q-4 122 -40.5 179.5t-98.5 57.5t-98.5 -57.5t-40.5 -179.5h278zM390.5 130q36.5 58 40.5 181h-278q4 -123 40.5 -181t98.5 -58t98.5 58z" />
    <glyph glyph-name="iota" unicode="&#x3b9;" horiz-adv-x="283" 
d="M75 537h92v-369q0 -46 19 -69t55 -23q12 0 28 3l-4 -84q-19 -3 -37 -3q-69 0 -111 41.5t-42 132.5v371z" />
    <glyph glyph-name="kappa" unicode="&#x3ba;" horiz-adv-x="588" 
d="M417 0l-188 230l-51 -59v-171h-95v537h95v-234l160 190q52 57 121 57q35 0 74 -14l-13 -87q-27 10 -50 10q-21 0 -39 -8.5t-36 -29.5l-101 -117l241 -304h-118z" />
    <glyph glyph-name="lambda" unicode="&#x3bb;" horiz-adv-x="565" 
d="M449 0l-173 405l-160 -405h-97l211 512l-16 37q-17 42 -39.5 61.5t-53.5 19.5q-23 0 -45 -9l-16 80q39 14 76 14q112 0 164 -127l246 -588h-97z" />
    <glyph glyph-name="uni03BC" unicode="&#x3bc;" horiz-adv-x="559" 
d="M480 71.5q6 -42.5 16 -71.5h-91q-14 30 -17 75q-19 -37 -62 -62.5t-95 -25.5t-94 25l8 -207h-90v732h93v-354q0 -53 29.5 -83t77.5 -30q33 0 62 17t46.5 48.5t17.5 74.5v327h93v-382q0 -41 6 -83.5z" />
    <glyph glyph-name="nu" unicode="&#x3bd;" horiz-adv-x="586" 
d="M25 537h96l168 -444q36 39 68 103.5t51.5 140.5t19.5 148q0 34 -2 52h98q2 -28 2 -41q0 -137 -56.5 -272t-141.5 -224h-101z" />
    <glyph glyph-name="xi" unicode="&#x3be;" horiz-adv-x="486" 
d="M314 -177q32 16 49.5 39.5t17.5 50.5t-17.5 44.5t-43.5 28t-72 23.5q-62 19 -100.5 36t-66 52t-27.5 92q0 53 29 94t79 62q-81 43 -81 120q0 46 28 86t76 60h-132v84h377v-84h-115q-43 0 -75 -17.5t-48.5 -46t-16.5 -58.5q0 -40 30.5 -67.5t80.5 -27.5h67v-69h-78
q-55 0 -87 -31t-32 -76q0 -35 20.5 -57.5t50 -36.5t82.5 -32q57 -19 91 -35t57.5 -44t23.5 -72q0 -42 -21.5 -79t-63.5 -59z" />
    <glyph glyph-name="omicron" unicode="&#x3bf;" horiz-adv-x="547" 
d="M102 60.5q-63 73.5 -63 208.5t63 208t171 73q109 0 172 -73t63 -208q0 -136 -63 -209t-172 -73q-108 0 -171 73.5zM376.5 121q36.5 52 36.5 148t-36.5 147.5t-103.5 51.5t-103 -51.5t-36 -147.5q0 -97 36 -148.5t103 -51.5t103.5 52z" />
    <glyph glyph-name="pi" unicode="&#x3c0;" horiz-adv-x="589" 
d="M532 -7q-74 0 -107.5 39t-33.5 111v314h-196v-457h-92v457h-78v80h539v-81h-80v-317q0 -42 18.5 -58t55.5 -16v-71q-9 -1 -26 -1z" />
    <glyph glyph-name="rho" unicode="&#x3c1;" horiz-adv-x="568" 
d="M61 269q0 135 63 208t171 73t171 -73t63 -208q0 -90 -29 -153.5t-79 -96t-113 -32.5q-53 0 -92.5 24t-61.5 69v-275h-93v464zM398 120.5q36 51.5 36 148.5q0 96 -36 147.5t-103 51.5t-103 -51.5t-36 -147.5q0 -97 36 -148.5t103 -51.5t103 51.5z" />
    <glyph glyph-name="uni03C2" unicode="&#x3c2;" horiz-adv-x="495" 
d="M303 -178q49 47 49 96q0 31 -17.5 55.5t-43.5 43t-72 45.5q-61 36 -99 64.5t-65 74t-27 109.5q0 116 65 178t170 62q53 0 96 -20t70 -53t35 -72l-86 -26q-14 41 -44.5 65t-73.5 24q-63 0 -100 -40t-37 -114q0 -43 22 -75t54.5 -54.5t86.5 -52.5q56 -31 89.5 -54
t56.5 -57.5t23 -81.5q0 -34 -17 -69.5t-50 -66.5z" />
    <glyph glyph-name="sigma" unicode="&#x3c3;" horiz-adv-x="568" 
d="M569 466l-116 1q55 -74 55 -198q0 -136 -63 -209t-172 -73q-108 0 -171 73.5t-63 208.5t63 208t171 73h296v-84zM377 415.5q-36 51.5 -102 52.5h-2q-67 0 -103 -51.5t-36 -147.5q0 -97 36 -148.5t103 -51.5t103.5 52t36.5 148q0 95 -36 146.5z" />
    <glyph glyph-name="tau" unicode="&#x3c4;" horiz-adv-x="405" 
d="M156 27.5q-40 40.5 -40 120.5v305h-98v84h333v-84h-142v-287q0 -46 18.5 -67.5t55.5 -21.5q35 0 77 21l10 -88q-53 -23 -102 -23q-72 0 -112 40.5z" />
    <glyph glyph-name="upsilon" unicode="&#x3c5;" horiz-adv-x="544" 
d="M113 38.5q-58 51.5 -58 146.5v352h93v-349q0 -56 30.5 -87.5t81.5 -31.5q65 0 99.5 55.5t34.5 165.5q0 57 -12 123t-31 124h92q46 -130 46 -247q0 -140 -59.5 -221.5t-169.5 -81.5q-89 0 -147 51.5z" />
    <glyph glyph-name="phi" unicode="&#x3c6;" horiz-adv-x="712" 
d="M309 -13q-80 5 -141.5 41.5t-95 99t-33.5 141.5t33.5 141t95 98.5t141.5 41.5v129h93v-129q80 -5 141.5 -41.5t95 -98.5t33.5 -141t-33.5 -141.5t-95 -99t-141.5 -41.5v-182h-93v182zM309 468q-80 -8 -127.5 -60t-47.5 -139q0 -90 47 -141t128 -59v399zM530 128
q47 51 47 141q0 87 -47.5 139t-127.5 60v-399q81 8 128 59z" />
    <glyph glyph-name="chi" unicode="&#x3c7;" horiz-adv-x="658" 
d="M626 -108l-1 -93q-24 -7 -50 -7q-89 0 -147 99l-116 195l-175 -281h-104l227 367l-131 220q-19 33 -37 47.5t-38 14.5q-16 0 -31 -5l-12 92q38 9 64 9q39 0 72.5 -21.5t64.5 -72.5l114 -191l177 272h104l-230 -357l139 -231q22 -36 39 -48.5t43 -12.5q10 0 28 4z" />
    <glyph glyph-name="psi" unicode="&#x3c8;" horiz-adv-x="664" 
d="M578 141q-31 -65 -84.5 -102.5t-122.5 -47.5v-186h-93v184q-101 12 -162 75t-61 169v304h93v-301q0 -69 35 -110.5t95 -52.5v582h93v-581q66 15 104.5 70.5t38.5 149.5q0 59 -13.5 124t-39.5 119h92q28 -58 42 -120.5t14 -122.5q0 -88 -31 -153z" />
    <glyph glyph-name="omega" unicode="&#x3c9;" horiz-adv-x="889" 
d="M111 68q-56 81 -56 212q0 125 48 257h92q-21 -61 -33 -128t-12 -128q0 -95 32 -153.5t100 -58.5q51 0 83.5 37.5t32.5 98.5v296h93v-296q0 -61 32.5 -98.5t83.5 -37.5q68 0 100 58t32 154q0 61 -12 128t-33 128h92q48 -132 48 -257q0 -131 -56 -212t-167 -81
q-59 0 -101.5 29.5t-65.5 78.5q-23 -49 -65 -78.5t-101 -29.5q-111 0 -167 81z" />
    <glyph glyph-name="iotadieresis" unicode="&#x3ca;" horiz-adv-x="283" 
d="M75 537h92v-369q0 -46 19 -69t55 -23q12 0 28 3l-4 -84q-19 -3 -37 -3q-69 0 -111 41.5t-42 132.5v371zM-5 637.5q-15 13.5 -15 36.5q0 24 15 37.5t36 13.5t36 -13.5t15 -37.5q0 -23 -15 -36.5t-36 -13.5t-36 13.5zM176 637.5q-15 13.5 -15 36.5q0 24 15 37.5t36 13.5
t36 -13.5t15 -37.5q0 -23 -15 -36.5t-36 -13.5t-36 13.5z" />
    <glyph glyph-name="upsilondieresis" unicode="&#x3cb;" horiz-adv-x="544" 
d="M113 38.5q-58 51.5 -58 146.5v352h93v-349q0 -56 30.5 -87.5t81.5 -31.5q65 0 99.5 55.5t34.5 165.5q0 57 -12 123t-31 124h92q46 -130 46 -247q0 -140 -59.5 -221.5t-169.5 -81.5q-89 0 -147 51.5zM119 637.5q-15 13.5 -15 36.5q0 24 15 37.5t36 13.5t36 -13.5t15 -37.5
q0 -23 -15 -36.5t-36 -13.5t-36 13.5zM300 637.5q-15 13.5 -15 36.5q0 24 15 37.5t36 13.5t36 -13.5t15 -37.5q0 -23 -15 -36.5t-36 -13.5t-36 13.5z" />
    <glyph glyph-name="omicrontonos" unicode="&#x3cc;" horiz-adv-x="547" 
d="M102 60.5q-63 73.5 -63 208.5t63 208t171 73q109 0 172 -73t63 -208q0 -136 -63 -209t-172 -73q-108 0 -171 73.5zM376.5 121q36.5 52 36.5 148t-36.5 147.5t-103.5 51.5t-103 -51.5t-36 -147.5q0 -97 36 -148.5t103 -51.5t103.5 52zM233 591l29 179h95l-42 -179h-82z
" />
    <glyph glyph-name="upsilontonos" unicode="&#x3cd;" horiz-adv-x="544" 
d="M113 38.5q-58 51.5 -58 146.5v352h93v-349q0 -56 30.5 -87.5t81.5 -31.5q65 0 99.5 55.5t34.5 165.5q0 57 -12 123t-31 124h92q46 -130 46 -247q0 -140 -59.5 -221.5t-169.5 -81.5q-89 0 -147 51.5zM205 591l29 179h95l-42 -179h-82z" />
    <glyph glyph-name="omegatonos" unicode="&#x3ce;" horiz-adv-x="889" 
d="M111 68q-56 81 -56 212q0 125 48 257h92q-21 -61 -33 -128t-12 -128q0 -95 32 -153.5t100 -58.5q51 0 83.5 37.5t32.5 98.5v296h93v-296q0 -61 32.5 -98.5t83.5 -37.5q68 0 100 58t32 154q0 61 -12 128t-33 128h92q48 -132 48 -257q0 -131 -56 -212t-167 -81
q-59 0 -101.5 29.5t-65.5 78.5q-23 -49 -65 -78.5t-101 -29.5q-111 0 -167 81zM404 591l29 179h95l-42 -179h-82z" />
    <glyph glyph-name="uni0401" unicode="&#x401;" horiz-adv-x="598" 
d="M97 0v695h406v-83h-311v-222h271v-82h-271v-225h338v-83h-433zM175 795.5q-15 13.5 -15 36.5q0 24 15 37.5t36 13.5t36 -13.5t15 -37.5q0 -23 -15 -36.5t-36 -13.5t-36 13.5zM356 795.5q-15 13.5 -15 36.5q0 24 15 37.5t36 13.5t36 -13.5t15 -37.5q0 -23 -15 -36.5
t-36 -13.5t-36 13.5z" />
    <glyph glyph-name="uni0402" unicode="&#x402;" horiz-adv-x="760" 
d="M617 409q49 -27 76.5 -76.5t27.5 -115.5q0 -61 -29.5 -111t-85.5 -78.5t-131 -28.5v79q76 0 112 40.5t36 98.5q0 59 -36 97.5t-100 38.5q-38 0 -69.5 -18.5t-50 -52.5t-18.5 -78v-204h-95v612h-225v83h545v-83h-225v-260q22 38 63.5 61t92.5 23q63 0 112 -27z" />
    <glyph glyph-name="uni0403" unicode="&#x403;" horiz-adv-x="532" 
d="M97 0v695h394v-83h-299v-612h-95zM172 758l-29 62l255 124l32 -69z" />
    <glyph glyph-name="uni0404" unicode="&#x404;" horiz-adv-x="643" 
d="M603 137q-23 -63 -86 -106.5t-156 -43.5q-89 0 -158 41t-108.5 122.5t-39.5 197.5q0 115 39.5 196.5t108.5 122.5t157 41q92 0 155 -43.5t86 -106.5l-88 -28q-46 93 -152 93q-88 0 -144 -59.5t-64 -177.5h272v-75h-272q8 -118 64.5 -178.5t145.5 -60.5q107 0 153 93z" />
    <glyph glyph-name="uni0405" unicode="&#x405;" horiz-adv-x="567" 
d="M140 25.5q-64 38.5 -93 105.5l86 30q22 -43 63 -66t94 -23q57 0 93 29t36 78q0 32 -20 55t-50.5 38.5t-81.5 35.5q-67 27 -108 49.5t-70.5 62.5t-29.5 100q0 58 29 100.5t79.5 65t114.5 22.5q86 0 143.5 -35.5t84.5 -101.5l-91 -29q-17 39 -53 60t-83 21q-54 0 -88.5 -28
t-34.5 -74q0 -33 20.5 -56.5t50 -38t84.5 -36.5q66 -26 107 -48t70 -60.5t29 -96.5q0 -60 -29 -104.5t-81 -69t-121 -24.5q-86 0 -150 38.5z" />
    <glyph glyph-name="uni0406" unicode="&#x406;" horiz-adv-x="288" 
d="M97 0v695h95v-695h-95z" />
    <glyph glyph-name="uni0407" unicode="&#x407;" horiz-adv-x="288" 
d="M97 0v695h95v-695h-95zM17 795.5q-15 13.5 -15 36.5q0 24 15 37.5t36 13.5t36 -13.5t15 -37.5q0 -23 -15 -36.5t-36 -13.5t-36 13.5zM198 795.5q-15 13.5 -15 36.5q0 24 15 37.5t36 13.5t36 -13.5t15 -37.5q0 -23 -15 -36.5t-36 -13.5t-36 13.5z" />
    <glyph glyph-name="uni0408" unicode="&#x408;" horiz-adv-x="481" 
d="M55 83h61q91 0 135 46t44 137v346h-200v83h295v-429q0 -135 -68.5 -200.5t-205.5 -65.5h-61v83z" />
    <glyph glyph-name="uni0409" unicode="&#x409;" horiz-adv-x="1057" 
d="M925 364.5q48 -27.5 72 -72.5t24 -96t-24 -96t-72 -72.5t-116 -27.5h-293v612h-285l-28 -415q-7 -108 -55 -152.5t-141 -44.5v83q52 0 77 25.5t29 89.5l31 497h468v-303h197q68 0 116 -27.5zM890.5 116.5q33.5 33.5 33.5 79.5t-33.5 79.5t-93.5 33.5h-185v-226h185
q60 0 93.5 33.5z" />
    <glyph glyph-name="uni040A" unicode="&#x40a;" horiz-adv-x="1091" 
d="M959 364.5q48 -27.5 72 -72.5t24 -96t-24 -96t-72 -72.5t-116 -27.5h-293v309h-358v-309h-95v695h95v-303h358v303h96v-303h197q68 0 116 -27.5zM924.5 116.5q33.5 33.5 33.5 79.5t-33.5 79.5t-93.5 33.5h-185v-226h185q60 0 93.5 33.5z" />
    <glyph glyph-name="uni040B" unicode="&#x40b;" horiz-adv-x="780" 
d="M604 412.5q43 -22.5 68 -65t25 -100.5v-247h-95v233q0 53 -34 85t-87 32t-89.5 -33.5t-42.5 -88.5v-228h-96v612h-224v83h545v-83h-225v-262q23 38 67 61.5t94 23.5q51 0 94 -22.5z" />
    <glyph glyph-name="uni040C" unicode="&#x40c;" horiz-adv-x="613" 
d="M408 340.5q32 -33.5 54 -75.5t50 -110q25 -59 41 -92t36 -63h-109q-16 22 -28.5 49t-32.5 76q-26 63 -45 100t-48.5 62.5t-70.5 25.5h-63v-313h-95v695h95v-300h54l113 207q32 59 68 82.5t79 23.5q18 0 38 -4.5t35 -11.5l-20 -80q-24 12 -45 12t-39 -12t-36 -44
l-106 -181q43 -13 75 -46.5zM194 758l-29 62l255 124l32 -69z" />
    <glyph glyph-name="uni040E" unicode="&#x40e;" horiz-adv-x="613" 
d="M584 695l-229 -529q-43 -96 -100 -135t-156 -39l-5 83q53 0 92.5 21.5t70.5 78.5l-228 520h103l174 -410l175 410h103zM211.5 801q-36.5 35 -37.5 104h67q0 -36 18 -56t48 -20t47.5 20t17.5 56h68q-1 -69 -37.5 -104t-95.5 -35t-95.5 35z" />
    <glyph glyph-name="uni040F" unicode="&#x40f;" horiz-adv-x="729" 
d="M632 695v-695h-226v-179h-83v179h-226v695h95v-612h345v612h95z" />
    <glyph glyph-name="uni0410" unicode="&#x410;" horiz-adv-x="615" 
d="M495 0l-52 163h-275l-52 -163h-97l229 695h120l228 -695h-101zM193 245h223l-112 350z" />
    <glyph glyph-name="uni0411" unicode="&#x411;" horiz-adv-x="638" 
d="M505 364.5q48 -27.5 72 -72.5t24 -96t-24 -96t-72 -72.5t-116 -27.5h-292v695h322v-83h-227v-220h197q68 0 116 -27.5zM470.5 116.5q33.5 33.5 33.5 79.5t-33.5 79.5t-93.5 33.5h-185v-226h185q60 0 93.5 33.5z" />
    <glyph glyph-name="uni0412" unicode="&#x412;" horiz-adv-x="620" 
d="M97 695h220q83 0 147 -35t64 -136q0 -69 -30.5 -109t-75.5 -58v-1q47 -13 84 -54t37 -111q0 -104 -60 -147.5t-165 -43.5h-221v695zM305 393q60 0 92 30t32 87q0 102 -122 102h-115v-219h113zM314 83q130 0 130 113q0 56 -34.5 85t-98.5 29h-119v-227h122z" />
    <glyph glyph-name="uni0413" unicode="&#x413;" horiz-adv-x="532" 
d="M97 0v695h394v-83h-299v-612h-95z" />
    <glyph glyph-name="uni0414" unicode="&#x414;" horiz-adv-x="764" 
d="M707 83v-262h-83v179h-522v-179h-83v262h62q26 34 39.5 68.5t17.5 88.5l29 455h468v-612h72zM540 83v529h-288l-26 -373q-4 -57 -16.5 -92t-34.5 -64h365z" />
    <glyph glyph-name="uni0415" unicode="&#x415;" horiz-adv-x="598" 
d="M97 0v695h406v-83h-311v-222h271v-82h-271v-225h338v-83h-433z" />
    <glyph glyph-name="uni0416" unicode="&#x416;" horiz-adv-x="939" 
d="M733 340.5q32 -33.5 54 -75.5t50 -110q25 -59 41 -92t36 -63h-109q-16 22 -28.5 49t-32.5 76q-26 63 -45 100t-48.5 62.5t-70.5 25.5h-63v-313h-96v313h-63q-41 0 -70.5 -25.5t-48.5 -62.5t-45 -100q-20 -49 -32.5 -76t-28.5 -49h-109q20 30 36 63t41 92q28 68 50 110
t54 75.5t75 46.5l-106 181q-18 32 -36 44t-39 12t-45 -12l-20 80q15 7 35 11.5t38 4.5q43 0 79 -23.5t68 -82.5l113 -207h54v300h96v-300h54l113 207q32 59 68 82.5t79 23.5q18 0 38 -4.5t35 -11.5l-20 -80q-24 12 -45 12t-39 -12t-36 -44l-106 -181q43 -13 75 -46.5z" />
    <glyph glyph-name="uni0417" unicode="&#x417;" horiz-adv-x="565" 
d="M119 29.5q-63 42.5 -87 108.5l87 29q18 -42 60 -68.5t101 -26.5q56 0 97 32.5t41 90.5q0 60 -44.5 91t-107.5 31h-91v78h88q61 0 100.5 28.5t39.5 91.5q0 49 -36.5 78.5t-86.5 29.5q-45 0 -79.5 -24t-51.5 -66l-91 29q24 65 83 105.5t140 40.5q62 0 112 -22t79.5 -63
t29.5 -96q0 -63 -30 -104t-82 -57v-1q49 -13 87.5 -56t38.5 -114q0 -62 -30 -109t-84 -73t-123 -26q-97 0 -160 42.5z" />
    <glyph glyph-name="uni0418" unicode="&#x418;" horiz-adv-x="724" 
d="M627 0h-95v529l-345 -529h-91v695h95v-528l345 528h91v-695z" />
    <glyph glyph-name="uni0419" unicode="&#x419;" horiz-adv-x="724" 
d="M627 0h-95v529l-345 -529h-91v695h95v-528l345 528h91v-695zM271.5 801q-36.5 35 -37.5 104h67q0 -36 18 -56t48 -20t47.5 20t17.5 56h68q-1 -69 -37.5 -104t-95.5 -35t-95.5 35z" />
    <glyph glyph-name="uni041A" unicode="&#x41a;" horiz-adv-x="613" 
d="M408 340.5q32 -33.5 54 -75.5t50 -110q25 -59 41 -92t36 -63h-109q-16 22 -28.5 49t-32.5 76q-26 63 -45 100t-48.5 62.5t-70.5 25.5h-63v-313h-95v695h95v-300h54l113 207q32 59 68 82.5t79 23.5q18 0 38 -4.5t35 -11.5l-20 -80q-24 12 -45 12t-39 -12t-36 -44
l-106 -181q43 -13 75 -46.5z" />
    <glyph glyph-name="uni041B" unicode="&#x41b;" horiz-adv-x="708" 
d="M7 83q52 0 77 25.5t29 89.5l31 497h467v-695h-95v612h-285l-28 -415q-7 -108 -55 -152.5t-141 -44.5v83z" />
    <glyph glyph-name="uni041C" unicode="&#x41c;" horiz-adv-x="850" 
d="M97 0v695h102l225 -415l226 415h103v-695h-95v527l-194 -364h-79l-193 364v-527h-95z" />
    <glyph glyph-name="uni041D" unicode="&#x41d;" horiz-adv-x="742" 
d="M97 0v695h95v-303h358v303h95v-695h-95v309h-358v-309h-95z" />
    <glyph glyph-name="uni041E" unicode="&#x41e;" horiz-adv-x="681" 
d="M131 79q-76 92 -76 269t76 268.5t209 91.5q134 0 210 -91.5t76 -268.5t-76 -269t-210 -92q-133 0 -209 92zM479 138.5q50 66.5 50 209.5q0 142 -50 208.5t-139 66.5t-138.5 -66.5t-49.5 -208.5q0 -143 49.5 -209.5t138.5 -66.5t139 66.5z" />
    <glyph glyph-name="uni041F" unicode="&#x41f;" horiz-adv-x="729" 
d="M97 0v695h535v-695h-95v612h-345v-612h-95z" />
    <glyph glyph-name="uni0420" unicode="&#x420;" horiz-adv-x="578" 
d="M97 695h211q103 0 165 -57t62 -156q0 -105 -63.5 -164.5t-170.5 -59.5h-109v-258h-95v695zM296 340q66 0 104 37t38 102q0 63 -37 98t-101 35h-108v-272h104z" />
    <glyph glyph-name="uni0421" unicode="&#x421;" horiz-adv-x="643" 
d="M203 28q-69 41 -108.5 122.5t-39.5 197.5q0 115 39.5 196.5t108.5 122.5t157 41q92 0 155 -43.5t86 -106.5l-88 -28q-46 93 -152 93q-95 0 -152 -69.5t-57 -205.5q0 -137 57.5 -206.5t153.5 -69.5q107 0 153 93l87 -28q-23 -63 -86 -106.5t-156 -43.5q-89 0 -158 41z" />
    <glyph glyph-name="uni0422" unicode="&#x422;" horiz-adv-x="609" 
d="M254 0v612h-225v83h545v-83h-225v-612h-95z" />
    <glyph glyph-name="uni0423" unicode="&#x423;" horiz-adv-x="613" 
d="M584 695l-229 -529q-43 -96 -100 -135t-156 -39l-5 83q53 0 92.5 21.5t70.5 78.5l-228 520h103l174 -410l175 410h103z" />
    <glyph glyph-name="uni0424" unicode="&#x424;" horiz-adv-x="785" 
d="M345 76h-17q-80 0 -143.5 34.5t-99.5 96.5t-36 141t36 141t99.5 96.5t143.5 34.5h17v83h95v-83h17q80 0 143.5 -34.5t99.5 -96.5t36 -141t-36 -141t-99.5 -96.5t-143.5 -34.5h-17v-84h-95v84zM345 159v378h-14q-53 0 -95 -23t-66 -66t-24 -100t24 -100t66 -66t95 -23h14z
M453 159q53 0 95.5 23t66.5 66t24 100t-24 100t-66.5 66t-95.5 23h-13v-378h13z" />
    <glyph glyph-name="uni0425" unicode="&#x425;" horiz-adv-x="667" 
d="M622 0h-116l-177 268l-182 -268h-104l232 350l-228 345h116l175 -265l174 265h105l-225 -347z" />
    <glyph glyph-name="uni0426" unicode="&#x426;" horiz-adv-x="741" 
d="M632 83h52v-262h-83v179h-504v695h95v-612h345v612h95v-612z" />
    <glyph glyph-name="uni0427" unicode="&#x427;" horiz-adv-x="607" 
d="M416 347q-23 -39 -67 -63t-95 -24t-94 22.5t-68 65t-25 100.5v247h95v-233q0 -53 34 -85t87 -32q58 0 95.5 39.5t37.5 101.5v209h95v-695h-95v347z" />
    <glyph glyph-name="uni0428" unicode="&#x428;" horiz-adv-x="1169" 
d="M97 0v695h95v-612h345v612h95v-612h346v612h95v-695h-976z" />
    <glyph glyph-name="uni0429" unicode="&#x429;" horiz-adv-x="1182" 
d="M1073 83h52v-262h-83v179h-945v695h95v-612h345v612h95v-612h346v612h95v-612z" />
    <glyph glyph-name="uni042A" unicode="&#x42a;" horiz-adv-x="752" 
d="M619 364.5q48 -27.5 72 -72.5t24 -96t-24 -96t-72 -72.5t-116 -27.5h-292v612h-200v83h295v-303h197q68 0 116 -27.5zM584.5 116.5q33.5 33.5 33.5 79.5t-33.5 79.5t-93.5 33.5h-185v-226h185q60 0 93.5 33.5z" />
    <glyph glyph-name="uni042B" unicode="&#x42b;" horiz-adv-x="872" 
d="M505 364.5q48 -27.5 72 -72.5t24 -96t-24 -96t-72 -72.5t-116 -27.5h-292v695h95v-303h197q68 0 116 -27.5zM470.5 116.5q33.5 33.5 33.5 79.5t-33.5 79.5t-93.5 33.5h-185v-226h185q60 0 93.5 33.5zM677 0v695h95v-695h-95z" />
    <glyph glyph-name="uni042C" unicode="&#x42c;" horiz-adv-x="638" 
d="M505 364.5q48 -27.5 72 -72.5t24 -96t-24 -96t-72 -72.5t-116 -27.5h-292v695h95v-303h197q68 0 116 -27.5zM470.5 116.5q33.5 33.5 33.5 79.5t-33.5 79.5t-93.5 33.5h-185v-226h185q60 0 93.5 33.5z" />
    <glyph glyph-name="uni042D" unicode="&#x42d;" horiz-adv-x="643" 
d="M440 667q69 -41 108.5 -122.5t39.5 -196.5q0 -116 -39.5 -197.5t-108.5 -122.5t-158 -41q-93 0 -156 43.5t-86 106.5l87 28q46 -93 153 -93q89 0 145.5 60.5t64.5 178.5h-272v75h272q-8 118 -64 177.5t-144 59.5q-106 0 -152 -93l-88 28q23 63 86 106.5t155 43.5
q88 0 157 -41z" />
    <glyph glyph-name="uni042E" unicode="&#x42e;" horiz-adv-x="963" 
d="M831 616.5q76 -91.5 76 -268.5t-76 -269t-210 -92q-125 0 -200 82t-84 240h-145v-309h-95v695h95v-303h145q10 155 85 235.5t199 80.5q134 0 210 -91.5zM760 138.5q50 66.5 50 209.5q0 142 -50 208.5t-139 66.5t-138.5 -66.5t-49.5 -208.5q0 -143 49.5 -209.5
t138.5 -66.5t139 66.5z" />
    <glyph glyph-name="uni042F" unicode="&#x42f;" horiz-adv-x="623" 
d="M526 695v-695h-95v276h-49q-45 0 -77.5 -24t-53.5 -58t-50 -92q-35 -71 -57 -102h-109q21 30 60 108q31 65 57.5 109t60.5 77q-64 25 -99 77.5t-35 114.5q0 54 27 102t81 77.5t129 29.5h210zM431 612h-117q-65 0 -101.5 -37.5t-36.5 -88.5q0 -52 36.5 -89.5t101.5 -37.5
h117v253z" />
    <glyph glyph-name="uni0430" unicode="&#x430;" horiz-adv-x="553" 
d="M96.5 28q-45.5 41 -45.5 110q0 79 56 120.5t156 41.5h110v61q0 48 -29.5 77.5t-76.5 29.5q-39 0 -68.5 -21t-42.5 -56l-86 23q11 33 37 64.5t67 51.5t92 20q91 0 146 -50.5t55 -139.5v-206q0 -103 23 -154h-99q-15 31 -16 72q-22 -38 -66 -61.5t-97 -23.5
q-70 0 -115.5 41zM305.5 81.5q30.5 15.5 49 41.5t18.5 56v55h-107q-120 0 -120 -89q0 -35 27 -57t69 -22q33 0 63.5 15.5z" />
    <glyph glyph-name="uni0431" unicode="&#x431;" horiz-adv-x="528" 
d="M427.5 442.5q61.5 -68.5 61.5 -193.5q0 -83 -28 -142t-79 -89.5t-118 -30.5q-103 0 -164 69t-61 193q0 129 20.5 214t71.5 135t141 66q67 13 96.5 32t38.5 62l81 -10q-11 -68 -57.5 -104.5t-136.5 -55.5q-54 -9 -85.5 -33.5t-46.5 -65.5q44 22 102 22q102 0 163.5 -68.5z
M359.5 115q35.5 48 35.5 134t-35.5 134t-95.5 48q-61 0 -96.5 -48t-35.5 -134q0 -87 35.5 -134.5t96.5 -47.5q60 0 95.5 48z" />
    <glyph glyph-name="uni0432" unicode="&#x432;" horiz-adv-x="555" 
d="M83 537h223q79 0 124.5 -39t45.5 -102q0 -51 -27.5 -80t-63.5 -41v-1q40 -11 70 -43.5t30 -81.5q0 -66 -49.5 -107.5t-135.5 -41.5h-217v537zM291 306q46 0 69 22t23 54q0 31 -22 53t-64 22h-122v-151h116zM291 80q49 0 74 23t25 56q0 32 -25.5 55t-73.5 23h-116v-157
h116z" />
    <glyph glyph-name="uni0433" unicode="&#x433;" horiz-adv-x="478" 
d="M83 0v537h362v-80h-270v-457h-92z" />
    <glyph glyph-name="uni0434" unicode="&#x434;" horiz-adv-x="661" 
d="M606 80v-255h-83v175h-429v-175h-83v255h54q22 27 33 52.5t13 64.5l24 340h410v-457h61zM452 80v380h-232l-20 -263q-3 -42 -13.5 -68.5t-29.5 -48.5h295z" />
    <glyph glyph-name="uni0435" unicode="&#x435;" horiz-adv-x="541" 
d="M502 135q-22 -64 -84 -106t-136 -42q-73 0 -128 35t-85 100t-30 152q0 83 29.5 145.5t82.5 96.5t123 34q67 0 118 -32.5t78.5 -87.5t27.5 -119v-61h-363q4 -86 44 -134.5t105 -48.5q46 0 82.5 23.5t52.5 65.5zM183.5 433q-35.5 -37 -45.5 -106h266q-2 63 -38 103t-93 40
q-54 0 -89.5 -37z" />
    <glyph glyph-name="uni0436" unicode="&#x436;" horiz-adv-x="832" 
d="M672.5 241.5q29.5 -43.5 62.5 -118.5q21 -46 35 -72.5t31 -50.5h-109q-22 28 -51 95q-21 46 -36.5 73t-38.5 45.5t-55 18.5h-49v-232h-92v232h-49q-32 0 -55 -18.5t-38.5 -45.5t-36.5 -73q-29 -67 -51 -95h-109q17 24 31 50.5t35 72.5q33 75 62.5 118.5t77.5 61.5
l-82 126q-15 23 -30.5 32t-33.5 9q-14 0 -38 -8l-19 72q34 16 65 16q83 0 136 -87l91 -150h44v224h92v-224h44l91 150q53 87 136 87q31 0 65 -16l-19 -72q-24 8 -38 8q-18 0 -33.5 -9t-30.5 -32l-82 -126q48 -18 77.5 -61.5z" />
    <glyph glyph-name="uni0437" unicode="&#x437;" horiz-adv-x="514" 
d="M109.5 21.5q-54.5 34.5 -74.5 90.5l87 28q15 -30 47.5 -50.5t79.5 -20.5q44 0 76 24t32 65q0 42 -35 64t-83 22h-80v60h81q46 0 77 20.5t31 64.5q0 34 -29 56t-69 22q-35 0 -62.5 -17t-40.5 -45l-91 24q21 50 71.5 85.5t124.5 35.5q82 0 136.5 -40t54.5 -106
q0 -46 -24 -76.5t-66 -43.5v-1q40 -10 71 -43.5t31 -84.5q0 -49 -26 -87.5t-73 -59.5t-107 -21q-85 0 -139.5 34.5z" />
    <glyph glyph-name="uni0438" unicode="&#x438;" horiz-adv-x="641" 
d="M558 0h-92v397l-293 -397h-90v537h92v-397l293 397h90v-537z" />
    <glyph glyph-name="uni0439" unicode="&#x439;" horiz-adv-x="641" 
d="M558 0h-92v397l-293 -397h-90v537h92v-397l293 397h90v-537zM225.5 643q-36.5 35 -37.5 104h67q0 -36 18 -56t48 -20t47.5 20t17.5 56h68q-1 -69 -37.5 -104t-95.5 -35t-95.5 35z" />
    <glyph glyph-name="uni043A" unicode="&#x43a;" horiz-adv-x="545" 
d="M385.5 241.5q29.5 -43.5 62.5 -118.5q21 -46 35 -72.5t31 -50.5h-109q-22 28 -51 95q-21 46 -36.5 73t-38.5 45.5t-55 18.5h-49v-232h-92v537h92v-224h44l91 150q53 87 136 87q31 0 65 -16l-19 -72q-24 8 -38 8q-18 0 -33.5 -9t-30.5 -32l-82 -126q48 -18 77.5 -61.5z
" />
    <glyph glyph-name="uni043B" unicode="&#x43b;" horiz-adv-x="612" 
d="M9 74q43 0 64 20t24 66l26 377h407v-537h-93v457h-228l-22 -296q-7 -89 -50.5 -127.5t-127.5 -38.5v79z" />
    <glyph glyph-name="uni043C" unicode="&#x43c;" horiz-adv-x="727" 
d="M83 0v537h112l168 -319l170 319h111v-537h-93v396l-149 -291h-78l-148 291v-396h-93z" />
    <glyph glyph-name="uni043D" unicode="&#x43d;" horiz-adv-x="638" 
d="M83 0v537h92v-224h287v224h93v-537h-93v233h-287v-233h-92z" />
    <glyph glyph-name="uni043E" unicode="&#x43e;" horiz-adv-x="547" 
d="M102 60.5q-63 73.5 -63 208.5t63 208t171 73q109 0 172 -73t63 -208q0 -136 -63 -209t-172 -73q-108 0 -171 73.5zM376.5 121q36.5 52 36.5 148t-36.5 147.5t-103.5 51.5t-103 -51.5t-36 -147.5q0 -97 36 -148.5t103 -51.5t103.5 52z" />
    <glyph glyph-name="uni043F" unicode="&#x43f;" horiz-adv-x="621" 
d="M83 0v537h456v-537h-93v457h-271v-457h-92z" />
    <glyph glyph-name="uni0440" unicode="&#x440;" horiz-adv-x="588" 
d="M83 537h92v-91q16 41 57 72.5t104 31.5t111 -32t75 -95t27 -154q0 -136 -58.5 -209t-154.5 -73q-59 0 -99.5 28.5t-61.5 66.5v-277h-92v732zM417.5 121q36.5 52 36.5 148t-36.5 147.5t-103.5 51.5t-103 -51.5t-36 -147.5t36.5 -148t102.5 -52q67 0 103.5 52z" />
    <glyph glyph-name="uni0441" unicode="&#x441;" horiz-adv-x="513" 
d="M153 20.5q-53 33.5 -83.5 97t-30.5 151.5q0 86 30.5 149.5t84 97.5t120.5 34q53 0 96 -20t70 -53t35 -72l-86 -26q-14 41 -44.5 65t-73.5 24q-62 0 -99.5 -54.5t-37.5 -144.5q0 -91 37.5 -145.5t99.5 -54.5q44 0 77.5 23t50.5 62l84 -18q-20 -66 -78 -107.5t-131 -41.5
q-68 0 -121 33.5z" />
    <glyph glyph-name="uni0442" unicode="&#x442;" horiz-adv-x="530" 
d="M219 0v457h-194v80h481v-80h-194v-457h-93z" />
    <glyph glyph-name="uni0443" unicode="&#x443;" horiz-adv-x="547" 
d="M512 537l-202 -561q-34 -97 -105.5 -140.5t-162.5 -43.5l-6 85q62 0 112 27t74 89l-215 544h102l158 -416l147 416h98z" />
    <glyph glyph-name="uni0444" unicode="&#x444;" horiz-adv-x="683" 
d="M295 0q-74 5 -132 39t-91 93t-33 137t33 137t91 92.5t132 38.5v213h93v-213q74 -5 132 -38.5t91 -92.5t33 -137t-33 -137t-91 -93t-132 -39v-195h-93v195zM295 455q-73 -4 -117 -51.5t-44 -134.5q0 -89 43.5 -136t117.5 -51v373zM505.5 133q43.5 47 43.5 136
q0 87 -44 134.5t-117 51.5v-373q74 4 117.5 51z" />
    <glyph glyph-name="uni0445" unicode="&#x445;" horiz-adv-x="525" 
d="M498 0h-112l-129 193l-125 -193h-107l182 268l-180 269h111l127 -189l126 189h106l-183 -263z" />
    <glyph glyph-name="uni0446" unicode="&#x446;" horiz-adv-x="634" 
d="M533 80h46v-255h-83v175h-413v537h92v-457h265v457h93v-457z" />
    <glyph glyph-name="uni0447" unicode="&#x447;" horiz-adv-x="518" 
d="M341 244q-22 -29 -60 -44.5t-79 -15.5q-64 0 -109 38t-45 110v205h94v-192q0 -41 25.5 -63t62.5 -22q44 0 77.5 28t33.5 76v173h95v-537h-95v244z" />
    <glyph glyph-name="uni0448" unicode="&#x448;" horiz-adv-x="979" 
d="M83 0v537h92v-457h271v457h93v-457h264v457h93v-537h-813z" />
    <glyph glyph-name="uni0449" unicode="&#x449;" horiz-adv-x="997" 
d="M896 80h46v-255h-83v175h-776v537h92v-457h271v457h93v-457h264v457h93v-457z" />
    <glyph glyph-name="uni044A" unicode="&#x44a;" horiz-adv-x="651" 
d="M525 300q40 -23 60.5 -59.5t20.5 -78.5t-20.5 -79t-60.5 -60t-96 -23h-241v457h-169v80h261v-214h149q56 0 96 -23zM486 104.5q25 24.5 25 57.5t-25 57.5t-70 24.5h-136v-164h136q45 0 70 24.5z" />
    <glyph glyph-name="uni044B" unicode="&#x44b;" horiz-adv-x="741" 
d="M420 300q40 -23 60.5 -59.5t20.5 -78.5t-20.5 -79t-60.5 -60t-96 -23h-241v537h92v-214h149q56 0 96 -23zM381 104.5q25 24.5 25 57.5t-25 57.5t-70 24.5h-136v-164h136q45 0 70 24.5zM563 0v537h92v-537h-92z" />
    <glyph glyph-name="uni044C" unicode="&#x44c;" horiz-adv-x="547" 
d="M420 300q40 -23 60.5 -59.5t20.5 -78.5t-20.5 -79t-60.5 -60t-96 -23h-241v537h92v-214h149q56 0 96 -23zM381 104.5q25 24.5 25 57.5t-25 57.5t-70 24.5h-136v-164h136q45 0 70 24.5z" />
    <glyph glyph-name="uni044D" unicode="&#x44d;" horiz-adv-x="533" 
d="M368 517.5q59 -32.5 92.5 -96t33.5 -152.5q0 -90 -34 -153.5t-93 -96t-134 -32.5q-80 0 -135.5 36t-74.5 87l83 29q15 -30 48 -50t78 -20q67 0 111 40.5t53 119.5h-229v78h229q-9 79 -52.5 120t-110.5 41q-45 0 -76 -19.5t-47 -49.5l-86 29q20 50 75.5 86t135.5 36
q74 0 133 -32.5z" />
    <glyph glyph-name="uni044E" unicode="&#x44e;" horiz-adv-x="800" 
d="M698 477q63 -73 63 -208q0 -136 -63 -209t-172 -73q-99 0 -161 62.5t-71 179.5h-119v-229h-92v537h92v-228h119q9 116 71 178.5t161 62.5q109 0 172 -73zM629.5 121q36.5 52 36.5 148t-36.5 147.5t-103.5 51.5t-103 -51.5t-36 -147.5q0 -97 36 -148.5t103 -51.5t103.5 52
z" />
    <glyph glyph-name="uni044F" unicode="&#x44f;" horiz-adv-x="543" 
d="M461 537v-537h-95v200h-38q-36 0 -62 -17t-43 -41.5t-39 -65.5q-28 -54 -46 -76h-109q15 20 50 83q25 47 45 78.5t45 57.5q-49 22 -75.5 62.5t-26.5 87.5q0 44 23 82.5t69.5 62t111.5 23.5h190zM366 455h-98q-50 0 -77.5 -25.5t-27.5 -61.5q0 -35 27.5 -60.5t77.5 -25.5
h98v173z" />
    <glyph glyph-name="uni0451" unicode="&#x451;" horiz-adv-x="541" 
d="M502 135q-22 -64 -84 -106t-136 -42q-73 0 -128 35t-85 100t-30 152q0 83 29.5 145.5t82.5 96.5t123 34q67 0 118 -32.5t78.5 -87.5t27.5 -119v-61h-363q4 -86 44 -134.5t105 -48.5q46 0 82.5 23.5t52.5 65.5zM183.5 433q-35.5 -37 -45.5 -106h266q-2 63 -38 103t-93 40
q-54 0 -89.5 -37zM141 637.5q-15 13.5 -15 36.5q0 24 15 37.5t36 13.5t36 -13.5t15 -37.5q0 -23 -15 -36.5t-36 -13.5t-36 13.5zM322 637.5q-15 13.5 -15 36.5q0 24 15 37.5t36 13.5t36 -13.5t15 -37.5q0 -23 -15 -36.5t-36 -13.5t-36 13.5z" />
    <glyph glyph-name="uni0452" unicode="&#x452;" horiz-adv-x="561" 
d="M448 496q52 -54 52 -159v-339q0 -106 -50 -149.5t-143 -43.5v80q50 0 75 24t25 86v331q0 65 -33 100t-83 35q-49 0 -84 -37t-35 -105v-319h-93v628h-57v67h57v55h93v-55h140v-67h-140v-161q17 33 53.5 58t90.5 25q80 0 132 -54z" />
    <glyph glyph-name="uni0453" unicode="&#x453;" horiz-adv-x="478" 
d="M83 0v537h362v-80h-270v-457h-92zM117 600l-29 62l255 124l32 -69z" />
    <glyph glyph-name="uni0454" unicode="&#x454;" horiz-adv-x="533" 
d="M510 110q-19 -51 -74.5 -87t-135.5 -36q-75 0 -134 32.5t-93 96t-34 153.5q0 89 33.5 152.5t92.5 96t133 32.5q80 0 135.5 -36t75.5 -86l-86 -29q-16 30 -47 49.5t-76 19.5q-67 0 -110.5 -41t-52.5 -120h229v-78h-229q9 -79 53 -119.5t111 -40.5q45 0 78 20t48 50z" />
    <glyph glyph-name="uni0455" unicode="&#x455;" horiz-adv-x="484" 
d="M112 21.5q-54 34.5 -77 84.5l62 47q21 -38 59 -63t88 -25q41 0 70 21.5t29 53.5q0 24 -16 40.5t-39 27t-66 25.5q-55 18 -88.5 34.5t-57.5 46.5t-24 77q0 71 52 115t136 44q72 0 124 -30t73 -73l-62 -48q-19 33 -54.5 53t-78.5 20q-42 0 -68.5 -20.5t-26.5 -53.5
q0 -23 15.5 -39.5t38.5 -26.5t65 -25q55 -18 89 -35t58.5 -48t24.5 -79q0 -47 -25.5 -83t-69 -55.5t-95.5 -19.5q-82 0 -136 34.5z" />
    <glyph glyph-name="uni0456" unicode="&#x456;" horiz-adv-x="258" 
d="M83 0v537h92v-537h-92zM88.5 660.5q-16.5 15.5 -16.5 41.5t16.5 41t40.5 15q23 0 40 -15t17 -41t-17 -41.5t-40 -15.5q-24 0 -40.5 15.5z" />
    <glyph glyph-name="uni0457" unicode="&#x457;" horiz-adv-x="258" 
d="M83 0v537h92v-537h-92zM2 637.5q-15 13.5 -15 36.5q0 24 15 37.5t36 13.5t36 -13.5t15 -37.5q0 -23 -15 -36.5t-36 -13.5t-36 13.5zM183 637.5q-15 13.5 -15 36.5q0 24 15 37.5t36 13.5t36 -13.5t15 -37.5q0 -23 -15 -36.5t-36 -13.5t-36 13.5z" />
    <glyph glyph-name="uni0458" unicode="&#x458;" horiz-adv-x="257" 
d="M-21 -128q53 0 78.5 24t25.5 86v555h93v-552q0 -106 -50.5 -149.5t-146.5 -43.5v80zM89.5 660.5q-16.5 15.5 -16.5 41.5t16.5 41t40.5 15q23 0 40 -15t17 -41t-17 -41.5t-40 -15.5q-24 0 -40.5 15.5z" />
    <glyph glyph-name="uni0459" unicode="&#x459;" horiz-adv-x="901" 
d="M774 300q40 -23 60.5 -59.5t20.5 -78.5t-20.5 -79t-60.5 -60t-96 -23h-241v457h-228l-22 -296q-7 -89 -50.5 -127.5t-127.5 -38.5v79q43 0 64 20t24 66l26 377h407v-214h148q56 0 96 -23zM735 104.5q25 24.5 25 57.5t-25 57.5t-70 24.5h-135v-164h135q45 0 70 24.5z" />
    <glyph glyph-name="uni045A" unicode="&#x45a;" horiz-adv-x="926" 
d="M800 300q40 -23 60.5 -59.5t20.5 -78.5t-20.5 -79t-60.5 -60t-96 -23h-242v233h-287v-233h-92v537h92v-224h287v224h93v-214h149q56 0 96 -23zM761 104.5q25 24.5 25 57.5t-25 57.5t-70 24.5h-136v-164h136q45 0 70 24.5z" />
    <glyph glyph-name="uni045B" unicode="&#x45b;" horiz-adv-x="594" 
d="M420.5 526q42.5 -24 67 -70.5t24.5 -110.5v-345h-93v326q0 64 -34 99.5t-87 35.5q-51 0 -87 -38t-36 -104v-319h-92v629h-77v67h77v54h92v-54h121v-67h-121v-162q22 35 60.5 59t88.5 24q54 0 96.5 -24z" />
    <glyph glyph-name="uni045C" unicode="&#x45c;" horiz-adv-x="545" 
d="M385.5 241.5q29.5 -43.5 62.5 -118.5q21 -46 35 -72.5t31 -50.5h-109q-22 28 -51 95q-21 46 -36.5 73t-38.5 45.5t-55 18.5h-49v-232h-92v537h92v-224h44l91 150q53 87 136 87q31 0 65 -16l-19 -72q-24 8 -38 8q-18 0 -33.5 -9t-30.5 -32l-82 -126q48 -18 77.5 -61.5z
M159 600l-29 62l255 124l32 -69z" />
    <glyph glyph-name="uni045E" unicode="&#x45e;" horiz-adv-x="547" 
d="M512 537l-202 -561q-34 -97 -105.5 -140.5t-162.5 -43.5l-6 85q62 0 112 27t74 89l-215 544h102l158 -416l147 416h98zM169.5 643q-36.5 35 -37.5 104h67q0 -36 18 -56t48 -20t47.5 20t17.5 56h68q-1 -69 -37.5 -104t-95.5 -35t-95.5 35z" />
    <glyph glyph-name="uni045F" unicode="&#x45f;" horiz-adv-x="621" 
d="M539 537v-537h-187v-175h-83v175h-186v537h92v-457h271v457h93z" />
    <glyph glyph-name="uni0462" unicode="&#x462;" horiz-adv-x="668" 
d="M535 364.5q48 -27.5 72 -72.5t24 -96t-24 -96t-72 -72.5t-116 -27.5h-292v540h-148v75h148v80h95v-80h158v-75h-158v-148h197q68 0 116 -27.5zM500.5 116.5q33.5 33.5 33.5 79.5t-33.5 79.5t-93.5 33.5h-185v-226h185q60 0 93.5 33.5z" />
    <glyph glyph-name="uni0463" unicode="&#x463;" horiz-adv-x="575" 
d="M450.5 292.5q39.5 -22.5 59 -58t19.5 -76.5t-19.5 -77t-59 -58.5t-95.5 -22.5h-190v457h-146v80h146v213h92v-213h146v-80h-146v-142h98q56 0 95.5 -22.5zM411 103q23 23 23 55q0 31 -23 54.5t-65 23.5h-89v-156h89q42 0 65 23z" />
    <glyph glyph-name="uni0472" unicode="&#x472;" horiz-adv-x="681" 
d="M550 616.5q76 -91.5 76 -268.5t-76 -269t-210 -92q-133 0 -209 92t-76 269t76 268.5t209 91.5q134 0 210 -91.5zM206 562.5q-49 -60.5 -54 -189.5q36 33 81 33q27 0 50.5 -4t56.5 -12q34 -8 55.5 -12t45.5 -4q30 0 53 13.5t31 36.5q-13 102 -61 150.5t-124 48.5
q-85 0 -134 -60.5zM472.5 130.5q49.5 58.5 55.5 182.5q-36 -25 -86 -25q-27 0 -51 4.5t-59 12.5q-60 15 -95 15q-30 0 -52.5 -16.5t-27.5 -40.5q14 -98 61.5 -144.5t121.5 -46.5q83 0 132.5 58.5z" />
    <glyph glyph-name="uni0473" unicode="&#x473;" horiz-adv-x="543" 
d="M445 477q63 -73 63 -208q0 -136 -63 -209t-172 -73q-108 0 -171 73.5t-63 208.5t63 208t171 73q109 0 172 -73zM175 423.5q-36 -44.5 -40 -128.5q24 19 53 19q28 0 52.5 -6t28.5 -7q50 -12 79 -12q21 0 38 8.5t24 24.5q-10 71 -45 108.5t-92 37.5q-62 0 -98 -44.5z
M371 113.5q36 44.5 41 127.5q-26 -17 -64 -17q-29 0 -54.5 6t-29.5 7q-18 5 -37 8.5t-36 3.5q-18 -1 -32 -8.5t-22 -19.5q8 -74 43 -113t93 -39q62 0 98 44.5z" />
    <glyph glyph-name="uni0474" unicode="&#x474;" horiz-adv-x="675" 
d="M16 695h107l197 -569l160 457q23 67 54.5 94t75.5 27q24 0 62 -11l-12 -87q-20 5 -30 5q-22 0 -36 -15t-29 -58l-192 -538h-111z" />
    <glyph glyph-name="uni0475" unicode="&#x475;" horiz-adv-x="609" 
d="M25 537h107l147 -406l118 313q20 56 49.5 78.5t69.5 22.5q22 0 60 -11l-12 -87q-16 6 -27 6q-18 0 -30.5 -12t-24.5 -44l-151 -397h-108z" />
    <glyph glyph-name="uni0490" unicode="&#x490;" horiz-adv-x="532" 
d="M408 814h83v-202h-299v-612h-95v695h311v119z" />
    <glyph glyph-name="uni0491" unicode="&#x491;" horiz-adv-x="478" 
d="M366 653h79v-196h-270v-457h-92v537h283v116z" />
    <glyph glyph-name="uni0492" unicode="&#x492;" horiz-adv-x="532" 
d="M491 612h-299v-226h162v-75h-162v-311h-95v311h-103v75h103v309h394v-83z" />
    <glyph glyph-name="uni0493" unicode="&#x493;" horiz-adv-x="449" 
d="M404 457h-194v-160h105v-67h-105v-230h-93v230h-92v67h92v240h287v-80z" />
    <glyph glyph-name="uni0496" unicode="&#x496;" horiz-adv-x="939" 
d="M934 83v-262h-83v179h-46q-16 22 -28.5 49t-32.5 76q-26 63 -45 100t-48.5 62.5t-70.5 25.5h-63v-313h-96v313h-63q-41 0 -70.5 -25.5t-48.5 -62.5t-45 -100q-20 -49 -32.5 -76t-28.5 -49h-109q20 30 36 63t41 92q28 68 50 110t54 75.5t75 46.5l-106 181q-18 32 -36 44
t-39 12t-45 -12l-20 80q15 7 35 11.5t38 4.5q43 0 79 -23.5t68 -82.5l113 -207h54v300h96v-300h54l113 207q32 59 68 82.5t79 23.5q18 0 38 -4.5t35 -11.5l-20 -80q-24 12 -45 12t-39 -12t-36 -44l-106 -181q44 -13 76 -46.5t53 -75t50 -110.5q23 -56 31 -72h66z" />
    <glyph glyph-name="uni0497" unicode="&#x497;" horiz-adv-x="832" 
d="M819 80v-255h-83v175h-44q-22 28 -51 95q-21 46 -36.5 73t-38.5 45.5t-55 18.5h-49v-232h-92v232h-49q-32 0 -55 -18.5t-38.5 -45.5t-36.5 -73q-29 -67 -51 -95h-109q17 24 31 50.5t35 72.5q33 75 62.5 118.5t77.5 61.5l-82 126q-15 23 -30.5 32t-33.5 9q-14 0 -38 -8
l-19 72q34 16 65 16q83 0 136 -87l91 -150h44v224h92v-224h44l91 150q53 87 136 87q31 0 65 -16l-19 -72q-24 8 -38 8q-18 0 -33.5 -9t-30.5 -32l-82 -126q34 -13 58.5 -39.5t42 -58t40.5 -83.5q12 -28 19 -42h64z" />
    <glyph glyph-name="uni0498" unicode="&#x498;" horiz-adv-x="565" 
d="M466.5 60.5q-49.5 -54.5 -131.5 -68.5q-3 -79 -41 -122.5t-130 -43.5v70q45 0 65 24t22 68q-85 6 -141 47.5t-78 102.5l87 29q18 -42 60 -68.5t101 -26.5q56 0 97 32.5t41 90.5q0 60 -44.5 91t-107.5 31h-91v78h88q61 0 100.5 28.5t39.5 91.5q0 49 -36.5 78.5t-86.5 29.5
q-45 0 -79.5 -24t-51.5 -66l-91 29q24 65 83 105.5t140 40.5q62 0 112 -22t79.5 -63t29.5 -96q0 -63 -30 -104t-82 -57v-1q49 -13 87.5 -56t38.5 -114q0 -80 -49.5 -134.5z" />
    <glyph glyph-name="uni0499" unicode="&#x499;" horiz-adv-x="514" 
d="M412.5 47q-42.5 -44 -113.5 -56q-3 -78 -41 -121.5t-130 -43.5v70q45 0 65 24.5t22 68.5q-71 6 -116.5 39.5t-63.5 83.5l87 28q15 -30 47.5 -50.5t79.5 -20.5q44 0 76 24t32 65q0 42 -35 64t-83 22h-80v60h81q46 0 77 20.5t31 64.5q0 34 -29 56t-69 22q-35 0 -62.5 -17
t-40.5 -45l-91 24q21 50 71.5 85.5t124.5 35.5q82 0 136.5 -40t54.5 -106q0 -46 -24 -76.5t-66 -43.5v-1q40 -10 71 -43.5t31 -84.5q0 -64 -42.5 -108z" />
    <glyph glyph-name="uni049A" unicode="&#x49a;" horiz-adv-x="613" 
d="M611 83v-262h-83v179h-48q-16 22 -28.5 49t-32.5 76q-26 63 -45 100t-48.5 62.5t-70.5 25.5h-63v-313h-95v695h95v-300h54l113 207q32 59 68 82.5t79 23.5q18 0 38 -4.5t35 -11.5l-20 -80q-24 12 -45 12t-39 -12t-36 -44l-106 -181q44 -13 76 -46.5t53 -75t50 -110.5
q23 -56 31 -72h68z" />
    <glyph glyph-name="uni049B" unicode="&#x49b;" horiz-adv-x="545" 
d="M531 80v-255h-83v175h-43q-22 28 -51 95q-21 46 -36.5 73t-38.5 45.5t-55 18.5h-49v-232h-92v537h92v-224h44l91 150q53 87 136 87q31 0 65 -16l-19 -72q-24 8 -38 8q-18 0 -33.5 -9t-30.5 -32l-82 -126q34 -13 58.5 -39.5t42 -58t40.5 -83.5q12 -28 19 -42h63z" />
    <glyph glyph-name="uni04A0" unicode="&#x4a0;" horiz-adv-x="728" 
d="M522 340.5q32 -33.5 54 -75.5t50 -110q25 -59 41 -92t36 -63h-109q-16 22 -28.5 49t-32.5 76q-26 63 -45 100t-48.5 62.5t-70.5 25.5h-63v-313h-95v612h-200v83h295v-300h54l113 207q32 59 68 82.5t79 23.5q18 0 38 -4.5t35 -11.5l-20 -80q-24 12 -45 12t-39 -12t-36 -44
l-106 -181q43 -13 75 -46.5z" />
    <glyph glyph-name="uni04A1" unicode="&#x4a1;" horiz-adv-x="631" 
d="M471.5 241.5q29.5 -43.5 62.5 -118.5q21 -46 35 -72.5t31 -50.5h-109q-22 28 -51 95q-21 46 -36.5 73t-38.5 45.5t-55 18.5h-49v-232h-92v457h-158v80h250v-224h44l91 150q53 87 136 87q31 0 65 -16l-19 -72q-24 8 -38 8q-18 0 -33.5 -9t-30.5 -32l-82 -126
q48 -18 77.5 -61.5z" />
    <glyph glyph-name="uni04A2" unicode="&#x4a2;" horiz-adv-x="742" 
d="M645 83h70v-262h-83v179h-82v309h-358v-309h-95v695h95v-303h358v303h95v-612z" />
    <glyph glyph-name="uni04A3" unicode="&#x4a3;" horiz-adv-x="638" 
d="M555 80h51v-255h-83v175h-61v233h-287v-233h-92v537h92v-224h287v224h93v-457z" />
    <glyph glyph-name="uni04AA" unicode="&#x4aa;" horiz-adv-x="643" 
d="M529 38.5q-54 -41.5 -133 -49.5q-4 -77 -42 -120t-129 -43v70q45 0 65 24.5t23 69.5q-76 11 -134.5 55t-91 121t-32.5 182q0 115 39.5 196.5t108.5 122.5t157 41q92 0 155 -43.5t86 -106.5l-88 -28q-46 93 -152 93q-95 0 -152 -69.5t-57 -205.5q0 -137 57.5 -206.5
t153.5 -69.5q107 0 153 93l87 -28q-20 -57 -74 -98.5z" />
    <glyph glyph-name="uni04AB" unicode="&#x4ab;" horiz-adv-x="513" 
d="M419.5 40q-46.5 -39 -107.5 -50q-3 -77 -41.5 -120.5t-129.5 -43.5v70q46 0 66 25t22 70q-86 16 -138 89t-52 189q0 86 30.5 149.5t84 97.5t120.5 34q53 0 96 -20t70 -53t35 -72l-86 -26q-14 41 -44.5 65t-73.5 24q-62 0 -99.5 -54.5t-37.5 -144.5q0 -91 37.5 -145.5
t99.5 -54.5q44 0 77.5 23t50.5 62l84 -18q-17 -57 -63.5 -96z" />
    <glyph glyph-name="uni04AE" unicode="&#x4ae;" horiz-adv-x="620" 
d="M263 0v253l-236 442h107l177 -341l175 341h107l-235 -442v-253h-95z" />
    <glyph glyph-name="uni04AF" unicode="&#x4af;" horiz-adv-x="559" 
d="M241 -195v237l-202 495h109l140 -407l140 407h108l-202 -495v-237h-93z" />
    <glyph glyph-name="uni04B0" unicode="&#x4b0;" horiz-adv-x="620" 
d="M358 253v-41h158v-75h-158v-137h-95v137h-161v75h161v41l-236 442h107l177 -341l175 341h107z" />
    <glyph glyph-name="uni04B1" unicode="&#x4b1;" horiz-adv-x="559" 
d="M536 537l-192 -470h145v-67h-155v-195h-93v195h-153v67h143l-192 470h109l140 -407l140 407h108z" />
    <glyph glyph-name="uni04B2" unicode="&#x4b2;" horiz-adv-x="667" 
d="M567 83h73v-262h-83v179h-51l-177 268l-182 -268h-104l232 350l-228 345h116l175 -265l174 265h105l-225 -347z" />
    <glyph glyph-name="uni04B3" unicode="&#x4b3;" horiz-adv-x="525" 
d="M444 80h72v-255h-83v175h-47l-129 193l-125 -193h-107l182 268l-180 269h111l127 -189l126 189h106l-183 -263z" />
    <glyph glyph-name="uni04B6" unicode="&#x4b6;" horiz-adv-x="607" 
d="M572 83v-262h-83v179h-73v347q-23 -39 -67 -63t-95 -24t-94 22.5t-68 65t-25 100.5v247h95v-233q0 -53 34 -85t87 -32q58 0 95.5 39.5t37.5 101.5v209h95v-612h61z" />
    <glyph glyph-name="uni04B7" unicode="&#x4b7;" horiz-adv-x="518" 
d="M464 80v-255h-83v175h-40v244q-22 -29 -60 -44.5t-79 -15.5q-64 0 -109 38t-45 110v205h94v-192q0 -41 25.5 -63t62.5 -22q44 0 77.5 28t33.5 76v173h95v-457h28z" />
    <glyph glyph-name="uni04BA" unicode="&#x4ba;" horiz-adv-x="609" 
d="M177 348q23 39 67 63t95 24t94 -22.5t68 -65t25 -100.5v-247h-95v233q0 53 -34 85t-87 32q-58 0 -95.5 -39.5t-37.5 -101.5v-209h-95v695h95v-347z" />
    <glyph glyph-name="uni04BB" unicode="&#x4bb;" horiz-adv-x="594" 
d="M420.5 526q42.5 -24 67 -70.5t24.5 -110.5v-345h-93v326q0 64 -34 99.5t-87 35.5q-51 0 -87 -38t-36 -104v-319h-92v750h92v-283q22 35 60.5 59t88.5 24q54 0 96.5 -24z" />
    <glyph glyph-name="uni04C0" unicode="&#x4c0;" horiz-adv-x="288" 
d="M97 0v695h95v-695h-95z" />
    <glyph glyph-name="uni04C9" unicode="&#x4c9;" horiz-adv-x="742" 
d="M645 83h62l-72 -262h-75l45 179h-55v309h-358v-309h-95v695h95v-303h358v303h95v-612z" />
    <glyph glyph-name="uni04CA" unicode="&#x4ca;" horiz-adv-x="647" 
d="M555 83h67l-72 -262h-75l45 179h-58v233h-287v-233h-92v537h92v-224h287v224h93v-454z" />
    <glyph glyph-name="uni04CF" unicode="&#x4cf;" horiz-adv-x="258" 
d="M83 0v537h92v-537h-92z" />
    <glyph glyph-name="uni04D8" unicode="&#x4d8;" horiz-adv-x="674" 
d="M543 616.5q77 -91.5 77 -265.5q0 -116 -35 -198t-99 -124t-151 -42q-84 0 -146.5 39.5t-96 111t-33.5 165.5v48h463q0 138 -51.5 205t-139.5 67q-64 0 -109 -32.5t-67 -85.5l-83 23q32 82 99.5 131t159.5 49q135 0 212 -91.5zM458 123q48 51 60 154h-363q2 -91 50.5 -148
t129.5 -57q75 0 123 51z" />
    <glyph glyph-name="uni04D9" unicode="&#x4d9;" horiz-adv-x="523" 
d="M372 517.5q53 -32.5 82.5 -96t29.5 -152.5q0 -90 -29.5 -153.5t-82.5 -96t-123 -32.5q-65 0 -115.5 33.5t-78.5 90t-28 122.5v57h362q-4 86 -40.5 132t-98.5 46q-45 0 -76 -23.5t-48 -63.5l-88 21q23 66 79 107t132 41q70 0 123 -32.5zM341.5 105q35.5 38 44.5 112h-266
q0 -62 35.5 -106t92.5 -44q58 0 93.5 38z" />
    <glyph glyph-name="uni04E2" unicode="&#x4e2;" horiz-adv-x="724" 
d="M627 0h-95v529l-345 -529h-91v695h95v-528l345 528h91v-695zM500 866v-70h-267v70h267z" />
    <glyph glyph-name="uni04E3" unicode="&#x4e3;" horiz-adv-x="641" 
d="M558 0h-92v397l-293 -397h-90v537h92v-397l293 397h90v-537zM454 708v-70h-267v70h267z" />
    <glyph glyph-name="uni04E8" unicode="&#x4e8;" horiz-adv-x="681" 
d="M550 616.5q76 -91.5 76 -268.5t-76 -269t-210 -92q-133 0 -209 92t-76 269t76 268.5t209 91.5q134 0 210 -91.5zM208 565.5q-49 -57.5 -55 -179.5h375q-6 122 -55.5 179.5t-132.5 57.5t-132 -57.5zM472.5 130q49.5 58 55.5 181h-375q7 -124 55.5 -181.5t131.5 -57.5
t132.5 58z" />
    <glyph glyph-name="uni04E9" unicode="&#x4e9;" horiz-adv-x="547" 
d="M445 477q63 -73 63 -208q0 -136 -63 -209t-172 -73q-108 0 -171 73.5t-63 208.5t63 208t171 73q109 0 172 -73zM176.5 425q-35.5 -43 -41.5 -123h277q-6 80 -42 123t-97 43t-96.5 -43zM370 112q36 43 42 124h-277q6 -81 41.5 -124t96.5 -43t97 43z" />
    <glyph glyph-name="uni04EE" unicode="&#x4ee;" horiz-adv-x="613" 
d="M584 695l-229 -529q-43 -96 -100 -135t-156 -39l-5 83q53 0 92.5 21.5t70.5 78.5l-228 520h103l174 -410l175 410h103zM440 866v-70h-267v70h267z" />
    <glyph glyph-name="uni04EF" unicode="&#x4ef;" horiz-adv-x="547" 
d="M512 537l-202 -561q-34 -97 -105.5 -140.5t-162.5 -43.5l-6 85q62 0 112 27t74 89l-215 544h102l158 -416l147 416h98zM398 708v-70h-267v70h267z" />
    <glyph glyph-name="Wgrave" unicode="&#x1e80;" horiz-adv-x="985" 
d="M227 0l-188 695h103l147 -582l142 582h123l142 -582l147 582h103l-188 -695h-121l-144 572l-146 -572h-120zM603 758l-258 117l32 69l255 -124z" />
    <glyph glyph-name="wgrave" unicode="&#x1e81;" horiz-adv-x="859" 
d="M198 0l-159 537h91l121 -429l129 429h101l126 -429l122 429h91l-159 -537h-102l-129 427l-130 -427h-102zM539 600l-258 117l32 69l255 -124z" />
    <glyph glyph-name="Wacute" unicode="&#x1e82;" horiz-adv-x="985" 
d="M227 0l-188 695h103l147 -582l142 582h123l142 -582l147 582h103l-188 -695h-121l-144 572l-146 -572h-120zM372 758l-29 62l255 124l32 -69z" />
    <glyph glyph-name="wacute" unicode="&#x1e83;" horiz-adv-x="859" 
d="M198 0l-159 537h91l121 -429l129 429h101l126 -429l122 429h91l-159 -537h-102l-129 427l-130 -427h-102zM308 600l-29 62l255 124l32 -69z" />
    <glyph glyph-name="Wdieresis" unicode="&#x1e84;" horiz-adv-x="985" 
d="M227 0l-188 695h103l147 -582l142 582h123l142 -582l147 582h103l-188 -695h-121l-144 572l-146 -572h-120zM367 795.5q-15 13.5 -15 36.5q0 24 15 37.5t36 13.5t36 -13.5t15 -37.5q0 -23 -15 -36.5t-36 -13.5t-36 13.5zM548 795.5q-15 13.5 -15 36.5q0 24 15 37.5
t36 13.5t36 -13.5t15 -37.5q0 -23 -15 -36.5t-36 -13.5t-36 13.5z" />
    <glyph glyph-name="wdieresis" unicode="&#x1e85;" horiz-adv-x="859" 
d="M198 0l-159 537h91l121 -429l129 429h101l126 -429l122 429h91l-159 -537h-102l-129 427l-130 -427h-102zM303 637.5q-15 13.5 -15 36.5q0 24 15 37.5t36 13.5t36 -13.5t15 -37.5q0 -23 -15 -36.5t-36 -13.5t-36 13.5zM484 637.5q-15 13.5 -15 36.5q0 24 15 37.5t36 13.5
t36 -13.5t15 -37.5q0 -23 -15 -36.5t-36 -13.5t-36 13.5z" />
    <glyph glyph-name="uni1E9E" unicode="&#x1e9e;" horiz-adv-x="726" 
d="M340 15.5q-49 28.5 -74 74.5l62 57q18 -36 49.5 -55.5t69.5 -19.5q54 0 89.5 39t35.5 102q0 61 -41.5 101.5t-113.5 40.5q-31 0 -51 -18l-40 59l154 170q-26 30 -59 43t-74 13t-76 -17.5t-57 -54t-22 -90.5v-460h-95v460q0 80 36 136t95 84t128 28q81 0 147.5 -32.5
t98.5 -84.5l-152 -165q71 -1 120.5 -31.5t74.5 -78.5t25 -103q0 -64 -27.5 -115.5t-78.5 -81t-118 -29.5q-57 0 -106 28.5z" />
    <glyph glyph-name="uni1EA0" unicode="&#x1ea0;" horiz-adv-x="615" 
d="M495 0l-52 163h-275l-52 -163h-97l229 695h120l228 -695h-101zM193 245h223l-112 350zM270.5 -163.5q-15.5 14.5 -15.5 38.5t15.5 37.5t37.5 13.5q21 0 36.5 -14t15.5 -37q0 -24 -15.5 -38.5t-36.5 -14.5q-22 0 -37.5 14.5z" />
    <glyph glyph-name="uni1EA1" unicode="&#x1ea1;" horiz-adv-x="553" 
d="M96.5 28q-45.5 41 -45.5 110q0 79 56 120.5t156 41.5h110v61q0 48 -29.5 77.5t-76.5 29.5q-39 0 -68.5 -21t-42.5 -56l-86 23q11 33 37 64.5t67 51.5t92 20q91 0 146 -50.5t55 -139.5v-206q0 -103 23 -154h-99q-15 31 -16 72q-22 -38 -66 -61.5t-97 -23.5
q-70 0 -115.5 41zM305.5 81.5q30.5 15.5 49 41.5t18.5 56v55h-107q-120 0 -120 -89q0 -35 27 -57t69 -22q33 0 63.5 15.5zM247.5 -163.5q-15.5 14.5 -15.5 38.5t15.5 37.5t37.5 13.5q21 0 36.5 -14t15.5 -37q0 -24 -15.5 -38.5t-36.5 -14.5q-22 0 -37.5 14.5z" />
    <glyph glyph-name="uni1EB8" unicode="&#x1eb8;" horiz-adv-x="598" 
d="M97 0v695h406v-83h-311v-222h271v-82h-271v-225h338v-83h-433zM275.5 -163.5q-15.5 14.5 -15.5 38.5t15.5 37.5t37.5 13.5q21 0 36.5 -14t15.5 -37q0 -24 -15.5 -38.5t-36.5 -14.5q-22 0 -37.5 14.5z" />
    <glyph glyph-name="uni1EB9" unicode="&#x1eb9;" horiz-adv-x="541" 
d="M502 135q-22 -64 -84 -106t-136 -42q-73 0 -128 35t-85 100t-30 152q0 83 29.5 145.5t82.5 96.5t123 34q67 0 118 -32.5t78.5 -87.5t27.5 -119v-61h-363q4 -86 44 -134.5t105 -48.5q46 0 82.5 23.5t52.5 65.5zM183.5 433q-35.5 -37 -45.5 -106h266q-2 63 -38 103t-93 40
q-54 0 -89.5 -37zM235.5 -163.5q-15.5 14.5 -15.5 38.5t15.5 37.5t37.5 13.5q21 0 36.5 -14t15.5 -37q0 -24 -15.5 -38.5t-36.5 -14.5q-22 0 -37.5 14.5z" />
    <glyph glyph-name="uni1EBC" unicode="&#x1ebc;" horiz-adv-x="598" 
d="M97 0v695h406v-83h-311v-222h271v-82h-271v-225h338v-83h-433zM155 790q4 41 25.5 65.5t57.5 24.5q23 0 65 -8q36 -6 48 -6q18 0 26 11.5t9 32.5l63 -14q-5 -44 -29 -70t-65 -26q-24 0 -64 8q-32 6 -40 6q-17 0 -24.5 -9.5t-9.5 -29.5z" />
    <glyph glyph-name="uni1EBD" unicode="&#x1ebd;" horiz-adv-x="541" 
d="M502 135q-22 -64 -84 -106t-136 -42q-73 0 -128 35t-85 100t-30 152q0 83 29.5 145.5t82.5 96.5t123 34q67 0 118 -32.5t78.5 -87.5t27.5 -119v-61h-363q4 -86 44 -134.5t105 -48.5q46 0 82.5 23.5t52.5 65.5zM183.5 433q-35.5 -37 -45.5 -106h266q-2 63 -38 103t-93 40
q-54 0 -89.5 -37zM121 632q4 41 25.5 65.5t57.5 24.5q23 0 65 -8q36 -6 48 -6q18 0 26 11.5t9 32.5l63 -14q-5 -44 -29 -70t-65 -26q-24 0 -64 8q-32 6 -40 6q-17 0 -24.5 -9.5t-9.5 -29.5z" />
    <glyph glyph-name="uni1ECA" unicode="&#x1eca;" horiz-adv-x="288" 
d="M97 0v695h95v-695h-95zM106.5 -163.5q-15.5 14.5 -15.5 38.5t15.5 37.5t37.5 13.5q21 0 36.5 -14t15.5 -37q0 -24 -15.5 -38.5t-36.5 -14.5q-22 0 -37.5 14.5z" />
    <glyph glyph-name="uni1ECB" unicode="&#x1ecb;" horiz-adv-x="258" 
d="M83 0v537h92v-537h-92zM88.5 660.5q-16.5 15.5 -16.5 41.5t16.5 41t40.5 15q23 0 40 -15t17 -41t-17 -41.5t-40 -15.5q-24 0 -40.5 15.5zM91.5 -163.5q-15.5 14.5 -15.5 38.5t15.5 37.5t37.5 13.5q21 0 36.5 -14t15.5 -37q0 -24 -15.5 -38.5t-36.5 -14.5
q-22 0 -37.5 14.5z" />
    <glyph glyph-name="uni1ECC" unicode="&#x1ecc;" horiz-adv-x="681" 
d="M131 79q-76 92 -76 269t76 268.5t209 91.5q134 0 210 -91.5t76 -268.5t-76 -269t-210 -92q-133 0 -209 92zM479 138.5q50 66.5 50 209.5q0 142 -50 208.5t-139 66.5t-138.5 -66.5t-49.5 -208.5q0 -143 49.5 -209.5t138.5 -66.5t139 66.5zM303.5 -163.5
q-15.5 14.5 -15.5 38.5t15.5 37.5t37.5 13.5q21 0 36.5 -14t15.5 -37q0 -24 -15.5 -38.5t-36.5 -14.5q-22 0 -37.5 14.5z" />
    <glyph glyph-name="uni1ECD" unicode="&#x1ecd;" horiz-adv-x="547" 
d="M102 60.5q-63 73.5 -63 208.5t63 208t171 73q109 0 172 -73t63 -208q0 -136 -63 -209t-172 -73q-108 0 -171 73.5zM376.5 121q36.5 52 36.5 148t-36.5 147.5t-103.5 51.5t-103 -51.5t-36 -147.5q0 -97 36 -148.5t103 -51.5t103.5 52zM236.5 -163.5q-15.5 14.5 -15.5 38.5
t15.5 37.5t37.5 13.5q21 0 36.5 -14t15.5 -37q0 -24 -15.5 -38.5t-36.5 -14.5q-22 0 -37.5 14.5z" />
    <glyph glyph-name="uni1EE4" unicode="&#x1ee4;" horiz-adv-x="674" 
d="M158 55q-67 68 -67 201v439h95v-440q0 -84 35.5 -133.5t114.5 -49.5t115.5 49.5t36.5 133.5v440h95v-439q0 -133 -68 -201t-179 -68t-178 68zM298.5 -163.5q-15.5 14.5 -15.5 38.5t15.5 37.5t37.5 13.5q21 0 36.5 -14t15.5 -37q0 -24 -15.5 -38.5t-36.5 -14.5
q-22 0 -37.5 14.5z" />
    <glyph glyph-name="uni1EE5" unicode="&#x1ee5;" horiz-adv-x="559" 
d="M140 10q-40 23 -62.5 64t-22.5 93v370h93v-354q0 -53 29.5 -83t77.5 -30q33 0 62 17t46.5 48.5t17.5 74.5v327h93v-382q0 -41 6 -83.5t16 -71.5h-91q-14 30 -17 75q-19 -37 -62 -62.5t-95 -25.5q-51 0 -91 23zM220.5 -163.5q-15.5 14.5 -15.5 38.5t15.5 37.5t37.5 13.5
q21 0 36.5 -14t15.5 -37q0 -24 -15.5 -38.5t-36.5 -14.5q-22 0 -37.5 14.5z" />
    <glyph glyph-name="Ygrave" unicode="&#x1ef2;" horiz-adv-x="620" 
d="M263 0v253l-236 442h107l177 -341l175 341h107l-235 -442v-253h-95zM420 758l-258 117l32 69l255 -124z" />
    <glyph glyph-name="ygrave" unicode="&#x1ef3;" horiz-adv-x="547" 
d="M512 537l-202 -561q-34 -97 -105.5 -140.5t-162.5 -43.5l-6 85q62 0 112 27t74 89l-215 544h102l158 -416l147 416h98zM374 600l-258 117l32 69l255 -124z" />
    <glyph glyph-name="uni1EF8" unicode="&#x1ef8;" horiz-adv-x="620" 
d="M263 0v253l-236 442h107l177 -341l175 341h107l-235 -442v-253h-95zM164 790q4 41 25.5 65.5t57.5 24.5q23 0 65 -8q36 -6 48 -6q18 0 26 11.5t9 32.5l63 -14q-5 -44 -29 -70t-65 -26q-24 0 -64 8q-32 6 -40 6q-17 0 -24.5 -9.5t-9.5 -29.5z" />
    <glyph glyph-name="uni1EF9" unicode="&#x1ef9;" horiz-adv-x="547" 
d="M512 537l-202 -561q-34 -97 -105.5 -140.5t-162.5 -43.5l-6 85q62 0 112 27t74 89l-215 544h102l158 -416l147 416h98zM118 632q4 41 25.5 65.5t57.5 24.5q23 0 65 -8q36 -6 48 -6q18 0 26 11.5t9 32.5l63 -14q-5 -44 -29 -70t-65 -26q-24 0 -64 8q-32 6 -40 6
q-17 0 -24.5 -9.5t-9.5 -29.5z" />
    <glyph glyph-name="uni1F74" unicode="&#x1f74;" horiz-adv-x="594" 
d="M419 326q0 64 -34 99.5t-87 35.5q-51 0 -87 -38t-36 -104v-319h-92v403q0 73 -53 73q-15 0 -28 -4v71q28 7 49 7q40 0 67 -21t36 -68q23 39 66.5 64t98.5 25q53 0 97 -23t70 -69.5t26 -112.5v-540h-93v521zM336 591h-82l-42 179h95z" />
    <glyph glyph-name="uni1FEF" unicode="&#x1fef;" horiz-adv-x="606" 
d="M366 591h-82l-42 179h95z" />
    <glyph glyph-name="endash" unicode="&#x2013;" horiz-adv-x="655" 
d="M65 292v83h526v-83h-526z" />
    <glyph glyph-name="emdash" unicode="&#x2014;" horiz-adv-x="870" 
d="M65 292v83h741v-83h-741z" />
    <glyph glyph-name="quoteleft" unicode="&#x2018;" horiz-adv-x="257" 
d="M196 712q-32 -15 -55.5 -46.5t-23.5 -61.5q0 -6 2 -14q11 7 25 7q21 0 36.5 -15t15.5 -39q0 -23 -15.5 -40.5t-43.5 -17.5q-39 0 -61 29t-22 72q0 53 28.5 99.5t85.5 69.5z" />
    <glyph glyph-name="quoteright" unicode="&#x2019;" horiz-adv-x="257" 
d="M61 535q32 15 55.5 46.5t23.5 61.5q0 6 -2 14q-11 -7 -25 -7q-21 0 -36.5 15t-15.5 39q0 23 15.5 40.5t43.5 17.5q39 0 61 -29t22 -72q0 -53 -28.5 -99.5t-85.5 -69.5z" />
    <glyph glyph-name="quotesinglbase" unicode="&#x201a;" horiz-adv-x="249" 
d="M55 -18q32 15 55.5 46.5t23.5 61.5q0 6 -2 14q-11 -7 -25 -7q-21 0 -36.5 15t-15.5 39q0 23 15.5 40.5t43.5 17.5q39 0 61 -29t22 -72q0 -53 -28.5 -99.5t-85.5 -69.5z" />
    <glyph glyph-name="quotedblleft" unicode="&#x201c;" horiz-adv-x="439" 
d="M197 712q-32 -15 -55.5 -46.5t-23.5 -61.5q0 -6 2 -14q11 7 25 7q21 0 36.5 -15t15.5 -39q0 -23 -15.5 -40.5t-43.5 -17.5q-39 0 -61 29t-22 72q0 53 28.5 99.5t85.5 69.5zM378 712q-32 -15 -55.5 -46.5t-23.5 -61.5q0 -6 2 -14q11 7 25 7q21 0 36.5 -15t15.5 -39
q0 -23 -15.5 -40.5t-43.5 -17.5q-39 0 -61 29t-22 72q0 53 28.5 99.5t85.5 69.5z" />
    <glyph glyph-name="quotedblright" unicode="&#x201d;" horiz-adv-x="439" 
d="M242 535q32 15 55.5 46.5t23.5 61.5q0 6 -2 14q-11 -7 -25 -7q-21 0 -36.5 15t-15.5 39q0 23 15.5 40.5t43.5 17.5q39 0 61 -29t22 -72q0 -53 -28.5 -99.5t-85.5 -69.5zM61 535q32 15 55.5 46.5t23.5 61.5q0 6 -2 14q-11 -7 -25 -7q-21 0 -36.5 15t-15.5 39
q0 23 15.5 40.5t43.5 17.5q39 0 61 -29t22 -72q0 -53 -28.5 -99.5t-85.5 -69.5z" />
    <glyph glyph-name="quotedblbase" unicode="&#x201e;" horiz-adv-x="427" 
d="M236 -18q32 15 55.5 46.5t23.5 61.5q0 6 -2 14q-11 -7 -25 -7q-21 0 -36.5 15t-15.5 39q0 23 15.5 40.5t43.5 17.5q39 0 61 -29t22 -72q0 -53 -28.5 -99.5t-85.5 -69.5zM55 -18q32 15 55.5 46.5t23.5 61.5q0 6 -2 14q-11 -7 -25 -7q-21 0 -36.5 15t-15.5 39
q0 23 15.5 40.5t43.5 17.5q39 0 61 -29t22 -72q0 -53 -28.5 -99.5t-85.5 -69.5z" />
    <glyph glyph-name="dagger" unicode="&#x2020;" horiz-adv-x="506" 
d="M236 105q-1 85 -4 132.5t-14 95.5q15 48 18 147q-52 -1 -101 -9q-30 -5 -45 -5q-18 0 -26.5 9.5t-8.5 23.5q0 13 8.5 22.5t26.5 9.5q11 0 45 -4q49 -8 100 -9q-1 35 -4.5 66t-4.5 40q-5 32 -5 49q0 16 9.5 24t22.5 8t22.5 -8t9.5 -24q0 -18 -5 -51q-8 -51 -10 -104
q41 1 100 8q30 5 46 5q17 0 26 -9.5t9 -23.5q0 -13 -9 -22.5t-26 -9.5q-16 0 -46 5q-49 8 -100 9q3 -99 18 -147q-11 -48 -14 -95.5t-4 -132.5l-1 -105h-32z" />
    <glyph glyph-name="daggerdbl" unicode="&#x2021;" horiz-adv-x="566" 
d="M260.5 1.5q-9.5 8.5 -9.5 24.5q0 17 5 49q1 9 4.5 40t4.5 66q-51 -1 -100 -9q-34 -4 -45 -4q-18 0 -26.5 9t-8.5 22q0 14 8.5 23.5t26.5 9.5q15 0 45 -5q49 -8 101 -9q-2 82 -18 131q16 49 18 131q-52 -1 -101 -9q-30 -5 -45 -5q-18 0 -26.5 9.5t-8.5 23.5q0 13 8.5 22.5
t26.5 9.5q11 0 45 -4q49 -8 100 -9q-1 35 -4.5 66t-4.5 40q-5 32 -5 49q0 16 9.5 24t22.5 8t22.5 -8t9.5 -24q0 -18 -5 -51q-8 -51 -10 -104q41 1 100 8q30 5 46 5q17 0 26 -9.5t9 -23.5q0 -13 -9 -22.5t-26 -9.5q-16 0 -46 5q-49 8 -100 9q2 -82 18 -131q-16 -49 -18 -131
q51 1 100 9q30 5 46 5q17 0 26 -9.5t9 -22.5q0 -14 -9 -23t-26 -9q-16 0 -46 5q-59 7 -100 8q2 -53 10 -104q5 -33 5 -51q0 -16 -9.5 -24.5t-22.5 -8.5t-22.5 8.5z" />
    <glyph glyph-name="bullet" unicode="&#x2022;" horiz-adv-x="253" 
d="M184.5 405q23.5 -23 23.5 -58q0 -34 -23.5 -57t-58.5 -23t-58 23t-23 57q0 35 23.5 58t57.5 23q35 0 58.5 -23z" />
    <glyph glyph-name="ellipsis" unicode="&#x2026;" horiz-adv-x="568" 
d="M244.5 8.5q-16.5 15.5 -16.5 41.5q0 25 16.5 40.5t39.5 15.5q24 0 40.5 -15.5t16.5 -40.5q0 -26 -16.5 -41.5t-40.5 -15.5q-23 0 -39.5 15.5zM420.5 8.5q-16.5 15.5 -16.5 41.5q0 25 16.5 40.5t39.5 15.5q24 0 40.5 -15.5t16.5 -40.5q0 -26 -16.5 -41.5t-40.5 -15.5
q-23 0 -39.5 15.5zM67.5 8.5q-16.5 15.5 -16.5 41.5q0 25 16.5 40.5t39.5 15.5q24 0 40.5 -15.5t16.5 -40.5q0 -26 -16.5 -41.5t-40.5 -15.5q-23 0 -39.5 15.5z" />
    <glyph glyph-name="uni202F" unicode="&#x202f;" horiz-adv-x="136" 
 />
    <glyph glyph-name="perthousand" unicode="&#x2030;" horiz-adv-x="1072" 
d="M249 654.5q33 -46.5 33 -133.5t-33 -134t-95 -47q-61 0 -93.5 47t-32.5 134t32.5 133.5t93.5 46.5q62 0 95 -46.5zM105 616.5q-17 -33.5 -17 -95.5t17 -95.5t49 -33.5q34 0 51.5 33.5t17.5 95.5t-17.5 95.5t-51.5 33.5q-32 0 -49 -33.5zM251 0h-69l328 695h69zM699 307.5
q33 -46.5 33 -133.5t-33 -134t-95 -47q-61 0 -93.5 47t-32.5 134t32.5 133.5t93.5 46.5q62 0 95 -46.5zM555 269.5q-17 -33.5 -17 -95.5t17 -95.5t49 -33.5q34 0 51.5 33.5t17.5 95.5t-17.5 95.5t-51.5 33.5q-32 0 -49 -33.5zM1010 307.5q33 -46.5 33 -133.5t-33 -134
t-95 -47q-61 0 -93.5 47t-32.5 134t32.5 133.5t93.5 46.5q62 0 95 -46.5zM866 269.5q-17 -33.5 -17 -95.5t17 -95.5t49 -33.5q34 0 51.5 33.5t17.5 95.5t-17.5 95.5t-51.5 33.5q-32 0 -49 -33.5z" />
    <glyph glyph-name="guilsinglleft" unicode="&#x2039;" horiz-adv-x="290" 
d="M173 131l-118 192l118 192l62 -21l-99 -171l99 -171z" />
    <glyph glyph-name="guilsinglright" unicode="&#x203a;" horiz-adv-x="290" 
d="M117 131l-62 21l99 171l-99 171l62 21l118 -192z" />
    <glyph glyph-name="fraction" unicode="&#x2044;" horiz-adv-x="139" 
d="M-60 0h-69l328 695h69z" />
    <glyph glyph-name="Euro" unicode="&#x20ac;" horiz-adv-x="595" 
d="M559 138q-17 -62 -69 -106.5t-137 -44.5q-100 0 -161.5 66t-78.5 190h-78v57h72q-1 15 -1 47q0 24 1 36h-72v57h76q16 130 78 199t164 69q86 0 135.5 -43t67.5 -108l-87 -27q-34 93 -116 93q-120 0 -144 -183h235l-9 -57h-230q-1 -12 -1 -36q0 -32 1 -47h212l-8 -57h-198
q13 -85 49 -128t93 -43q84 0 119 93z" />
    <glyph glyph-name="uni20BD" unicode="&#x20bd;" horiz-adv-x="592" 
d="M453.5 668q47.5 -27 71.5 -71t24 -94t-24 -94t-71.5 -71t-114.5 -27h-126v-96h125v-83h-125v-132h-95v132h-91v83h91v96h-91v83h91v301h221q67 0 114.5 -27zM418.5 426.5q32.5 32.5 32.5 76.5q0 45 -32.5 77t-90.5 32h-115v-218h115q58 0 90.5 32.5z" />
    <glyph glyph-name="uni2113" unicode="&#x2113;" horiz-adv-x="415" 
d="M200.5 100.5q31.5 -22.5 74.5 -22.5l-5 -84q-193 0 -193 187v383q0 67 38.5 105.5t94.5 38.5q63 0 98 -38.5t35 -99.5q0 -191 -174 -341v-46q0 -60 31.5 -82.5zM276 563q0 33 -14.5 53t-39.5 20q-24 0 -38.5 -17t-14.5 -47v-265q107 112 107 256z" />
    <glyph glyph-name="uni2116" unicode="&#x2116;" horiz-adv-x="1015" 
d="M748.5 469q-29.5 17 -47 46.5t-17.5 64.5q0 34 17.5 63.5t47 47t64.5 17.5q34 0 63.5 -17.5t47 -47t17.5 -63.5q0 -35 -17.5 -64.5t-47 -46.5t-63.5 -17q-35 0 -64.5 17zM97 0v695h91l345 -528v528h95v-695h-91l-345 529v-529h-95zM867.5 525q22.5 23 22.5 55t-22.5 55
t-54.5 23q-33 0 -55.5 -23t-22.5 -55t22.5 -55t55.5 -23q32 0 54.5 23zM702 362v53h221v-53h-221z" />
    <glyph glyph-name="trademark" unicode="&#x2122;" horiz-adv-x="731" 
d="M167 393v247h-92v55h239v-55h-92v-247h-55zM354 393v302h79l72 -167l72 167h79v-302h-55v221l-69 -160h-54l-69 160v-221h-55z" />
    <glyph glyph-name="estimated" unicode="&#x212e;" horiz-adv-x="820" 
d="M231 374v-307q89 -54 204 -54q64 0 125.5 23.5t109 65.5t72.5 95l22 -14q-30 -57 -82 -101.5t-116.5 -69.5t-130.5 -25q-110 0 -196.5 45.5t-135 126.5t-48.5 184q0 106 45.5 189t127 129.5t184.5 46.5q102 0 182.5 -39.5t125.5 -110t45 -160.5v-24h-534zM412 682
q-100 0 -181 -49v-234h358v243q-77 40 -177 40z" />
    <glyph glyph-name="arrowleft" unicode="&#x2190;" horiz-adv-x="898" 
d="M393 -1l-323 331l323 332l59 -58l-226 -232h601v-84h-601l226 -232z" />
    <glyph glyph-name="arrowup" unicode="&#x2191;" horiz-adv-x="745" 
d="M331 0v551l-221 -215l-57 59l320 311l320 -311l-58 -59l-221 215v-551h-83z" />
    <glyph glyph-name="arrowright" unicode="&#x2192;" horiz-adv-x="898" 
d="M505 -1l-59 57l226 232h-601v84h601l-226 232l59 58l323 -332z" />
    <glyph glyph-name="arrowdown" unicode="&#x2193;" horiz-adv-x="745" 
d="M331 695h83v-551l221 215l58 -59l-320 -311l-320 311l57 59l221 -215v551z" />
    <glyph glyph-name="arrowboth" unicode="&#x2194;" horiz-adv-x="1158" 
d="M765 662l323 -332l-323 -331l-59 57l226 232h-706l226 -232l-59 -57l-323 331l323 332l59 -58l-226 -232h706l-226 232z" />
    <glyph glyph-name="arrowupdn" unicode="&#x2195;" horiz-adv-x="745" 
d="M414 -31l221 215l58 -59l-320 -311l-320 311l57 59l221 -215v659l-221 -215l-57 59l320 311l320 -311l-58 -59l-221 215v-659z" />
    <glyph glyph-name="uni2196" unicode="&#x2196;" horiz-adv-x="724" 
d="M86 121v481h481v-82h-340l424 -424l-59 -59l-424 424v-340h-82z" />
    <glyph glyph-name="uni2197" unicode="&#x2197;" horiz-adv-x="724" 
d="M638 159h-82v340l-424 -424l-59 59l424 424h-340v82h481v-481z" />
    <glyph glyph-name="uni2198" unicode="&#x2198;" horiz-adv-x="724" 
d="M638 537v-481h-481v82h340l-424 424l59 59l424 -424v340h82z" />
    <glyph glyph-name="uni2199" unicode="&#x2199;" horiz-adv-x="724" 
d="M86 490h82v-340l424 424l59 -59l-424 -424h340v-82h-481v481z" />
    <glyph glyph-name="partialdiff" unicode="&#x2202;" horiz-adv-x="521" 
d="M70 42.5q-45 55.5 -45 141.5q0 76 27.5 131t74.5 83t106 28q43 0 80 -18t61 -46q8 45 8 110q0 73 -28 112t-83 39q-32 0 -64.5 -13.5t-59.5 -41.5l-41 63q37 37 83 57t97 20q100 0 145 -68t45 -178q0 -136 -31.5 -243.5t-94.5 -169.5t-154 -62q-81 0 -126 55.5z
M307.5 132q40.5 63 53.5 152q-17 26 -48.5 45t-69.5 19q-58 0 -91.5 -41t-33.5 -122q0 -51 24.5 -83.5t63.5 -32.5q61 0 101.5 63z" />
    <glyph glyph-name="emptyset" unicode="&#x2205;" horiz-adv-x="824" 
d="M749 474.5q24 -61.5 24 -128.5q0 -97 -48.5 -179.5t-131.5 -131t-181 -48.5q-64 0 -122.5 21t-105.5 60l-78 -81l-42 42l77 80q-43 48 -66.5 109t-23.5 128q0 98 48.5 181t131.5 132t181 49q63 0 121 -21.5t106 -60.5l79 82l43 -42l-79 -81q43 -49 67 -110.5z
M156.5 253.5q16.5 -44.5 46.5 -79.5l374 388q-74 56 -165 56q-74 0 -136.5 -36.5t-99 -99t-36.5 -136.5q0 -48 16.5 -92.5zM547.5 113.5q62.5 36.5 99 98t36.5 134.5q0 49 -16.5 93.5t-46.5 80.5l-373 -387q34 -27 76.5 -41.5t88.5 -14.5q73 0 135.5 36.5z" />
    <glyph glyph-name="product" unicode="&#x220f;" horiz-adv-x="653" 
d="M624 695v-83h-86v-612h-95v612h-233v-612h-95v612h-86v83h595z" />
    <glyph glyph-name="summation" unicode="&#x2211;" horiz-adv-x="506" 
d="M39 -166v76l194 355l-191 354v76h425v-83h-321l175 -329v-37l-178 -329h340v-83h-444z" />
    <glyph glyph-name="minus" unicode="&#x2212;" horiz-adv-x="572" 
d="M55 307v83h462v-83h-462z" />
    <glyph glyph-name="radical" unicode="&#x221a;" horiz-adv-x="616" 
d="M272 0l-167 461l-86 -20l-12 73l172 36l154 -445l188 603l88 -11l-227 -697h-110z" />
    <glyph glyph-name="infinity" unicode="&#x221e;" horiz-adv-x="695" 
d="M101.5 252.5q-38.5 37.5 -38.5 94.5t38.5 95t93.5 38q77 0 152 -80q33 34 70 57t83 23q36 0 66.5 -17.5t48.5 -47.5t18 -68q0 -57 -38.5 -94.5t-94.5 -37.5q-46 0 -83 23t-70 57q-75 -80 -152 -80q-55 0 -93.5 37.5zM253.5 303q23.5 16 52.5 44q-28 28 -52 44.5t-51 16.5
t-45 -17t-18 -44q0 -26 18 -43t45 -17t50.5 16zM537 304q18 17 18 43q0 27 -18 44t-45 17t-51 -16.5t-52 -44.5q29 -28 52.5 -44t50.5 -16t45 17z" />
    <glyph glyph-name="integral" unicode="&#x222b;" horiz-adv-x="249" 
d="M-44.5 -189q-20.5 19 -20.5 45q0 20 13 35t35 15t33.5 -11.5t11.5 -28.5q0 -13 -6.5 -25.5t-18.5 -19.5q24 0 41 21.5t17 63.5v595q0 74 21 120t53.5 66.5t67.5 20.5q38 0 58.5 -19t20.5 -45q0 -20 -13 -35t-35 -15t-33.5 11.5t-11.5 28.5q0 13 6.5 25.5t18.5 19.5
q-24 0 -41 -21.5t-17 -63.5v-595q0 -74 -21.5 -120t-54 -66.5t-67.5 -20.5q-37 0 -57.5 19z" />
    <glyph glyph-name="approxequal" unicode="&#x2248;" horiz-adv-x="553" 
d="M330.5 412.5q-26.5 8.5 -60.5 23.5q-35 14 -53.5 20t-35.5 6q-26 0 -42 -17t-16 -44h-68q0 61 31 97t87 36q23 0 48 -8t63 -23q35 -14 53.5 -20t35.5 -6q26 0 41.5 16.5t15.5 44.5h69q0 -61 -31.5 -97.5t-86.5 -36.5q-24 0 -50.5 8.5zM331.5 219q-25.5 8 -61.5 23
q-35 14 -53.5 20t-35.5 6q-26 0 -42 -16.5t-16 -44.5h-68q0 62 31 98t87 36q23 0 48 -8t63 -23q35 -14 54 -20t35 -6q26 0 41.5 16.5t15.5 43.5h69q0 -61 -31 -97t-87 -36q-24 0 -49.5 8z" />
    <glyph glyph-name="notequal" unicode="&#x2260;" horiz-adv-x="572" 
d="M517 447h-148l-103 -197h251v-83h-294l-71 -135h-62l70 135h-105v83h149l102 197h-251v83h295l70 135h63l-71 -135h105v-83z" />
    <glyph glyph-name="lessequal" unicode="&#x2264;" horiz-adv-x="572" 
d="M517 143l-462 203v75l462 204v-89l-361 -152l361 -152v-89zM55 0v83h462v-83h-462z" />
    <glyph glyph-name="greaterequal" unicode="&#x2265;" horiz-adv-x="572" 
d="M55 143v89l361 152l-361 152v89l462 -204v-75zM517 0h-462v83h462v-83z" />
    <glyph glyph-name="lozenge" unicode="&#x25ca;" horiz-adv-x="552" 
d="M224 0l-183 348l183 347h104l184 -347l-184 -348h-104zM276 79l143 269l-143 269l-143 -269z" />
    <glyph glyph-name="i.loclTRK" horiz-adv-x="258" 
d="M83 0v537h92v-537h-92zM88.5 660.5q-16.5 15.5 -16.5 41.5t16.5 41t40.5 15q23 0 40 -15t17 -41t-17 -41.5t-40 -15.5q-24 0 -40.5 15.5z" />
    <glyph glyph-name="i.TRK" horiz-adv-x="258" 
d="M83 0v537h92v-537h-92zM88.5 660.5q-16.5 15.5 -16.5 41.5t16.5 41t40.5 15q23 0 40 -15t17 -41t-17 -41.5t-40 -15.5q-24 0 -40.5 15.5z" />
    <glyph glyph-name="zero.dnom" horiz-adv-x="311" 
d="M249 307.5q33 -46.5 33 -133.5t-33 -134t-95 -47q-61 0 -93.5 47t-32.5 134t32.5 133.5t93.5 46.5q62 0 95 -46.5zM105 269.5q-17 -33.5 -17 -95.5t17 -95.5t49 -33.5q34 0 51.5 33.5t17.5 95.5t-17.5 95.5t-51.5 33.5q-32 0 -49 -33.5z" />
    <glyph glyph-name="one.dnom" horiz-adv-x="192" 
d="M94 0v284l-73 -42l-6 54l85 52h52v-348h-58z" />
    <glyph glyph-name="two.dnom" horiz-adv-x="275" 
d="M21 52l121 114q29 28 39.5 45.5t10.5 37.5q0 24 -16 39t-43 15q-22 0 -39 -10.5t-24 -29.5l-56 16q10 32 41.5 53.5t78.5 21.5q56 0 88 -28t32 -72q0 -32 -15 -58.5t-50 -59.5l-86 -82h156v-54h-238v52z" />
    <glyph glyph-name="three.dnom" horiz-adv-x="287" 
d="M60.5 15.5q-32.5 22.5 -44.5 57.5l54 18q8 -21 27 -33.5t47 -12.5q25 0 43 14.5t18 40.5t-20 40t-49 14h-39v47h39q28 0 45 12.5t17 40.5q0 22 -16 35.5t-39 13.5t-38 -11t-22 -29l-56 16q10 32 40 53.5t76 21.5q51 0 83 -25t32 -67q0 -31 -14 -50.5t-38 -27.5v-1
q24 -7 41.5 -28.5t17.5 -55.5q0 -47 -34 -76.5t-88 -29.5q-50 0 -82.5 22.5z" />
    <glyph glyph-name="four.dnom" horiz-adv-x="282" 
d="M170 0v76h-153v47l99 225h60l-96 -222h90v86h55v-86h41v-50h-41v-76h-55z" />
    <glyph glyph-name="five.dnom" horiz-adv-x="290" 
d="M62 15q-33 22 -46 58l54 18q8 -21 26.5 -33.5t45.5 -12.5q29 0 47.5 19.5t18.5 48.5q0 34 -20 52.5t-49 18.5q-33 0 -53 -21l-45 9l11 176h194v-54h-150l-5 -75q30 14 60 14q48 0 82.5 -32t34.5 -88q0 -54 -35 -87t-87 -33q-51 0 -84 22z" />
    <glyph glyph-name="six.dnom" horiz-adv-x="298" 
d="M62.5 36.5q-34.5 43.5 -34.5 121.5q0 95 38.5 145.5t99.5 50.5q41 0 68.5 -20t33.5 -47l-50 -15q-7 14 -20.5 22t-31.5 8q-35 0 -57 -32t-24 -88q14 20 36 32t48 12q47 0 80 -32t33 -82q0 -49 -34 -84t-90 -35q-61 0 -95.5 43.5zM204 63.5q18 18.5 18 48.5q0 28 -18 47
t-45 19t-45.5 -19t-18.5 -47q0 -30 18 -48.5t46 -18.5q27 0 45 18.5z" />
    <glyph glyph-name="seven.dnom" horiz-adv-x="243" 
d="M236 348v-49l-133 -299h-60l131 297h-165v51h227z" />
    <glyph glyph-name="eight.dnom" horiz-adv-x="291" 
d="M55.5 21.5q-33.5 27.5 -33.5 72.5q0 30 17 51.5t45 32.5q-55 24 -55 80q0 41 31.5 68t84.5 27q54 0 85.5 -27t31.5 -68q0 -31 -14.5 -49.5t-41.5 -30.5q63 -25 63 -84q0 -45 -34 -72.5t-90 -27.5t-89.5 27.5zM189.5 216q15.5 16 15.5 38q0 25 -17 40t-43 15
q-25 0 -42 -15t-17 -40q0 -22 15.5 -38t43.5 -16q29 0 44.5 16zM192.5 55q18.5 16 18.5 43q0 25 -18 41.5t-48 16.5q-29 0 -46.5 -16.5t-17.5 -41.5q0 -27 18 -43t46 -16q29 0 47.5 16z" />
    <glyph glyph-name="nine.dnom" horiz-adv-x="300" 
d="M237.5 311.5q34.5 -43.5 34.5 -121.5q0 -95 -38.5 -145.5t-99.5 -50.5q-41 0 -68.5 20t-33.5 47l50 15q7 -14 20.5 -22t31.5 -8q35 0 57 32t24 88q-14 -20 -36 -32t-48 -12q-47 0 -80 32t-33 82q0 49 34 84t90 35q61 0 95.5 -43.5zM96 284.5q-18 -18.5 -18 -48.5
q0 -28 18 -47t45 -19t45.5 19t18.5 47q0 30 -18 48.5t-46 18.5q-27 0 -45 -18.5z" />
    <glyph glyph-name="zero.numr" horiz-adv-x="311" 
d="M249 654.5q33 -46.5 33 -133.5t-33 -134t-95 -47q-61 0 -93.5 47t-32.5 134t32.5 133.5t93.5 46.5q62 0 95 -46.5zM105 616.5q-17 -33.5 -17 -95.5t17 -95.5t49 -33.5q34 0 51.5 33.5t17.5 95.5t-17.5 95.5t-51.5 33.5q-32 0 -49 -33.5z" />
    <glyph glyph-name="one.numr" horiz-adv-x="192" 
d="M94 347v284l-73 -42l-6 54l85 52h52v-348h-58z" />
    <glyph glyph-name="two.numr" horiz-adv-x="275" 
d="M21 399l121 114q29 28 39.5 45.5t10.5 37.5q0 24 -16 39t-43 15q-22 0 -39 -10.5t-24 -29.5l-56 16q10 32 41.5 53.5t78.5 21.5q56 0 88 -28t32 -72q0 -32 -15 -58.5t-50 -59.5l-86 -82h156v-54h-238v52z" />
    <glyph glyph-name="three.numr" horiz-adv-x="287" 
d="M60.5 362.5q-32.5 22.5 -44.5 57.5l54 18q8 -21 27 -33.5t47 -12.5q25 0 43 14.5t18 40.5t-20 40t-49 14h-39v47h39q28 0 45 12.5t17 40.5q0 22 -16 35.5t-39 13.5t-38 -11t-22 -29l-56 16q10 32 40 53.5t76 21.5q51 0 83 -25t32 -67q0 -31 -14 -50.5t-38 -27.5v-1
q24 -7 41.5 -28.5t17.5 -55.5q0 -47 -34 -76.5t-88 -29.5q-50 0 -82.5 22.5z" />
    <glyph glyph-name="four.numr" horiz-adv-x="282" 
d="M170 347v76h-153v47l99 225h60l-96 -222h90v86h55v-86h41v-50h-41v-76h-55z" />
    <glyph glyph-name="five.numr" horiz-adv-x="290" 
d="M62 362q-33 22 -46 58l54 18q8 -21 26.5 -33.5t45.5 -12.5q29 0 47.5 19.5t18.5 48.5q0 34 -20 52.5t-49 18.5q-33 0 -53 -21l-45 9l11 176h194v-54h-150l-5 -75q30 14 60 14q48 0 82.5 -32t34.5 -88q0 -54 -35 -87t-87 -33q-51 0 -84 22z" />
    <glyph glyph-name="six.numr" horiz-adv-x="298" 
d="M62.5 383.5q-34.5 43.5 -34.5 121.5q0 95 38.5 145.5t99.5 50.5q41 0 68.5 -20t33.5 -47l-50 -15q-7 14 -20.5 22t-31.5 8q-35 0 -57 -32t-24 -88q14 20 36 32t48 12q47 0 80 -32t33 -82q0 -49 -34 -84t-90 -35q-61 0 -95.5 43.5zM204 410.5q18 18.5 18 48.5q0 28 -18 47
t-45 19t-45.5 -19t-18.5 -47q0 -30 18 -48.5t46 -18.5q27 0 45 18.5z" />
    <glyph glyph-name="seven.numr" horiz-adv-x="243" 
d="M236 695v-49l-133 -299h-60l131 297h-165v51h227z" />
    <glyph glyph-name="eight.numr" horiz-adv-x="291" 
d="M55.5 368.5q-33.5 27.5 -33.5 72.5q0 30 17 51.5t45 32.5q-55 24 -55 80q0 41 31.5 68t84.5 27q54 0 85.5 -27t31.5 -68q0 -31 -14.5 -49.5t-41.5 -30.5q63 -25 63 -84q0 -45 -34 -72.5t-90 -27.5t-89.5 27.5zM189.5 563q15.5 16 15.5 38q0 25 -17 40t-43 15
q-25 0 -42 -15t-17 -40q0 -22 15.5 -38t43.5 -16q29 0 44.5 16zM192.5 402q18.5 16 18.5 43q0 25 -18 41.5t-48 16.5q-29 0 -46.5 -16.5t-17.5 -41.5q0 -27 18 -43t46 -16q29 0 47.5 16z" />
    <glyph glyph-name="nine.numr" horiz-adv-x="300" 
d="M237.5 658.5q34.5 -43.5 34.5 -121.5q0 -95 -38.5 -145.5t-99.5 -50.5q-41 0 -68.5 20t-33.5 47l50 15q7 -14 20.5 -22t31.5 -8q35 0 57 32t24 88q-14 -20 -36 -32t-48 -12q-47 0 -80 32t-33 82q0 49 34 84t90 35q61 0 95.5 -43.5zM96 631.5q-18 -18.5 -18 -48.5
q0 -28 18 -47t45 -19t45.5 19t18.5 47q0 30 -18 48.5t-46 18.5q-27 0 -45 -18.5z" />
    <glyph glyph-name="caroncomb.alt" 
d="M-257 566h-67l19 184h77z" />
    <glyph glyph-name="uni0307.alt" 
d="M-313.5 636.5q-15.5 14.5 -15.5 38.5t15.5 37.5t37.5 13.5q21 0 36.5 -13.5t15.5 -37.5t-15.5 -38.5t-36.5 -14.5q-22 0 -37.5 14.5z" />
    <glyph glyph-name="uni0307.case" 
d="M-313.5 636.5q-15.5 14.5 -15.5 38.5t15.5 38.5t37.5 14.5t37.5 -14.5t15.5 -38.5t-15.5 -38.5t-37.5 -14.5t-37.5 14.5z" />
    <glyph glyph-name="uni0328.case" 
d="M-257.5 -42.5q-12.5 -20.5 -12.5 -43.5q0 -24 14.5 -37t42.5 -14l-15 -57q-56 1 -84.5 26.5t-28.5 70.5q0 26 13 53t33 44h74q-24 -22 -36.5 -42.5z" />
    <glyph glyph-name="uni0335.case" 
d="M-440 196v75h333v-75h-333z" />
    <glyph glyph-name="uni0336.case" 
d="M-731 216v75h698v-75h-698z" />
    <glyph glyph-name="uni0337.case" 
d="M-430 222v83l307 53v-83z" />
    <glyph glyph-name="uni0338.case" 
d="M-140 733l65 -21l-337 -797l-65 21z" />
    <glyph glyph-name="tonos.case" horiz-adv-x="606" 
d="M241 489l45 206h75l-51 -206h-69z" />
    <glyph glyph-name="brevecombcy" 
d="M-384.5 643q-36.5 35 -37.5 104h67q0 -36 18 -56t48 -20t47.5 20t17.5 56h68q-1 -69 -37.5 -104t-95.5 -35t-95.5 35z" />
    <glyph glyph-name="descendercy" horiz-adv-x="746" 
d="M328 -175v175h-28v80h111v-255h-83z" />
    <glyph glyph-name="tailcy" horiz-adv-x="606" 
d="M242 -179l45 179h-24v83h126l-72 -262h-75z" />
    <glyph glyph-name="descendercy.alt" horiz-adv-x="746" 
d="M288 -104q50 0 69 29t19 83h83q0 -86 -37 -134t-134 -48v70z" />
    <glyph glyph-name="descendercy.case" horiz-adv-x="746" 
d="M328 -179v179h-28v83h111v-262h-83z" />
    </font>
</defs>
</svg>
