<?xml version="1.0" standalone="no"?>
<!DOCTYPE svg PUBLIC "-//W3C//DTD SVG 1.1//EN" "http://www.w3.org/Graphics/SVG/1.1/DTD/svg11.dtd" >
<svg xmlns="http://www.w3.org/2000/svg" xmlns:xlink="http://www.w3.org/1999/xlink" version="1.1">
<metadata>
Created by FontForge 20170731 at Wed Oct 19 11:25:54 2016
 By Aleksey,,,
Copyright (c) 2016 by Leroy Merlin. All rights reserved. Designed by Christophe Badani
</metadata>
<defs>
<font id="LeroyMerlinSansOfficeLight-Regular" horiz-adv-x="0" >
  <font-face 
    font-family="Leroy Merlin Sans Office Light"
    font-weight="400"
    font-stretch="normal"
    units-per-em="1000"
    panose-1="0 0 5 0 0 0 0 0 0 0"
    ascent="770"
    descent="-230"
    x-height="537"
    cap-height="695"
    bbox="-724 -230 1116 1096"
    underline-thickness="50"
    underline-position="-150"
    unicode-range="U+000D-FB02"
  />
<missing-glyph horiz-adv-x="483" 
d="M431 649v-649h-379v649h379zM361 599h-239l119 -227zM97 551v-453l119 226zM386 551l-120 -227l120 -226v453zM241 276l-119 -226h239z" />
    <glyph glyph-name="fi" unicode="fi" horiz-adv-x="547" 
d="M453 0h-54v488h-238v-488h-54v488h-89v49h89v74q0 65 33.5 108.5t103.5 43.5q47 0 85 -20l-9 -47q-12 7 -30 12.5t-37 5.5q-41 0 -66.5 -25t-25.5 -80v-72h292v-537zM453.5 742.5q11.5 -10.5 11.5 -26.5q0 -17 -11 -27.5t-27 -10.5t-27 10.5t-11 27.5q0 16 11.5 26.5
t26.5 10.5t26.5 -10.5z" />
    <glyph glyph-name="fl" unicode="fl" horiz-adv-x="590" 
d="M107 488h-89v49h89v74q0 65 33.5 108.5t103.5 43.5q47 0 85 -20l-9 -47q-12 7 -30 12.5t-37 5.5q-41 0 -66.5 -25t-25.5 -80v-72h135v-49h-135v-488h-54v488zM432.5 40.5q-41.5 43.5 -41.5 120.5v589h54v-579q0 -59 28 -92t78 -33l-4 -49q-73 0 -114.5 43.5z" />
    <glyph glyph-name="f_f" unicode="ff" horiz-adv-x="586" 
d="M107 488h-89v49h89v48q0 64 33.5 104t103.5 40q45 0 85 -21l-9 -47q-33 18 -68 18q-43 0 -67 -21t-24 -74v-47h222v83q0 65 34 104.5t104 39.5q27 0 51.5 -6.5t38.5 -14.5l-10 -47q-14 7 -34 13t-40 6q-43 0 -67 -21t-24 -75v-82h136v-49h-136v-488h-53v488h-222v-488
h-54v488z" />
    <glyph glyph-name="f_f_i" unicode="ffi" horiz-adv-x="806" 
d="M107 488h-89v49h89v48q0 64 33.5 104t103.5 40q45 0 85 -21l-9 -47q-33 18 -68 18q-43 0 -67 -21t-24 -74v-47h222v83q0 64 32 104t102 40q45 0 85 -21l-9 -45q-34 17 -66 17q-43 0 -67 -21t-24 -75v-82h275v-537h-53v488h-222v-488h-53v488h-222v-488h-54v488z
M658.5 637.5q-11.5 10.5 -11.5 26.5q0 17 11 27.5t27 10.5t27 -10.5t11 -27.5q0 -16 -11.5 -26.5t-26.5 -10.5t-26.5 10.5z" />
    <glyph glyph-name="f_f_l" unicode="ffl" horiz-adv-x="865" 
d="M107 488h-89v49h89v48q0 64 33.5 104t103.5 40q45 0 85 -21l-9 -47q-33 18 -68 18q-43 0 -67 -21t-24 -74v-47h222v83q0 64 33.5 104t103.5 40q45 0 85 -21l-9 -46q-11 6 -29.5 11.5t-37.5 5.5q-44 0 -68.5 -21t-24.5 -75v-81h136v-49h-136v-488h-53v488h-222v-488h-54
v488zM707.5 40.5q-41.5 43.5 -41.5 120.5v589h54v-579q0 -59 28 -92t78 -33l-4 -49q-73 0 -114.5 43.5z" />
    <glyph glyph-name=".notdef" horiz-adv-x="483" 
d="M431 649v-649h-379v649h379zM361 599h-239l119 -227zM97 551v-453l119 226zM386 551l-120 -227l120 -226v453zM241 276l-119 -226h239z" />
    <glyph glyph-name=".null" horiz-adv-x="554" 
 />
    <glyph glyph-name="nonmarkingreturn" unicode="&#xd;" horiz-adv-x="554" 
 />
    <glyph glyph-name="space" unicode=" " horiz-adv-x="213" 
 />
    <glyph glyph-name="exclam" unicode="!" horiz-adv-x="292" 
d="M121 174l-3 521h57l-3 -521h-51zM117 4q-11 11 -11 29q0 17 11 28t28 11t28.5 -11t11.5 -28q0 -18 -11.5 -29t-28.5 -11t-28 11z" />
    <glyph glyph-name="quotedbl" unicode="&#x22;" horiz-adv-x="345" 
d="M88 496l-4 254h51l-3 -254h-44zM213 496l-4 254h51l-3 -254h-44z" />
    <glyph glyph-name="numbersign" unicode="#" horiz-adv-x="579" 
d="M544 439h-91l-16 -184h91l-4 -46h-91l-18 -209h-50l18 209h-211l-18 -209h-50l18 209h-91l4 46h91l16 184h-91l4 46h91l18 210h50l-18 -210h211l18 210h50l-18 -210h91zM387 255l16 184h-211l-16 -184h211z" />
    <glyph glyph-name="dollar" unicode="$" horiz-adv-x="538" 
d="M435.5 41.5q-55.5 -50.5 -148.5 -54.5v-71h-35v72q-68 4 -121.5 37.5t-82.5 87.5l50 21q22 -41 62.5 -65.5t91.5 -29.5v292q-62 25 -100.5 47.5t-65 59.5t-26.5 92q0 76 53 124t139 53v63h35v-62q68 -4 118.5 -34t75.5 -82l-52 -19q-19 37 -56.5 58.5t-85.5 24.5v-279
q67 -27 107.5 -49t68.5 -60t28 -94q0 -82 -55.5 -132.5zM152.5 449.5q34.5 -30.5 99.5 -58.5v265q-60 -5 -97 -38.5t-37 -86.5q0 -51 34.5 -81.5zM393.5 77.5q39.5 35.5 39.5 93.5q0 54 -37.5 85.5t-108.5 60.5v-279q67 4 106.5 39.5z" />
    <glyph glyph-name="percent" unicode="%" horiz-adv-x="736" 
d="M243.5 654.5q31.5 -46.5 31.5 -133.5t-31.5 -134t-91.5 -47q-59 0 -90 47t-31 134t31 133.5t90 46.5q60 0 91.5 -46.5zM92.5 628q-20.5 -38 -20.5 -107q0 -70 20.5 -107.5t59.5 -37.5q40 0 61 37.5t21 107.5q0 69 -21 107t-61 38q-39 0 -59.5 -38zM230 0h-46l322 695h47z
M673.5 307.5q31.5 -46.5 31.5 -133.5t-31.5 -134t-91.5 -47q-59 0 -90 47t-31 134t31 133.5t90 46.5q60 0 91.5 -46.5zM522.5 281q-20.5 -38 -20.5 -107q0 -70 20.5 -107.5t59.5 -37.5q40 0 61 37.5t21 107.5q0 69 -21 107t-61 38q-39 0 -59.5 -38z" />
    <glyph glyph-name="ampersand" unicode="&#x26;" horiz-adv-x="621" 
d="M543 -10l-77 85q-36 -44 -88 -66t-113 -22q-57 0 -104 22.5t-74 65.5t-27 103q0 66 34 113t95 91q-40 46 -61.5 87.5t-21.5 88.5t23 81t60 51.5t79 17.5q65 0 110 -37t45 -104q0 -40 -21.5 -72.5t-51 -57t-84.5 -63.5q1 -2 5 -6l187 -206q29 64 29 150h53
q0 -113 -43 -193l85 -94zM180.5 489q17.5 -34 52.5 -77q48 32 73.5 52t43 45.5t17.5 55.5q0 45 -29.5 69.5t-70.5 24.5q-42 0 -73 -26.5t-31 -73.5q0 -36 17.5 -70zM357.5 57.5q42.5 19.5 72.5 57.5l-189 209l-18 19q-51 -39 -79 -77t-28 -86q0 -42 20.5 -74.5t55 -50
t75.5 -17.5q48 0 90.5 19.5z" />
    <glyph glyph-name="quotesingle" unicode="'" horiz-adv-x="220" 
d="M88 496l-4 254h51l-3 -254h-44z" />
    <glyph glyph-name="parenleft" unicode="(" horiz-adv-x="277" 
d="M116 25.5q-46 139.5 -46 297.5t46 297t110 236l36 -18q-61 -99 -102 -230t-41 -285t41 -285t102 -231l-36 -17q-64 96 -110 235.5z" />
    <glyph glyph-name="parenright" unicode=")" horiz-adv-x="277" 
d="M15 -193q61 100 102 231t41 285t-41 285t-102 230l36 18q64 -97 110 -236t46 -297t-46 -297.5t-110 -235.5z" />
    <glyph glyph-name="asterisk" unicode="*" horiz-adv-x="462" 
d="M145 374q-12 0 -21.5 8.5t-9.5 20.5q0 10 5 16q6 8 24 26q36 34 63 70q-33 11 -60.5 15.5t-32.5 5.5q-27 4 -33 6q-20 9 -20 27q0 12 8 21.5t20 9.5q3 0 9 -2q5 -1 36 -16q45 -25 83 -37q0 42 -9 94q-4 28 -4 35q0 14 8.5 21.5t20.5 7.5q11 0 19.5 -7.5t8.5 -21.5
q0 -7 -4 -35q-1 -5 -4.5 -32t-3.5 -62q32 11 55 22.5l27 13.5q22 12 36 16q8 2 10 2q12 0 19.5 -9.5t7.5 -21.5q0 -8 -4.5 -15.5t-13.5 -10.5q-5 -2 -33 -6q-5 -1 -32.5 -5.5t-62.5 -15.5q25 -33 64 -72q20 -20 22 -23q6 -9 6 -17q0 -12 -10 -21t-22 -9t-21 12
q-10 16 -17 31q-22 46 -47 82q-27 -38 -47 -81q-16 -29 -17 -31q-8 -12 -23 -12z" />
    <glyph glyph-name="plus" unicode="+" horiz-adv-x="560" 
d="M500 373v-49h-195v-207h-51v207h-194v49h194v206h51v-206h195z" />
    <glyph glyph-name="comma" unicode="," horiz-adv-x="210" 
d="M52 -118q28 14 47.5 45t19.5 60q0 9 -1 13q-10 -7 -22 -7q-15 0 -26 11t-11 28q0 16 11 28t29 12q30 0 45.5 -21t15.5 -54q0 -43 -23.5 -84t-65.5 -60z" />
    <glyph glyph-name="hyphen" unicode="-" horiz-adv-x="464" 
d="M70 304v58h325v-58h-325z" />
    <glyph glyph-name="period" unicode="." horiz-adv-x="195" 
d="M69 4q-11 11 -11 29q0 17 11 28t28 11t28.5 -11t11.5 -28q0 -18 -11.5 -29t-28.5 -11t-28 11z" />
    <glyph glyph-name="slash" unicode="/" horiz-adv-x="338" 
d="M322 769l42 -17l-339 -820l-42 16z" />
    <glyph glyph-name="zero" unicode="0" horiz-adv-x="593" 
d="M472 614q61 -94 61 -267q0 -172 -61.5 -266t-176.5 -94t-175 94t-60 266q0 173 60 267t175 94q116 0 177 -94zM162.5 576.5q-46.5 -81.5 -46.5 -229.5q0 -147 46.5 -228.5t132.5 -81.5q88 0 134.5 81t46.5 229t-46.5 229.5t-134.5 81.5q-86 0 -132.5 -81.5z" />
    <glyph glyph-name="one" unicode="1" horiz-adv-x="341" 
d="M180 0v631l-144 -89l-6 52l155 101h50v-695h-55z" />
    <glyph glyph-name="two" unicode="2" horiz-adv-x="563" 
d="M55 51l233 236q56 57 83.5 91t40.5 65.5t13 69.5q0 65 -43.5 104.5t-115.5 39.5q-55 0 -96.5 -22t-62.5 -62l-52 19q25 53 81 84.5t131 31.5q64 0 113 -24.5t76 -67.5t27 -99q0 -47 -15 -85t-46 -76t-91 -99l-201 -205h373v-52h-448v51z" />
    <glyph glyph-name="three" unicode="3" horiz-adv-x="581" 
d="M141 26.5q-60 39.5 -85 95.5l50 21q22 -45 70 -75t117 -30q42 0 80 17t61.5 50.5t23.5 81.5q0 73 -55 110.5t-130 37.5h-78v47h82q70 0 118 34t48 112q0 59 -43.5 94t-108.5 35q-56 0 -97 -22t-61 -62l-53 19q26 53 81 84.5t130 31.5q92 0 150.5 -47.5t58.5 -127.5
q0 -69 -34 -112.5t-91 -57.5v-1q53 -12 96.5 -54.5t43.5 -120.5q0 -60 -28.5 -105.5t-79.5 -70t-115 -24.5q-91 0 -151 39.5z" />
    <glyph glyph-name="four" unicode="4" horiz-adv-x="558" 
d="M366 0v160h-318v47l237 488h57l-235 -486h259v208h53v-208h91v-49h-91v-160h-53z" />
    <glyph glyph-name="five" unicode="5" horiz-adv-x="588" 
d="M141.5 26.5q-60.5 39.5 -85.5 95.5l50 21q23 -46 70.5 -75.5t116.5 -29.5q48 0 87 23t62 64.5t23 95.5q0 59 -24 100.5t-65 63t-91 21.5q-66 0 -125 -34l-42 12l24 311h347v-51h-303l-18 -216q62 27 126 27q63 0 114.5 -27t82.5 -79.5t31 -127.5q0 -69 -30 -122
t-82 -82.5t-116 -29.5q-92 0 -152.5 39.5z" />
    <glyph glyph-name="six" unicode="6" horiz-adv-x="576" 
d="M122 69q-62 82 -62 234q0 128 30.5 219t88.5 138.5t139 47.5q64 0 107.5 -28t61.5 -73l-48 -18q-20 32 -49 50t-72 18q-93 0 -147 -88t-55 -243q24 53 75.5 86.5t115.5 33.5q62 0 112 -30t79 -82t29 -117t-29 -117.5t-81 -82.5t-119 -30q-114 0 -176 82zM387 60.5
q39 22.5 61 63t22 92.5q0 49 -22.5 90t-61.5 65t-87 24t-87 -24t-61.5 -65t-22.5 -90q0 -52 22.5 -92.5t61.5 -63t87 -22.5q49 0 88 22.5z" />
    <glyph glyph-name="seven" unicode="7" horiz-adv-x="500" 
d="M460 695v-47l-278 -648h-57l277 646h-362v49h420z" />
    <glyph glyph-name="eight" unicode="8" horiz-adv-x="584" 
d="M166.5 10q-53.5 23 -85 67.5t-31.5 105.5q0 63 35.5 106.5t100.5 67.5q-57 26 -88 66t-31 101q0 55 29.5 97t79 64.5t107.5 22.5q59 0 108.5 -22.5t79 -64.5t29.5 -97q0 -61 -31 -101t-88 -66q65 -24 100.5 -67.5t35.5 -106.5q0 -61 -32 -105.5t-85.5 -67.5t-116.5 -23
t-116.5 23zM371 400q36 20 54 52.5t18 69.5q0 44 -22.5 75.5t-59 47.5t-78.5 16t-78 -16t-58.5 -47.5t-22.5 -75.5q0 -37 18 -69.5t53.5 -52.5t87.5 -20t88 20zM409 74q52 40 52 111q0 66 -50 107t-128 41t-127.5 -41t-49.5 -107q0 -48 24.5 -82t65 -51.5t87.5 -17.5
q74 0 126 40z" />
    <glyph glyph-name="nine" unicode="9" horiz-adv-x="576" 
d="M454 626q62 -82 62 -234q0 -128 -30.5 -219t-88.5 -138.5t-139 -47.5q-64 0 -107.5 28t-61.5 73l48 18q20 -32 49 -50t72 -18q93 0 147 88t55 243q-24 -53 -75.5 -86.5t-115.5 -33.5q-62 0 -112 30t-79 82t-29 117t29 117.5t81 82.5t119 30q114 0 176 -82zM189 634.5
q-39 -22.5 -61 -63t-22 -92.5q0 -49 22.5 -90t61.5 -65t87 -24t87 24t61.5 65t22.5 90q0 52 -22.5 92.5t-61.5 63t-87 22.5q-49 0 -88 -22.5z" />
    <glyph glyph-name="colon" unicode=":" horiz-adv-x="195" 
d="M69 4q-11 11 -11 29q0 17 11 28t28 11t28.5 -11t11.5 -28q0 -18 -11.5 -29t-28.5 -11t-28 11zM69 477q-11 11 -11 29q0 17 11 28t28 11t28.5 -11t11.5 -28q0 -18 -11.5 -29t-28.5 -11t-28 11z" />
    <glyph glyph-name="semicolon" unicode=";" horiz-adv-x="213" 
d="M73 476q-11 11 -11 29q0 17 11 28t28 11t28.5 -11t11.5 -28q0 -18 -11.5 -29t-28.5 -11t-28 11zM52 -118q28 14 47.5 45t19.5 60q0 9 -1 13q-10 -7 -22 -7q-15 0 -26 11t-11 28q0 16 11 28t29 12q30 0 45.5 -21t15.5 -54q0 -43 -23.5 -84t-65.5 -60z" />
    <glyph glyph-name="less" unicode="&#x3c;" horiz-adv-x="560" 
d="M500 109l-440 216v46l440 216v-52l-384 -187l384 -187v-52z" />
    <glyph glyph-name="equal" unicode="=" horiz-adv-x="560" 
d="M60 184v49h440v-49h-440zM60 464v49h440v-49h-440z" />
    <glyph glyph-name="greater" unicode="&#x3e;" horiz-adv-x="560" 
d="M60 111v52l384 187l-384 187v52l440 -216v-46z" />
    <glyph glyph-name="question" unicode="?" horiz-adv-x="463" 
d="M161 226q0 44 15 75t36 50.5t57 44.5q31 21 48.5 37t30 39.5t12.5 55.5q0 60 -42.5 94.5t-102.5 34.5q-46 0 -86 -22t-62 -62l-52 19q29 57 82 86.5t119 29.5q53 0 99 -20.5t74 -61t28 -96.5q0 -40 -14 -68.5t-34 -47t-54 -42.5q-33 -23 -52.5 -40.5t-33 -44.5t-13.5 -64
v-49h-55v52zM162 4q-11 11 -11 29q0 17 11 28t28 11t28.5 -11t11.5 -28q0 -18 -11.5 -29t-28.5 -11t-28 11z" />
    <glyph glyph-name="at" unicode="@" horiz-adv-x="674" 
d="M195.5 -51.5q-68.5 39.5 -107 116t-38.5 183.5q0 98 35.5 175t100.5 120t151 43q139 0 213.5 -86t74.5 -231q0 -90 -35 -142.5t-90 -52.5q-31 0 -54 14t-33 41q-35 -52 -91 -52q-52 0 -87.5 42.5t-35.5 123.5q0 76 40 118t101 42q51 0 102 -31v-194q0 -36 16 -52t42 -16
q41 0 65 43t24 115q0 131 -65.5 206.5t-187.5 75.5q-75 0 -132 -40t-88 -109t-31 -154q0 -94 35 -162.5t95.5 -104t136.5 -35.5q39 0 79 10t72 31l15 -34q-36 -22 -79.5 -32.5t-87.5 -10.5q-87 0 -155.5 39.5zM368.5 126.5q17.5 11.5 32.5 37.5v187q-30 15 -61 15
q-43 0 -70.5 -31.5t-27.5 -91.5q0 -66 24.5 -97t60.5 -31q24 0 41.5 11.5z" />
    <glyph glyph-name="A" unicode="A" horiz-adv-x="592" 
d="M513 0l-64 186h-309l-63 -186h-56l241 695h68l241 -695h-58zM157 235h275l-138 404z" />
    <glyph glyph-name="B" unicode="B" horiz-adv-x="608" 
d="M106 695h199q77 0 138 -32.5t61 -133.5q0 -71 -31 -113t-79 -58v-1q51 -14 89.5 -56t38.5 -113q0 -103 -57 -145.5t-155 -42.5h-204v695zM296 378q73 0 112 36.5t39 106.5q0 69 -40.5 96.5t-108.5 27.5h-137v-267h135zM305 49q80 0 119.5 34t39.5 106q0 68 -41.5 103.5
t-120.5 35.5h-141v-279h144z" />
    <glyph glyph-name="C" unicode="C" horiz-adv-x="639" 
d="M205.5 28.5q-68.5 41.5 -107 122.5t-38.5 197q0 115 38.5 196.5t106.5 122.5t155 41t146 -38.5t84 -95.5l-52 -19q-54 102 -177 102q-111 0 -178 -79t-67 -230q0 -102 31.5 -171.5t87 -104t127.5 -34.5q126 0 180 102l49 -19q-24 -57 -83.5 -95.5t-146.5 -38.5
t-155.5 41.5z" />
    <glyph glyph-name="D" unicode="D" horiz-adv-x="678" 
d="M106 695h183q91 0 165.5 -36.5t119 -114.5t44.5 -197q0 -118 -44.5 -196t-119 -114.5t-165.5 -36.5h-183v695zM283 49q75 0 138 29.5t102 96.5t39 172q0 106 -39 173t-102 96.5t-138 29.5h-122v-597h122z" />
    <glyph glyph-name="E" unicode="E" horiz-adv-x="591" 
d="M106 0v695h385v-49h-330v-270h289v-50h-289v-277h358v-49h-413z" />
    <glyph glyph-name="F" unicode="F" horiz-adv-x="546" 
d="M106 0v695h400v-49h-345v-277h291v-49h-291v-320h-55z" />
    <glyph glyph-name="G" unicode="G" horiz-adv-x="711" 
d="M541 555q-23 45 -69 73.5t-111 28.5q-72 0 -127.5 -38t-86.5 -108t-31 -163q0 -91 33.5 -161.5t93 -109.5t133.5 -39q64 0 115.5 21t84.5 61v181h-228v49h283v-255q-41 -52 -108 -80t-147 -28q-90 0 -162 46t-113 128.5t-41 186.5q0 108 37.5 189.5t105.5 126t157 44.5
q88 0 148.5 -38.5t85.5 -97.5z" />
    <glyph glyph-name="H" unicode="H" horiz-adv-x="739" 
d="M106 0v695h55v-319h417v319h55v-695h-55v327h-417v-327h-55z" />
    <glyph glyph-name="I" unicode="I" horiz-adv-x="267" 
d="M106 0v695h55v-695h-55z" />
    <glyph glyph-name="J" unicode="J" horiz-adv-x="460" 
d="M60 49h60q93 0 140 52t47 148v397h-208v49h263v-446q0 -121 -61.5 -185t-180.5 -64h-60v49z" />
    <glyph glyph-name="K" unicode="K" horiz-adv-x="601" 
d="M574 0h-71l-268 341l-74 -87v-254h-55v695h55v-358l305 358h68l-261 -309z" />
    <glyph glyph-name="L" unicode="L" horiz-adv-x="572" 
d="M106 0v695h55v-646h345v-49h-400z" />
    <glyph glyph-name="M" unicode="M" horiz-adv-x="834" 
d="M106 0v695h61l249 -458l251 458h61v-695h-55v596l-233 -428h-47l-232 428v-596h-55z" />
    <glyph glyph-name="N" unicode="N" horiz-adv-x="722" 
d="M106 0v695h56l399 -602v602h55v-695h-55l-400 603v-603h-55z" />
    <glyph glyph-name="O" unicode="O" horiz-adv-x="678" 
d="M133.5 78q-73.5 91 -73.5 270t73.5 269.5t205.5 90.5t206 -90.5t74 -269.5t-74 -270t-206 -91t-205.5 91zM503.5 113.5q58.5 75.5 58.5 234.5t-58.5 234t-164.5 75q-107 0 -165 -75t-58 -234q0 -160 58 -235t165 -75q106 0 164.5 75.5z" />
    <glyph glyph-name="P" unicode="P" horiz-adv-x="562" 
d="M106 695h197q97 0 153.5 -54.5t56.5 -148.5q0 -101 -59 -159t-162 -58h-131v-275h-55v695zM291 324q77 0 121.5 45t44.5 120q0 73 -43 115t-119 42h-134v-322h130z" />
    <glyph glyph-name="Q" unicode="Q" horiz-adv-x="678" 
d="M575 125.5q-44 -85.5 -125 -118.5l135 -147l-40 -34l-149 166q-30 -5 -57 -5q-132 0 -205.5 91t-73.5 270t73.5 269.5t205.5 90.5t206 -90.5t74 -269.5q0 -137 -44 -222.5zM174 113q58 -75 165 -75q106 0 164.5 75.5t58.5 234.5t-58.5 234t-164.5 75q-107 0 -165 -75
t-58 -234q0 -160 58 -235z" />
    <glyph glyph-name="R" unicode="R" horiz-adv-x="578" 
d="M473 0l-168 284h-16h-128v-284h-55v695h199q48 0 94 -18.5t77.5 -63t31.5 -117.5q0 -80 -37 -132.5t-107 -70.5l175 -293h-66zM404 369q48 35 48 125q0 75 -41 113.5t-112 38.5h-138v-312h126q69 0 117 35z" />
    <glyph glyph-name="S" unicode="S" horiz-adv-x="555" 
d="M147 20.5q-60 33.5 -91 92.5l50 21q25 -45 71.5 -70.5t104.5 -25.5q72 0 115.5 36t43.5 97q0 41 -23 69t-56 46t-92 42q-66 26 -106 48t-68 59.5t-28 94.5q0 53 27 93.5t74.5 62.5t108.5 22q75 0 129.5 -30t81.5 -86l-52 -19q-21 40 -63 62t-96 22q-67 0 -109.5 -34.5
t-42.5 -91.5q0 -40 22.5 -68t56 -45.5t92.5 -41.5q66 -27 106 -49t68 -59.5t28 -93.5t-27 -98.5t-76.5 -65.5t-113.5 -23q-75 0 -135 33.5z" />
    <glyph glyph-name="T" unicode="T" horiz-adv-x="611" 
d="M274 0v646h-243v49h541v-49h-243v-646h-55z" />
    <glyph glyph-name="U" unicode="U" horiz-adv-x="665" 
d="M161 55q-63 68 -63 198v442h55v-442q0 -97 42 -156t136 -59q95 0 138 59t43 156v442h55v-442q0 -130 -64 -198t-172 -68q-107 0 -170 68z" />
    <glyph glyph-name="V" unicode="V" horiz-adv-x="649" 
d="M293 0l-255 695h59l229 -634l228 634h57l-254 -695h-64z" />
    <glyph glyph-name="W" unicode="W" horiz-adv-x="947" 
d="M233 0l-186 695h59l163 -628l169 628h71l169 -628l163 628h59l-186 -695h-70l-170 622l-171 -622h-70z" />
    <glyph glyph-name="X" unicode="X" horiz-adv-x="657" 
d="M601 0h-67l-209 304l-210 -304h-61l240 350l-237 345h67l206 -300l201 300h60l-229 -346z" />
    <glyph glyph-name="Y" unicode="Y" horiz-adv-x="596" 
d="M270 0v259l-234 436h62l200 -374l200 374h62l-235 -436v-259h-55z" />
    <glyph glyph-name="Z" unicode="Z" horiz-adv-x="606" 
d="M60 0v45l410 601h-400v49h466v-43l-412 -603h423v-49h-487z" />
    <glyph glyph-name="bracketleft" unicode="[" horiz-adv-x="257" 
d="M245 870v-44h-92v-976h92v-44h-139v1064h139z" />
    <glyph glyph-name="backslash" unicode="\" horiz-adv-x="338" 
d="M25 769l339 -821l-42 -16l-339 820z" />
    <glyph glyph-name="bracketright" unicode="]" horiz-adv-x="257" 
d="M12 870h139v-1064h-139v44h92v976h-92v44z" />
    <glyph glyph-name="asciicircum" unicode="^" horiz-adv-x="469" 
d="M98 199l-34 17l147 321h47l147 -321l-34 -17l-136 300z" />
    <glyph glyph-name="underscore" unicode="_" horiz-adv-x="706" 
d="M703 -33v-45h-700v45h700z" />
    <glyph glyph-name="grave" unicode="`" horiz-adv-x="606" 
d="M386 613l-238 114l20 42l237 -117z" />
    <glyph glyph-name="a" unicode="a" horiz-adv-x="544" 
d="M103 26q-45 39 -45 104q0 78 53 117.5t153 39.5h132v83q0 57 -37.5 94t-94.5 37q-48 0 -85 -25.5t-53 -67.5l-50 15q18 54 68.5 90.5t118.5 36.5q84 0 135.5 -49t51.5 -131v-229q0 -95 22 -141h-57q-16 33 -18 84q-25 -44 -73.5 -70.5t-103.5 -26.5q-72 0 -117 39z
M312 54.5q38 19.5 61 52t23 68.5v70h-131q-152 0 -152 -111q0 -43 33.5 -71t86.5 -28q41 0 79 19.5z" />
    <glyph glyph-name="b" unicode="b" horiz-adv-x="587" 
d="M204.5 23.5q-46.5 36.5 -63.5 86.5q0 -41 -4 -64.5t-12 -45.5h-53q9 28 13.5 62.5t4.5 60.5v627h53v-318q18 48 64 83t117 35q105 0 161.5 -75t56.5 -204q0 -130 -56 -207t-162 -77q-73 0 -119.5 36.5zM441.5 97q45.5 61 45.5 172t-45.5 171.5t-126.5 60.5
q-82 0 -127 -60.5t-45 -171.5t45.5 -172t126.5 -61t126.5 61z" />
    <glyph glyph-name="c" unicode="c" horiz-adv-x="499" 
d="M153 21.5q-51 34.5 -80 98.5t-29 149q0 84 29 148t80 98.5t115 34.5q70 0 120.5 -38t65.5 -95l-49 -16q-16 46 -53 73t-86 27q-48 0 -86 -29t-59.5 -81.5t-21.5 -121.5t21.5 -122t59.5 -82t86 -29q51 0 91 26.5t59 72.5l48 -13q-22 -61 -76 -98t-120 -37q-64 0 -115 34.5
z" />
    <glyph glyph-name="d" unicode="d" horiz-adv-x="587" 
d="M100 64q-56 77 -56 207q0 129 57 204t162 75q71 0 117 -35t63 -83v318h54v-627q0 -27 4.5 -61t13.5 -62h-54q-8 20 -11.5 43.5t-3.5 65.5q-19 -51 -64.5 -86.5t-118.5 -35.5q-107 0 -163 77zM398 97q45 61 45 172t-45 171.5t-126 60.5t-127 -61t-46 -171q0 -111 46 -172
t127 -61t126 61z" />
    <glyph glyph-name="e" unicode="e" horiz-adv-x="531" 
d="M483 121q-24 -61 -82 -97.5t-126 -36.5q-69 0 -121.5 35.5t-81 100.5t-28.5 152q0 84 27.5 146t78 95.5t117.5 33.5q63 0 111 -30.5t74.5 -83t26.5 -116.5v-42h-380v-3q0 -109 48.5 -174.5t130.5 -65.5q53 0 96 27t62 75zM156 454.5q-43 -47.5 -54 -129.5h323
q-1 78 -45 127.5t-114 49.5q-67 0 -110 -47.5z" />
    <glyph glyph-name="f" unicode="f" horiz-adv-x="329" 
d="M109 488h-91v49h91v73q0 65 38.5 108.5t108.5 43.5q27 0 56 -6.5t42 -14.5l-12 -47q-12 7 -35.5 13t-44.5 6q-42 0 -71 -25t-29 -79v-72h167v-49h-167v-488h-53v488z" />
    <glyph glyph-name="g" unicode="g" horiz-adv-x="535" 
d="M474 58q41 -37 41 -97q0 -51 -30.5 -89t-86.5 -59t-132 -21q-65 0 -116 20t-80 56.5t-29 84.5q0 32 16 63t45 56q-16 12 -24 29t-8 36q0 25 15.5 48.5t43.5 38.5q-32 24 -49.5 61t-17.5 81q0 54 25.5 96t71.5 65t106 23q84 0 138 -43q22 16 33 39t11 49h48
q0 -67 -64 -114q38 -49 38 -115q0 -54 -25.5 -96t-72 -65t-106.5 -23q-58 0 -100 21q-22 -11 -33 -26t-11 -31q0 -22 18 -36.5t52 -14.5h175q67 0 108 -37zM156.5 466.5q-41.5 -38.5 -41.5 -100.5t41 -100.5t109 -38.5t109.5 38.5t41.5 100.5t-41.5 100.5t-109.5 38.5
q-67 0 -108.5 -38.5zM406 -128q55 33 55 88q0 39 -27 64t-70 25h-185q-21 0 -41 5q-46 -41 -46 -94q0 -54 48.5 -87.5t125.5 -33.5q85 0 140 33z" />
    <glyph glyph-name="h" unicode="h" horiz-adv-x="585" 
d="M438.5 496q51.5 -54 51.5 -155v-341h-53v333q0 80 -40.5 123t-102.5 43q-38 0 -71.5 -20t-54 -59.5t-20.5 -95.5v-324h-54v750h54v-298q19 40 59.5 69t97.5 29q82 0 133.5 -54z" />
    <glyph glyph-name="i" unicode="i" horiz-adv-x="242" 
d="M94 0v537h54v-537h-54zM95 688.5q-11 10.5 -11 27.5q0 16 11.5 26.5t26.5 10.5t26.5 -10.5t11.5 -26.5q0 -17 -11 -27.5t-27 -10.5t-27 10.5z" />
    <glyph glyph-name="j" unicode="j" horiz-adv-x="244" 
d="M-13 -161q55 0 82 26t27 94v578h53v-575q0 -96 -41.5 -133t-120.5 -37v47zM96 688.5q-11 10.5 -11 27.5q0 16 11.5 26.5t26.5 10.5t26.5 -10.5t11.5 -26.5q0 -17 -11 -27.5t-27 -10.5t-27 10.5z" />
    <glyph glyph-name="k" unicode="k" horiz-adv-x="549" 
d="M512 0h-68l-205 277l-91 -92v-185h-54v750h54v-489l278 276h72l-219 -220z" />
    <glyph glyph-name="l" unicode="l" horiz-adv-x="285" 
d="M127.5 40.5q-41.5 43.5 -41.5 120.5v589h54v-579q0 -59 28 -92t78 -33l-4 -49q-73 0 -114.5 43.5z" />
    <glyph glyph-name="m" unicode="m" horiz-adv-x="901" 
d="M94 537h53v-87q17 40 57.5 70t96.5 30q53 0 94 -25.5t64 -79.5q22 48 65 76.5t100 28.5q79 0 130.5 -53t51.5 -155v-342h-53v334q0 80 -39 122.5t-97 42.5q-38 0 -70 -19.5t-51 -59t-19 -95.5v-325h-53v333q0 80 -39 123t-97 43q-38 0 -70 -19.5t-51 -59t-19 -96.5v-324
h-54v537z" />
    <glyph glyph-name="n" unicode="n" horiz-adv-x="585" 
d="M94 537h53v-87q18 40 59.5 70t98.5 30q82 0 133.5 -54t51.5 -155v-341h-53v333q0 80 -40.5 123t-102.5 43q-38 0 -71.5 -20t-54 -59.5t-20.5 -95.5v-324h-54v537z" />
    <glyph glyph-name="o" unicode="o" horiz-adv-x="542" 
d="M104.5 61q-60.5 74 -60.5 208t60.5 207.5t166.5 73.5t166.5 -73.5t60.5 -207.5t-60.5 -208t-166.5 -74t-166.5 74zM397.5 97q45.5 61 45.5 172q0 110 -45.5 171t-126.5 61q-82 0 -127 -61t-45 -171q0 -111 45 -172t127 -61q81 0 126.5 61z" />
    <glyph glyph-name="p" unicode="p" horiz-adv-x="591" 
d="M94 537h54v-112q17 49 62 87t118 38q102 0 160.5 -73t58.5 -208t-58.5 -208.5t-160.5 -73.5q-71 0 -116 37t-64 83v-302h-54v732zM446 96.5q46 61.5 46 172.5t-46 172t-127 61t-126 -61t-45 -172t45 -172.5t126 -61.5t127 61.5z" />
    <glyph glyph-name="q" unicode="q" horiz-adv-x="591" 
d="M443 105q-16 -45 -61.5 -81.5t-119.5 -36.5q-102 0 -160 73.5t-58 208.5q0 134 58 207.5t160 73.5q74 0 119.5 -37t61.5 -79v103h54v-732h-54v300zM397.5 96.5q45.5 61.5 45.5 172.5t-45 172t-126 61t-127 -61t-46 -172t46 -172.5t127 -61.5q80 0 125.5 61.5z" />
    <glyph glyph-name="r" unicode="r" horiz-adv-x="414" 
d="M94 537h54v-89q21 47 57.5 74.5t83.5 27.5q59 0 105 -40l-25 -46q-40 35 -86 35q-37 0 -68 -24t-49 -66.5t-18 -97.5v-311h-54v537z" />
    <glyph glyph-name="s" unicode="s" horiz-adv-x="470" 
d="M115 21.5q-52 34.5 -75 87.5l40 26q22 -45 64 -73t99 -28q51 0 86.5 28t35.5 70q0 32 -18.5 53t-45.5 33.5t-74 28.5q-55 19 -88 35t-56 45.5t-23 75.5q0 67 48 107t127 40q64 0 112 -27.5t70 -71.5l-40 -28q-20 37 -57 58.5t-84 21.5q-53 0 -87 -27t-34 -70
q0 -31 18 -51.5t45.5 -33t73.5 -28.5q55 -19 88 -35t56.5 -46t23.5 -77q0 -43 -23.5 -76.5t-64 -52.5t-88.5 -19q-77 0 -129 34.5z" />
    <glyph glyph-name="t" unicode="t" horiz-adv-x="381" 
d="M152.5 24.5q-33.5 37.5 -33.5 113.5v350h-101v49h101v161l54 10v-171h145v-49h-145v-340q0 -57 20 -83t64 -26q39 0 80 23l10 -50q-21 -11 -46.5 -18t-49.5 -7q-65 0 -98.5 37.5z" />
    <glyph glyph-name="u" unicode="u" horiz-adv-x="543" 
d="M106.5 36.5q-46.5 49.5 -46.5 126.5v374h53v-366q0 -63 35 -98.5t94 -35.5q40 0 75 20t56.5 58.5t21.5 90.5v331h54v-393q0 -43 6 -82t17 -62h-54q-8 15 -13 39t-6 52q-19 -42 -63.5 -73t-104.5 -31q-78 0 -124.5 49.5z" />
    <glyph glyph-name="v" unicode="v" horiz-adv-x="528" 
d="M236 0l-206 537h56l178 -476l180 476h55l-207 -537h-56z" />
    <glyph glyph-name="w" unicode="w" horiz-adv-x="833" 
d="M208 0l-167 537h54l145 -470l147 470h63l144 -470l144 470h54l-167 -537h-61l-146 475l-149 -475h-61z" />
    <glyph glyph-name="x" unicode="x" horiz-adv-x="489" 
d="M458 0h-64l-152 226l-151 -226h-61l182 270l-180 267h64l150 -222l148 222h61l-181 -265z" />
    <glyph glyph-name="y" unicode="y" horiz-adv-x="519" 
d="M480 537l-216 -578q-33 -89 -95 -128t-137 -39l-5 51q59 0 110.5 30.5t76.5 98.5l10 27l-214 538h59l182 -465l172 465h57z" />
    <glyph glyph-name="z" unicode="z" horiz-adv-x="485" 
d="M41 0l-2 45l327 442h-322v50h389v-42l-327 -445h330v-50h-395z" />
    <glyph glyph-name="braceleft" unicode="{" horiz-adv-x="268" 
d="M129.5 -165q-34.5 34 -34.5 100q0 29 6 66t19 101q21 103 21 137q0 35 -17.5 50.5t-52.5 18.5v48q35 4 52.5 19t17.5 51q0 22 -6.5 59.5t-14.5 76.5q-12 62 -18.5 100.5t-6.5 67.5q0 66 34.5 100t88.5 34q29 0 61 -9l-7 -41q-21 7 -47 7q-39 0 -61.5 -22.5t-22.5 -69.5
t24 -163q21 -101 21 -137q0 -81 -71 -96v-1q24 -5 47.5 -25t23.5 -71q0 -36 -21 -137q-24 -116 -24 -164q0 -46 22.5 -68.5t61.5 -22.5q26 0 47 7l7 -41q-31 -9 -61 -9q-54 0 -88.5 34z" />
    <glyph glyph-name="bar" unicode="|" horiz-adv-x="260" 
d="M106 -230v1000h48v-1000h-48z" />
    <glyph glyph-name="braceright" unicode="}" horiz-adv-x="268" 
d="M-11 -190l7 41q21 -7 47 -7q39 0 61.5 22.5t22.5 68.5q0 48 -24 164q-21 101 -21 137q0 51 23.5 71t47.5 25v1q-71 15 -71 96q0 36 21 137q24 116 24 163t-22.5 69.5t-61.5 22.5q-26 0 -47 -7l-7 41q32 9 61 9q54 0 88.5 -34t34.5 -100q0 -29 -6.5 -67.5t-18.5 -100.5
q-8 -39 -14.5 -76.5t-6.5 -59.5q0 -36 17.5 -51t52.5 -19v-48q-35 -3 -52.5 -18.5t-17.5 -50.5q0 -34 21 -137q13 -64 19 -101t6 -66q0 -66 -34.5 -100t-88.5 -34q-29 0 -61 9z" />
    <glyph glyph-name="asciitilde" unicode="~" horiz-adv-x="508" 
d="M58 350q0 36 22.5 61.5t62.5 25.5q28 0 65.5 -5t46.5 -6q72 -10 100 -10q50 0 53 53l42 -9q-2 -36 -26 -62t-66 -26q-35 0 -113 12q-72 10 -97 10t-37 -14.5t-12 -38.5z" />
    <glyph glyph-name="uni00A0" unicode="&#xa0;" horiz-adv-x="142" 
 />
    <glyph glyph-name="exclamdown" unicode="&#xa1;" horiz-adv-x="292" 
d="M173.5 539q11.5 -11 11.5 -29q0 -17 -11.5 -28t-28.5 -11t-28 11t-11 28q0 18 11 29t28 11t28.5 -11zM121 369h51l3 -521h-57z" />
    <glyph glyph-name="cent" unicode="&#xa2;" horiz-adv-x="519" 
d="M399 108q-51 -37 -114 -40v-68h-35v69q-58 7 -103 43t-70.5 97.5t-25.5 140.5t25.5 140t70.5 97t103 43v65h35v-64q66 -3 114 -40.5t62 -92.5l-49 -16q-15 43 -48.5 69.5t-78.5 30.5v-465q47 4 83.5 30t54.5 69l48 -13q-21 -58 -72 -95zM145.5 191.5
q39.5 -62.5 104.5 -72.5v461q-65 -10 -104.5 -72t-39.5 -158t39.5 -158.5z" />
    <glyph glyph-name="sterling" unicode="&#xa3;" horiz-adv-x="554" 
d="M493 49v-49h-407v47q41 27 66.5 82t25.5 111q0 36 -11 89h-107v39h97q-2 8 -11 42t-14 64.5t-5 56.5q0 83 48.5 130t124.5 47q72 0 118.5 -31t71.5 -85l-51 -19q-23 42 -55.5 63t-82.5 21q-49 0 -83 -32t-34 -94q0 -35 6.5 -67t18.5 -77l5 -19h188v-39h-179
q11 -44 11 -89q0 -54 -24 -109t-55 -82h338z" />
    <glyph glyph-name="currency" unicode="&#xa4;" horiz-adv-x="504" 
d="M50 188l79 80q-27 38 -27 87q0 50 27 87l-79 80l23 23l78 -78q42 39 101 39t101 -39l78 78l24 -23l-80 -80q27 -37 27 -87t-27 -87l80 -80l-24 -23l-78 79q-42 -40 -101 -40t-101 40l-78 -79zM326 280q31 31 31 75t-31 75t-74 31t-74 -31t-31 -75t31 -75t74 -31t74 31z
" />
    <glyph glyph-name="yen" unicode="&#xa5;" horiz-adv-x="596" 
d="M560 695l-219 -407h167v-38h-183v-100h183v-38h-183v-112h-55v112h-183v38h183v100h-183v38h167l-218 407h62l200 -374l200 374h62z" />
    <glyph glyph-name="brokenbar" unicode="&#xa6;" horiz-adv-x="260" 
d="M106 378v392h48v-392h-48zM106 -230v392h48v-392h-48z" />
    <glyph glyph-name="section" unicode="&#xa7;" horiz-adv-x="415" 
d="M107.5 -138.5q-24.5 23.5 -24.5 54.5q0 22 13.5 37.5t36.5 15.5q22 0 34 -13t12 -31q0 -17 -12 -30t-35 -13q15 -17 45 -17q29 0 50 19t21 57q0 36 -15 75t-34 71t-60 96q-36 59 -57 98.5t-36 87.5t-15 101q0 67 26.5 121.5t72.5 85.5t101 31q47 0 72 -23.5t25 -53.5
q0 -23 -13.5 -38.5t-37.5 -15.5q-21 0 -33 13t-12 31q0 17 12 30t35 13q-16 16 -43 16q-30 0 -52 -20t-22 -59t22 -82t73 -124q41 -65 66 -110.5t43 -99.5t18 -109q0 -62 -29 -117t-76.5 -88t-99.5 -33q-47 0 -71.5 23.5zM323.5 -19.5q23.5 44.5 23.5 95.5q0 65 -30.5 131.5
t-87.5 157.5q-50 82 -72.5 126.5t-25.5 86.5q-1 4 -1 13q0 20 11 46q-28 -17 -50 -67t-22 -99q0 -69 26 -127.5t80 -141.5q50 -78 78 -135.5t28 -106.5q0 -23 -8 -45q27 21 50.5 65.5z" />
    <glyph glyph-name="dieresis" unicode="&#xa8;" horiz-adv-x="606" 
d="M170.5 644q-10.5 10 -10.5 25q0 16 10.5 26t24.5 10q15 0 25.5 -10t10.5 -26q0 -15 -10.5 -25t-25.5 -10q-14 0 -24.5 10zM333 644q-10 10 -10 25q0 16 10 26t25 10q14 0 24.5 -10t10.5 -26q0 -15 -10.5 -25t-24.5 -10q-15 0 -25 10z" />
    <glyph glyph-name="copyright" unicode="&#xa9;" horiz-adv-x="709" 
d="M193.5 32q-69.5 45 -107.5 127t-38 189q0 108 38 189.5t107.5 126.5t160.5 45t160.5 -45t108 -126.5t38.5 -189.5q0 -107 -38.5 -189t-108 -127t-160.5 -45t-160.5 45zM495.5 64.5q61.5 40.5 95 114t33.5 169.5t-33.5 169.5t-95 113.5t-141.5 40t-140.5 -40t-94 -113.5
t-33.5 -169.5t33.5 -169.5t94 -114t140.5 -40.5t141.5 40.5zM235 178.5q-48 63.5 -48 167.5t48 168t129 64q36 0 71 -17.5t54 -47.5l-27 -27q-17 24 -42.5 38t-53.5 14q-62 0 -98.5 -51.5t-36.5 -140.5t36.5 -140.5t98.5 -51.5q31 0 59 14t45 38l27 -27q-20 -30 -56.5 -47
t-76.5 -17q-81 0 -129 63.5z" />
    <glyph glyph-name="ordfeminine" unicode="&#xaa;" horiz-adv-x="357" 
d="M78.5 387q-27.5 24 -27.5 64q0 47 32 71t93 24h74v46q0 31 -20.5 51t-52.5 20q-27 0 -47 -14t-30 -38l-37 11q11 33 41 56t73 23q51 0 83.5 -30t32.5 -80v-132q0 -57 13 -88h-45q-10 22 -10 44q-15 -23 -42.5 -37.5t-59.5 -14.5q-43 0 -70.5 24zM220 422q30 24 30 54v39
h-74q-84 0 -84 -62q0 -25 17.5 -40t46.5 -15q34 0 64 24z" />
    <glyph glyph-name="guillemotleft" unicode="&#xab;" horiz-adv-x="430" 
d="M328 144l-112 179l112 179l42 -15l-102 -164l102 -164zM172 144l-112 179l112 179l42 -15l-102 -164l102 -164z" />
    <glyph glyph-name="logicalnot" unicode="&#xac;" horiz-adv-x="560" 
d="M500 373v-225h-46v176h-394v49h440z" />
    <glyph glyph-name="uni00AD" unicode="&#xad;" horiz-adv-x="464" 
d="M70 304v58h325v-58h-325z" />
    <glyph glyph-name="registered" unicode="&#xae;" horiz-adv-x="453" 
d="M120.5 453q-40.5 40 -40.5 106q0 67 40.5 108t106.5 41t106.5 -41t40.5 -108q0 -66 -40.5 -106t-106.5 -40t-106.5 40zM313 471.5q33 32.5 33 87.5q0 56 -33 89.5t-86 33.5q-54 0 -87 -33.5t-33 -89.5q0 -55 33 -87.5t87 -32.5q53 0 86 32.5zM182 640h45q24 0 39 -14
t15 -36q0 -15 -6.5 -26t-18.5 -16l30 -63l-29 -1l-25 57h-23v-56h-27v155zM226 564q27 0 27 26q0 12 -7.5 19t-19.5 7h-17v-52h17z" />
    <glyph glyph-name="macron" unicode="&#xaf;" horiz-adv-x="606" 
d="M403 696v-43h-252v43h252z" />
    <glyph glyph-name="degree" unicode="&#xb0;" horiz-adv-x="407" 
d="M116 497q-36 36 -36 88q0 33 16.5 61.5t45 45t62.5 16.5q33 0 61.5 -16.5t45 -45t16.5 -61.5q0 -52 -36 -88t-87 -36q-52 0 -88 36zM265.5 522.5q25.5 25.5 25.5 62.5q0 36 -25.5 61.5t-61.5 25.5q-37 0 -62.5 -25.5t-25.5 -61.5q0 -37 25.5 -62.5t62.5 -25.5
q36 0 61.5 25.5z" />
    <glyph glyph-name="plusminus" unicode="&#xb1;" horiz-adv-x="560" 
d="M305 388h195v-49h-195v-200h-51v200h-194v49h194v199h51v-199zM60 0v49h440v-49h-440z" />
    <glyph glyph-name="uni00B2" unicode="&#xb2;" horiz-adv-x="265" 
d="M19 383l118 117q36 36 48.5 56t12.5 45q0 29 -19.5 47t-51.5 18q-26 0 -45 -11t-28 -30l-38 12q12 28 41 46t70 18q52 0 82.5 -27t30.5 -70q0 -33 -15.5 -59.5t-55.5 -66.5l-95 -94h175v-37h-230v36z" />
    <glyph glyph-name="uni00B3" unicode="&#xb3;" horiz-adv-x="281" 
d="M73.5 360.5q-30.5 20.5 -43.5 51.5l36 14q10 -22 32 -36t54 -14q30 0 52 17.5t22 49.5t-24.5 49t-58.5 17h-39v33h40q32 0 53.5 15t21.5 50q0 26 -19.5 42.5t-48.5 16.5q-26 0 -44.5 -11t-27.5 -30l-38 12q12 28 40.5 46t69.5 18q48 0 78.5 -24t30.5 -65q0 -33 -16 -54
t-43 -28v-1q25 -7 45.5 -28.5t20.5 -57.5q0 -46 -32 -74.5t-83 -28.5q-48 0 -78.5 20.5z" />
    <glyph glyph-name="acute" unicode="&#xb4;" horiz-adv-x="606" 
d="M169 610l-20 39l234 122l21 -41z" />
    <glyph glyph-name="uni00B5" unicode="&#xb5;" horiz-adv-x="543" 
d="M455 62q6 -39 17 -62h-54q-8 15 -13 39t-6 52q-19 -42 -63.5 -73t-104.5 -31q-77 0 -125 50l6 -232h-52v732h53v-366q0 -63 35 -98.5t94 -35.5q40 0 75 20t56.5 58.5t21.5 90.5v331h54v-393q0 -43 6 -82z" />
    <glyph glyph-name="paragraph" unicode="&#xb6;" horiz-adv-x="454" 
d="M259 259q-70 0 -119.5 31t-74.5 80.5t-25 106.5t25 106.5t74.5 80.5t119.5 31h43v-813h-43v377zM363 -118v813h42v-813h-42z" />
    <glyph glyph-name="periodcentered" unicode="&#xb7;" horiz-adv-x="235" 
d="M89 314q-11 11 -11 29q0 17 11 28t28 11t28.5 -11t11.5 -28q0 -18 -11.5 -29t-28.5 -11t-28 11z" />
    <glyph glyph-name="cedilla" unicode="&#xb8;" horiz-adv-x="606" 
d="M223.5 -200q-24.5 7 -41.5 19l12 30q40 -23 77 -23q30 0 47 13.5t17 30.5q0 16 -14.5 28t-40.5 12q-25 0 -49 -11l-25 17l56 84h42l-46 -63q16 6 37 6q39 0 62.5 -21t23.5 -50q0 -33 -28 -56t-80 -23q-25 0 -49.5 7z" />
    <glyph glyph-name="uni00B9" unicode="&#xb9;" horiz-adv-x="175" 
d="M94 347v303l-73 -44l-4 37l81 52h35v-348h-39z" />
    <glyph glyph-name="ordmasculine" unicode="&#xba;" horiz-adv-x="342" 
d="M70 407.5q-37 44.5 -37 124.5t37 124.5t101 44.5t101 -44.5t37 -124.5t-37 -124.5t-101 -44.5t-101 44.5zM241.5 435.5q24.5 34.5 24.5 96.5t-24.5 96.5t-70.5 34.5t-70.5 -34.5t-24.5 -96.5t24.5 -96.5t70.5 -34.5t70.5 34.5z" />
    <glyph glyph-name="guillemotright" unicode="&#xbb;" horiz-adv-x="429" 
d="M257 144l-42 15l102 164l-102 164l42 15l112 -179zM101 144l-42 15l102 164l-102 164l42 15l112 -179z" />
    <glyph glyph-name="onequarter" unicode="&#xbc;" horiz-adv-x="570" 
d="M94 347v303l-73 -44l-4 37l81 52h35v-348h-39zM99 0h-46l322 695h47zM472 0v78h-157v33l112 237h40l-109 -235h114v97h38v-97h43v-35h-43v-78h-38z" />
    <glyph glyph-name="onehalf" unicode="&#xbd;" horiz-adv-x="564" 
d="M94 347v303l-73 -44l-4 37l81 52h35v-348h-39zM99 0h-46l322 695h47zM318 36l118 117q36 36 48.5 56t12.5 45q0 29 -19.5 47t-51.5 18q-26 0 -45 -11t-28 -30l-38 12q12 28 41 46t70 18q52 0 82.5 -27t30.5 -70q0 -33 -15.5 -59.5t-55.5 -66.5l-95 -94h175v-37h-230v36z
" />
    <glyph glyph-name="threequarters" unicode="&#xbe;" horiz-adv-x="676" 
d="M61.5 360.5q-30.5 20.5 -43.5 51.5l36 14q10 -22 32 -36t54 -14q30 0 52 17.5t22 49.5t-24.5 49t-58.5 17h-39v33h40q32 0 53.5 15t21.5 50q0 26 -19.5 42.5t-48.5 16.5q-26 0 -44.5 -11t-27.5 -30l-38 12q12 28 40.5 46t69.5 18q48 0 78.5 -24t30.5 -65q0 -33 -16 -54
t-43 -28v-1q25 -7 45.5 -28.5t20.5 -57.5q0 -46 -32 -74.5t-83 -28.5q-48 0 -78.5 20.5zM205 0h-46l322 695h47zM578 0v78h-157v33l112 237h40l-109 -235h114v97h38v-97h43v-35h-43v-78h-38z" />
    <glyph glyph-name="questiondown" unicode="&#xbf;" horiz-adv-x="435" 
d="M276 539q11 -11 11 -29q0 -17 -11 -28t-28 -11t-28.5 11t-11.5 28q0 18 11.5 29t28.5 11t28 -11zM277 317q0 -44 -15 -75t-36 -50.5t-57 -44.5q-31 -21 -48.5 -37t-30 -39.5t-12.5 -55.5q0 -60 42.5 -94.5t102.5 -34.5q46 0 86 22t62 62l52 -19q-29 -57 -82 -86.5
t-119 -29.5q-53 0 -99 20.5t-74 61t-28 96.5q0 40 14 68.5t34 47t54 42.5q33 23 52.5 40.5t33 44.5t13.5 64v49h55v-52z" />
    <glyph glyph-name="Agrave" unicode="&#xc0;" horiz-adv-x="592" 
d="M513 0l-64 186h-309l-63 -186h-56l241 695h68l241 -695h-58zM157 235h275l-138 404zM394 771l-238 114l20 42l237 -117z" />
    <glyph glyph-name="Aacute" unicode="&#xc1;" horiz-adv-x="592" 
d="M513 0l-64 186h-309l-63 -186h-56l241 695h68l241 -695h-58zM157 235h275l-138 404zM180 771l-19 39l237 117l20 -42z" />
    <glyph glyph-name="Acircumflex" unicode="&#xc2;" horiz-adv-x="592" 
d="M513 0l-64 186h-309l-63 -186h-56l241 695h68l241 -695h-58zM157 235h275l-138 404zM206 756l-38 19l105 134h46l105 -134l-38 -19l-90 109z" />
    <glyph glyph-name="Atilde" unicode="&#xc3;" horiz-adv-x="592" 
d="M513 0l-64 186h-309l-63 -186h-56l241 695h68l241 -695h-58zM157 235h275l-138 404zM172 800q2 30 19.5 49.5t45.5 19.5q19 0 59 -8q32 -7 48 -7q33 0 36 40l40 -8q-3 -32 -22 -52.5t-52 -20.5q-18 0 -61 9q-32 6 -42 6q-16 0 -23 -9t-9 -28z" />
    <glyph glyph-name="Adieresis" unicode="&#xc4;" horiz-adv-x="592" 
d="M513 0l-64 186h-309l-63 -186h-56l241 695h68l241 -695h-58zM157 235h275l-138 404zM189.5 802q-10.5 10 -10.5 25q0 16 10.5 26t24.5 10q15 0 25.5 -10t10.5 -26q0 -15 -10.5 -25t-25.5 -10q-14 0 -24.5 10zM352 802q-10 10 -10 25q0 16 10 26t25 10q14 0 24.5 -10
t10.5 -26q0 -15 -10.5 -25t-24.5 -10q-15 0 -25 10z" />
    <glyph glyph-name="Aring" unicode="&#xc5;" horiz-adv-x="592" 
d="M513 0l-64 186h-309l-63 -186h-56l241 695h68l241 -695h-58zM157 235h275l-138 404zM358 904q25 -25 25 -62t-25 -61.5t-62 -24.5t-61.5 24.5t-24.5 61.5t24.5 62t61.5 25t62 -25zM260 881q-15 -15 -15 -39q0 -23 14.5 -38t36.5 -15t37 14.5t15 38.5t-15 39t-37 15
q-21 0 -36 -15z" />
    <glyph glyph-name="AE" unicode="&#xc6;" horiz-adv-x="953" 
d="M523 49h358v-49h-413v213h-243l-121 -213h-57l396 695h410v-49h-330v-270h289v-50h-289v-277zM254 263h214v377z" />
    <glyph glyph-name="Ccedilla" unicode="&#xc7;" horiz-adv-x="639" 
d="M511 27.5q-57 -38.5 -141 -40.5l-37 -50q17 6 37 6q39 0 62.5 -21t23.5 -50q0 -33 -28 -56t-80 -23q-25 0 -49.5 7t-41.5 19l12 30q40 -23 77 -23q30 0 47 13.5t17 30.5q0 16 -14.5 28t-40.5 12q-25 0 -49 -11l-25 17l48 72q-79 8 -140 51.5t-95 121.5t-34 187
q0 115 38.5 196.5t106.5 122.5t155 41t146 -38.5t84 -95.5l-52 -19q-54 102 -177 102q-111 0 -178 -79t-67 -230q0 -102 31.5 -171.5t87 -104t127.5 -34.5q126 0 180 102l49 -19q-23 -55 -80 -93.5z" />
    <glyph glyph-name="Egrave" unicode="&#xc8;" horiz-adv-x="591" 
d="M106 0v695h385v-49h-330v-270h289v-50h-289v-277h358v-49h-413zM399 771l-238 114l20 42l237 -117z" />
    <glyph glyph-name="Eacute" unicode="&#xc9;" horiz-adv-x="591" 
d="M106 0v695h385v-49h-330v-270h289v-50h-289v-277h358v-49h-413zM185 771l-19 39l237 117l20 -42z" />
    <glyph glyph-name="Ecircumflex" unicode="&#xca;" horiz-adv-x="591" 
d="M106 0v695h385v-49h-330v-270h289v-50h-289v-277h358v-49h-413zM211 756l-38 19l105 134h46l105 -134l-38 -19l-90 109z" />
    <glyph glyph-name="Edieresis" unicode="&#xcb;" horiz-adv-x="591" 
d="M106 0v695h385v-49h-330v-270h289v-50h-289v-277h358v-49h-413zM194.5 802q-10.5 10 -10.5 25q0 16 10.5 26t24.5 10q15 0 25.5 -10t10.5 -26q0 -15 -10.5 -25t-25.5 -10q-14 0 -24.5 10zM357 802q-10 10 -10 25q0 16 10 26t25 10q14 0 24.5 -10t10.5 -26
q0 -15 -10.5 -25t-24.5 -10q-15 0 -25 10z" />
    <glyph glyph-name="Igrave" unicode="&#xcc;" horiz-adv-x="267" 
d="M106 0v695h55v-695h-55zM232 771l-238 114l20 42l237 -117z" />
    <glyph glyph-name="Iacute" unicode="&#xcd;" horiz-adv-x="267" 
d="M106 0v695h55v-695h-55zM18 771l-19 39l237 117l20 -42z" />
    <glyph glyph-name="Icircumflex" unicode="&#xce;" horiz-adv-x="267" 
d="M106 0v695h55v-695h-55zM44 756l-38 19l105 134h46l105 -134l-38 -19l-90 109z" />
    <glyph glyph-name="Idieresis" unicode="&#xcf;" horiz-adv-x="267" 
d="M106 0v695h55v-695h-55zM27.5 802q-10.5 10 -10.5 25q0 16 10.5 26t24.5 10q15 0 25.5 -10t10.5 -26q0 -15 -10.5 -25t-25.5 -10q-14 0 -24.5 10zM190 802q-10 10 -10 25q0 16 10 26t25 10q14 0 24.5 -10t10.5 -26q0 -15 -10.5 -25t-24.5 -10q-15 0 -25 10z" />
    <glyph glyph-name="Eth" unicode="&#xd0;" horiz-adv-x="678" 
d="M454.5 658.5q74.5 -36.5 119 -114.5t44.5 -197q0 -118 -44.5 -196t-119 -114.5t-165.5 -36.5h-183v325h-93v46h93v324h183q91 0 165.5 -36.5zM421 78.5q63 29.5 102 96.5t39 172q0 106 -39 173t-102 96.5t-138 29.5h-122v-275h185v-46h-185v-276h122q75 0 138 29.5z" />
    <glyph glyph-name="Ntilde" unicode="&#xd1;" horiz-adv-x="722" 
d="M106 0v695h56l399 -602v602h55v-695h-55l-400 603v-603h-55zM229 800q2 30 19.5 49.5t45.5 19.5q19 0 59 -8q32 -7 48 -7q33 0 36 40l40 -8q-3 -32 -22 -52.5t-52 -20.5q-18 0 -61 9q-32 6 -42 6q-16 0 -23 -9t-9 -28z" />
    <glyph glyph-name="Ograve" unicode="&#xd2;" horiz-adv-x="678" 
d="M133.5 78q-73.5 91 -73.5 270t73.5 269.5t205.5 90.5t206 -90.5t74 -269.5t-74 -270t-206 -91t-205.5 91zM503.5 113.5q58.5 75.5 58.5 234.5t-58.5 234t-164.5 75q-107 0 -165 -75t-58 -234q0 -160 58 -235t165 -75q106 0 164.5 75.5zM437 771l-238 114l20 42l237 -117z
" />
    <glyph glyph-name="Oacute" unicode="&#xd3;" horiz-adv-x="678" 
d="M133.5 78q-73.5 91 -73.5 270t73.5 269.5t205.5 90.5t206 -90.5t74 -269.5t-74 -270t-206 -91t-205.5 91zM503.5 113.5q58.5 75.5 58.5 234.5t-58.5 234t-164.5 75q-107 0 -165 -75t-58 -234q0 -160 58 -235t165 -75q106 0 164.5 75.5zM223 771l-19 39l237 117l20 -42z
" />
    <glyph glyph-name="Ocircumflex" unicode="&#xd4;" horiz-adv-x="678" 
d="M133.5 78q-73.5 91 -73.5 270t73.5 269.5t205.5 90.5t206 -90.5t74 -269.5t-74 -270t-206 -91t-205.5 91zM503.5 113.5q58.5 75.5 58.5 234.5t-58.5 234t-164.5 75q-107 0 -165 -75t-58 -234q0 -160 58 -235t165 -75q106 0 164.5 75.5zM249 756l-38 19l105 134h46
l105 -134l-38 -19l-90 109z" />
    <glyph glyph-name="Otilde" unicode="&#xd5;" horiz-adv-x="678" 
d="M133.5 78q-73.5 91 -73.5 270t73.5 269.5t205.5 90.5t206 -90.5t74 -269.5t-74 -270t-206 -91t-205.5 91zM503.5 113.5q58.5 75.5 58.5 234.5t-58.5 234t-164.5 75q-107 0 -165 -75t-58 -234q0 -160 58 -235t165 -75q106 0 164.5 75.5zM215 800q2 30 19.5 49.5t45.5 19.5
q19 0 59 -8q32 -7 48 -7q33 0 36 40l40 -8q-3 -32 -22 -52.5t-52 -20.5q-18 0 -61 9q-32 6 -42 6q-16 0 -23 -9t-9 -28z" />
    <glyph glyph-name="Odieresis" unicode="&#xd6;" horiz-adv-x="678" 
d="M133.5 78q-73.5 91 -73.5 270t73.5 269.5t205.5 90.5t206 -90.5t74 -269.5t-74 -270t-206 -91t-205.5 91zM503.5 113.5q58.5 75.5 58.5 234.5t-58.5 234t-164.5 75q-107 0 -165 -75t-58 -234q0 -160 58 -235t165 -75q106 0 164.5 75.5zM232.5 802q-10.5 10 -10.5 25
q0 16 10.5 26t24.5 10q15 0 25.5 -10t10.5 -26q0 -15 -10.5 -25t-25.5 -10q-14 0 -24.5 10zM395 802q-10 10 -10 25q0 16 10 26t25 10q14 0 24.5 -10t10.5 -26q0 -15 -10.5 -25t-24.5 -10q-15 0 -25 10z" />
    <glyph glyph-name="multiply" unicode="&#xd7;" horiz-adv-x="536" 
d="M477 515l-174 -174l174 -174l-35 -35l-173 174l-174 -174l-35 35l174 174l-174 174l35 34l174 -173l173 173z" />
    <glyph glyph-name="Oslash" unicode="&#xd8;" horiz-adv-x="678" 
d="M587.5 543q31.5 -79 31.5 -195q0 -179 -74 -270t-206 -91q-66 0 -118 23l-30 -70l-41 14l33 77q-60 42 -91.5 121.5t-31.5 195.5q0 179 73.5 269.5t205.5 90.5q68 0 120 -24l28 67l41 -14l-31 -74q59 -41 90.5 -120zM204 82l234 554q-44 21 -99 21q-107 0 -165 -75
t-58 -234q0 -194 88 -266zM503.5 113.5q58.5 75.5 58.5 234.5q0 190 -87 264l-234 -554q41 -20 98 -20q106 0 164.5 75.5z" />
    <glyph glyph-name="Ugrave" unicode="&#xd9;" horiz-adv-x="665" 
d="M161 55q-63 68 -63 198v442h55v-442q0 -97 42 -156t136 -59q95 0 138 59t43 156v442h55v-442q0 -130 -64 -198t-172 -68q-107 0 -170 68zM430 771l-238 114l20 42l237 -117z" />
    <glyph glyph-name="Uacute" unicode="&#xda;" horiz-adv-x="665" 
d="M161 55q-63 68 -63 198v442h55v-442q0 -97 42 -156t136 -59q95 0 138 59t43 156v442h55v-442q0 -130 -64 -198t-172 -68q-107 0 -170 68zM216 771l-19 39l237 117l20 -42z" />
    <glyph glyph-name="Ucircumflex" unicode="&#xdb;" horiz-adv-x="665" 
d="M161 55q-63 68 -63 198v442h55v-442q0 -97 42 -156t136 -59q95 0 138 59t43 156v442h55v-442q0 -130 -64 -198t-172 -68q-107 0 -170 68zM242 756l-38 19l105 134h46l105 -134l-38 -19l-90 109z" />
    <glyph glyph-name="Udieresis" unicode="&#xdc;" horiz-adv-x="665" 
d="M161 55q-63 68 -63 198v442h55v-442q0 -97 42 -156t136 -59q95 0 138 59t43 156v442h55v-442q0 -130 -64 -198t-172 -68q-107 0 -170 68zM225.5 802q-10.5 10 -10.5 25q0 16 10.5 26t24.5 10q15 0 25.5 -10t10.5 -26q0 -15 -10.5 -25t-25.5 -10q-14 0 -24.5 10zM388 802
q-10 10 -10 25q0 16 10 26t25 10q14 0 24.5 -10t10.5 -26q0 -15 -10.5 -25t-24.5 -10q-15 0 -25 10z" />
    <glyph glyph-name="Yacute" unicode="&#xdd;" horiz-adv-x="596" 
d="M270 0v259l-234 436h62l200 -374l200 374h62l-235 -436v-259h-55zM183 771l-19 39l237 117l20 -42z" />
    <glyph glyph-name="Thorn" unicode="&#xde;" horiz-adv-x="543" 
d="M106 695h55v-134h133q99 0 155 -54t56 -148q0 -101 -59 -158t-162 -57h-123v-144h-55v695zM283 190q77 0 121 44.5t44 121.5q0 73 -42.5 115t-118.5 42h-126v-323h122z" />
    <glyph glyph-name="germandbls" unicode="&#xdf;" horiz-adv-x="612" 
d="M279 21q-50 34 -78 82l32 31q24 -43 65.5 -72t97.5 -29q51 0 85.5 28.5t34.5 71.5q0 33 -17 55.5t-41.5 36t-66.5 30.5q-43 17 -69 31.5t-44 38.5t-18 60q0 31 12.5 52t29.5 33.5t47 30.5q40 23 59.5 42t19.5 53q0 48 -38.5 76.5t-90.5 28.5q-39 0 -73 -16t-55.5 -47.5
t-21.5 -77.5v-560h-55v558q0 63 29.5 106.5t76.5 64.5t101 21q48 0 89.5 -17.5t67.5 -51.5t26 -82q0 -32 -12.5 -53.5t-30.5 -35t-48 -30.5q-39 -22 -58 -40t-19 -50q0 -33 26 -52t81 -44q48 -20 77.5 -37.5t50.5 -47.5t21 -74q0 -43 -23.5 -76.5t-64 -52.5t-88.5 -19
q-67 0 -117 34z" />
    <glyph glyph-name="agrave" unicode="&#xe0;" horiz-adv-x="544" 
d="M103 26q-45 39 -45 104q0 78 53 117.5t153 39.5h132v83q0 57 -37.5 94t-94.5 37q-48 0 -85 -25.5t-53 -67.5l-50 15q18 54 68.5 90.5t118.5 36.5q84 0 135.5 -49t51.5 -131v-229q0 -95 22 -141h-57q-16 33 -18 84q-25 -44 -73.5 -70.5t-103.5 -26.5q-72 0 -117 39z
M312 54.5q38 19.5 61 52t23 68.5v70h-131q-152 0 -152 -111q0 -43 33.5 -71t86.5 -28q41 0 79 19.5zM379 613l-238 114l20 42l237 -117z" />
    <glyph glyph-name="aacute" unicode="&#xe1;" horiz-adv-x="544" 
d="M103 26q-45 39 -45 104q0 78 53 117.5t153 39.5h132v83q0 57 -37.5 94t-94.5 37q-48 0 -85 -25.5t-53 -67.5l-50 15q18 54 68.5 90.5t118.5 36.5q84 0 135.5 -49t51.5 -131v-229q0 -95 22 -141h-57q-16 33 -18 84q-25 -44 -73.5 -70.5t-103.5 -26.5q-72 0 -117 39z
M312 54.5q38 19.5 61 52t23 68.5v70h-131q-152 0 -152 -111q0 -43 33.5 -71t86.5 -28q41 0 79 19.5zM165 613l-19 39l237 117l20 -42z" />
    <glyph glyph-name="acircumflex" unicode="&#xe2;" horiz-adv-x="544" 
d="M103 26q-45 39 -45 104q0 78 53 117.5t153 39.5h132v83q0 57 -37.5 94t-94.5 37q-48 0 -85 -25.5t-53 -67.5l-50 15q18 54 68.5 90.5t118.5 36.5q84 0 135.5 -49t51.5 -131v-229q0 -95 22 -141h-57q-16 33 -18 84q-25 -44 -73.5 -70.5t-103.5 -26.5q-72 0 -117 39z
M312 54.5q38 19.5 61 52t23 68.5v70h-131q-152 0 -152 -111q0 -43 33.5 -71t86.5 -28q41 0 79 19.5zM191 598l-38 19l105 134h46l105 -134l-38 -19l-90 109z" />
    <glyph glyph-name="atilde" unicode="&#xe3;" horiz-adv-x="544" 
d="M103 26q-45 39 -45 104q0 78 53 117.5t153 39.5h132v83q0 57 -37.5 94t-94.5 37q-48 0 -85 -25.5t-53 -67.5l-50 15q18 54 68.5 90.5t118.5 36.5q84 0 135.5 -49t51.5 -131v-229q0 -95 22 -141h-57q-16 33 -18 84q-25 -44 -73.5 -70.5t-103.5 -26.5q-72 0 -117 39z
M312 54.5q38 19.5 61 52t23 68.5v70h-131q-152 0 -152 -111q0 -43 33.5 -71t86.5 -28q41 0 79 19.5zM157 642q2 30 19.5 49.5t45.5 19.5q19 0 59 -8q32 -7 48 -7q33 0 36 40l40 -8q-3 -32 -22 -52.5t-52 -20.5q-18 0 -61 9q-32 6 -42 6q-16 0 -23 -9t-9 -28z" />
    <glyph glyph-name="adieresis" unicode="&#xe4;" horiz-adv-x="544" 
d="M103 26q-45 39 -45 104q0 78 53 117.5t153 39.5h132v83q0 57 -37.5 94t-94.5 37q-48 0 -85 -25.5t-53 -67.5l-50 15q18 54 68.5 90.5t118.5 36.5q84 0 135.5 -49t51.5 -131v-229q0 -95 22 -141h-57q-16 33 -18 84q-25 -44 -73.5 -70.5t-103.5 -26.5q-72 0 -117 39z
M312 54.5q38 19.5 61 52t23 68.5v70h-131q-152 0 -152 -111q0 -43 33.5 -71t86.5 -28q41 0 79 19.5zM174.5 644q-10.5 10 -10.5 25q0 16 10.5 26t24.5 10q15 0 25.5 -10t10.5 -26q0 -15 -10.5 -25t-25.5 -10q-14 0 -24.5 10zM337 644q-10 10 -10 25q0 16 10 26t25 10
q14 0 24.5 -10t10.5 -26q0 -15 -10.5 -25t-24.5 -10q-15 0 -25 10z" />
    <glyph glyph-name="aring" unicode="&#xe5;" horiz-adv-x="544" 
d="M103 26q-45 39 -45 104q0 78 53 117.5t153 39.5h132v83q0 57 -37.5 94t-94.5 37q-48 0 -85 -25.5t-53 -67.5l-50 15q18 54 68.5 90.5t118.5 36.5q84 0 135.5 -49t51.5 -131v-229q0 -95 22 -141h-57q-16 33 -18 84q-25 -44 -73.5 -70.5t-103.5 -26.5q-72 0 -117 39z
M312 54.5q38 19.5 61 52t23 68.5v70h-131q-152 0 -152 -111q0 -43 33.5 -71t86.5 -28q41 0 79 19.5zM343 746q25 -25 25 -62t-25 -61.5t-62 -24.5t-61.5 24.5t-24.5 61.5t24.5 62t61.5 25t62 -25zM245 723q-15 -15 -15 -39q0 -23 14.5 -38t36.5 -15t37 14.5t15 38.5t-15 39
t-37 15q-21 0 -36 -15z" />
    <glyph glyph-name="ae" unicode="&#xe6;" horiz-adv-x="884" 
d="M836 121q-25 -62 -82.5 -98t-127.5 -36q-66 0 -116.5 33.5t-79.5 92.5q-65 -126 -203 -126q-75 0 -122 41t-47 108q0 77 52.5 120t154.5 43h131v72q0 57 -37 93.5t-95 36.5q-48 0 -85 -25.5t-53 -67.5l-50 15q19 54 69.5 90.5t118.5 36.5q61 0 107 -27.5t66 -77.5
q29 51 75 78t105 27q65 0 114 -30t75.5 -82.5t26.5 -118.5v-44h-381v-6q0 -67 22 -120.5t62 -83.5t90 -30q57 0 99.5 26t63.5 76zM508.5 455q-42.5 -47 -53.5 -130h322q0 79 -44 128t-117 49q-65 0 -107.5 -47zM396 248h-131q-77 0 -114.5 -28t-37.5 -84q0 -44 33.5 -72
t86.5 -28q42 0 79.5 20.5t60.5 58t23 85.5v48z" />
    <glyph glyph-name="ccedilla" unicode="&#xe7;" horiz-adv-x="499" 
d="M393 27.5q-50 -36.5 -112 -40.5l-37 -50q17 6 37 6q39 0 62.5 -21t23.5 -50q0 -33 -28 -56t-80 -23q-25 0 -49.5 7t-41.5 19l12 30q40 -23 77 -23q30 0 47 13.5t17 30.5q0 16 -14.5 28t-40.5 12q-25 0 -49 -11l-25 17l48 73q-57 7 -101.5 43t-69.5 97t-25 140
q0 84 29 148t80 98.5t115 34.5q70 0 120.5 -38t65.5 -95l-49 -16q-16 46 -53 73t-86 27q-48 0 -86 -29t-59.5 -81.5t-21.5 -121.5t21.5 -122t59.5 -82t86 -29q51 0 91 26.5t59 72.5l48 -13q-21 -58 -71 -94.5z" />
    <glyph glyph-name="egrave" unicode="&#xe8;" horiz-adv-x="531" 
d="M483 121q-24 -61 -82 -97.5t-126 -36.5q-69 0 -121.5 35.5t-81 100.5t-28.5 152q0 84 27.5 146t78 95.5t117.5 33.5q63 0 111 -30.5t74.5 -83t26.5 -116.5v-42h-380v-3q0 -109 48.5 -174.5t130.5 -65.5q53 0 96 27t62 75zM156 454.5q-43 -47.5 -54 -129.5h323
q-1 78 -45 127.5t-114 49.5q-67 0 -110 -47.5zM360 613l-238 114l20 42l237 -117z" />
    <glyph glyph-name="eacute" unicode="&#xe9;" horiz-adv-x="531" 
d="M483 121q-24 -61 -82 -97.5t-126 -36.5q-69 0 -121.5 35.5t-81 100.5t-28.5 152q0 84 27.5 146t78 95.5t117.5 33.5q63 0 111 -30.5t74.5 -83t26.5 -116.5v-42h-380v-3q0 -109 48.5 -174.5t130.5 -65.5q53 0 96 27t62 75zM156 454.5q-43 -47.5 -54 -129.5h323
q-1 78 -45 127.5t-114 49.5q-67 0 -110 -47.5zM146 613l-19 39l237 117l20 -42z" />
    <glyph glyph-name="ecircumflex" unicode="&#xea;" horiz-adv-x="531" 
d="M483 121q-24 -61 -82 -97.5t-126 -36.5q-69 0 -121.5 35.5t-81 100.5t-28.5 152q0 84 27.5 146t78 95.5t117.5 33.5q63 0 111 -30.5t74.5 -83t26.5 -116.5v-42h-380v-3q0 -109 48.5 -174.5t130.5 -65.5q53 0 96 27t62 75zM156 454.5q-43 -47.5 -54 -129.5h323
q-1 78 -45 127.5t-114 49.5q-67 0 -110 -47.5zM172 598l-38 19l105 134h46l105 -134l-38 -19l-90 109z" />
    <glyph glyph-name="edieresis" unicode="&#xeb;" horiz-adv-x="531" 
d="M483 121q-24 -61 -82 -97.5t-126 -36.5q-69 0 -121.5 35.5t-81 100.5t-28.5 152q0 84 27.5 146t78 95.5t117.5 33.5q63 0 111 -30.5t74.5 -83t26.5 -116.5v-42h-380v-3q0 -109 48.5 -174.5t130.5 -65.5q53 0 96 27t62 75zM156 454.5q-43 -47.5 -54 -129.5h323
q-1 78 -45 127.5t-114 49.5q-67 0 -110 -47.5zM155.5 644q-10.5 10 -10.5 25q0 16 10.5 26t24.5 10q15 0 25.5 -10t10.5 -26q0 -15 -10.5 -25t-25.5 -10q-14 0 -24.5 10zM318 644q-10 10 -10 25q0 16 10 26t25 10q14 0 24.5 -10t10.5 -26q0 -15 -10.5 -25t-24.5 -10
q-15 0 -25 10z" />
    <glyph glyph-name="igrave" unicode="&#xec;" horiz-adv-x="242" 
d="M94 0v537h54v-537h-54zM220 613l-238 114l20 42l237 -117z" />
    <glyph glyph-name="iacute" unicode="&#xed;" horiz-adv-x="242" 
d="M94 0v537h54v-537h-54zM6 613l-19 39l237 117l20 -42z" />
    <glyph glyph-name="icircumflex" unicode="&#xee;" horiz-adv-x="242" 
d="M94 0v537h54v-537h-54zM32 598l-38 19l105 134h46l105 -134l-38 -19l-90 109z" />
    <glyph glyph-name="idieresis" unicode="&#xef;" horiz-adv-x="242" 
d="M94 0v537h54v-537h-54zM15.5 644q-10.5 10 -10.5 25q0 16 10.5 26t24.5 10q15 0 25.5 -10t10.5 -26q0 -15 -10.5 -25t-25.5 -10q-14 0 -24.5 10zM178 644q-10 10 -10 25q0 16 10 26t25 10q14 0 24.5 -10t10.5 -26q0 -15 -10.5 -25t-24.5 -10q-15 0 -25 10z" />
    <glyph glyph-name="eth" unicode="&#xf0;" horiz-adv-x="524" 
d="M480 256q0 -84 -27 -144.5t-76.5 -92.5t-115.5 -32q-65 0 -114 32t-76 93t-27 144t27 143.5t76 92t114 31.5q62 0 111 -29q-35 71 -85 125l-110 -46l-18 34l100 42q-56 56 -109 79l42 32q65 -34 118 -90l109 46l18 -34l-99 -42q65 -76 103.5 -174.5t38.5 -208.5v-1z
M382 92.5q43 57.5 43 163.5q0 105 -43 162t-121 57q-77 0 -119.5 -57t-42.5 -162q0 -106 42.5 -163.5t119.5 -57.5q78 0 121 57.5z" />
    <glyph glyph-name="ntilde" unicode="&#xf1;" horiz-adv-x="585" 
d="M94 537h53v-87q18 40 59.5 70t98.5 30q82 0 133.5 -54t51.5 -155v-341h-53v333q0 80 -40.5 123t-102.5 43q-38 0 -71.5 -20t-54 -59.5t-20.5 -95.5v-324h-54v537zM168 642q2 30 19.5 49.5t45.5 19.5q19 0 59 -8q32 -7 48 -7q33 0 36 40l40 -8q-3 -32 -22 -52.5t-52 -20.5
q-18 0 -61 9q-32 6 -42 6q-16 0 -23 -9t-9 -28z" />
    <glyph glyph-name="ograve" unicode="&#xf2;" horiz-adv-x="542" 
d="M104.5 61q-60.5 74 -60.5 208t60.5 207.5t166.5 73.5t166.5 -73.5t60.5 -207.5t-60.5 -208t-166.5 -74t-166.5 74zM397.5 97q45.5 61 45.5 172q0 110 -45.5 171t-126.5 61q-82 0 -127 -61t-45 -171q0 -111 45 -172t127 -61q81 0 126.5 61zM370 613l-238 114l20 42
l237 -117z" />
    <glyph glyph-name="oacute" unicode="&#xf3;" horiz-adv-x="542" 
d="M104.5 61q-60.5 74 -60.5 208t60.5 207.5t166.5 73.5t166.5 -73.5t60.5 -207.5t-60.5 -208t-166.5 -74t-166.5 74zM397.5 97q45.5 61 45.5 172q0 110 -45.5 171t-126.5 61q-82 0 -127 -61t-45 -171q0 -111 45 -172t127 -61q81 0 126.5 61zM156 613l-19 39l237 117l20 -42
z" />
    <glyph glyph-name="ocircumflex" unicode="&#xf4;" horiz-adv-x="542" 
d="M104.5 61q-60.5 74 -60.5 208t60.5 207.5t166.5 73.5t166.5 -73.5t60.5 -207.5t-60.5 -208t-166.5 -74t-166.5 74zM397.5 97q45.5 61 45.5 172q0 110 -45.5 171t-126.5 61q-82 0 -127 -61t-45 -171q0 -111 45 -172t127 -61q81 0 126.5 61zM182 598l-38 19l105 134h46
l105 -134l-38 -19l-90 109z" />
    <glyph glyph-name="otilde" unicode="&#xf5;" horiz-adv-x="542" 
d="M104.5 61q-60.5 74 -60.5 208t60.5 207.5t166.5 73.5t166.5 -73.5t60.5 -207.5t-60.5 -208t-166.5 -74t-166.5 74zM397.5 97q45.5 61 45.5 172q0 110 -45.5 171t-126.5 61q-82 0 -127 -61t-45 -171q0 -111 45 -172t127 -61q81 0 126.5 61zM148 642q2 30 19.5 49.5
t45.5 19.5q19 0 59 -8q32 -7 48 -7q33 0 36 40l40 -8q-3 -32 -22 -52.5t-52 -20.5q-18 0 -61 9q-32 6 -42 6q-16 0 -23 -9t-9 -28z" />
    <glyph glyph-name="odieresis" unicode="&#xf6;" horiz-adv-x="542" 
d="M104.5 61q-60.5 74 -60.5 208t60.5 207.5t166.5 73.5t166.5 -73.5t60.5 -207.5t-60.5 -208t-166.5 -74t-166.5 74zM397.5 97q45.5 61 45.5 172q0 110 -45.5 171t-126.5 61q-82 0 -127 -61t-45 -171q0 -111 45 -172t127 -61q81 0 126.5 61zM165.5 644q-10.5 10 -10.5 25
q0 16 10.5 26t24.5 10q15 0 25.5 -10t10.5 -26q0 -15 -10.5 -25t-25.5 -10q-14 0 -24.5 10zM328 644q-10 10 -10 25q0 16 10 26t25 10q14 0 24.5 -10t10.5 -26q0 -15 -10.5 -25t-24.5 -10q-15 0 -25 10z" />
    <glyph glyph-name="divide" unicode="&#xf7;" horiz-adv-x="563" 
d="M239 132q-11 11 -11 29q0 17 11 28t28 11t28.5 -11t11.5 -28q0 -18 -11.5 -29t-28.5 -11t-28 11zM60 324v49h440v-49h-440zM239 507q-11 11 -11 29q0 17 11 28t28 11t28.5 -11t11.5 -28q0 -18 -11.5 -29t-28.5 -11t-28 11z" />
    <glyph glyph-name="oslash" unicode="&#xf8;" horiz-adv-x="542" 
d="M476.5 406.5q21.5 -58.5 21.5 -137.5q0 -134 -60.5 -208t-166.5 -74q-66 0 -116 30l-28 -52l-30 18l29 55q-40 36 -61 94.5t-21 136.5q0 134 60.5 207.5t166.5 73.5q63 0 113 -28l32 59l31 -18l-33 -62q41 -36 62.5 -94.5zM152 87l208 389q-39 25 -89 25q-82 0 -127 -61
t-45 -171q0 -121 53 -182zM397.5 97q45.5 61 45.5 172q0 60 -14 106.5t-41 76.5l-209 -389q38 -27 92 -27q81 0 126.5 61z" />
    <glyph glyph-name="ugrave" unicode="&#xf9;" horiz-adv-x="543" 
d="M106.5 36.5q-46.5 49.5 -46.5 126.5v374h53v-366q0 -63 35 -98.5t94 -35.5q40 0 75 20t56.5 58.5t21.5 90.5v331h54v-393q0 -43 6 -82t17 -62h-54q-8 15 -13 39t-6 52q-19 -42 -63.5 -73t-104.5 -31q-78 0 -124.5 49.5zM354 613l-238 114l20 42l237 -117z" />
    <glyph glyph-name="uacute" unicode="&#xfa;" horiz-adv-x="543" 
d="M106.5 36.5q-46.5 49.5 -46.5 126.5v374h53v-366q0 -63 35 -98.5t94 -35.5q40 0 75 20t56.5 58.5t21.5 90.5v331h54v-393q0 -43 6 -82t17 -62h-54q-8 15 -13 39t-6 52q-19 -42 -63.5 -73t-104.5 -31q-78 0 -124.5 49.5zM140 613l-19 39l237 117l20 -42z" />
    <glyph glyph-name="ucircumflex" unicode="&#xfb;" horiz-adv-x="543" 
d="M106.5 36.5q-46.5 49.5 -46.5 126.5v374h53v-366q0 -63 35 -98.5t94 -35.5q40 0 75 20t56.5 58.5t21.5 90.5v331h54v-393q0 -43 6 -82t17 -62h-54q-8 15 -13 39t-6 52q-19 -42 -63.5 -73t-104.5 -31q-78 0 -124.5 49.5zM166 598l-38 19l105 134h46l105 -134l-38 -19
l-90 109z" />
    <glyph glyph-name="udieresis" unicode="&#xfc;" horiz-adv-x="543" 
d="M106.5 36.5q-46.5 49.5 -46.5 126.5v374h53v-366q0 -63 35 -98.5t94 -35.5q40 0 75 20t56.5 58.5t21.5 90.5v331h54v-393q0 -43 6 -82t17 -62h-54q-8 15 -13 39t-6 52q-19 -42 -63.5 -73t-104.5 -31q-78 0 -124.5 49.5zM149.5 644q-10.5 10 -10.5 25q0 16 10.5 26
t24.5 10q15 0 25.5 -10t10.5 -26q0 -15 -10.5 -25t-25.5 -10q-14 0 -24.5 10zM312 644q-10 10 -10 25q0 16 10 26t25 10q14 0 24.5 -10t10.5 -26q0 -15 -10.5 -25t-24.5 -10q-15 0 -25 10z" />
    <glyph glyph-name="yacute" unicode="&#xfd;" horiz-adv-x="519" 
d="M480 537l-216 -578q-33 -89 -95 -128t-137 -39l-5 51q59 0 110.5 30.5t76.5 98.5l10 27l-214 538h59l182 -465l172 465h57zM134 613l-19 39l237 117l20 -42z" />
    <glyph glyph-name="thorn" unicode="&#xfe;" horiz-adv-x="591" 
d="M488.5 477q58.5 -73 58.5 -208t-58.5 -208.5t-160.5 -73.5q-71 0 -116 37t-64 83v-302h-54v945h54v-325q17 49 62 87t118 38q102 0 160.5 -73zM446 96.5q46 61.5 46 172.5t-46 172t-127 61t-126 -61t-45 -172t45 -172.5t126 -61.5t127 61.5z" />
    <glyph glyph-name="ydieresis" unicode="&#xff;" horiz-adv-x="519" 
d="M480 537l-216 -578q-33 -89 -95 -128t-137 -39l-5 51q59 0 110.5 30.5t76.5 98.5l10 27l-214 538h59l182 -465l172 465h57zM143.5 644q-10.5 10 -10.5 25q0 16 10.5 26t24.5 10q15 0 25.5 -10t10.5 -26q0 -15 -10.5 -25t-25.5 -10q-14 0 -24.5 10zM306 644q-10 10 -10 25
q0 16 10 26t25 10q14 0 24.5 -10t10.5 -26q0 -15 -10.5 -25t-24.5 -10q-15 0 -25 10z" />
    <glyph glyph-name="Amacron" unicode="&#x100;" horiz-adv-x="592" 
d="M513 0l-64 186h-309l-63 -186h-56l241 695h68l241 -695h-58zM157 235h275l-138 404zM422 854v-43h-252v43h252z" />
    <glyph glyph-name="amacron" unicode="&#x101;" horiz-adv-x="544" 
d="M103 26q-45 39 -45 104q0 78 53 117.5t153 39.5h132v83q0 57 -37.5 94t-94.5 37q-48 0 -85 -25.5t-53 -67.5l-50 15q18 54 68.5 90.5t118.5 36.5q84 0 135.5 -49t51.5 -131v-229q0 -95 22 -141h-57q-16 33 -18 84q-25 -44 -73.5 -70.5t-103.5 -26.5q-72 0 -117 39z
M312 54.5q38 19.5 61 52t23 68.5v70h-131q-152 0 -152 -111q0 -43 33.5 -71t86.5 -28q41 0 79 19.5zM407 696v-43h-252v43h252z" />
    <glyph glyph-name="Abreve" unicode="&#x102;" horiz-adv-x="592" 
d="M513 0l-64 186h-309l-63 -186h-56l241 695h68l241 -695h-58zM157 235h275l-138 404zM210.5 804.5q-32.5 31.5 -32.5 93.5h44q0 -40 20 -62t54 -22t54.5 22t20.5 62h44q-1 -62 -33.5 -93.5t-85.5 -31.5t-85.5 31.5z" />
    <glyph glyph-name="abreve" unicode="&#x103;" horiz-adv-x="544" 
d="M103 26q-45 39 -45 104q0 78 53 117.5t153 39.5h132v83q0 57 -37.5 94t-94.5 37q-48 0 -85 -25.5t-53 -67.5l-50 15q18 54 68.5 90.5t118.5 36.5q84 0 135.5 -49t51.5 -131v-229q0 -95 22 -141h-57q-16 33 -18 84q-25 -44 -73.5 -70.5t-103.5 -26.5q-72 0 -117 39z
M312 54.5q38 19.5 61 52t23 68.5v70h-131q-152 0 -152 -111q0 -43 33.5 -71t86.5 -28q41 0 79 19.5zM195.5 646.5q-32.5 31.5 -32.5 93.5h44q0 -40 20 -62t54 -22t54.5 22t20.5 62h44q-1 -62 -33.5 -93.5t-85.5 -31.5t-85.5 31.5z" />
    <glyph glyph-name="Aogonek" unicode="&#x104;" horiz-adv-x="592" 
d="M513 0l-64 186h-309l-63 -186h-56l241 695h68l241 -695h-58zM157 235h275l-138 404zM523 -43q-11 -18 -11 -39q0 -26 16 -40t45 -15l-8 -38q-44 1 -69.5 24t-25.5 61q0 24 13 48t30 42h42q-21 -25 -32 -43z" />
    <glyph glyph-name="aogonek" unicode="&#x105;" horiz-adv-x="544" 
d="M430 -122q16 -14 45 -15l-8 -38q-44 1 -69.5 24t-25.5 61q0 24 13 48t30 42q-16 33 -18 84q-25 -44 -73.5 -70.5t-103.5 -26.5q-72 0 -117 39t-45 104q0 78 53 117.5t153 39.5h132v83q0 57 -37.5 94t-94.5 37q-48 0 -85 -25.5t-53 -67.5l-50 15q18 54 68.5 90.5
t118.5 36.5q84 0 135.5 -49t51.5 -131v-229q0 -95 22 -141h-15q-21 -25 -32 -43t-11 -39q0 -26 16 -40zM396 245h-131q-152 0 -152 -111q0 -43 33.5 -71t86.5 -28q41 0 79 19.5t61 52t23 68.5v70z" />
    <glyph glyph-name="Cacute" unicode="&#x106;" horiz-adv-x="639" 
d="M205.5 28.5q-68.5 41.5 -107 122.5t-38.5 197q0 115 38.5 196.5t106.5 122.5t155 41t146 -38.5t84 -95.5l-52 -19q-54 102 -177 102q-111 0 -178 -79t-67 -230q0 -102 31.5 -171.5t87 -104t127.5 -34.5q126 0 180 102l49 -19q-24 -57 -83.5 -95.5t-146.5 -38.5
t-155.5 41.5zM243 771l-19 39l237 117l20 -42z" />
    <glyph glyph-name="cacute" unicode="&#x107;" horiz-adv-x="499" 
d="M153 21.5q-51 34.5 -80 98.5t-29 149q0 84 29 148t80 98.5t115 34.5q70 0 120.5 -38t65.5 -95l-49 -16q-16 46 -53 73t-86 27q-48 0 -86 -29t-59.5 -81.5t-21.5 -121.5t21.5 -122t59.5 -82t86 -29q51 0 91 26.5t59 72.5l48 -13q-22 -61 -76 -98t-120 -37q-64 0 -115 34.5
zM153 613l-19 39l237 117l20 -42z" />
    <glyph glyph-name="Ccircumflex" unicode="&#x108;" horiz-adv-x="639" 
d="M205.5 28.5q-68.5 41.5 -107 122.5t-38.5 197q0 115 38.5 196.5t106.5 122.5t155 41t146 -38.5t84 -95.5l-52 -19q-54 102 -177 102q-111 0 -178 -79t-67 -230q0 -102 31.5 -171.5t87 -104t127.5 -34.5q126 0 180 102l49 -19q-24 -57 -83.5 -95.5t-146.5 -38.5
t-155.5 41.5zM269 756l-38 19l105 134h46l105 -134l-38 -19l-90 109z" />
    <glyph glyph-name="ccircumflex" unicode="&#x109;" horiz-adv-x="499" 
d="M153 21.5q-51 34.5 -80 98.5t-29 149q0 84 29 148t80 98.5t115 34.5q70 0 120.5 -38t65.5 -95l-49 -16q-16 46 -53 73t-86 27q-48 0 -86 -29t-59.5 -81.5t-21.5 -121.5t21.5 -122t59.5 -82t86 -29q51 0 91 26.5t59 72.5l48 -13q-22 -61 -76 -98t-120 -37q-64 0 -115 34.5
zM179 598l-38 19l105 134h46l105 -134l-38 -19l-90 109z" />
    <glyph glyph-name="Cdotaccent" unicode="&#x10a;" horiz-adv-x="639" 
d="M205.5 28.5q-68.5 41.5 -107 122.5t-38.5 197q0 115 38.5 196.5t106.5 122.5t155 41t146 -38.5t84 -95.5l-52 -19q-54 102 -177 102q-111 0 -178 -79t-67 -230q0 -102 31.5 -171.5t87 -104t127.5 -34.5q126 0 180 102l49 -19q-24 -57 -83.5 -95.5t-146.5 -38.5
t-155.5 41.5zM334 799q-10 10 -10 25t10 25t25 10t25 -10t10 -25t-10 -25t-25 -10t-25 10z" />
    <glyph glyph-name="cdotaccent" unicode="&#x10b;" horiz-adv-x="499" 
d="M153 21.5q-51 34.5 -80 98.5t-29 149q0 84 29 148t80 98.5t115 34.5q70 0 120.5 -38t65.5 -95l-49 -16q-16 46 -53 73t-86 27q-48 0 -86 -29t-59.5 -81.5t-21.5 -121.5t21.5 -122t59.5 -82t86 -29q51 0 91 26.5t59 72.5l48 -13q-22 -61 -76 -98t-120 -37q-64 0 -115 34.5
zM243 650q-11 10 -11 26t11 26t26 10t25.5 -10t10.5 -26t-10.5 -26t-25.5 -10t-26 10z" />
    <glyph glyph-name="Ccaron" unicode="&#x10c;" horiz-adv-x="639" 
d="M205.5 28.5q-68.5 41.5 -107 122.5t-38.5 197q0 115 38.5 196.5t106.5 122.5t155 41t146 -38.5t84 -95.5l-52 -19q-54 102 -177 102q-111 0 -178 -79t-67 -230q0 -102 31.5 -171.5t87 -104t127.5 -34.5q126 0 180 102l49 -19q-24 -57 -83.5 -95.5t-146.5 -38.5
t-155.5 41.5zM341 761l-114 123l40 18l93 -100l93 100l40 -18l-114 -123h-38z" />
    <glyph glyph-name="ccaron" unicode="&#x10d;" horiz-adv-x="499" 
d="M153 21.5q-51 34.5 -80 98.5t-29 149q0 84 29 148t80 98.5t115 34.5q70 0 120.5 -38t65.5 -95l-49 -16q-16 46 -53 73t-86 27q-48 0 -86 -29t-59.5 -81.5t-21.5 -121.5t21.5 -122t59.5 -82t86 -29q51 0 91 26.5t59 72.5l48 -13q-22 -61 -76 -98t-120 -37q-64 0 -115 34.5
zM251 603l-114 123l40 18l93 -100l93 100l40 -18l-114 -123h-38z" />
    <glyph glyph-name="Dcaron" unicode="&#x10e;" horiz-adv-x="678" 
d="M106 695h183q91 0 165.5 -36.5t119 -114.5t44.5 -197q0 -118 -44.5 -196t-119 -114.5t-165.5 -36.5h-183v695zM283 49q75 0 138 29.5t102 96.5t39 172q0 106 -39 173t-102 96.5t-138 29.5h-122v-597h122zM290 761l-114 123l40 18l93 -100l93 100l40 -18l-114 -123h-38z
" />
    <glyph glyph-name="dcaron" unicode="&#x10f;" horiz-adv-x="587" 
d="M100 64q-56 77 -56 207q0 129 57 204t162 75q71 0 117 -35t63 -83v318h54v-627q0 -27 4.5 -61t13.5 -62h-54q-8 20 -11.5 43.5t-3.5 65.5q-19 -51 -64.5 -86.5t-118.5 -35.5q-107 0 -163 77zM398 97q45 61 45 172t-45 171.5t-126 60.5t-127 -61t-46 -171q0 -111 46 -172
t127 -61t126 61zM599 566h-41l18 184h47z" />
    <glyph glyph-name="Dcroat" unicode="&#x110;" horiz-adv-x="678" 
d="M454.5 658.5q74.5 -36.5 119 -114.5t44.5 -197q0 -118 -44.5 -196t-119 -114.5t-165.5 -36.5h-183v325h-93v46h93v324h183q91 0 165.5 -36.5zM421 78.5q63 29.5 102 96.5t39 172q0 106 -39 173t-102 96.5t-138 29.5h-122v-275h185v-46h-185v-276h122q75 0 138 29.5z" />
    <glyph glyph-name="dcroat" unicode="&#x111;" horiz-adv-x="587" 
d="M497 629v-506q0 -27 4.5 -61t13.5 -62h-54q-8 20 -11.5 43.5t-3.5 65.5q-19 -51 -64.5 -86.5t-118.5 -35.5q-107 0 -163 77t-56 207q0 129 57 204t162 75q71 0 117 -35t63 -83v197h-151v42h151v79h54v-79h69v-42h-69zM398 97q45 61 45 172t-45 171.5t-126 60.5t-127 -61
t-46 -171q0 -111 46 -172t127 -61t126 61z" />
    <glyph glyph-name="Emacron" unicode="&#x112;" horiz-adv-x="591" 
d="M106 0v695h385v-49h-330v-270h289v-50h-289v-277h358v-49h-413zM427 854v-43h-252v43h252z" />
    <glyph glyph-name="emacron" unicode="&#x113;" horiz-adv-x="531" 
d="M483 121q-24 -61 -82 -97.5t-126 -36.5q-69 0 -121.5 35.5t-81 100.5t-28.5 152q0 84 27.5 146t78 95.5t117.5 33.5q63 0 111 -30.5t74.5 -83t26.5 -116.5v-42h-380v-3q0 -109 48.5 -174.5t130.5 -65.5q53 0 96 27t62 75zM156 454.5q-43 -47.5 -54 -129.5h323
q-1 78 -45 127.5t-114 49.5q-67 0 -110 -47.5zM388 696v-43h-252v43h252z" />
    <glyph glyph-name="Ebreve" unicode="&#x114;" horiz-adv-x="591" 
d="M106 0v695h385v-49h-330v-270h289v-50h-289v-277h358v-49h-413zM215.5 804.5q-32.5 31.5 -32.5 93.5h44q0 -40 20 -62t54 -22t54.5 22t20.5 62h44q-1 -62 -33.5 -93.5t-85.5 -31.5t-85.5 31.5z" />
    <glyph glyph-name="ebreve" unicode="&#x115;" horiz-adv-x="531" 
d="M483 121q-24 -61 -82 -97.5t-126 -36.5q-69 0 -121.5 35.5t-81 100.5t-28.5 152q0 84 27.5 146t78 95.5t117.5 33.5q63 0 111 -30.5t74.5 -83t26.5 -116.5v-42h-380v-3q0 -109 48.5 -174.5t130.5 -65.5q53 0 96 27t62 75zM156 454.5q-43 -47.5 -54 -129.5h323
q-1 78 -45 127.5t-114 49.5q-67 0 -110 -47.5zM176.5 646.5q-32.5 31.5 -32.5 93.5h44q0 -40 20 -62t54 -22t54.5 22t20.5 62h44q-1 -62 -33.5 -93.5t-85.5 -31.5t-85.5 31.5z" />
    <glyph glyph-name="Edotaccent" unicode="&#x116;" horiz-adv-x="591" 
d="M106 0v695h385v-49h-330v-270h289v-50h-289v-277h358v-49h-413zM276 799q-10 10 -10 25t10 25t25 10t25 -10t10 -25t-10 -25t-25 -10t-25 10z" />
    <glyph glyph-name="edotaccent" unicode="&#x117;" horiz-adv-x="531" 
d="M483 121q-24 -61 -82 -97.5t-126 -36.5q-69 0 -121.5 35.5t-81 100.5t-28.5 152q0 84 27.5 146t78 95.5t117.5 33.5q63 0 111 -30.5t74.5 -83t26.5 -116.5v-42h-380v-3q0 -109 48.5 -174.5t130.5 -65.5q53 0 96 27t62 75zM156 454.5q-43 -47.5 -54 -129.5h323
q-1 78 -45 127.5t-114 49.5q-67 0 -110 -47.5zM236 650q-11 10 -11 26t11 26t26 10t25.5 -10t10.5 -26t-10.5 -26t-25.5 -10t-26 10z" />
    <glyph glyph-name="Eogonek" unicode="&#x118;" horiz-adv-x="591" 
d="M106 0v695h385v-49h-330v-270h289v-50h-289v-277h358v-49h-413zM487 -43q-11 -18 -11 -39q0 -26 16 -40t45 -15l-8 -38q-44 1 -69.5 24t-25.5 61q0 24 13 48t30 42h42q-21 -25 -32 -43z" />
    <glyph glyph-name="eogonek" unicode="&#x119;" horiz-adv-x="531" 
d="M428.5 44.5q-36.5 -32.5 -83.5 -46.5q-21 -26 -31 -43t-10 -37q0 -26 16 -40t45 -15l-8 -38q-44 1 -69.5 24t-25.5 61q0 35 32 78q-6 -1 -19 -1q-69 0 -121.5 35.5t-81 100.5t-28.5 152q0 84 27.5 146t78 95.5t117.5 33.5q63 0 111 -30.5t74.5 -83t26.5 -116.5v-42h-380
v-3q0 -109 48.5 -174.5t130.5 -65.5q53 0 96 27t62 75l47 -16q-18 -44 -54.5 -76.5zM156 454.5q-43 -47.5 -54 -129.5h323q-1 78 -45 127.5t-114 49.5q-67 0 -110 -47.5z" />
    <glyph glyph-name="Ecaron" unicode="&#x11a;" horiz-adv-x="591" 
d="M106 0v695h385v-49h-330v-270h289v-50h-289v-277h358v-49h-413zM283 761l-114 123l40 18l93 -100l93 100l40 -18l-114 -123h-38z" />
    <glyph glyph-name="ecaron" unicode="&#x11b;" horiz-adv-x="531" 
d="M483 121q-24 -61 -82 -97.5t-126 -36.5q-69 0 -121.5 35.5t-81 100.5t-28.5 152q0 84 27.5 146t78 95.5t117.5 33.5q63 0 111 -30.5t74.5 -83t26.5 -116.5v-42h-380v-3q0 -109 48.5 -174.5t130.5 -65.5q53 0 96 27t62 75zM156 454.5q-43 -47.5 -54 -129.5h323
q-1 78 -45 127.5t-114 49.5q-67 0 -110 -47.5zM244 603l-114 123l40 18l93 -100l93 100l40 -18l-114 -123h-38z" />
    <glyph glyph-name="Gcircumflex" unicode="&#x11c;" horiz-adv-x="711" 
d="M541 555q-23 45 -69 73.5t-111 28.5q-72 0 -127.5 -38t-86.5 -108t-31 -163q0 -91 33.5 -161.5t93 -109.5t133.5 -39q64 0 115.5 21t84.5 61v181h-228v49h283v-255q-41 -52 -108 -80t-147 -28q-90 0 -162 46t-113 128.5t-41 186.5q0 108 37.5 189.5t105.5 126t157 44.5
q88 0 148.5 -38.5t85.5 -97.5zM266 756l-38 19l105 134h46l105 -134l-38 -19l-90 109z" />
    <glyph glyph-name="gcircumflex" unicode="&#x11d;" horiz-adv-x="535" 
d="M474 58q41 -37 41 -97q0 -51 -30.5 -89t-86.5 -59t-132 -21q-65 0 -116 20t-80 56.5t-29 84.5q0 32 16 63t45 56q-16 12 -24 29t-8 36q0 25 15.5 48.5t43.5 38.5q-32 24 -49.5 61t-17.5 81q0 54 25.5 96t71.5 65t106 23q84 0 138 -43q22 16 33 39t11 49h48
q0 -67 -64 -114q38 -49 38 -115q0 -54 -25.5 -96t-72 -65t-106.5 -23q-58 0 -100 21q-22 -11 -33 -26t-11 -31q0 -22 18 -36.5t52 -14.5h175q67 0 108 -37zM156.5 466.5q-41.5 -38.5 -41.5 -100.5t41 -100.5t109 -38.5t109.5 38.5t41.5 100.5t-41.5 100.5t-109.5 38.5
q-67 0 -108.5 -38.5zM406 -128q55 33 55 88q0 39 -27 64t-70 25h-185q-21 0 -41 5q-46 -41 -46 -94q0 -54 48.5 -87.5t125.5 -33.5q85 0 140 33zM175 600l-38 19l105 134h46l105 -134l-38 -19l-90 109z" />
    <glyph glyph-name="Gbreve" unicode="&#x11e;" horiz-adv-x="711" 
d="M541 555q-23 45 -69 73.5t-111 28.5q-72 0 -127.5 -38t-86.5 -108t-31 -163q0 -91 33.5 -161.5t93 -109.5t133.5 -39q64 0 115.5 21t84.5 61v181h-228v49h283v-255q-41 -52 -108 -80t-147 -28q-90 0 -162 46t-113 128.5t-41 186.5q0 108 37.5 189.5t105.5 126t157 44.5
q88 0 148.5 -38.5t85.5 -97.5zM270.5 804.5q-32.5 31.5 -32.5 93.5h44q0 -40 20 -62t54 -22t54.5 22t20.5 62h44q-1 -62 -33.5 -93.5t-85.5 -31.5t-85.5 31.5z" />
    <glyph glyph-name="gbreve" unicode="&#x11f;" horiz-adv-x="535" 
d="M474 58q41 -37 41 -97q0 -51 -30.5 -89t-86.5 -59t-132 -21q-65 0 -116 20t-80 56.5t-29 84.5q0 32 16 63t45 56q-16 12 -24 29t-8 36q0 25 15.5 48.5t43.5 38.5q-32 24 -49.5 61t-17.5 81q0 54 25.5 96t71.5 65t106 23q84 0 138 -43q22 16 33 39t11 49h48
q0 -67 -64 -114q38 -49 38 -115q0 -54 -25.5 -96t-72 -65t-106.5 -23q-58 0 -100 21q-22 -11 -33 -26t-11 -31q0 -22 18 -36.5t52 -14.5h175q67 0 108 -37zM156.5 466.5q-41.5 -38.5 -41.5 -100.5t41 -100.5t109 -38.5t109.5 38.5t41.5 100.5t-41.5 100.5t-109.5 38.5
q-67 0 -108.5 -38.5zM406 -128q55 33 55 88q0 39 -27 64t-70 25h-185q-21 0 -41 5q-46 -41 -46 -94q0 -54 48.5 -87.5t125.5 -33.5q85 0 140 33zM179.5 648.5q-32.5 31.5 -32.5 93.5h44q0 -40 20 -62t54 -22t54.5 22t20.5 62h44q-1 -62 -33.5 -93.5t-85.5 -31.5t-85.5 31.5z
" />
    <glyph glyph-name="Gdotaccent" unicode="&#x120;" horiz-adv-x="711" 
d="M541 555q-23 45 -69 73.5t-111 28.5q-72 0 -127.5 -38t-86.5 -108t-31 -163q0 -91 33.5 -161.5t93 -109.5t133.5 -39q64 0 115.5 21t84.5 61v181h-228v49h283v-255q-41 -52 -108 -80t-147 -28q-90 0 -162 46t-113 128.5t-41 186.5q0 108 37.5 189.5t105.5 126t157 44.5
q88 0 148.5 -38.5t85.5 -97.5zM331 799q-10 10 -10 25t10 25t25 10t25 -10t10 -25t-10 -25t-25 -10t-25 10z" />
    <glyph glyph-name="gdotaccent" unicode="&#x121;" horiz-adv-x="535" 
d="M474 58q41 -37 41 -97q0 -51 -30.5 -89t-86.5 -59t-132 -21q-65 0 -116 20t-80 56.5t-29 84.5q0 32 16 63t45 56q-16 12 -24 29t-8 36q0 25 15.5 48.5t43.5 38.5q-32 24 -49.5 61t-17.5 81q0 54 25.5 96t71.5 65t106 23q84 0 138 -43q22 16 33 39t11 49h48
q0 -67 -64 -114q38 -49 38 -115q0 -54 -25.5 -96t-72 -65t-106.5 -23q-58 0 -100 21q-22 -11 -33 -26t-11 -31q0 -22 18 -36.5t52 -14.5h175q67 0 108 -37zM156.5 466.5q-41.5 -38.5 -41.5 -100.5t41 -100.5t109 -38.5t109.5 38.5t41.5 100.5t-41.5 100.5t-109.5 38.5
q-67 0 -108.5 -38.5zM406 -128q55 33 55 88q0 39 -27 64t-70 25h-185q-21 0 -41 5q-46 -41 -46 -94q0 -54 48.5 -87.5t125.5 -33.5q85 0 140 33zM239 652q-11 10 -11 26t11 26t26 10t25.5 -10t10.5 -26t-10.5 -26t-25.5 -10t-26 10z" />
    <glyph glyph-name="Gcommaaccent" unicode="&#x122;" horiz-adv-x="711" 
d="M541 555q-23 45 -69 73.5t-111 28.5q-72 0 -127.5 -38t-86.5 -108t-31 -163q0 -91 33.5 -161.5t93 -109.5t133.5 -39q64 0 115.5 21t84.5 61v181h-228v49h283v-255q-41 -52 -108 -80t-147 -28q-90 0 -162 46t-113 128.5t-41 186.5q0 108 37.5 189.5t105.5 126t157 44.5
q88 0 148.5 -38.5t85.5 -97.5zM334 -204q50 27 55 87q-8 -7 -20 -7q-18 0 -28.5 10.5t-10.5 25.5t11.5 26.5t30.5 11.5q25 0 40 -16.5t15 -43.5q0 -36 -18 -68t-54 -52z" />
    <glyph glyph-name="gcommaaccent" unicode="&#x123;" horiz-adv-x="535" 
d="M474 58q41 -37 41 -97q0 -51 -30.5 -89t-86.5 -59t-132 -21q-65 0 -116 20t-80 56.5t-29 84.5q0 32 16 63t45 56q-16 12 -24 29t-8 36q0 25 15.5 48.5t43.5 38.5q-32 24 -49.5 61t-17.5 81q0 54 25.5 96t71.5 65t106 23q84 0 138 -43q22 16 33 39t11 49h48
q0 -67 -64 -114q38 -49 38 -115q0 -54 -25.5 -96t-72 -65t-106.5 -23q-58 0 -100 21q-22 -11 -33 -26t-11 -31q0 -22 18 -36.5t52 -14.5h175q67 0 108 -37zM156.5 466.5q-41.5 -38.5 -41.5 -100.5t41 -100.5t109 -38.5t109.5 38.5t41.5 100.5t-41.5 100.5t-109.5 38.5
q-67 0 -108.5 -38.5zM406 -128q55 33 55 88q0 39 -27 64t-70 25h-185q-21 0 -41 5q-46 -41 -46 -94q0 -54 48.5 -87.5t125.5 -33.5q85 0 140 33zM307 770q-50 -27 -55 -87q8 7 20 7q18 0 28.5 -10.5t10.5 -25.5t-11.5 -26.5t-30.5 -11.5q-25 0 -40 16.5t-15 43.5q0 36 18 68
t54 52z" />
    <glyph glyph-name="Hcircumflex" unicode="&#x124;" horiz-adv-x="739" 
d="M106 0v695h55v-319h417v319h55v-695h-55v327h-417v-327h-55zM280 756l-38 19l105 134h46l105 -134l-38 -19l-90 109z" />
    <glyph glyph-name="hcircumflex" unicode="&#x125;" horiz-adv-x="585" 
d="M438.5 496q51.5 -54 51.5 -155v-341h-53v333q0 80 -40.5 123t-102.5 43q-38 0 -71.5 -20t-54 -59.5t-20.5 -95.5v-324h-54v750h54v-298q19 40 59.5 69t97.5 29q82 0 133.5 -54zM25 778l-38 19l105 134h46l105 -134l-38 -19l-90 109z" />
    <glyph glyph-name="Hbar" unicode="&#x126;" horiz-adv-x="739" 
d="M715 573v-46h-82v-527h-55v327h-417v-327h-55v527h-82v46h82v122h55v-122h417v122h55v-122h82zM578 376v151h-417v-151h417z" />
    <glyph glyph-name="hbar" unicode="&#x127;" horiz-adv-x="585" 
d="M438.5 496q51.5 -54 51.5 -155v-341h-53v333q0 80 -40.5 123t-102.5 43q-38 0 -71.5 -20t-54 -59.5t-20.5 -95.5v-324h-54v653h-85v42h85v55h54v-55h135v-42h-135v-201q19 40 59.5 69t97.5 29q82 0 133.5 -54z" />
    <glyph glyph-name="Itilde" unicode="&#x128;" horiz-adv-x="267" 
d="M106 0v695h55v-695h-55zM10 800q2 30 19.5 49.5t45.5 19.5q19 0 59 -8q32 -7 48 -7q33 0 36 40l40 -8q-3 -32 -22 -52.5t-52 -20.5q-18 0 -61 9q-32 6 -42 6q-16 0 -23 -9t-9 -28z" />
    <glyph glyph-name="itilde" unicode="&#x129;" horiz-adv-x="242" 
d="M94 0v537h54v-537h-54zM-2 642q2 30 19.5 49.5t45.5 19.5q19 0 59 -8q32 -7 48 -7q33 0 36 40l40 -8q-3 -32 -22 -52.5t-52 -20.5q-18 0 -61 9q-32 6 -42 6q-16 0 -23 -9t-9 -28z" />
    <glyph glyph-name="Imacron" unicode="&#x12a;" horiz-adv-x="267" 
d="M106 0v695h55v-695h-55zM260 854v-43h-252v43h252z" />
    <glyph glyph-name="imacron" unicode="&#x12b;" horiz-adv-x="242" 
d="M94 0v537h54v-537h-54zM248 696v-43h-252v43h252z" />
    <glyph glyph-name="Ibreve" unicode="&#x12c;" horiz-adv-x="267" 
d="M106 0v695h55v-695h-55zM48.5 804.5q-32.5 31.5 -32.5 93.5h44q0 -40 20 -62t54 -22t54.5 22t20.5 62h44q-1 -62 -33.5 -93.5t-85.5 -31.5t-85.5 31.5z" />
    <glyph glyph-name="ibreve" unicode="&#x12d;" horiz-adv-x="242" 
d="M94 0v537h54v-537h-54zM36.5 646.5q-32.5 31.5 -32.5 93.5h44q0 -40 20 -62t54 -22t54.5 22t20.5 62h44q-1 -62 -33.5 -93.5t-85.5 -31.5t-85.5 31.5z" />
    <glyph glyph-name="Iogonek" unicode="&#x12e;" horiz-adv-x="267" 
d="M106 0v695h55v-695h-55zM121 -43q-11 -18 -11 -39q0 -26 16 -40t45 -15l-8 -38q-44 1 -69.5 24t-25.5 61q0 24 13 48t30 42h42q-21 -25 -32 -43z" />
    <glyph glyph-name="iogonek" unicode="&#x12f;" horiz-adv-x="242" 
d="M94 0v537h54v-537h-54zM95 688.5q-11 10.5 -11 27.5q0 16 11.5 26.5t26.5 10.5t26.5 -10.5t11.5 -26.5q0 -17 -11 -27.5t-27 -10.5t-27 10.5zM109 -43q-11 -18 -11 -39q0 -26 16 -40t45 -15l-8 -38q-44 1 -69.5 24t-25.5 61q0 24 13 48t30 42h42q-21 -25 -32 -43z" />
    <glyph glyph-name="Idotaccent" unicode="&#x130;" horiz-adv-x="267" 
d="M106 0v695h55v-695h-55zM109 799q-10 10 -10 25t10 25t25 10t25 -10t10 -25t-10 -25t-25 -10t-25 10z" />
    <glyph glyph-name="dotlessi" unicode="&#x131;" horiz-adv-x="242" 
d="M94 0v537h54v-537h-54z" />
    <glyph glyph-name="IJ" unicode="&#x132;" horiz-adv-x="727" 
d="M106 0v695h55v-695h-55zM327 49h60q93 0 140 52t47 148v397h-208v49h263v-446q0 -121 -61.5 -185t-180.5 -64h-60v49z" />
    <glyph glyph-name="ij" unicode="&#x133;" horiz-adv-x="511" 
d="M94 0v537h54v-537h-54zM95 688.5q-11 10.5 -11 27.5q0 16 11.5 26.5t26.5 10.5t26.5 -10.5t11.5 -26.5q0 -17 -11 -27.5t-27 -10.5t-27 10.5zM254 -161q55 0 82 26t27 94v578h53v-575q0 -96 -41.5 -133t-120.5 -37v47zM363 688.5q-11 10.5 -11 27.5q0 16 11.5 26.5
t26.5 10.5t26.5 -10.5t11.5 -26.5q0 -17 -11 -27.5t-27 -10.5t-27 10.5z" />
    <glyph glyph-name="Jcircumflex" unicode="&#x134;" horiz-adv-x="460" 
d="M60 49h60q93 0 140 52t47 148v397h-208v49h263v-446q0 -121 -61.5 -185t-180.5 -64h-60v49zM164 756l-38 19l105 134h46l105 -134l-38 -19l-90 109z" />
    <glyph glyph-name="jcircumflex" unicode="&#x135;" horiz-adv-x="244" 
d="M-13 -161q55 0 82 26t27 94v578h53v-575q0 -96 -41.5 -133t-120.5 -37v47zM33 598l-38 19l105 134h46l105 -134l-38 -19l-90 109z" />
    <glyph glyph-name="Kcommaaccent" unicode="&#x136;" horiz-adv-x="601" 
d="M574 0h-71l-268 341l-74 -87v-254h-55v695h55v-358l305 358h68l-261 -309zM288 -204q50 27 55 87q-8 -7 -20 -7q-18 0 -28.5 10.5t-10.5 25.5t11.5 26.5t30.5 11.5q25 0 40 -16.5t15 -43.5q0 -36 -18 -68t-54 -52z" />
    <glyph glyph-name="kcommaaccent" unicode="&#x137;" horiz-adv-x="549" 
d="M512 0h-68l-205 277l-91 -92v-185h-54v750h54v-489l278 276h72l-219 -220zM223 -204q50 27 55 87q-8 -7 -20 -7q-18 0 -28.5 10.5t-10.5 25.5t11.5 26.5t30.5 11.5q25 0 40 -16.5t15 -43.5q0 -36 -18 -68t-54 -52z" />
    <glyph glyph-name="kgreenlandic" unicode="&#x138;" horiz-adv-x="489" 
d="M462 0h-66l-190 256l-58 -70v-186h-54v537h54v-272l227 272h63l-194 -235z" />
    <glyph glyph-name="Lacute" unicode="&#x139;" horiz-adv-x="572" 
d="M106 0v695h55v-646h345v-49h-400zM36 771l-19 39l237 117l20 -42z" />
    <glyph glyph-name="lacute" unicode="&#x13a;" horiz-adv-x="285" 
d="M127.5 40.5q-41.5 43.5 -41.5 120.5v589h54v-579q0 -59 28 -92t78 -33l-4 -49q-73 0 -114.5 43.5zM-3 822l-19 39l237 117l20 -42z" />
    <glyph glyph-name="Lcommaaccent" unicode="&#x13b;" horiz-adv-x="572" 
d="M106 0v695h55v-646h345v-49h-400zM267 -204q50 27 55 87q-8 -7 -20 -7q-18 0 -28.5 10.5t-10.5 25.5t11.5 26.5t30.5 11.5q25 0 40 -16.5t15 -43.5q0 -36 -18 -68t-54 -52z" />
    <glyph glyph-name="lcommaaccent" unicode="&#x13c;" horiz-adv-x="285" 
d="M127.5 40.5q-41.5 43.5 -41.5 120.5v589h54v-579q0 -59 28 -92t78 -33l-4 -49q-73 0 -114.5 43.5zM122 -204q50 27 55 87q-8 -7 -20 -7q-18 0 -28.5 10.5t-10.5 25.5t11.5 26.5t30.5 11.5q25 0 40 -16.5t15 -43.5q0 -36 -18 -68t-54 -52z" />
    <glyph glyph-name="Lcaron" unicode="&#x13d;" horiz-adv-x="572" 
d="M106 0v695h55v-646h345v-49h-400zM302 511h-41l18 184h47z" />
    <glyph glyph-name="lcaron" unicode="&#x13e;" horiz-adv-x="285" 
d="M127.5 40.5q-41.5 43.5 -41.5 120.5v589h54v-579q0 -59 28 -92t78 -33l-4 -49q-73 0 -114.5 43.5zM242 566h-41l18 184h47z" />
    <glyph glyph-name="Ldot" unicode="&#x13f;" horiz-adv-x="575" 
d="M106 0v695h55v-646h345v-49h-400zM307 334q-11 11 -11 29q0 17 11 28t28 11t28.5 -11t11.5 -28q0 -18 -11.5 -29t-28.5 -11t-28 11z" />
    <glyph glyph-name="ldot" unicode="&#x140;" horiz-adv-x="304" 
d="M127.5 40.5q-41.5 43.5 -41.5 120.5v589h54v-579q0 -59 28 -92t78 -33l-4 -49q-73 0 -114.5 43.5zM218 367q-11 11 -11 29q0 17 11 28t28 11t28.5 -11t11.5 -28q0 -18 -11.5 -29t-28.5 -11t-28 11z" />
    <glyph glyph-name="Lslash" unicode="&#x141;" horiz-adv-x="572" 
d="M161 49h345v-49h-400v305l-96 -17v50l96 17v340h55v-330l133 23v-50l-133 -23v-266z" />
    <glyph glyph-name="lslash" unicode="&#x142;" horiz-adv-x="285" 
d="M168 79q28 -33 78 -33l-4 -49q-73 0 -114.5 43.5t-41.5 120.5v195l-75 -26v49l75 26v345h54v-326l105 37v-49l-105 -37v-204q0 -59 28 -92z" />
    <glyph glyph-name="Nacute" unicode="&#x143;" horiz-adv-x="722" 
d="M106 0v695h56l399 -602v602h55v-695h-55l-400 603v-603h-55zM237 771l-19 39l237 117l20 -42z" />
    <glyph glyph-name="nacute" unicode="&#x144;" horiz-adv-x="585" 
d="M94 537h53v-87q18 40 59.5 70t98.5 30q82 0 133.5 -54t51.5 -155v-341h-53v333q0 80 -40.5 123t-102.5 43q-38 0 -71.5 -20t-54 -59.5t-20.5 -95.5v-324h-54v537zM176 613l-19 39l237 117l20 -42z" />
    <glyph glyph-name="Ncommaaccent" unicode="&#x145;" horiz-adv-x="722" 
d="M106 0v695h56l399 -602v602h55v-695h-55l-400 603v-603h-55zM314 -204q50 27 55 87q-8 -7 -20 -7q-18 0 -28.5 10.5t-10.5 25.5t11.5 26.5t30.5 11.5q25 0 40 -16.5t15 -43.5q0 -36 -18 -68t-54 -52z" />
    <glyph glyph-name="ncommaaccent" unicode="&#x146;" horiz-adv-x="585" 
d="M94 537h53v-87q18 40 59.5 70t98.5 30q82 0 133.5 -54t51.5 -155v-341h-53v333q0 80 -40.5 123t-102.5 43q-38 0 -71.5 -20t-54 -59.5t-20.5 -95.5v-324h-54v537zM253 -204q50 27 55 87q-8 -7 -20 -7q-18 0 -28.5 10.5t-10.5 25.5t11.5 26.5t30.5 11.5q25 0 40 -16.5
t15 -43.5q0 -36 -18 -68t-54 -52z" />
    <glyph glyph-name="Ncaron" unicode="&#x147;" horiz-adv-x="722" 
d="M106 0v695h56l399 -602v602h55v-695h-55l-400 603v-603h-55zM335 761l-114 123l40 18l93 -100l93 100l40 -18l-114 -123h-38z" />
    <glyph glyph-name="ncaron" unicode="&#x148;" horiz-adv-x="585" 
d="M94 537h53v-87q18 40 59.5 70t98.5 30q82 0 133.5 -54t51.5 -155v-341h-53v333q0 80 -40.5 123t-102.5 43q-38 0 -71.5 -20t-54 -59.5t-20.5 -95.5v-324h-54v537zM274 603l-114 123l40 18l93 -100l93 100l40 -18l-114 -123h-38z" />
    <glyph glyph-name="Eng" unicode="&#x14a;" horiz-adv-x="722" 
d="M452 -148q55 0 82 25.5t27 91.5v38l-400 596v-603h-55v695h56l399 -600v600h55v-723q0 -94 -42.5 -130.5t-121.5 -36.5v47z" />
    <glyph glyph-name="eng" unicode="&#x14b;" horiz-adv-x="570" 
d="M301 -148q64 0 98.5 29.5t34.5 107.5v344q0 80 -40 123t-101 43q-38 0 -71 -20t-53.5 -59.5t-20.5 -95.5v-324h-54v537h53v-87q16 39 56.5 69.5t99.5 30.5q81 0 132.5 -54t51.5 -158v-346q0 -106 -48.5 -146.5t-137.5 -40.5v47z" />
    <glyph glyph-name="Omacron" unicode="&#x14c;" horiz-adv-x="678" 
d="M133.5 78q-73.5 91 -73.5 270t73.5 269.5t205.5 90.5t206 -90.5t74 -269.5t-74 -270t-206 -91t-205.5 91zM503.5 113.5q58.5 75.5 58.5 234.5t-58.5 234t-164.5 75q-107 0 -165 -75t-58 -234q0 -160 58 -235t165 -75q106 0 164.5 75.5zM465 854v-43h-252v43h252z" />
    <glyph glyph-name="omacron" unicode="&#x14d;" horiz-adv-x="542" 
d="M104.5 61q-60.5 74 -60.5 208t60.5 207.5t166.5 73.5t166.5 -73.5t60.5 -207.5t-60.5 -208t-166.5 -74t-166.5 74zM397.5 97q45.5 61 45.5 172q0 110 -45.5 171t-126.5 61q-82 0 -127 -61t-45 -171q0 -111 45 -172t127 -61q81 0 126.5 61zM398 696v-43h-252v43h252z" />
    <glyph glyph-name="Obreve" unicode="&#x14e;" horiz-adv-x="678" 
d="M133.5 78q-73.5 91 -73.5 270t73.5 269.5t205.5 90.5t206 -90.5t74 -269.5t-74 -270t-206 -91t-205.5 91zM503.5 113.5q58.5 75.5 58.5 234.5t-58.5 234t-164.5 75q-107 0 -165 -75t-58 -234q0 -160 58 -235t165 -75q106 0 164.5 75.5zM253.5 804.5
q-32.5 31.5 -32.5 93.5h44q0 -40 20 -62t54 -22t54.5 22t20.5 62h44q-1 -62 -33.5 -93.5t-85.5 -31.5t-85.5 31.5z" />
    <glyph glyph-name="obreve" unicode="&#x14f;" horiz-adv-x="542" 
d="M104.5 61q-60.5 74 -60.5 208t60.5 207.5t166.5 73.5t166.5 -73.5t60.5 -207.5t-60.5 -208t-166.5 -74t-166.5 74zM397.5 97q45.5 61 45.5 172q0 110 -45.5 171t-126.5 61q-82 0 -127 -61t-45 -171q0 -111 45 -172t127 -61q81 0 126.5 61zM186.5 646.5
q-32.5 31.5 -32.5 93.5h44q0 -40 20 -62t54 -22t54.5 22t20.5 62h44q-1 -62 -33.5 -93.5t-85.5 -31.5t-85.5 31.5z" />
    <glyph glyph-name="Ohungarumlaut" unicode="&#x150;" horiz-adv-x="678" 
d="M133.5 78q-73.5 91 -73.5 270t73.5 269.5t205.5 90.5t206 -90.5t74 -269.5t-74 -270t-206 -91t-205.5 91zM503.5 113.5q58.5 75.5 58.5 234.5t-58.5 234t-164.5 75q-107 0 -165 -75t-58 -234q0 -160 58 -235t165 -75q106 0 164.5 75.5zM260 766l87 159h51l-90 -159h-48z
M366 766l90 159h53l-93 -159h-50z" />
    <glyph glyph-name="ohungarumlaut" unicode="&#x151;" horiz-adv-x="542" 
d="M104.5 61q-60.5 74 -60.5 208t60.5 207.5t166.5 73.5t166.5 -73.5t60.5 -207.5t-60.5 -208t-166.5 -74t-166.5 74zM397.5 97q45.5 61 45.5 172q0 110 -45.5 171t-126.5 61q-82 0 -127 -61t-45 -171q0 -111 45 -172t127 -61q81 0 126.5 61zM193 608l87 159h51l-90 -159
h-48zM299 608l90 159h53l-93 -159h-50z" />
    <glyph glyph-name="OE" unicode="&#x152;" horiz-adv-x="900" 
d="M134.5 78q-74.5 91 -74.5 270t74.5 269.5t206.5 90.5q57 0 96 -13h367v-49h-323v-270h282v-48h-282v-279h348v-49h-392q-52 -13 -96 -13q-132 0 -206.5 91zM426 51v592q-34 14 -85 14q-108 0 -166.5 -75t-58.5 -234q0 -160 58.5 -235t166.5 -75q46 0 85 13z" />
    <glyph glyph-name="oe" unicode="&#x153;" horiz-adv-x="933" 
d="M883 121q-24 -61 -82 -97.5t-126 -36.5q-69 0 -121 35.5t-81 100.5q-26 -66 -78 -101t-124 -35q-106 0 -166.5 74t-60.5 208t60.5 207.5t166.5 73.5q70 0 121.5 -33.5t78.5 -96.5q27 62 77.5 96t118.5 34q63 0 111 -30.5t74.5 -83t26.5 -116.5v-42h-380v-3
q0 -109 48.5 -174.5t130.5 -65.5q53 0 96 27t62 75zM556 454.5q-43 -47.5 -54 -129.5h323q-1 78 -45 127.5t-114 49.5q-67 0 -110 -47.5zM397.5 97q45.5 61 45.5 172q0 110 -45.5 171t-126.5 61q-82 0 -127 -61t-45 -171q0 -111 45 -172t127 -61q81 0 126.5 61z" />
    <glyph glyph-name="Racute" unicode="&#x154;" horiz-adv-x="578" 
d="M473 0l-168 284h-16h-128v-284h-55v695h199q48 0 94 -18.5t77.5 -63t31.5 -117.5q0 -80 -37 -132.5t-107 -70.5l175 -293h-66zM404 369q48 35 48 125q0 75 -41 113.5t-112 38.5h-138v-312h126q69 0 117 35zM169 771l-19 39l237 117l20 -42z" />
    <glyph glyph-name="racute" unicode="&#x155;" horiz-adv-x="414" 
d="M94 537h54v-89q21 47 57.5 74.5t83.5 27.5q59 0 105 -40l-25 -46q-40 35 -86 35q-37 0 -68 -24t-49 -66.5t-18 -97.5v-311h-54v537zM130 613l-19 39l237 117l20 -42z" />
    <glyph glyph-name="Rcommaaccent" unicode="&#x156;" horiz-adv-x="578" 
d="M473 0l-168 284h-16h-128v-284h-55v695h199q48 0 94 -18.5t77.5 -63t31.5 -117.5q0 -80 -37 -132.5t-107 -70.5l175 -293h-66zM404 369q48 35 48 125q0 75 -41 113.5t-112 38.5h-138v-312h126q69 0 117 35zM256 -204q50 27 55 87q-8 -7 -20 -7q-18 0 -28.5 10.5
t-10.5 25.5t11.5 26.5t30.5 11.5q25 0 40 -16.5t15 -43.5q0 -36 -18 -68t-54 -52z" />
    <glyph glyph-name="rcommaaccent" unicode="&#x157;" horiz-adv-x="414" 
d="M94 537h54v-89q21 47 57.5 74.5t83.5 27.5q59 0 105 -40l-25 -46q-40 35 -86 35q-37 0 -68 -24t-49 -66.5t-18 -97.5v-311h-54v537zM83 -204q50 27 55 87q-8 -7 -20 -7q-18 0 -28.5 10.5t-10.5 25.5t11.5 26.5t30.5 11.5q25 0 40 -16.5t15 -43.5q0 -36 -18 -68t-54 -52z
" />
    <glyph glyph-name="Rcaron" unicode="&#x158;" horiz-adv-x="578" 
d="M473 0l-168 284h-16h-128v-284h-55v695h199q48 0 94 -18.5t77.5 -63t31.5 -117.5q0 -80 -37 -132.5t-107 -70.5l175 -293h-66zM404 369q48 35 48 125q0 75 -41 113.5t-112 38.5h-138v-312h126q69 0 117 35zM267 761l-114 123l40 18l93 -100l93 100l40 -18l-114 -123h-38z
" />
    <glyph glyph-name="rcaron" unicode="&#x159;" horiz-adv-x="414" 
d="M94 537h54v-89q21 47 57.5 74.5t83.5 27.5q59 0 105 -40l-25 -46q-40 35 -86 35q-37 0 -68 -24t-49 -66.5t-18 -97.5v-311h-54v537zM228 603l-114 123l40 18l93 -100l93 100l40 -18l-114 -123h-38z" />
    <glyph glyph-name="Sacute" unicode="&#x15a;" horiz-adv-x="555" 
d="M147 20.5q-60 33.5 -91 92.5l50 21q25 -45 71.5 -70.5t104.5 -25.5q72 0 115.5 36t43.5 97q0 41 -23 69t-56 46t-92 42q-66 26 -106 48t-68 59.5t-28 94.5q0 53 27 93.5t74.5 62.5t108.5 22q75 0 129.5 -30t81.5 -86l-52 -19q-21 40 -63 62t-96 22q-67 0 -109.5 -34.5
t-42.5 -91.5q0 -40 22.5 -68t56 -45.5t92.5 -41.5q66 -27 106 -49t68 -59.5t28 -93.5t-27 -98.5t-76.5 -65.5t-113.5 -23q-75 0 -135 33.5zM175 771l-19 39l237 117l20 -42z" />
    <glyph glyph-name="sacute" unicode="&#x15b;" horiz-adv-x="470" 
d="M115 21.5q-52 34.5 -75 87.5l40 26q22 -45 64 -73t99 -28q51 0 86.5 28t35.5 70q0 32 -18.5 53t-45.5 33.5t-74 28.5q-55 19 -88 35t-56 45.5t-23 75.5q0 67 48 107t127 40q64 0 112 -27.5t70 -71.5l-40 -28q-20 37 -57 58.5t-84 21.5q-53 0 -87 -27t-34 -70
q0 -31 18 -51.5t45.5 -33t73.5 -28.5q55 -19 88 -35t56.5 -46t23.5 -77q0 -43 -23.5 -76.5t-64 -52.5t-88.5 -19q-77 0 -129 34.5zM118 613l-19 39l237 117l20 -42z" />
    <glyph glyph-name="Scircumflex" unicode="&#x15c;" horiz-adv-x="555" 
d="M147 20.5q-60 33.5 -91 92.5l50 21q25 -45 71.5 -70.5t104.5 -25.5q72 0 115.5 36t43.5 97q0 41 -23 69t-56 46t-92 42q-66 26 -106 48t-68 59.5t-28 94.5q0 53 27 93.5t74.5 62.5t108.5 22q75 0 129.5 -30t81.5 -86l-52 -19q-21 40 -63 62t-96 22q-67 0 -109.5 -34.5
t-42.5 -91.5q0 -40 22.5 -68t56 -45.5t92.5 -41.5q66 -27 106 -49t68 -59.5t28 -93.5t-27 -98.5t-76.5 -65.5t-113.5 -23q-75 0 -135 33.5zM201 756l-38 19l105 134h46l105 -134l-38 -19l-90 109z" />
    <glyph glyph-name="scircumflex" unicode="&#x15d;" horiz-adv-x="470" 
d="M115 21.5q-52 34.5 -75 87.5l40 26q22 -45 64 -73t99 -28q51 0 86.5 28t35.5 70q0 32 -18.5 53t-45.5 33.5t-74 28.5q-55 19 -88 35t-56 45.5t-23 75.5q0 67 48 107t127 40q64 0 112 -27.5t70 -71.5l-40 -28q-20 37 -57 58.5t-84 21.5q-53 0 -87 -27t-34 -70
q0 -31 18 -51.5t45.5 -33t73.5 -28.5q55 -19 88 -35t56.5 -46t23.5 -77q0 -43 -23.5 -76.5t-64 -52.5t-88.5 -19q-77 0 -129 34.5zM144 598l-38 19l105 134h46l105 -134l-38 -19l-90 109z" />
    <glyph glyph-name="Scedilla" unicode="&#x15e;" horiz-adv-x="555" 
d="M444.5 42.5q-54.5 -50.5 -144.5 -55.5l-37 -50q16 6 37 6q39 0 62.5 -21t23.5 -50q0 -33 -28 -56t-80 -23q-25 0 -49.5 7t-41.5 19l12 30q40 -23 77 -23q30 0 47 13.5t17 30.5q0 16 -14.5 28t-40.5 12q-25 0 -49 -11l-25 17l48 72q-68 5 -121 38t-82 87l50 21
q25 -45 71.5 -70.5t104.5 -25.5q72 0 115.5 36t43.5 97q0 41 -23 69t-56 46t-92 42q-66 26 -106 48t-68 59.5t-28 94.5q0 53 27 93.5t74.5 62.5t108.5 22q75 0 129.5 -30t81.5 -86l-52 -19q-21 40 -63 62t-96 22q-67 0 -109.5 -34.5t-42.5 -91.5q0 -40 22.5 -68t56 -45.5
t92.5 -41.5q66 -27 106 -49t68 -59.5t28 -93.5q0 -81 -54.5 -131.5z" />
    <glyph glyph-name="scedilla" unicode="&#x15f;" horiz-adv-x="470" 
d="M371.5 30.5q-48.5 -41.5 -119.5 -43.5l-37 -50q17 6 37 6q39 0 62.5 -21t23.5 -50q0 -33 -28 -56t-80 -23q-25 0 -49.5 7t-41.5 19l12 30q40 -23 77 -23q30 0 47 13.5t17 30.5q0 16 -14.5 28t-40.5 12q-25 0 -49 -11l-25 17l49 73q-64 7 -108 40t-64 80l40 26
q22 -45 64 -73t99 -28q51 0 86.5 28t35.5 70q0 32 -18.5 53t-45.5 33.5t-74 28.5q-55 19 -88 35t-56 45.5t-23 75.5q0 67 48 107t127 40q64 0 112 -27.5t70 -71.5l-40 -28q-20 37 -57 58.5t-84 21.5q-53 0 -87 -27t-34 -70q0 -31 18 -51.5t45.5 -33t73.5 -28.5
q55 -19 88 -35t56.5 -46t23.5 -77q0 -63 -48.5 -104.5z" />
    <glyph glyph-name="Scaron" unicode="&#x160;" horiz-adv-x="555" 
d="M147 20.5q-60 33.5 -91 92.5l50 21q25 -45 71.5 -70.5t104.5 -25.5q72 0 115.5 36t43.5 97q0 41 -23 69t-56 46t-92 42q-66 26 -106 48t-68 59.5t-28 94.5q0 53 27 93.5t74.5 62.5t108.5 22q75 0 129.5 -30t81.5 -86l-52 -19q-21 40 -63 62t-96 22q-67 0 -109.5 -34.5
t-42.5 -91.5q0 -40 22.5 -68t56 -45.5t92.5 -41.5q66 -27 106 -49t68 -59.5t28 -93.5t-27 -98.5t-76.5 -65.5t-113.5 -23q-75 0 -135 33.5zM273 761l-114 123l40 18l93 -100l93 100l40 -18l-114 -123h-38z" />
    <glyph glyph-name="scaron" unicode="&#x161;" horiz-adv-x="470" 
d="M115 21.5q-52 34.5 -75 87.5l40 26q22 -45 64 -73t99 -28q51 0 86.5 28t35.5 70q0 32 -18.5 53t-45.5 33.5t-74 28.5q-55 19 -88 35t-56 45.5t-23 75.5q0 67 48 107t127 40q64 0 112 -27.5t70 -71.5l-40 -28q-20 37 -57 58.5t-84 21.5q-53 0 -87 -27t-34 -70
q0 -31 18 -51.5t45.5 -33t73.5 -28.5q55 -19 88 -35t56.5 -46t23.5 -77q0 -43 -23.5 -76.5t-64 -52.5t-88.5 -19q-77 0 -129 34.5zM216 603l-114 123l40 18l93 -100l93 100l40 -18l-114 -123h-38z" />
    <glyph glyph-name="uni0162" unicode="&#x162;" horiz-adv-x="611" 
d="M274 0v646h-243v49h541v-49h-243v-646h-55zM241.5 -200q-24.5 7 -41.5 19l12 30q40 -23 77 -23q30 0 47 13.5t17 30.5q0 16 -14.5 28t-40.5 12q-25 0 -49 -11l-25 17l56 84h42l-46 -63q16 6 37 6q39 0 62.5 -21t23.5 -50q0 -33 -28 -56t-80 -23q-25 0 -49.5 7z" />
    <glyph glyph-name="uni0163" unicode="&#x163;" horiz-adv-x="381" 
d="M307.5 -78q23.5 -21 23.5 -50q0 -33 -28 -56t-80 -23q-25 0 -49.5 7t-41.5 19l12 30q40 -23 77 -23q30 0 47 13.5t17 30.5q0 16 -14.5 28t-40.5 12q-25 0 -49 -11l-25 17l51 76q-88 23 -88 146v350h-101v49h101v161l54 10v-171h145v-49h-145v-340q0 -57 20 -83t64 -26
q39 0 80 23l10 -50q-21 -11 -46.5 -18t-49.5 -7h-6l-37 -50q16 6 37 6q39 0 62.5 -21z" />
    <glyph glyph-name="Tcaron" unicode="&#x164;" horiz-adv-x="611" 
d="M274 0v646h-243v49h541v-49h-243v-646h-55zM287 761l-114 123l40 18l93 -100l93 100l40 -18l-114 -123h-38z" />
    <glyph glyph-name="tcaron" unicode="&#x165;" horiz-adv-x="381" 
d="M152.5 24.5q-33.5 37.5 -33.5 113.5v350h-101v49h101v161l54 10v-171h145v-49h-145v-340q0 -57 20 -83t64 -26q39 0 80 23l10 -50q-21 -11 -46.5 -18t-49.5 -7q-65 0 -98.5 37.5zM275 566h-41l18 184h47z" />
    <glyph glyph-name="Tbar" unicode="&#x166;" horiz-adv-x="611" 
d="M572 646h-243v-262h138v-46h-138v-338h-55v338h-140v46h140v262h-243v49h541v-49z" />
    <glyph glyph-name="tbar" unicode="&#x167;" horiz-adv-x="381" 
d="M347 12q-21 -11 -46.5 -18t-49.5 -7q-65 0 -98.5 37.5t-33.5 113.5v145h-68v42h68v163h-101v49h101v161l54 10v-171h145v-49h-145v-163h99v-42h-99v-135q0 -57 20 -83t64 -26q39 0 80 23z" />
    <glyph glyph-name="Utilde" unicode="&#x168;" horiz-adv-x="665" 
d="M161 55q-63 68 -63 198v442h55v-442q0 -97 42 -156t136 -59q95 0 138 59t43 156v442h55v-442q0 -130 -64 -198t-172 -68q-107 0 -170 68zM208 800q2 30 19.5 49.5t45.5 19.5q19 0 59 -8q32 -7 48 -7q33 0 36 40l40 -8q-3 -32 -22 -52.5t-52 -20.5q-18 0 -61 9
q-32 6 -42 6q-16 0 -23 -9t-9 -28z" />
    <glyph glyph-name="utilde" unicode="&#x169;" horiz-adv-x="543" 
d="M106.5 36.5q-46.5 49.5 -46.5 126.5v374h53v-366q0 -63 35 -98.5t94 -35.5q40 0 75 20t56.5 58.5t21.5 90.5v331h54v-393q0 -43 6 -82t17 -62h-54q-8 15 -13 39t-6 52q-19 -42 -63.5 -73t-104.5 -31q-78 0 -124.5 49.5zM132 642q2 30 19.5 49.5t45.5 19.5q19 0 59 -8
q32 -7 48 -7q33 0 36 40l40 -8q-3 -32 -22 -52.5t-52 -20.5q-18 0 -61 9q-32 6 -42 6q-16 0 -23 -9t-9 -28z" />
    <glyph glyph-name="Umacron" unicode="&#x16a;" horiz-adv-x="665" 
d="M161 55q-63 68 -63 198v442h55v-442q0 -97 42 -156t136 -59q95 0 138 59t43 156v442h55v-442q0 -130 -64 -198t-172 -68q-107 0 -170 68zM458 854v-43h-252v43h252z" />
    <glyph glyph-name="umacron" unicode="&#x16b;" horiz-adv-x="543" 
d="M106.5 36.5q-46.5 49.5 -46.5 126.5v374h53v-366q0 -63 35 -98.5t94 -35.5q40 0 75 20t56.5 58.5t21.5 90.5v331h54v-393q0 -43 6 -82t17 -62h-54q-8 15 -13 39t-6 52q-19 -42 -63.5 -73t-104.5 -31q-78 0 -124.5 49.5zM382 696v-43h-252v43h252z" />
    <glyph glyph-name="Ubreve" unicode="&#x16c;" horiz-adv-x="665" 
d="M161 55q-63 68 -63 198v442h55v-442q0 -97 42 -156t136 -59q95 0 138 59t43 156v442h55v-442q0 -130 -64 -198t-172 -68q-107 0 -170 68zM246.5 804.5q-32.5 31.5 -32.5 93.5h44q0 -40 20 -62t54 -22t54.5 22t20.5 62h44q-1 -62 -33.5 -93.5t-85.5 -31.5t-85.5 31.5z" />
    <glyph glyph-name="ubreve" unicode="&#x16d;" horiz-adv-x="543" 
d="M106.5 36.5q-46.5 49.5 -46.5 126.5v374h53v-366q0 -63 35 -98.5t94 -35.5q40 0 75 20t56.5 58.5t21.5 90.5v331h54v-393q0 -43 6 -82t17 -62h-54q-8 15 -13 39t-6 52q-19 -42 -63.5 -73t-104.5 -31q-78 0 -124.5 49.5zM170.5 646.5q-32.5 31.5 -32.5 93.5h44
q0 -40 20 -62t54 -22t54.5 22t20.5 62h44q-1 -62 -33.5 -93.5t-85.5 -31.5t-85.5 31.5z" />
    <glyph glyph-name="Uring" unicode="&#x16e;" horiz-adv-x="665" 
d="M161 55q-63 68 -63 198v442h55v-442q0 -97 42 -156t136 -59q95 0 138 59t43 156v442h55v-442q0 -130 -64 -198t-172 -68q-107 0 -170 68zM394 904q25 -25 25 -62t-25 -61.5t-62 -24.5t-61.5 24.5t-24.5 61.5t24.5 62t61.5 25t62 -25zM296 881q-15 -15 -15 -39
q0 -23 14.5 -38t36.5 -15t37 14.5t15 38.5t-15 39t-37 15q-21 0 -36 -15z" />
    <glyph glyph-name="uring" unicode="&#x16f;" horiz-adv-x="543" 
d="M106.5 36.5q-46.5 49.5 -46.5 126.5v374h53v-366q0 -63 35 -98.5t94 -35.5q40 0 75 20t56.5 58.5t21.5 90.5v331h54v-393q0 -43 6 -82t17 -62h-54q-8 15 -13 39t-6 52q-19 -42 -63.5 -73t-104.5 -31q-78 0 -124.5 49.5zM318 746q25 -25 25 -62t-25 -61.5t-62 -24.5
t-61.5 24.5t-24.5 61.5t24.5 62t61.5 25t62 -25zM220 723q-15 -15 -15 -39q0 -23 14.5 -38t36.5 -15t37 14.5t15 38.5t-15 39t-37 15q-21 0 -36 -15z" />
    <glyph glyph-name="Uhungarumlaut" unicode="&#x170;" horiz-adv-x="665" 
d="M161 55q-63 68 -63 198v442h55v-442q0 -97 42 -156t136 -59q95 0 138 59t43 156v442h55v-442q0 -130 -64 -198t-172 -68q-107 0 -170 68zM253 766l87 159h51l-90 -159h-48zM359 766l90 159h53l-93 -159h-50z" />
    <glyph glyph-name="uhungarumlaut" unicode="&#x171;" horiz-adv-x="543" 
d="M106.5 36.5q-46.5 49.5 -46.5 126.5v374h53v-366q0 -63 35 -98.5t94 -35.5q40 0 75 20t56.5 58.5t21.5 90.5v331h54v-393q0 -43 6 -82t17 -62h-54q-8 15 -13 39t-6 52q-19 -42 -63.5 -73t-104.5 -31q-78 0 -124.5 49.5zM177 608l87 159h51l-90 -159h-48zM283 608l90 159
h53l-93 -159h-50z" />
    <glyph glyph-name="Uogonek" unicode="&#x172;" horiz-adv-x="665" 
d="M567 695v-442q0 -120 -55.5 -187.5t-150.5 -77.5q-16 -19 -24.5 -35.5t-8.5 -34.5q0 -26 16 -40t45 -15l-8 -38q-44 1 -69.5 24t-25.5 61q0 37 32 77q-101 5 -160.5 72.5t-59.5 193.5v442h55v-442q0 -97 42 -156t136 -59q95 0 138 59t43 156v442h55z" />
    <glyph glyph-name="uogonek" unicode="&#x173;" horiz-adv-x="543" 
d="M433 -122q16 -14 45 -15l-8 -38q-44 1 -69.5 24t-25.5 61q0 24 13 48t30 42q-8 15 -13 39t-6 52q-19 -42 -63.5 -73t-104.5 -31q-78 0 -124.5 49.5t-46.5 126.5v374h53v-366q0 -63 35 -98.5t94 -35.5q40 0 75 20t56.5 58.5t21.5 90.5v331h54v-393q0 -43 6 -82t17 -62h-12
q-21 -25 -32 -43t-11 -39q0 -26 16 -40z" />
    <glyph glyph-name="Wcircumflex" unicode="&#x174;" horiz-adv-x="947" 
d="M233 0l-186 695h59l163 -628l169 628h71l169 -628l163 628h59l-186 -695h-70l-170 622l-171 -622h-70zM384 756l-38 19l105 134h46l105 -134l-38 -19l-90 109z" />
    <glyph glyph-name="wcircumflex" unicode="&#x175;" horiz-adv-x="833" 
d="M208 0l-167 537h54l145 -470l147 470h63l144 -470l144 470h54l-167 -537h-61l-146 475l-149 -475h-61zM327 598l-38 19l105 134h46l105 -134l-38 -19l-90 109z" />
    <glyph glyph-name="Ycircumflex" unicode="&#x176;" horiz-adv-x="596" 
d="M270 0v259l-234 436h62l200 -374l200 374h62l-235 -436v-259h-55zM209 756l-38 19l105 134h46l105 -134l-38 -19l-90 109z" />
    <glyph glyph-name="ycircumflex" unicode="&#x177;" horiz-adv-x="519" 
d="M480 537l-216 -578q-33 -89 -95 -128t-137 -39l-5 51q59 0 110.5 30.5t76.5 98.5l10 27l-214 538h59l182 -465l172 465h57zM160 598l-38 19l105 134h46l105 -134l-38 -19l-90 109z" />
    <glyph glyph-name="Ydieresis" unicode="&#x178;" horiz-adv-x="596" 
d="M270 0v259l-234 436h62l200 -374l200 374h62l-235 -436v-259h-55zM192.5 802q-10.5 10 -10.5 25q0 16 10.5 26t24.5 10q15 0 25.5 -10t10.5 -26q0 -15 -10.5 -25t-25.5 -10q-14 0 -24.5 10zM355 802q-10 10 -10 25q0 16 10 26t25 10q14 0 24.5 -10t10.5 -26
q0 -15 -10.5 -25t-24.5 -10q-15 0 -25 10z" />
    <glyph glyph-name="Zacute" unicode="&#x179;" horiz-adv-x="606" 
d="M60 0v45l410 601h-400v49h466v-43l-412 -603h423v-49h-487zM204 771l-19 39l237 117l20 -42z" />
    <glyph glyph-name="zacute" unicode="&#x17a;" horiz-adv-x="485" 
d="M41 0l-2 45l327 442h-322v50h389v-42l-327 -445h330v-50h-395zM123 613l-19 39l237 117l20 -42z" />
    <glyph glyph-name="Zdotaccent" unicode="&#x17b;" horiz-adv-x="606" 
d="M60 0v45l410 601h-400v49h466v-43l-412 -603h423v-49h-487zM295 799q-10 10 -10 25t10 25t25 10t25 -10t10 -25t-10 -25t-25 -10t-25 10z" />
    <glyph glyph-name="zdotaccent" unicode="&#x17c;" horiz-adv-x="485" 
d="M41 0l-2 45l327 442h-322v50h389v-42l-327 -445h330v-50h-395zM213 650q-11 10 -11 26t11 26t26 10t25.5 -10t10.5 -26t-10.5 -26t-25.5 -10t-26 10z" />
    <glyph glyph-name="Zcaron" unicode="&#x17d;" horiz-adv-x="606" 
d="M60 0v45l410 601h-400v49h466v-43l-412 -603h423v-49h-487zM302 761l-114 123l40 18l93 -100l93 100l40 -18l-114 -123h-38z" />
    <glyph glyph-name="zcaron" unicode="&#x17e;" horiz-adv-x="485" 
d="M41 0l-2 45l327 442h-322v50h389v-42l-327 -445h330v-50h-395zM221 603l-114 123l40 18l93 -100l93 100l40 -18l-114 -123h-38z" />
    <glyph glyph-name="uni018F" unicode="&#x18f;" horiz-adv-x="667" 
d="M532.5 617.5q74.5 -90.5 74.5 -265.5q0 -117 -34 -199t-96.5 -124t-146.5 -42q-83 0 -144 39.5t-94 110.5t-33 163v34h492v18q0 153 -59.5 229t-163.5 76q-74 0 -127.5 -36t-79.5 -97l-47 18q34 79 99.5 122.5t153.5 43.5q131 0 205.5 -90.5zM479.5 101.5
q56.5 63.5 68.5 187.5h-434q1 -74 27.5 -131t75 -88.5t113.5 -31.5q93 0 149.5 63.5z" />
    <glyph glyph-name="florin" unicode="&#x192;" horiz-adv-x="430" 
d="M13 1l13 46q26 -11 49 -11q52 0 80 31t28 95v174h-145v38h145v159q0 88 41 131.5t114 43.5q42 0 79 -17l-15 -45q-28 13 -56 13q-107 0 -107 -125v-160h144v-38h-144v-173q0 -85 -40 -130.5t-117 -45.5q-35 0 -69 14z" />
    <glyph glyph-name="uni019D" unicode="&#x19d;" horiz-adv-x="722" 
d="M-3 -148q55 0 82 26t27 94v723h57l398 -602v602h55v-695h-57l-398 603v-628q0 -96 -42.5 -133t-121.5 -37v47z" />
    <glyph glyph-name="Gcaron" unicode="&#x1e6;" horiz-adv-x="711" 
d="M541 555q-23 45 -69 73.5t-111 28.5q-72 0 -127.5 -38t-86.5 -108t-31 -163q0 -91 33.5 -161.5t93 -109.5t133.5 -39q64 0 115.5 21t84.5 61v181h-228v49h283v-255q-41 -52 -108 -80t-147 -28q-90 0 -162 46t-113 128.5t-41 186.5q0 108 37.5 189.5t105.5 126t157 44.5
q88 0 148.5 -38.5t85.5 -97.5zM338 761l-114 123l40 18l93 -100l93 100l40 -18l-114 -123h-38z" />
    <glyph glyph-name="gcaron" unicode="&#x1e7;" horiz-adv-x="535" 
d="M474 58q41 -37 41 -97q0 -51 -30.5 -89t-86.5 -59t-132 -21q-65 0 -116 20t-80 56.5t-29 84.5q0 32 16 63t45 56q-16 12 -24 29t-8 36q0 25 15.5 48.5t43.5 38.5q-32 24 -49.5 61t-17.5 81q0 54 25.5 96t71.5 65t106 23q84 0 138 -43q22 16 33 39t11 49h48
q0 -67 -64 -114q38 -49 38 -115q0 -54 -25.5 -96t-72 -65t-106.5 -23q-58 0 -100 21q-22 -11 -33 -26t-11 -31q0 -22 18 -36.5t52 -14.5h175q67 0 108 -37zM156.5 466.5q-41.5 -38.5 -41.5 -100.5t41 -100.5t109 -38.5t109.5 38.5t41.5 100.5t-41.5 100.5t-109.5 38.5
q-67 0 -108.5 -38.5zM406 -128q55 33 55 88q0 39 -27 64t-70 25h-185q-21 0 -41 5q-46 -41 -46 -94q0 -54 48.5 -87.5t125.5 -33.5q85 0 140 33zM247 605l-114 123l40 18l93 -100l93 100l40 -18l-114 -123h-38z" />
    <glyph glyph-name="uni01EA" unicode="&#x1ea;" horiz-adv-x="678" 
d="M552.5 88.5q-66.5 -90.5 -185.5 -100.5q-15 -19 -23 -35t-8 -33q0 -26 16 -40t45 -15l-8 -38q-44 1 -69.5 24t-25.5 61q0 37 30 75q-125 5 -194.5 96t-69.5 265q0 179 73.5 269.5t205.5 90.5t206 -90.5t74 -269.5q0 -169 -66.5 -259.5zM174 113q58 -75 165 -75
q106 0 164.5 75.5t58.5 234.5t-58.5 234t-164.5 75q-107 0 -165 -75t-58 -234q0 -160 58 -235z" />
    <glyph glyph-name="uni01EB" unicode="&#x1eb;" horiz-adv-x="542" 
d="M447.5 74.5q-50.5 -72.5 -139.5 -85.5q-16 -18 -24.5 -34.5t-8.5 -34.5q0 -26 16 -40t45 -15l-8 -38q-44 1 -69.5 24t-25.5 61q0 35 30 75q-102 3 -160.5 77t-58.5 205q0 134 60.5 207.5t166.5 73.5t166.5 -73.5t60.5 -207.5q0 -122 -50.5 -194.5zM144 97q45 -61 127 -61
q81 0 126.5 61t45.5 172q0 110 -45.5 171t-126.5 61q-82 0 -127 -61t-45 -171q0 -111 45 -172z" />
    <glyph glyph-name="Aringacute" unicode="&#x1fa;" horiz-adv-x="592" 
d="M513 0l-64 186h-309l-63 -186h-56l241 695h68l241 -695h-58zM157 235h275l-138 404zM358 904q25 -25 25 -62t-25 -61.5t-62 -24.5t-61.5 24.5t-24.5 61.5t24.5 62t61.5 25t62 -25zM260 881q-15 -15 -15 -39q0 -23 14.5 -38t36.5 -15t37 14.5t15 38.5t-15 39t-37 15
q-21 0 -36 -15zM189 940l-19 39l237 117l20 -42z" />
    <glyph glyph-name="aringacute" unicode="&#x1fb;" horiz-adv-x="544" 
d="M103 26q-45 39 -45 104q0 78 53 117.5t153 39.5h132v83q0 57 -37.5 94t-94.5 37q-48 0 -85 -25.5t-53 -67.5l-50 15q18 54 68.5 90.5t118.5 36.5q84 0 135.5 -49t51.5 -131v-229q0 -95 22 -141h-57q-16 33 -18 84q-25 -44 -73.5 -70.5t-103.5 -26.5q-72 0 -117 39z
M312 54.5q38 19.5 61 52t23 68.5v70h-131q-152 0 -152 -111q0 -43 33.5 -71t86.5 -28q41 0 79 19.5zM343 746q25 -25 25 -62t-25 -61.5t-62 -24.5t-61.5 24.5t-24.5 61.5t24.5 62t61.5 25t62 -25zM245 723q-15 -15 -15 -39q0 -23 14.5 -38t36.5 -15t37 14.5t15 38.5t-15 39
t-37 15q-21 0 -36 -15zM174 782l-19 39l237 117l20 -42z" />
    <glyph glyph-name="AEacute" unicode="&#x1fc;" horiz-adv-x="953" 
d="M523 49h358v-49h-413v213h-243l-121 -213h-57l396 695h410v-49h-330v-270h289v-50h-289v-277zM254 263h214v377zM513 771l-19 39l237 117l20 -42z" />
    <glyph glyph-name="aeacute" unicode="&#x1fd;" horiz-adv-x="884" 
d="M836 121q-25 -62 -82.5 -98t-127.5 -36q-66 0 -116.5 33.5t-79.5 92.5q-65 -126 -203 -126q-75 0 -122 41t-47 108q0 77 52.5 120t154.5 43h131v72q0 57 -37 93.5t-95 36.5q-48 0 -85 -25.5t-53 -67.5l-50 15q19 54 69.5 90.5t118.5 36.5q61 0 107 -27.5t66 -77.5
q29 51 75 78t105 27q65 0 114 -30t75.5 -82.5t26.5 -118.5v-44h-381v-6q0 -67 22 -120.5t62 -83.5t90 -30q57 0 99.5 26t63.5 76zM508.5 455q-42.5 -47 -53.5 -130h322q0 79 -44 128t-117 49q-65 0 -107.5 -47zM396 248h-131q-77 0 -114.5 -28t-37.5 -84q0 -44 33.5 -72
t86.5 -28q42 0 79.5 20.5t60.5 58t23 85.5v48zM334 613l-19 39l237 117l20 -42z" />
    <glyph glyph-name="Oslashacute" unicode="&#x1fe;" horiz-adv-x="678" 
d="M587.5 543q31.5 -79 31.5 -195q0 -179 -74 -270t-206 -91q-66 0 -118 23l-30 -70l-41 14l33 77q-60 42 -91.5 121.5t-31.5 195.5q0 179 73.5 269.5t205.5 90.5q68 0 120 -24l28 67l41 -14l-31 -74q59 -41 90.5 -120zM204 82l234 554q-44 21 -99 21q-107 0 -165 -75
t-58 -234q0 -194 88 -266zM503.5 113.5q58.5 75.5 58.5 234.5q0 190 -87 264l-234 -554q41 -20 98 -20q106 0 164.5 75.5zM230 771l-19 39l237 117l20 -42z" />
    <glyph glyph-name="oslashacute" unicode="&#x1ff;" horiz-adv-x="542" 
d="M476.5 406.5q21.5 -58.5 21.5 -137.5q0 -134 -60.5 -208t-166.5 -74q-66 0 -116 30l-28 -52l-30 18l29 55q-40 36 -61 94.5t-21 136.5q0 134 60.5 207.5t166.5 73.5q63 0 113 -28l32 59l31 -18l-33 -62q41 -36 62.5 -94.5zM152 87l208 389q-39 25 -89 25q-82 0 -127 -61
t-45 -171q0 -121 53 -182zM397.5 97q45.5 61 45.5 172q0 60 -14 106.5t-41 76.5l-209 -389q38 -27 92 -27q81 0 126.5 61zM154 613l-19 39l237 117l20 -42z" />
    <glyph glyph-name="Scommaaccent" unicode="&#x218;" horiz-adv-x="555" 
d="M147 20.5q-60 33.5 -91 92.5l50 21q25 -45 71.5 -70.5t104.5 -25.5q72 0 115.5 36t43.5 97q0 41 -23 69t-56 46t-92 42q-66 26 -106 48t-68 59.5t-28 94.5q0 53 27 93.5t74.5 62.5t108.5 22q75 0 129.5 -30t81.5 -86l-52 -19q-21 40 -63 62t-96 22q-67 0 -109.5 -34.5
t-42.5 -91.5q0 -40 22.5 -68t56 -45.5t92.5 -41.5q66 -27 106 -49t68 -59.5t28 -93.5t-27 -98.5t-76.5 -65.5t-113.5 -23q-75 0 -135 33.5zM247 -204q50 27 55 87q-8 -7 -20 -7q-18 0 -28.5 10.5t-10.5 25.5t11.5 26.5t30.5 11.5q25 0 40 -16.5t15 -43.5q0 -36 -18 -68
t-54 -52z" />
    <glyph glyph-name="scommaaccent" unicode="&#x219;" horiz-adv-x="470" 
d="M115 21.5q-52 34.5 -75 87.5l40 26q22 -45 64 -73t99 -28q51 0 86.5 28t35.5 70q0 32 -18.5 53t-45.5 33.5t-74 28.5q-55 19 -88 35t-56 45.5t-23 75.5q0 67 48 107t127 40q64 0 112 -27.5t70 -71.5l-40 -28q-20 37 -57 58.5t-84 21.5q-53 0 -87 -27t-34 -70
q0 -31 18 -51.5t45.5 -33t73.5 -28.5q55 -19 88 -35t56.5 -46t23.5 -77q0 -43 -23.5 -76.5t-64 -52.5t-88.5 -19q-77 0 -129 34.5zM199 -204q50 27 55 87q-8 -7 -20 -7q-18 0 -28.5 10.5t-10.5 25.5t11.5 26.5t30.5 11.5q25 0 40 -16.5t15 -43.5q0 -36 -18 -68t-54 -52z" />
    <glyph glyph-name="uni021A" unicode="&#x21a;" horiz-adv-x="611" 
d="M274 0v646h-243v49h541v-49h-243v-646h-55zM260 -204q50 27 55 87q-8 -7 -20 -7q-18 0 -28.5 10.5t-10.5 25.5t11.5 26.5t30.5 11.5q25 0 40 -16.5t15 -43.5q0 -36 -18 -68t-54 -52z" />
    <glyph glyph-name="uni021B" unicode="&#x21b;" horiz-adv-x="381" 
d="M152.5 24.5q-33.5 37.5 -33.5 113.5v350h-101v49h101v161l54 10v-171h145v-49h-145v-340q0 -57 20 -83t64 -26q39 0 80 23l10 -50q-21 -11 -46.5 -18t-49.5 -7q-65 0 -98.5 37.5zM192 -204q50 27 55 87q-8 -7 -20 -7q-18 0 -28.5 10.5t-10.5 25.5t11.5 26.5t30.5 11.5
q25 0 40 -16.5t15 -43.5q0 -36 -18 -68t-54 -52z" />
    <glyph glyph-name="uni0232" unicode="&#x232;" horiz-adv-x="596" 
d="M270 0v259l-234 436h62l200 -374l200 374h62l-235 -436v-259h-55zM425 854v-43h-252v43h252z" />
    <glyph glyph-name="uni0233" unicode="&#x233;" horiz-adv-x="519" 
d="M480 537l-216 -578q-33 -89 -95 -128t-137 -39l-5 51q59 0 110.5 30.5t76.5 98.5l10 27l-214 538h59l182 -465l172 465h57zM376 696v-43h-252v43h252z" />
    <glyph glyph-name="uni0237" unicode="&#x237;" horiz-adv-x="244" 
d="M-13 -161q55 0 82 26t27 94v578h53v-575q0 -96 -41.5 -133t-120.5 -37v47z" />
    <glyph glyph-name="uni0259" unicode="&#x259;" horiz-adv-x="516" 
d="M364.5 516.5q51.5 -33.5 79.5 -96.5t28 -151t-28 -151.5t-79.5 -97t-120.5 -33.5q-63 0 -112 33.5t-75.5 90.5t-26.5 123v37h387q-1 110 -46 170t-126 60q-54 0 -92.5 -27t-58.5 -74l-50 16q26 63 78 98.5t122 35.5q69 0 120.5 -33.5zM362 84.5q45 49.5 53 141.5h-331
q0 -51 20 -95t56 -70t84 -26q73 0 118 49.5z" />
    <glyph glyph-name="uni0272" unicode="&#x272;" horiz-adv-x="575" 
d="M-11 -148q51 0 75 28t24 92v565h52v-87q16 39 56.5 69.5t99.5 30.5q81 0 132.5 -54t51.5 -158v-338h-53v333q0 80 -40 123t-101 43q-38 0 -71 -20t-53.5 -59.5t-20.5 -95.5v-349q0 -92 -38.5 -131t-113.5 -39v47z" />
    <glyph glyph-name="circumflex" unicode="&#x2c6;" horiz-adv-x="606" 
d="M187 599l-38 19l105 134h46l105 -134l-38 -19l-90 109z" />
    <glyph glyph-name="caron" unicode="&#x2c7;" horiz-adv-x="606" 
d="M259 603l-114 123l40 18l93 -100l93 100l40 -18l-114 -123h-38z" />
    <glyph glyph-name="breve" unicode="&#x2d8;" horiz-adv-x="606" 
d="M191.5 646.5q-32.5 31.5 -32.5 93.5h44q0 -40 20 -62t54 -22t54.5 22t20.5 62h44q-1 -62 -33.5 -93.5t-85.5 -31.5t-85.5 31.5z" />
    <glyph glyph-name="dotaccent" unicode="&#x2d9;" horiz-adv-x="606" 
d="M250 688.5q-11 10.5 -11 27.5q0 16 11.5 26.5t26.5 10.5t26.5 -10.5t11.5 -26.5q0 -17 -11 -27.5t-27 -10.5t-27 10.5z" />
    <glyph glyph-name="ring" unicode="&#x2da;" horiz-adv-x="606" 
d="M339 746q25 -25 25 -62t-25 -61.5t-62 -24.5t-61.5 24.5t-24.5 61.5t24.5 62t61.5 25t62 -25zM241 723q-15 -15 -15 -39q0 -23 14.5 -38t36.5 -15t37 14.5t15 38.5t-15 39t-37 15q-21 0 -36 -15z" />
    <glyph glyph-name="ogonek" unicode="&#x2db;" horiz-adv-x="606" 
d="M280 -43q-11 -18 -11 -39q0 -26 16 -40t45 -15l-8 -38q-44 1 -69.5 24t-25.5 61q0 24 13 48t30 42h42q-21 -25 -32 -43z" />
    <glyph glyph-name="tilde" unicode="&#x2dc;" horiz-adv-x="606" 
d="M153 642q2 30 19.5 49.5t45.5 19.5q19 0 59 -8q32 -7 48 -7q33 0 36 40l40 -8q-3 -32 -22 -52.5t-52 -20.5q-18 0 -61 9q-32 6 -42 6q-16 0 -23 -9t-9 -28z" />
    <glyph glyph-name="hungarumlaut" unicode="&#x2dd;" horiz-adv-x="606" 
d="M153 608l87 159h51l-90 -159h-48zM259 608l90 159h53l-93 -159h-50z" />
    <glyph glyph-name="gravecomb" unicode="&#x300;" 
d="M-167 613l-238 114l20 42l237 -117z" />
    <glyph glyph-name="acutecomb" unicode="&#x301;" 
d="M-386 613l-19 39l237 117l20 -42z" />
    <glyph glyph-name="uni0302" unicode="&#x302;" 
d="M-367 599l-38 19l105 134h46l105 -134l-38 -19l-90 109z" />
    <glyph glyph-name="tildecomb" unicode="&#x303;" 
d="M-401 642q2 30 19.5 49.5t45.5 19.5q19 0 59 -8q32 -7 48 -7q33 0 36 40l40 -8q-3 -32 -22 -52.5t-52 -20.5q-18 0 -61 9q-32 6 -42 6q-16 0 -23 -9t-9 -28z" />
    <glyph glyph-name="uni0304" unicode="&#x304;" 
d="M-151 696v-43h-252v43h252z" />
    <glyph glyph-name="uni0306" unicode="&#x306;" 
d="M-363.5 646.5q-32.5 31.5 -32.5 93.5h44q0 -40 20 -62t54 -22t54.5 22t20.5 62h44q-1 -62 -33.5 -93.5t-85.5 -31.5t-85.5 31.5z" />
    <glyph glyph-name="uni0307" unicode="&#x307;" 
d="M-304 688.5q-11 10.5 -11 27.5q0 16 11.5 26.5t26.5 10.5t26.5 -10.5t11.5 -26.5q0 -17 -11 -27.5t-27 -10.5t-27 10.5z" />
    <glyph glyph-name="uni0308" unicode="&#x308;" 
d="M-382.5 644q-10.5 10 -10.5 25q0 16 10.5 26t24.5 10q15 0 25.5 -10t10.5 -26q0 -15 -10.5 -25t-25.5 -10q-14 0 -24.5 10zM-220 644q-10 10 -10 25q0 16 10 26t25 10q14 0 24.5 -10t10.5 -26q0 -15 -10.5 -25t-24.5 -10q-15 0 -25 10z" />
    <glyph glyph-name="uni030A" unicode="&#x30a;" 
d="M-216 746q25 -25 25 -62t-25 -61.5t-62 -24.5t-61.5 24.5t-24.5 61.5t24.5 62t61.5 25t62 -25zM-314 723q-15 -15 -15 -39q0 -23 14.5 -38t36.5 -15t37 14.5t15 38.5t-15 39t-37 15q-21 0 -36 -15z" />
    <glyph glyph-name="uni030B" unicode="&#x30b;" 
d="M-401 608l87 159h51l-90 -159h-48zM-295 608l90 159h53l-93 -159h-50z" />
    <glyph glyph-name="uni030C" unicode="&#x30c;" 
d="M-295 603l-114 123l40 18l93 -100l93 100l40 -18l-114 -123h-38z" />
    <glyph glyph-name="uni0312" unicode="&#x312;" 
d="M-233 768q-50 -27 -55 -87q8 7 20 7q18 0 28.5 -10.5t10.5 -25.5t-11.5 -26.5t-30.5 -11.5q-25 0 -40 16.5t-15 43.5q0 36 18 68t54 52z" />
    <glyph glyph-name="dotbelowcomb" unicode="&#x323;" 
d="M-309 -143q-11 10 -11 26t11 26t26 10t25.5 -10t10.5 -26t-10.5 -26t-25.5 -10t-26 10z" />
    <glyph glyph-name="uni0326" unicode="&#x326;" 
d="M-322 -204q50 27 55 87q-8 -7 -20 -7q-18 0 -28.5 10.5t-10.5 25.5t11.5 26.5t30.5 11.5q25 0 40 -16.5t15 -43.5q0 -36 -18 -68t-54 -52z" />
    <glyph glyph-name="uni0327" unicode="&#x327;" 
d="M-331.5 -200q-24.5 7 -41.5 19l12 30q40 -23 77 -23q30 0 47 13.5t17 30.5q0 16 -14.5 28t-40.5 12q-25 0 -49 -11l-25 17l56 84h42l-46 -63q16 6 37 6q39 0 62.5 -21t23.5 -50q0 -33 -28 -56t-80 -23q-25 0 -49.5 7z" />
    <glyph glyph-name="uni0328" unicode="&#x328;" 
d="M-274 -43q-11 -18 -11 -39q0 -26 16 -40t45 -15l-8 -38q-44 1 -69.5 24t-25.5 61q0 24 13 48t30 42h42q-21 -25 -32 -43z" />
    <glyph glyph-name="uni0335" unicode="&#x335;" 
d="M-387 212v42h221v-42h-221z" />
    <glyph glyph-name="uni0336" unicode="&#x336;" 
d="M-414 221v42h274v-42h-274z" />
    <glyph glyph-name="uni0337" unicode="&#x337;" 
d="M-394 294v49l234 82v-49z" />
    <glyph glyph-name="uni0338" unicode="&#x338;" 
d="M-452 -56l319 598l31 -18l-320 -598z" />
    <glyph glyph-name="tonos" unicode="&#x384;" horiz-adv-x="606" 
d="M279 591l37 179h56l-44 -179h-49z" />
    <glyph glyph-name="dieresistonos" unicode="&#x385;" horiz-adv-x="606" 
d="M280 591l38 179h50l-44 -179h-44zM202.5 659.5q-10.5 10.5 -10.5 25.5t10.5 25t24.5 10q15 0 25.5 -10t10.5 -25t-10.5 -25.5t-25.5 -10.5q-14 0 -24.5 10.5zM388.5 659.5q-10.5 10.5 -10.5 25.5t10 25t25 10t25 -10t10 -25t-10 -25.5t-25 -10.5q-14 0 -24.5 10.5z" />
    <glyph glyph-name="Alphatonos" unicode="&#x386;" horiz-adv-x="592" 
d="M513 0l-64 186h-309l-63 -186h-56l241 695h68l241 -695h-58zM157 235h275l-138 404zM80 487l56 208h47l-60 -208h-43z" />
    <glyph glyph-name="Epsilontonos" unicode="&#x388;" horiz-adv-x="651" 
d="M166 0v695h385v-49h-330v-270h289v-50h-289v-277h358v-49h-413zM18 487l56 208h47l-60 -208h-43z" />
    <glyph glyph-name="Etatonos" unicode="&#x389;" horiz-adv-x="799" 
d="M166 0v695h55v-319h417v319h55v-695h-55v327h-417v-327h-55zM18 487l56 208h47l-60 -208h-43z" />
    <glyph glyph-name="Iotatonos" unicode="&#x38a;" horiz-adv-x="327" 
d="M166 0v695h55v-695h-55zM18 487l56 208h47l-60 -208h-43z" />
    <glyph glyph-name="Omicrontonos" unicode="&#x38c;" horiz-adv-x="692" 
d="M147.5 78q-73.5 91 -73.5 270t73.5 269.5t205.5 90.5t206 -90.5t74 -269.5t-74 -270t-206 -91t-205.5 91zM517.5 113.5q58.5 75.5 58.5 234.5t-58.5 234t-164.5 75q-107 0 -165 -75t-58 -234q0 -160 58 -235t165 -75q106 0 164.5 75.5zM-7 487l56 208h47l-60 -208h-43z
" />
    <glyph glyph-name="Upsilontonos" unicode="&#x38e;" horiz-adv-x="620" 
d="M294 0v259l-234 436h62l200 -374l200 374h62l-235 -436v-259h-55zM-61 487l56 208h47l-60 -208h-43z" />
    <glyph glyph-name="Omegatonos" unicode="&#x38f;" horiz-adv-x="677" 
d="M56 45l179 -2q-96 42 -150.5 129.5t-54.5 199.5q0 87 35.5 164t106.5 124.5t173 47.5t173.5 -47.5t107 -124t35.5 -164.5q0 -112 -54.5 -199.5t-150.5 -129.5l178 2v-45h-258v48q111 40 171 127t60 197q0 75 -30 140.5t-89 105t-143 39.5q-83 0 -142 -39.5t-89 -105
t-30 -140.5q0 -110 59.5 -197t171.5 -127v-48h-259v45zM-44 487l56 208h47l-60 -208h-43z" />
    <glyph glyph-name="iotadieresistonos" unicode="&#x390;" horiz-adv-x="260" 
d="M85 537h54v-390q0 -52 20.5 -78.5t60.5 -26.5q6 0 26 2l-3 -50q-20 -2 -29 -2q-58 0 -93.5 37.5t-35.5 116.5v391zM90 591l38 179h50l-44 -179h-44zM12.5 659.5q-10.5 10.5 -10.5 25.5t10.5 25t24.5 10q15 0 25.5 -10t10.5 -25t-10.5 -25.5t-25.5 -10.5q-14 0 -24.5 10.5
zM198.5 659.5q-10.5 10.5 -10.5 25.5t10 25t25 10t25 -10t10 -25t-10 -25.5t-25 -10.5q-14 0 -24.5 10.5z" />
    <glyph glyph-name="Alpha" unicode="&#x391;" horiz-adv-x="592" 
d="M513 0l-64 186h-309l-63 -186h-56l241 695h68l241 -695h-58zM157 235h275l-138 404z" />
    <glyph glyph-name="Beta" unicode="&#x392;" horiz-adv-x="608" 
d="M106 695h199q77 0 138 -32.5t61 -133.5q0 -71 -31 -113t-79 -58v-1q51 -14 89.5 -56t38.5 -113q0 -103 -57 -145.5t-155 -42.5h-204v695zM296 378q73 0 112 36.5t39 106.5q0 69 -40.5 96.5t-108.5 27.5h-137v-267h135zM305 49q80 0 119.5 34t39.5 106q0 68 -41.5 103.5
t-120.5 35.5h-141v-279h144z" />
    <glyph glyph-name="Gamma" unicode="&#x393;" horiz-adv-x="534" 
d="M106 0v695h380v-49h-325v-646h-55z" />
    <glyph glyph-name="uni0394" unicode="&#x394;" horiz-adv-x="554" 
d="M23 0l219 695h71l218 -695h-508zM90 48h375l-188 593z" />
    <glyph glyph-name="Epsilon" unicode="&#x395;" horiz-adv-x="591" 
d="M106 0v695h385v-49h-330v-270h289v-50h-289v-277h358v-49h-413z" />
    <glyph glyph-name="Zeta" unicode="&#x396;" horiz-adv-x="606" 
d="M60 0v45l410 601h-400v49h466v-43l-412 -603h423v-49h-487z" />
    <glyph glyph-name="Eta" unicode="&#x397;" horiz-adv-x="739" 
d="M106 0v695h55v-319h417v319h55v-695h-55v327h-417v-327h-55z" />
    <glyph glyph-name="Theta" unicode="&#x398;" horiz-adv-x="678" 
d="M133.5 78q-73.5 91 -73.5 270t73.5 269.5t205.5 90.5t206 -90.5t74 -269.5t-74 -270t-206 -91t-205.5 91zM503.5 113.5q58.5 75.5 58.5 234.5t-58.5 234t-164.5 75q-107 0 -165 -75t-58 -234q0 -160 58 -235t165 -75q106 0 164.5 75.5zM485 370v-43h-293v43h293z" />
    <glyph glyph-name="Iota" unicode="&#x399;" horiz-adv-x="267" 
d="M106 0v695h55v-695h-55z" />
    <glyph glyph-name="Kappa" unicode="&#x39a;" horiz-adv-x="601" 
d="M574 0h-71l-268 341l-74 -87v-254h-55v695h55v-358l305 358h68l-261 -309z" />
    <glyph glyph-name="Lambda" unicode="&#x39b;" horiz-adv-x="592" 
d="M21 0l241 695h68l241 -695h-58l-219 639l-217 -639h-56z" />
    <glyph glyph-name="Mu" unicode="&#x39c;" horiz-adv-x="834" 
d="M106 0v695h61l249 -458l251 458h61v-695h-55v596l-233 -428h-47l-232 428v-596h-55z" />
    <glyph glyph-name="Nu" unicode="&#x39d;" horiz-adv-x="722" 
d="M106 0v695h56l399 -602v602h55v-695h-55l-400 603v-603h-55z" />
    <glyph glyph-name="Xi" unicode="&#x39e;" horiz-adv-x="611" 
d="M80 646v49h451v-49h-451zM123 326v50h364v-50h-364zM80 0v49h451v-49h-451z" />
    <glyph glyph-name="Omicron" unicode="&#x39f;" horiz-adv-x="678" 
d="M133.5 78q-73.5 91 -73.5 270t73.5 269.5t205.5 90.5t206 -90.5t74 -269.5t-74 -270t-206 -91t-205.5 91zM503.5 113.5q58.5 75.5 58.5 234.5t-58.5 234t-164.5 75q-107 0 -165 -75t-58 -234q0 -160 58 -235t165 -75q106 0 164.5 75.5z" />
    <glyph glyph-name="Pi" unicode="&#x3a0;" horiz-adv-x="739" 
d="M106 0v695h527v-695h-55v646h-417v-646h-55z" />
    <glyph glyph-name="Rho" unicode="&#x3a1;" horiz-adv-x="562" 
d="M106 695h197q97 0 153.5 -54.5t56.5 -148.5q0 -101 -59 -159t-162 -58h-131v-275h-55v695zM291 324q77 0 121.5 45t44.5 120q0 73 -43 115t-119 42h-134v-322h130z" />
    <glyph glyph-name="Sigma" unicode="&#x3a3;" horiz-adv-x="642" 
d="M90 0v46l208 302l-204 301v46h455v-49h-393l198 -298l-203 -299h401v-49h-462z" />
    <glyph glyph-name="Tau" unicode="&#x3a4;" horiz-adv-x="611" 
d="M274 0v646h-243v49h541v-49h-243v-646h-55z" />
    <glyph glyph-name="Upsilon" unicode="&#x3a5;" horiz-adv-x="596" 
d="M270 0v259l-234 436h62l200 -374l200 374h62l-235 -436v-259h-55z" />
    <glyph glyph-name="Phi" unicode="&#x3a6;" horiz-adv-x="752" 
d="M348 74h-14q-79 0 -143.5 34t-102 96.5t-37.5 143.5t37.5 143.5t102 96.5t143.5 34h14v84h55v-84h15q79 0 143.5 -34t102 -96.5t37.5 -143.5t-37.5 -143.5t-102 -96.5t-143.5 -34h-15v-85h-55v85zM348 123v450h-13q-63 0 -115 -27.5t-82 -78.5t-30 -119t30 -119t82 -78.5
t115 -27.5h13zM417 123q63 0 115 27.5t82 78.5t30 119t-30 119t-82 78.5t-115 27.5h-14v-450h14z" />
    <glyph glyph-name="Chi" unicode="&#x3a7;" horiz-adv-x="657" 
d="M601 0h-67l-209 304l-210 -304h-61l240 350l-237 345h67l206 -300l201 300h60l-229 -346z" />
    <glyph glyph-name="Psi" unicode="&#x3a8;" horiz-adv-x="752" 
d="M348 160h-14q-75 0 -135.5 32t-95.5 92.5t-35 141.5v269h55v-269q0 -67 28 -116t76 -75t108 -26h13v486h55v-486h14q60 0 108 26t76 75t28 116v269h55v-269q0 -81 -35 -141.5t-95.5 -92.5t-135.5 -32h-15v-160h-55v160z" />
    <glyph glyph-name="uni03A9" unicode="&#x3a9;" horiz-adv-x="663" 
d="M42 45l179 -2q-96 42 -150.5 129.5t-54.5 199.5q0 87 35.5 164t106.5 124.5t173 47.5t173.5 -47.5t107 -124t35.5 -164.5q0 -112 -54.5 -199.5t-150.5 -129.5l178 2v-45h-258v48q111 40 171 127t60 197q0 75 -30 140.5t-89 105t-143 39.5q-83 0 -142 -39.5t-89 -105
t-30 -140.5q0 -110 59.5 -197t171.5 -127v-48h-259v45z" />
    <glyph glyph-name="Iotadieresis" unicode="&#x3aa;" horiz-adv-x="267" 
d="M106 0v695h55v-695h-55zM27.5 802q-10.5 10 -10.5 25q0 16 10.5 26t24.5 10q15 0 25.5 -10t10.5 -26q0 -15 -10.5 -25t-25.5 -10q-14 0 -24.5 10zM190 802q-10 10 -10 25q0 16 10 26t25 10q14 0 24.5 -10t10.5 -26q0 -15 -10.5 -25t-24.5 -10q-15 0 -25 10z" />
    <glyph glyph-name="Upsilondieresis" unicode="&#x3ab;" horiz-adv-x="596" 
d="M270 0v259l-234 436h62l200 -374l200 374h62l-235 -436v-259h-55zM191.5 802q-10.5 10 -10.5 25q0 16 10.5 26t24.5 10q15 0 25.5 -10t10.5 -26q0 -15 -10.5 -25t-25.5 -10q-14 0 -24.5 10zM354 802q-10 10 -10 25q0 16 10 26t25 10q14 0 24.5 -10t10.5 -26
q0 -15 -10.5 -25t-24.5 -10q-15 0 -25 10z" />
    <glyph glyph-name="alphatonos" unicode="&#x3ac;" horiz-adv-x="645" 
d="M102.5 61.5q-58.5 74.5 -58.5 207.5q0 88 27 151t76 96.5t115 33.5q65 0 113 -31t71 -79v97h51v-367q0 -59 28 -91.5t78 -32.5l-3 -49q-61 0 -98.5 29.5t-47.5 82.5q-27 -58 -75.5 -90t-116.5 -32q-101 0 -159.5 74.5zM397.5 97q45.5 61 45.5 172q0 110 -45.5 171
t-126.5 61q-82 0 -127 -61t-45 -171q0 -111 45 -172t127 -61q81 0 126.5 61zM248 591l37 179h56l-44 -179h-49z" />
    <glyph glyph-name="epsilontonos" unicode="&#x3ad;" horiz-adv-x="478" 
d="M133.5 7q-43.5 20 -68 56.5t-24.5 83.5q0 58 36 90.5t80 42.5v1q-47 12 -75 44.5t-28 84.5q0 42 24 73.5t65 49t89 17.5q61 0 108.5 -28.5t70.5 -75.5l-52 -17q-18 34 -52 52.5t-75 18.5q-50 0 -86 -27t-36 -70q0 -56 39 -81.5t96 -25.5h84v-39h-81q-60 0 -105 -28
t-45 -81q0 -52 40.5 -82t94.5 -30q56 0 95.5 23.5t58.5 57.5l49 -20q-21 -46 -72.5 -78t-130.5 -32q-56 0 -99.5 20zM205 591l37 179h56l-44 -179h-49z" />
    <glyph glyph-name="etatonos" unicode="&#x3ae;" horiz-adv-x="585" 
d="M437 333q0 80 -40.5 123t-102.5 43q-38 0 -71.5 -20t-54 -59.5t-20.5 -95.5v-324h-54v417q0 49 -15.5 68t-44.5 19q-14 0 -29 -4v44q26 6 38 6q41 0 66.5 -23t29.5 -75q20 41 62.5 69.5t101.5 28.5q82 0 134.5 -53.5t52.5 -155.5v-536h-53v528zM268 591l37 179h56
l-44 -179h-49z" />
    <glyph glyph-name="iotatonos" unicode="&#x3af;" horiz-adv-x="260" 
d="M85 537h54v-390q0 -52 20.5 -78.5t60.5 -26.5q6 0 26 2l-3 -50q-20 -2 -29 -2q-58 0 -93.5 37.5t-35.5 116.5v391zM89 591l37 179h56l-44 -179h-49z" />
    <glyph glyph-name="upsilondieresistonos" unicode="&#x3b0;" horiz-adv-x="516" 
d="M112 36q-52 49 -52 138v363h53v-360q0 -67 36.5 -104t97.5 -37q74 0 114.5 61t40.5 178q0 59 -13 129.5t-35 132.5h53q24 -67 37 -135.5t13 -126.5q0 -137 -54.5 -212.5t-155.5 -75.5q-83 0 -135 49zM207 591l38 179h50l-44 -179h-44zM129.5 659.5q-10.5 10.5 -10.5 25.5
t10.5 25t24.5 10q15 0 25.5 -10t10.5 -25t-10.5 -25.5t-25.5 -10.5q-14 0 -24.5 10.5zM315.5 659.5q-10.5 10.5 -10.5 25.5t10 25t25 10t25 -10t10 -25t-10 -25.5t-25 -10.5q-14 0 -24.5 10.5z" />
    <glyph glyph-name="alpha" unicode="&#x3b1;" horiz-adv-x="645" 
d="M102.5 61.5q-58.5 74.5 -58.5 207.5q0 88 27 151t76 96.5t115 33.5q65 0 113 -31t71 -79v97h51v-367q0 -59 28 -91.5t78 -32.5l-3 -49q-61 0 -98.5 29.5t-47.5 82.5q-27 -58 -75.5 -90t-116.5 -32q-101 0 -159.5 74.5zM397.5 97q45.5 61 45.5 172q0 110 -45.5 171
t-126.5 61q-82 0 -127 -61t-45 -171q0 -111 45 -172t127 -61q81 0 126.5 61z" />
    <glyph glyph-name="beta" unicode="&#x3b2;" horiz-adv-x="594" 
d="M94 516q0 58 25.5 101.5t70 67t101.5 23.5q83 0 133 -47t50 -121q0 -46 -23.5 -84.5t-61.5 -55.5q66 -17 107 -71.5t41 -126.5q0 -63 -28.5 -112t-78.5 -76t-111 -27q-59 0 -105 26t-66 66v-274h-54v711zM432.5 82q46.5 46 46.5 120q0 72 -46 117t-122 45h-39v48h37
q51 0 81.5 34t30.5 88q0 56 -36 90.5t-94 34.5q-66 0 -104.5 -39t-38.5 -104v-297q0 -84 44.5 -133.5t121.5 -49.5q72 0 118.5 46z" />
    <glyph glyph-name="gamma" unicode="&#x3b3;" horiz-adv-x="544" 
d="M229 12l-199 525h60l175 -467q42 38 79 106t59.5 149t22.5 156q0 28 -3 56h60q2 -28 2 -43q0 -86 -25.5 -177.5t-71.5 -171.5t-105 -133v-207h-54v207z" />
    <glyph glyph-name="delta" unicode="&#x3b4;" horiz-adv-x="518" 
d="M102 50.5q-58 62.5 -58 175.5q0 101 46.5 160.5t131.5 70.5q-55 11 -89.5 42t-34.5 81q0 60 48 94t117 34q41 0 81 -11.5t74 -33.5l-16 -41q-64 42 -133 42q-51 0 -83.5 -23t-32.5 -61q0 -29 15 -47t37.5 -28.5t64.5 -24.5q64 -21 104.5 -43.5t70 -73t29.5 -137.5
q0 -113 -57.5 -175.5t-157.5 -62.5q-99 0 -157 62.5zM377 86.5q42 49.5 42 140.5t-42 141t-118 50t-118 -50t-42 -141t42 -140.5t118 -49.5t118 49.5z" />
    <glyph glyph-name="epsilon" unicode="&#x3b5;" horiz-adv-x="478" 
d="M133.5 7q-43.5 20 -68 56.5t-24.5 83.5q0 58 36 90.5t80 42.5v1q-47 12 -75 44.5t-28 84.5q0 42 24 73.5t65 49t89 17.5q61 0 108.5 -28.5t70.5 -75.5l-52 -17q-18 34 -52 52.5t-75 18.5q-50 0 -86 -27t-36 -70q0 -56 39 -81.5t96 -25.5h84v-39h-81q-60 0 -105 -28
t-45 -81q0 -52 40.5 -82t94.5 -30q56 0 95.5 23.5t58.5 57.5l49 -20q-21 -46 -72.5 -78t-130.5 -32q-56 0 -99.5 20z" />
    <glyph glyph-name="zeta" unicode="&#x3b6;" horiz-adv-x="464" 
d="M289 -182q30 22 46.5 49.5t16.5 54.5q0 29 -17.5 47.5t-44 29t-73.5 23.5q-60 17 -96.5 33.5t-63 49.5t-26.5 88q0 69 39.5 140.5t102.5 141t168 171.5h-217v49h290l-1 -48q-115 -107 -180 -174.5t-106 -136t-41 -135.5q0 -40 21.5 -65t53 -38.5t84.5 -29.5
q54 -16 86.5 -30t54.5 -40t22 -68q0 -36 -20 -70t-55 -58z" />
    <glyph glyph-name="eta" unicode="&#x3b7;" horiz-adv-x="585" 
d="M437 333q0 80 -40.5 123t-102.5 43q-38 0 -71.5 -20t-54 -59.5t-20.5 -95.5v-324h-54v417q0 49 -15.5 68t-44.5 19q-14 0 -29 -4v44q26 6 38 6q41 0 66.5 -23t29.5 -75q20 41 62.5 69.5t101.5 28.5q82 0 134.5 -53.5t52.5 -155.5v-536h-53v528z" />
    <glyph glyph-name="theta" unicode="&#x3b8;" horiz-adv-x="575" 
d="M120 78q-60 91 -60 270t60 269.5t167 90.5t167.5 -90.5t60.5 -269.5t-60.5 -270t-167.5 -91t-167 91zM458 371q-3 147 -47.5 216.5t-123.5 69.5t-123 -69.5t-47 -216.5h341zM410.5 108q44.5 70 47.5 217h-341q3 -147 47 -217t123 -70t123.5 70z" />
    <glyph glyph-name="iota" unicode="&#x3b9;" horiz-adv-x="260" 
d="M85 537h54v-390q0 -52 20.5 -78.5t60.5 -26.5q6 0 26 2l-3 -50q-20 -2 -29 -2q-58 0 -93.5 37.5t-35.5 116.5v391z" />
    <glyph glyph-name="kappa" unicode="&#x3ba;" horiz-adv-x="566" 
d="M431 0l-224 266l-58 -69v-197h-55v537h55v-262l189 225q41 50 101 50q34 0 61 -12l-8 -51q-23 10 -48 10q-20 0 -37.5 -8t-34.5 -29l-127 -149l256 -311h-70z" />
    <glyph glyph-name="lambda" unicode="&#x3bb;" horiz-adv-x="539" 
d="M462 0l-198 455l-187 -455h-56l216 516l-25 58q-19 45 -42 66t-55 21q-21 0 -43 -8l-9 48q30 10 58 10q45 0 79.5 -26.5t59.5 -87.5l258 -597h-56z" />
    <glyph glyph-name="uni03BC" unicode="&#x3bc;" horiz-adv-x="543" 
d="M455 62q6 -39 17 -62h-54q-8 15 -13 39t-6 52q-19 -42 -63.5 -73t-104.5 -31q-77 0 -125 50l6 -232h-52v732h53v-366q0 -63 35 -98.5t94 -35.5q40 0 75 20t56.5 58.5t21.5 90.5v331h54v-393q0 -43 6 -82z" />
    <glyph glyph-name="nu" unicode="&#x3bd;" horiz-adv-x="559" 
d="M30 537h56l186 -480q42 40 79 111.5t60 156.5t23 162q0 33 -2 50h57q2 -28 2 -41q0 -88 -25.5 -182t-71 -176.5t-102.5 -137.5h-56z" />
    <glyph glyph-name="xi" unicode="&#x3be;" horiz-adv-x="461" 
d="M323 -181q34 15 53 41t19 54q0 26 -17.5 44t-44.5 29t-73 25q-64 20 -104.5 38.5t-69 54.5t-28.5 94q0 55 29 97.5t84 64.5q-45 20 -67 53t-22 75q0 50 30 94t82 63h-141v49h345v-49h-91q-53 0 -92 -21.5t-59 -55.5t-20 -70q0 -46 35.5 -78.5t94.5 -32.5h75v-43h-77
q-68 0 -108 -38.5t-40 -94.5q0 -44 24 -72.5t58 -44t92 -34.5q55 -18 86.5 -32.5t53.5 -39t22 -62.5q0 -37 -21.5 -71t-61.5 -53z" />
    <glyph glyph-name="omicron" unicode="&#x3bf;" horiz-adv-x="542" 
d="M104.5 61q-60.5 74 -60.5 208t60.5 207.5t166.5 73.5t166.5 -73.5t60.5 -207.5t-60.5 -208t-166.5 -74t-166.5 74zM397.5 97q45.5 61 45.5 172q0 110 -45.5 171t-126.5 61q-82 0 -127 -61t-45 -171q0 -111 45 -172t127 -61q81 0 126.5 61z" />
    <glyph glyph-name="pi" unicode="&#x3c0;" horiz-adv-x="582" 
d="M441 24.5q-31 34.5 -31 101.5v364h-242v-490h-54v490h-84v47h523v-48h-89v-365q0 -50 20.5 -68.5t60.5 -18.5v-44q-73 -3 -104 31.5z" />
    <glyph glyph-name="rho" unicode="&#x3c1;" horiz-adv-x="566" 
d="M68 269q0 134 60 207.5t166 73.5q107 0 167.5 -73.5t60.5 -207.5q0 -89 -27.5 -152.5t-77.5 -96.5t-117 -33q-63 0 -109 30.5t-70 86.5v-299h-53v464zM421.5 97q45.5 61 45.5 172q0 110 -45.5 171t-127.5 61q-81 0 -126 -61t-45 -171q0 -111 45 -172t126 -61
q82 0 127.5 61z" />
    <glyph glyph-name="uni03C2" unicode="&#x3c2;" horiz-adv-x="467" 
d="M306 -182q27 21 42.5 47.5t15.5 52.5q0 35 -19 62t-47 46t-77 47q-62 34 -100.5 62t-65.5 72.5t-27 107.5q0 75 29 128t79.5 80t114.5 27q71 0 121.5 -38t65.5 -95l-50 -16q-15 46 -51.5 73t-86.5 27q-75 0 -121 -48t-46 -136q0 -49 23.5 -85t57.5 -59.5t92 -55.5
q56 -31 88.5 -53.5t55 -56t22.5 -79.5q0 -32 -18 -65.5t-51 -60.5z" />
    <glyph glyph-name="sigma" unicode="&#x3c3;" horiz-adv-x="557" 
d="M556 501h-142q84 -73 84 -232q0 -134 -60.5 -208t-166.5 -74t-166.5 74t-60.5 208t60.5 207.5t166.5 73.5h285v-49zM397.5 440q-45.5 61 -126.5 61q-82 0 -127 -61t-45 -171q0 -111 45 -172t127 -61q81 0 126.5 61t45.5 172q0 110 -45.5 171z" />
    <glyph glyph-name="tau" unicode="&#x3c4;" horiz-adv-x="381" 
d="M152.5 24.5q-33.5 37.5 -33.5 113.5v350h-101v49h300v-49h-145v-340q0 -57 20 -83t64 -26q39 0 80 23l10 -50q-21 -11 -46.5 -18t-49.5 -7q-65 0 -98.5 37.5z" />
    <glyph glyph-name="upsilon" unicode="&#x3c5;" horiz-adv-x="516" 
d="M112 36q-52 49 -52 138v363h53v-360q0 -67 36.5 -104t97.5 -37q74 0 114.5 61t40.5 178q0 59 -13 129.5t-35 132.5h53q24 -67 37 -135.5t13 -126.5q0 -137 -54.5 -212.5t-155.5 -75.5q-83 0 -135 49z" />
    <glyph glyph-name="phi" unicode="&#x3c6;" horiz-adv-x="674" 
d="M310 -13q-79 5 -139 41.5t-93.5 99t-33.5 141.5t33.5 141t93.5 98.5t139 41.5v138h54v-138q79 -5 139 -41.5t93.5 -98.5t33.5 -141t-33.5 -141.5t-93.5 -99t-139 -41.5v-182h-54v182zM310 502q-96 -8 -153.5 -70.5t-57.5 -162.5q0 -103 57 -164.5t154 -69.5v467z
M518 104.5q57 61.5 57 164.5q0 100 -57.5 162.5t-153.5 70.5v-467q97 8 154 69.5z" />
    <glyph glyph-name="chi" unicode="&#x3c7;" horiz-adv-x="641" 
d="M609 -150l-1 -53q-20 -5 -37 -5q-68 0 -116 79l-150 251l-203 -317h-60l233 368l-155 261q-19 32 -36.5 46.5t-35.5 14.5q-13 0 -29 -4l-7 52q26 7 46 7q62 0 109 -79l147 -245l205 311h60l-235 -362l162 -271q20 -34 36.5 -45.5t40.5 -11.5q14 0 26 3z" />
    <glyph glyph-name="psi" unicode="&#x3c8;" horiz-adv-x="632" 
d="M541.5 127q-30.5 -63 -84 -98t-122.5 -41v-183h-54v183q-101 7 -161 66.5t-60 163.5v319h53v-317q0 -83 45.5 -130t122.5 -53v618h54v-617q82 9 132 71t50 168q0 63 -14.5 132t-43.5 128h54q30 -64 44.5 -131.5t14.5 -128.5q0 -87 -30.5 -150z" />
    <glyph glyph-name="omega" unicode="&#x3c9;" horiz-adv-x="861" 
d="M111.5 65q-51.5 78 -51.5 205q0 62 13 131.5t37 135.5h53q-23 -64 -35.5 -133.5t-12.5 -133.5q0 -105 37 -169.5t116 -64.5q61 0 98.5 42t37.5 112v332h53v-332q0 -70 37.5 -112t98.5 -42q79 0 116.5 64.5t37.5 169.5q0 64 -13 134t-36 133h53q24 -66 37.5 -135.5
t13.5 -131.5q0 -126 -51.5 -204.5t-155.5 -78.5q-58 0 -101 30.5t-64 80.5q-20 -50 -63 -80.5t-100 -30.5q-104 0 -155.5 78z" />
    <glyph glyph-name="iotadieresis" unicode="&#x3ca;" horiz-adv-x="260" 
d="M85 537h54v-390q0 -52 20.5 -78.5t60.5 -26.5q6 0 26 2l-3 -50q-20 -2 -29 -2q-58 0 -93.5 37.5t-35.5 116.5v391zM6.5 644q-10.5 10 -10.5 25q0 16 10.5 26t24.5 10q15 0 25.5 -10t10.5 -26q0 -15 -10.5 -25t-25.5 -10q-14 0 -24.5 10zM169 644q-10 10 -10 25
q0 16 10 26t25 10q14 0 24.5 -10t10.5 -26q0 -15 -10.5 -25t-24.5 -10q-15 0 -25 10z" />
    <glyph glyph-name="upsilondieresis" unicode="&#x3cb;" horiz-adv-x="516" 
d="M112 36q-52 49 -52 138v363h53v-360q0 -67 36.5 -104t97.5 -37q74 0 114.5 61t40.5 178q0 59 -13 129.5t-35 132.5h53q24 -67 37 -135.5t13 -126.5q0 -137 -54.5 -212.5t-155.5 -75.5q-83 0 -135 49zM123.5 644q-10.5 10 -10.5 25q0 16 10.5 26t24.5 10q15 0 25.5 -10
t10.5 -26q0 -15 -10.5 -25t-25.5 -10q-14 0 -24.5 10zM286 644q-10 10 -10 25q0 16 10 26t25 10q14 0 24.5 -10t10.5 -26q0 -15 -10.5 -25t-24.5 -10q-15 0 -25 10z" />
    <glyph glyph-name="omicrontonos" unicode="&#x3cc;" horiz-adv-x="542" 
d="M104.5 61q-60.5 74 -60.5 208t60.5 207.5t166.5 73.5t166.5 -73.5t60.5 -207.5t-60.5 -208t-166.5 -74t-166.5 74zM397.5 97q45.5 61 45.5 172q0 110 -45.5 171t-126.5 61q-82 0 -127 -61t-45 -171q0 -111 45 -172t127 -61q81 0 126.5 61zM248 591l37 179h56l-44 -179
h-49z" />
    <glyph glyph-name="upsilontonos" unicode="&#x3cd;" horiz-adv-x="516" 
d="M112 36q-52 49 -52 138v363h53v-360q0 -67 36.5 -104t97.5 -37q74 0 114.5 61t40.5 178q0 59 -13 129.5t-35 132.5h53q24 -67 37 -135.5t13 -126.5q0 -137 -54.5 -212.5t-155.5 -75.5q-83 0 -135 49zM206 591l37 179h56l-44 -179h-49z" />
    <glyph glyph-name="omegatonos" unicode="&#x3ce;" horiz-adv-x="861" 
d="M111.5 65q-51.5 78 -51.5 205q0 62 13 131.5t37 135.5h53q-23 -64 -35.5 -133.5t-12.5 -133.5q0 -105 37 -169.5t116 -64.5q61 0 98.5 42t37.5 112v332h53v-332q0 -70 37.5 -112t98.5 -42q79 0 116.5 64.5t37.5 169.5q0 64 -13 134t-36 133h53q24 -66 37.5 -135.5
t13.5 -131.5q0 -126 -51.5 -204.5t-155.5 -78.5q-58 0 -101 30.5t-64 80.5q-20 -50 -63 -80.5t-100 -30.5q-104 0 -155.5 78zM407 591l37 179h56l-44 -179h-49z" />
    <glyph glyph-name="uni0401" unicode="&#x401;" horiz-adv-x="591" 
d="M106 0v695h385v-49h-330v-270h289v-50h-289v-277h358v-49h-413zM194.5 802q-10.5 10 -10.5 25q0 16 10.5 26t24.5 10q15 0 25.5 -10t10.5 -26q0 -15 -10.5 -25t-25.5 -10q-14 0 -24.5 10zM357 802q-10 10 -10 25q0 16 10 26t25 10q14 0 24.5 -10t10.5 -26
q0 -15 -10.5 -25t-24.5 -10q-15 0 -25 10z" />
    <glyph glyph-name="uni0402" unicode="&#x402;" horiz-adv-x="748" 
d="M609 389.5q47 -27.5 71 -74.5t24 -105q0 -57 -26 -104.5t-77 -76.5t-124 -29v48q85 0 127.5 47t42.5 115q0 66 -40.5 111.5t-117.5 45.5q-45 0 -81.5 -22.5t-57.5 -62.5t-21 -91v-191h-55v646h-243v49h541v-49h-243v-329q21 45 66.5 72.5t101.5 27.5q65 0 112 -27.5z" />
    <glyph glyph-name="uni0403" unicode="&#x403;" horiz-adv-x="534" 
d="M106 0v695h380v-49h-325v-646h-55zM180 771l-19 39l237 117l20 -42z" />
    <glyph glyph-name="uni0404" unicode="&#x404;" horiz-adv-x="639" 
d="M591 121q-24 -57 -83.5 -95.5t-146.5 -38.5t-155.5 41.5t-107 122.5t-38.5 197q0 115 38.5 196.5t106.5 122.5t155 41t146 -38.5t84 -95.5l-52 -19q-54 102 -177 102q-107 0 -173 -73t-72 -213h305v-46h-305q6 -141 73 -214t173 -73q126 0 180 102z" />
    <glyph glyph-name="uni0405" unicode="&#x405;" horiz-adv-x="555" 
d="M147 20.5q-60 33.5 -91 92.5l50 21q25 -45 71.5 -70.5t104.5 -25.5q72 0 115.5 36t43.5 97q0 41 -23 69t-56 46t-92 42q-66 26 -106 48t-68 59.5t-28 94.5q0 53 27 93.5t74.5 62.5t108.5 22q75 0 129.5 -30t81.5 -86l-52 -19q-21 40 -63 62t-96 22q-67 0 -109.5 -34.5
t-42.5 -91.5q0 -40 22.5 -68t56 -45.5t92.5 -41.5q66 -27 106 -49t68 -59.5t28 -93.5t-27 -98.5t-76.5 -65.5t-113.5 -23q-75 0 -135 33.5z" />
    <glyph glyph-name="uni0406" unicode="&#x406;" horiz-adv-x="267" 
d="M106 0v695h55v-695h-55z" />
    <glyph glyph-name="uni0407" unicode="&#x407;" horiz-adv-x="267" 
d="M106 0v695h55v-695h-55zM27.5 802q-10.5 10 -10.5 25q0 16 10.5 26t24.5 10q15 0 25.5 -10t10.5 -26q0 -15 -10.5 -25t-25.5 -10q-14 0 -24.5 10zM190 802q-10 10 -10 25q0 16 10 26t25 10q14 0 24.5 -10t10.5 -26q0 -15 -10.5 -25t-24.5 -10q-15 0 -25 10z" />
    <glyph glyph-name="uni0408" unicode="&#x408;" horiz-adv-x="460" 
d="M60 49h60q93 0 140 52t47 148v397h-208v49h263v-446q0 -121 -61.5 -185t-180.5 -64h-60v49z" />
    <glyph glyph-name="uni0409" unicode="&#x409;" horiz-adv-x="1046" 
d="M905 349.5q47 -26.5 71 -69.5t24 -92t-24 -92t-71 -69.5t-114 -26.5h-265v646h-329l-30 -465q-7 -98 -46.5 -139.5t-115.5 -41.5v49q52 0 79 30.5t31 102.5l31 513h435v-319h210q67 0 114 -26.5zM872 69q36 20 54 52t18 68q0 35 -18 67t-54 51.5t-87 19.5h-204v-278h204
q51 0 87 20z" />
    <glyph glyph-name="uni040A" unicode="&#x40a;" horiz-adv-x="1098" 
d="M957 349.5q47 -26.5 71 -69.5t24 -92t-24 -92t-71 -69.5t-114 -26.5h-265v327h-417v-327h-55v695h55v-319h417v319h55v-319h210q67 0 114 -26.5zM924 69q36 20 54 52t18 68q0 35 -18 67t-54 51.5t-87 19.5h-204v-278h204q51 0 87 20z" />
    <glyph glyph-name="uni040B" unicode="&#x40b;" horiz-adv-x="780" 
d="M593.5 393q42.5 -23 67 -64.5t24.5 -94.5v-234h-55v227q0 61 -40.5 100t-102.5 39q-64 0 -107.5 -42t-50.5 -110v-214h-56v646h-242v49h541v-49h-243v-328q23 44 69 71t101 27q52 0 94.5 -23z" />
    <glyph glyph-name="uni040C" unicode="&#x40c;" horiz-adv-x="584" 
d="M371 336q35 -33 57.5 -75.5t52.5 -113.5q23 -54 38.5 -86.5t34.5 -60.5h-64q-16 23 -29.5 52t-32.5 75q-28 68 -49.5 108.5t-55.5 68.5t-82 28h-80v-332h-55v695h55v-314h74l125 232q30 54 61 74.5t68 20.5q27 0 55 -10l-11 -49q-25 9 -40 9q-24 0 -44.5 -14.5
t-41.5 -52.5l-120 -213q49 -9 84 -42zM186 771l-19 39l237 117l20 -42z" />
    <glyph glyph-name="uni040E" unicode="&#x40e;" horiz-adv-x="590" 
d="M553 695l-238 -549q-27 -61 -58 -94t-68 -46t-89 -13l-4 50q57 0 97.5 26t73.5 102l-230 524h59l199 -459l199 459h59zM209.5 804.5q-32.5 31.5 -32.5 93.5h44q0 -40 20 -62t54 -22t54.5 22t20.5 62h44q-1 -62 -33.5 -93.5t-85.5 -31.5t-85.5 31.5z" />
    <glyph glyph-name="uni040F" unicode="&#x40f;" horiz-adv-x="722" 
d="M616 695v-695h-230v-179h-50v179h-230v695h55v-646h400v646h55z" />
    <glyph glyph-name="uni0410" unicode="&#x410;" horiz-adv-x="592" 
d="M513 0l-64 186h-309l-63 -186h-56l241 695h68l241 -695h-58zM157 235h275l-138 404z" />
    <glyph glyph-name="uni0411" unicode="&#x411;" horiz-adv-x="626" 
d="M485 349.5q47 -26.5 71 -69.5t24 -92t-24 -92t-71 -69.5t-114 -26.5h-265v695h304v-49h-249v-270h210q67 0 114 -26.5zM452 69q36 20 54 52t18 68q0 35 -18 67t-54 51.5t-87 19.5h-204v-278h204q51 0 87 20z" />
    <glyph glyph-name="uni0412" unicode="&#x412;" horiz-adv-x="608" 
d="M106 695h199q77 0 138 -32.5t61 -133.5q0 -71 -31 -113t-79 -58v-1q51 -14 89.5 -56t38.5 -113q0 -103 -57 -145.5t-155 -42.5h-204v695zM296 378q73 0 112 36.5t39 106.5q0 69 -40.5 96.5t-108.5 27.5h-137v-267h135zM305 49q80 0 119.5 34t39.5 106q0 68 -41.5 103.5
t-120.5 35.5h-141v-279h144z" />
    <glyph glyph-name="uni0413" unicode="&#x413;" horiz-adv-x="534" 
d="M106 0v695h380v-49h-325v-646h-55z" />
    <glyph glyph-name="uni0414" unicode="&#x414;" horiz-adv-x="747" 
d="M681 -179h-50v179h-560v-179h-50v228h60q27 34 42 71.5t19 93.5l31 481h435v-646h73v-228zM553 49v597h-330l-30 -432q-4 -59 -18 -97t-37 -68h415z" />
    <glyph glyph-name="uni0415" unicode="&#x415;" horiz-adv-x="591" 
d="M106 0v695h385v-49h-330v-270h289v-50h-289v-277h358v-49h-413z" />
    <glyph glyph-name="uni0416" unicode="&#x416;" horiz-adv-x="900" 
d="M687 336q35 -33 57.5 -75.5t52.5 -113.5q23 -54 38.5 -86.5t34.5 -60.5h-64q-16 23 -29.5 52t-32.5 75q-28 68 -49.5 108.5t-55.5 68.5t-82 28h-79v-332h-56v332h-79q-48 0 -82 -28t-55.5 -68.5t-49.5 -108.5q-19 -46 -32.5 -75t-29.5 -52h-64q19 28 34.5 60.5t38.5 86.5
q30 71 52.5 113.5t57.5 75.5t84 42l-120 213q-21 38 -41.5 52.5t-44.5 14.5q-15 0 -40 -9l-11 49q28 10 55 10q37 0 68 -20.5t61 -74.5l125 -232h73v314h56v-314h73l125 232q30 54 61 74.5t68 20.5q27 0 55 -10l-11 -49q-25 9 -40 9q-24 0 -44.5 -14.5t-41.5 -52.5
l-120 -213q49 -9 84 -42z" />
    <glyph glyph-name="uni0417" unicode="&#x417;" horiz-adv-x="549" 
d="M121 26.5q-60 39.5 -86 95.5l50 21q22 -45 70 -75t118 -30q42 0 80 17t61.5 50.5t23.5 81.5q0 50 -26.5 83t-68.5 49t-88 16h-95v47h94q71 0 119.5 34t48.5 112q0 39 -21 68.5t-55.5 45t-73.5 15.5q-49 0 -90.5 -25t-63.5 -72l-52 20q28 60 83 94t124 34q56 0 103 -21
t75 -61t28 -93q0 -69 -34 -112.5t-90 -57.5v-1q53 -12 96.5 -54.5t43.5 -120.5q0 -60 -28.5 -105.5t-79.5 -70t-116 -24.5q-90 0 -150 39.5z" />
    <glyph glyph-name="uni0418" unicode="&#x418;" horiz-adv-x="722" 
d="M616 0h-55v603l-400 -603h-55v695h55v-602l399 602h56v-695z" />
    <glyph glyph-name="uni0419" unicode="&#x419;" horiz-adv-x="722" 
d="M616 0h-55v603l-400 -603h-55v695h55v-602l399 602h56v-695zM283.5 804.5q-32.5 31.5 -32.5 93.5h44q0 -40 20 -62t54 -22t54.5 22t20.5 62h44q-1 -62 -33.5 -93.5t-85.5 -31.5t-85.5 31.5z" />
    <glyph glyph-name="uni041A" unicode="&#x41a;" horiz-adv-x="584" 
d="M371 336q35 -33 57.5 -75.5t52.5 -113.5q23 -54 38.5 -86.5t34.5 -60.5h-64q-16 23 -29.5 52t-32.5 75q-28 68 -49.5 108.5t-55.5 68.5t-82 28h-80v-332h-55v695h55v-314h74l125 232q30 54 61 74.5t68 20.5q27 0 55 -10l-11 -49q-25 9 -40 9q-24 0 -44.5 -14.5
t-41.5 -52.5l-120 -213q49 -9 84 -42z" />
    <glyph glyph-name="uni041B" unicode="&#x41b;" horiz-adv-x="687" 
d="M5 49q52 0 79 30.5t31 102.5l31 513h435v-695h-55v646h-329l-30 -465q-7 -98 -46.5 -139.5t-115.5 -41.5v49z" />
    <glyph glyph-name="uni041C" unicode="&#x41c;" horiz-adv-x="834" 
d="M106 0v695h61l249 -458l251 458h61v-695h-55v596l-233 -428h-47l-232 428v-596h-55z" />
    <glyph glyph-name="uni041D" unicode="&#x41d;" horiz-adv-x="739" 
d="M106 0v695h55v-319h417v319h55v-695h-55v327h-417v-327h-55z" />
    <glyph glyph-name="uni041E" unicode="&#x41e;" horiz-adv-x="678" 
d="M133.5 78q-73.5 91 -73.5 270t73.5 269.5t205.5 90.5t206 -90.5t74 -269.5t-74 -270t-206 -91t-205.5 91zM503.5 113.5q58.5 75.5 58.5 234.5t-58.5 234t-164.5 75q-107 0 -165 -75t-58 -234q0 -160 58 -235t165 -75q106 0 164.5 75.5z" />
    <glyph glyph-name="uni041F" unicode="&#x41f;" horiz-adv-x="722" 
d="M106 0v695h510v-695h-55v646h-400v-646h-55z" />
    <glyph glyph-name="uni0420" unicode="&#x420;" horiz-adv-x="562" 
d="M106 695h197q97 0 153.5 -54.5t56.5 -148.5q0 -101 -59 -159t-162 -58h-131v-275h-55v695zM291 324q77 0 121.5 45t44.5 120q0 73 -43 115t-119 42h-134v-322h130z" />
    <glyph glyph-name="uni0421" unicode="&#x421;" horiz-adv-x="639" 
d="M205.5 28.5q-68.5 41.5 -107 122.5t-38.5 197q0 115 38.5 196.5t106.5 122.5t155 41t146 -38.5t84 -95.5l-52 -19q-54 102 -177 102q-111 0 -178 -79t-67 -230q0 -102 31.5 -171.5t87 -104t127.5 -34.5q126 0 180 102l49 -19q-24 -57 -83.5 -95.5t-146.5 -38.5
t-155.5 41.5z" />
    <glyph glyph-name="uni0422" unicode="&#x422;" horiz-adv-x="611" 
d="M274 0v646h-243v49h541v-49h-243v-646h-55z" />
    <glyph glyph-name="uni0423" unicode="&#x423;" horiz-adv-x="590" 
d="M553 695l-238 -549q-27 -61 -58 -94t-68 -46t-89 -13l-4 50q57 0 97.5 26t73.5 102l-230 524h59l199 -459l199 459h59z" />
    <glyph glyph-name="uni0424" unicode="&#x424;" horiz-adv-x="752" 
d="M348 74h-14q-79 0 -143.5 34t-102 96.5t-37.5 143.5t37.5 143.5t102 96.5t143.5 34h14v84h55v-84h15q79 0 143.5 -34t102 -96.5t37.5 -143.5t-37.5 -143.5t-102 -96.5t-143.5 -34h-15v-85h-55v85zM348 123v450h-13q-63 0 -115 -27.5t-82 -78.5t-30 -119t30 -119t82 -78.5
t115 -27.5h13zM417 123q63 0 115 27.5t82 78.5t30 119t-30 119t-82 78.5t-115 27.5h-14v-450h14z" />
    <glyph glyph-name="uni0425" unicode="&#x425;" horiz-adv-x="657" 
d="M601 0h-67l-209 304l-210 -304h-61l240 350l-237 345h67l206 -300l201 300h60l-229 -346z" />
    <glyph glyph-name="uni0426" unicode="&#x426;" horiz-adv-x="727" 
d="M616 49h45v-228h-50v179h-505v695h55v-646h400v646h55v-646z" />
    <glyph glyph-name="uni0427" unicode="&#x427;" horiz-adv-x="594" 
d="M433 379q-22 -45 -68.5 -72.5t-102.5 -27.5q-52 0 -94.5 23t-67 64.5t-24.5 94.5v234h55v-227q0 -61 40.5 -100t102.5 -39q45 0 81.5 22t57 61.5t20.5 89.5v193h55v-695h-55v379z" />
    <glyph glyph-name="uni0428" unicode="&#x428;" horiz-adv-x="1177" 
d="M106 0v695h55v-646h400v646h55v-646h400v646h55v-695h-965z" />
    <glyph glyph-name="uni0429" unicode="&#x429;" horiz-adv-x="1182" 
d="M1071 49h45v-228h-50v179h-960v695h55v-646h400v646h55v-646h400v646h55v-646z" />
    <glyph glyph-name="uni042A" unicode="&#x42a;" horiz-adv-x="740" 
d="M599 349.5q47 -26.5 71 -69.5t24 -92t-24 -92t-71 -69.5t-114 -26.5h-265v646h-208v49h263v-319h210q67 0 114 -26.5zM566 69q36 20 54 52t18 68q0 35 -18 67t-54 51.5t-87 19.5h-204v-278h204q51 0 87 20z" />
    <glyph glyph-name="uni042B" unicode="&#x42b;" horiz-adv-x="827" 
d="M485 349.5q47 -26.5 71 -69.5t24 -92t-24 -92t-71 -69.5t-114 -26.5h-265v695h55v-319h210q67 0 114 -26.5zM452 69q36 20 54 52t18 68q0 35 -18 67t-54 51.5t-87 19.5h-204v-278h204q51 0 87 20zM662 0v695h55v-695h-55z" />
    <glyph glyph-name="uni042C" unicode="&#x42c;" horiz-adv-x="626" 
d="M485 349.5q47 -26.5 71 -69.5t24 -92t-24 -92t-71 -69.5t-114 -26.5h-265v695h55v-319h210q67 0 114 -26.5zM452 69q36 20 54 52t18 68q0 35 -18 67t-54 51.5t-87 19.5h-204v-278h204q51 0 87 20z" />
    <glyph glyph-name="uni042D" unicode="&#x42d;" horiz-adv-x="639" 
d="M434 667q68 -41 106.5 -122.5t38.5 -196.5q0 -116 -38.5 -197t-107 -122.5t-155.5 -41.5t-146.5 38.5t-83.5 95.5l49 19q54 -102 180 -102q106 0 173 73t73 214h-305v46h305q-6 140 -72 213t-173 73q-123 0 -177 -102l-52 19q25 57 84 95.5t146 38.5t155 -41z" />
    <glyph glyph-name="uni042E" unicode="&#x42e;" horiz-adv-x="942" 
d="M809 617.5q74 -90.5 74 -269.5t-74 -270t-206 -91q-128 0 -201.5 85.5t-77.5 254.5h-163v-327h-55v695h55v-319h163q7 165 80 248.5t199 83.5q132 0 206 -90.5zM767.5 113.5q58.5 75.5 58.5 234.5t-58.5 234t-164.5 75q-107 0 -165 -75t-58 -234q0 -160 58 -235t165 -75
q106 0 164.5 75.5z" />
    <glyph glyph-name="uni042F" unicode="&#x42f;" horiz-adv-x="597" 
d="M491 695v-695h-55v301h-62q-51 0 -88.5 -27t-62.5 -65.5t-58 -102.5q-15 -29 -31 -57.5t-31 -48.5h-63q26 37 66 115q37 72 66.5 117t68.5 75q-76 16 -117.5 70t-41.5 121q0 51 25 96t74.5 73t119.5 28h190zM436 646h-136q-52 0 -88 -21t-54.5 -55t-18.5 -72t18.5 -72
t54.5 -55t88 -21h136v296z" />
    <glyph glyph-name="uni0430" unicode="&#x430;" horiz-adv-x="544" 
d="M103 26q-45 39 -45 104q0 78 53 117.5t153 39.5h132v83q0 57 -37.5 94t-94.5 37q-48 0 -85 -25.5t-53 -67.5l-50 15q18 54 68.5 90.5t118.5 36.5q84 0 135.5 -49t51.5 -131v-229q0 -95 22 -141h-57q-16 33 -18 84q-25 -44 -73.5 -70.5t-103.5 -26.5q-72 0 -117 39z
M312 54.5q38 19.5 61 52t23 68.5v70h-131q-152 0 -152 -111q0 -43 33.5 -71t86.5 -28q41 0 79 19.5z" />
    <glyph glyph-name="uni0431" unicode="&#x431;" horiz-adv-x="522" 
d="M419 448q59 -70 59 -195t-59 -195.5t-158 -70.5q-65 0 -114 32t-76 92t-27 142q0 129 18 211.5t66.5 131.5t138.5 62q67 10 101 30t41 64l49 -9q-13 -61 -55.5 -89t-125.5 -42q-71 -10 -109.5 -48t-51.5 -102q56 56 145 56q99 0 158 -70zM379 93q45 58 45 160
q0 101 -45 159t-118 58t-117.5 -57.5t-44.5 -159.5t44.5 -160t117.5 -58t118 58z" />
    <glyph glyph-name="uni0432" unicode="&#x432;" horiz-adv-x="548" 
d="M94 537h204q78 0 120 -39.5t42 -99.5q0 -50 -28.5 -81t-65.5 -42v-1q43 -11 73.5 -44.5t30.5 -83.5q0 -62 -46.5 -104t-133.5 -42h-196v537zM286 294q61 0 90.5 28.5t29.5 70.5q0 40 -28 68.5t-83 28.5h-147v-196h138zM286 47q64 0 96.5 30t32.5 73q0 42 -32.5 71.5
t-96.5 29.5h-138v-204h138z" />
    <glyph glyph-name="uni0433" unicode="&#x433;" horiz-adv-x="476" 
d="M94 0v537h349v-47h-295v-490h-54z" />
    <glyph glyph-name="uni0434" unicode="&#x434;" horiz-adv-x="644" 
d="M579 47v-224h-50v177h-467v-177h-50v224h52q22 27 34.5 55.5t15.5 70.5l26 364h376v-490h63zM463 47v444h-273l-24 -319q-3 -45 -15 -73.5t-32 -51.5h344z" />
    <glyph glyph-name="uni0435" unicode="&#x435;" horiz-adv-x="531" 
d="M483 121q-24 -61 -82 -97.5t-126 -36.5q-69 0 -121.5 35.5t-81 100.5t-28.5 152q0 84 27.5 146t78 95.5t117.5 33.5q63 0 111 -30.5t74.5 -83t26.5 -116.5v-42h-380v-3q0 -109 48.5 -174.5t130.5 -65.5q53 0 96 27t62 75zM156 454.5q-43 -47.5 -54 -129.5h323
q-1 78 -45 127.5t-114 49.5q-67 0 -110 -47.5z" />
    <glyph glyph-name="uni0436" unicode="&#x436;" horiz-adv-x="799" 
d="M607 261q28 -26 46.5 -58t43.5 -86q18 -40 32.5 -67t31.5 -50h-64q-14 17 -25.5 39.5t-27.5 58.5q-24 52 -41.5 81.5t-45 50.5t-66.5 21h-64v-251h-55v251h-64q-39 0 -66.5 -21t-45 -50.5t-41.5 -81.5q-16 -36 -27.5 -58.5t-25.5 -39.5h-64q17 23 31.5 50t32.5 67
q25 54 43.5 86t46.5 58t68 34l-98 157q-17 29 -34.5 39.5t-37.5 10.5q-11 0 -21 -3t-13 -4l-11 45q26 10 48 10q33 0 61.5 -17t54.5 -60l104 -174h59v238h55v-238h59l104 174q26 43 54.5 60t61.5 17q22 0 48 -10l-11 -45q-3 1 -13 4t-21 3q-20 0 -37.5 -10.5t-34.5 -39.5
l-98 -157q40 -8 68 -34z" />
    <glyph glyph-name="uni0437" unicode="&#x437;" horiz-adv-x="502" 
d="M112.5 19q-51.5 32 -72.5 78l49 20q19 -34 58.5 -57.5t95.5 -23.5q54 0 94.5 30t40.5 82q0 53 -45 81t-105 28h-81v39h84q57 0 96 25.5t39 81.5q0 43 -36 70t-86 27q-41 0 -75 -18.5t-52 -52.5l-52 17q23 46 70.5 75t108.5 29q48 0 89 -17.5t65 -49t24 -73.5
q0 -52 -28 -84.5t-75 -44.5v-1q44 -10 80 -42.5t36 -90.5q0 -47 -24.5 -83.5t-68 -56.5t-99.5 -20q-79 0 -130.5 32z" />
    <glyph glyph-name="uni0438" unicode="&#x438;" horiz-adv-x="639" 
d="M544 0h-53v458l-341 -458h-56v537h54v-458l341 458h55v-537z" />
    <glyph glyph-name="uni0439" unicode="&#x439;" horiz-adv-x="639" 
d="M544 0h-53v458l-341 -458h-56v537h54v-458l341 458h55v-537zM234.5 646.5q-32.5 31.5 -32.5 93.5h44q0 -40 20 -62t54 -22t54.5 22t20.5 62h44q-1 -62 -33.5 -93.5t-85.5 -31.5t-85.5 31.5z" />
    <glyph glyph-name="uni043A" unicode="&#x43a;" horiz-adv-x="521" 
d="M329 261q28 -26 46.5 -58t43.5 -86q18 -40 32.5 -67t31.5 -50h-64q-14 17 -25.5 39.5t-27.5 58.5q-24 52 -41.5 81.5t-45 50.5t-66.5 21h-65v-251h-54v537h54v-238h60l104 174q26 43 54.5 60t61.5 17q22 0 48 -10l-11 -45q-3 1 -13 4t-21 3q-20 0 -37.5 -10.5
t-34.5 -39.5l-98 -157q40 -8 68 -34z" />
    <glyph glyph-name="uni043B" unicode="&#x43b;" horiz-adv-x="597" 
d="M9 43q44 0 66.5 23t26.5 77l26 394h375v-537h-54v490h-271l-25 -347q-6 -79 -41 -113t-103 -34v47z" />
    <glyph glyph-name="uni043C" unicode="&#x43c;" horiz-adv-x="711" 
d="M94 0v537h66l195 -351l197 351h64v-537h-54v453l-184 -333h-46l-183 333v-453h-55z" />
    <glyph glyph-name="uni043D" unicode="&#x43d;" horiz-adv-x="639" 
d="M94 0v537h54v-241h343v241h54v-537h-54v249h-343v-249h-54z" />
    <glyph glyph-name="uni043E" unicode="&#x43e;" horiz-adv-x="542" 
d="M104.5 61q-60.5 74 -60.5 208t60.5 207.5t166.5 73.5t166.5 -73.5t60.5 -207.5t-60.5 -208t-166.5 -74t-166.5 74zM397.5 97q45.5 61 45.5 172q0 110 -45.5 171t-126.5 61q-82 0 -127 -61t-45 -171q0 -111 45 -172t127 -61q81 0 126.5 61z" />
    <glyph glyph-name="uni043F" unicode="&#x43f;" horiz-adv-x="618" 
d="M94 0v537h430v-537h-54v490h-322v-490h-54z" />
    <glyph glyph-name="uni0440" unicode="&#x440;" horiz-adv-x="591" 
d="M94 537h54v-112q17 49 62 87t118 38q102 0 160.5 -73t58.5 -208t-58.5 -208.5t-160.5 -73.5q-71 0 -116 37t-64 83v-302h-54v732zM446 96.5q46 61.5 46 172.5t-46 172t-127 61t-126 -61t-45 -172t45 -172.5t126 -61.5t127 61.5z" />
    <glyph glyph-name="uni0441" unicode="&#x441;" horiz-adv-x="499" 
d="M153 21.5q-51 34.5 -80 98.5t-29 149q0 84 29 148t80 98.5t115 34.5q70 0 120.5 -38t65.5 -95l-49 -16q-16 46 -53 73t-86 27q-48 0 -86 -29t-59.5 -81.5t-21.5 -121.5t21.5 -122t59.5 -82t86 -29q51 0 91 26.5t59 72.5l48 -13q-22 -61 -76 -98t-120 -37q-64 0 -115 34.5
z" />
    <glyph glyph-name="uni0442" unicode="&#x442;" horiz-adv-x="524" 
d="M235 0v490h-205v47h464v-47h-205v-490h-54z" />
    <glyph glyph-name="uni0443" unicode="&#x443;" horiz-adv-x="519" 
d="M480 537l-216 -578q-33 -89 -95 -128t-137 -39l-5 51q59 0 110.5 30.5t76.5 98.5l10 27l-214 538h59l182 -465l172 465h57z" />
    <glyph glyph-name="uni0444" unicode="&#x444;" horiz-adv-x="651" 
d="M299 0q-74 5 -132 39t-90.5 93t-32.5 137t32.5 137t90.5 92.5t132 38.5v213h53v-213q74 -5 131.5 -38.5t90 -92.5t32.5 -137t-32.5 -137t-90 -93t-131.5 -39v-195h-53v195zM299 489q-91 -6 -145.5 -63.5t-54.5 -156.5q0 -101 54 -158t146 -63v441zM497 111q54 57 54 158
q0 99 -54.5 156.5t-144.5 63.5v-441q91 6 145 63z" />
    <glyph glyph-name="uni0445" unicode="&#x445;" horiz-adv-x="489" 
d="M458 0h-64l-152 226l-151 -226h-61l182 270l-180 267h64l150 -222l148 222h61l-181 -265z" />
    <glyph glyph-name="uni0446" unicode="&#x446;" horiz-adv-x="624" 
d="M516 47h43v-224h-50v177h-415v537h54v-490h314v490h54v-490z" />
    <glyph glyph-name="uni0447" unicode="&#x447;" horiz-adv-x="503" 
d="M354 272q-24 -36 -64.5 -55t-85.5 -19q-61 0 -105.5 37t-44.5 105v197h54v-190q0 -50 31 -76.5t77 -26.5q35 0 66.5 15t51.5 44.5t20 69.5v164h55v-537h-55v272z" />
    <glyph glyph-name="uni0448" unicode="&#x448;" horiz-adv-x="986" 
d="M94 0v537h54v-490h322v490h54v-490h314v490h53v-537h-797z" />
    <glyph glyph-name="uni0449" unicode="&#x449;" horiz-adv-x="999" 
d="M891 47h44v-224h-50v177h-791v537h54v-490h322v490h54v-490h314v490h53v-490z" />
    <glyph glyph-name="uni044A" unicode="&#x44a;" horiz-adv-x="640" 
d="M508 279q37 -21 56 -55.5t19 -73.5q0 -38 -19 -72.5t-56 -56t-89 -21.5h-227v490h-171v47h225v-237h173q52 0 89 -21zM497.5 78q30.5 31 30.5 72q0 42 -30.5 72.5t-85.5 30.5h-166v-206h166q55 0 85.5 31z" />
    <glyph glyph-name="uni044B" unicode="&#x44b;" horiz-adv-x="707" 
d="M410 279q37 -21 56 -55.5t19 -73.5q0 -38 -19 -72.5t-56 -56t-89 -21.5h-227v537h54v-237h173q52 0 89 -21zM399.5 78q30.5 31 30.5 72q0 42 -30.5 72.5t-85.5 30.5h-166v-206h166q55 0 85.5 31zM556 0v537h54v-537h-54z" />
    <glyph glyph-name="uni044C" unicode="&#x44c;" horiz-adv-x="541" 
d="M410 279q37 -21 56 -55.5t19 -73.5q0 -38 -19 -72.5t-56 -56t-89 -21.5h-227v537h54v-237h173q52 0 89 -21zM399.5 78q30.5 31 30.5 72q0 42 -30.5 72.5t-85.5 30.5h-166v-206h166q55 0 85.5 31z" />
    <glyph glyph-name="uni044D" unicode="&#x44d;" horiz-adv-x="525" 
d="M357 517.5q58 -32.5 91 -96t33 -152.5q0 -90 -33 -153.5t-91 -96t-132 -32.5q-73 0 -125.5 32t-73.5 77l48 20q19 -34 58.5 -57t92.5 -23q85 0 139.5 53.5t60.5 155.5h-254v46h254q-5 101 -60 155.5t-140 54.5q-53 0 -91 -22.5t-57 -56.5l-48 20q21 44 73 76t124 32
q73 0 131 -32.5z" />
    <glyph glyph-name="uni044E" unicode="&#x44e;" horiz-adv-x="788" 
d="M683.5 476.5q60.5 -73.5 60.5 -207.5t-60.5 -208t-166.5 -74q-101 0 -161.5 68t-65.5 192h-142v-247h-54v537h54v-243h143q5 122 65 189t161 67q106 0 166.5 -73.5zM643.5 97q45.5 61 45.5 172q0 110 -45.5 171t-126.5 61q-82 0 -127 -61t-45 -171q0 -111 45 -172
t127 -61q81 0 126.5 61z" />
    <glyph glyph-name="uni044F" unicode="&#x44f;" horiz-adv-x="523" 
d="M428 537v-537h-54v225h-50q-42 0 -73 -20t-52 -49.5t-48 -76.5q-30 -55 -50 -79h-64q22 27 56 88q28 52 51.5 86t54.5 58q-60 15 -92.5 56.5t-32.5 92.5q0 41 21.5 76.5t64 57.5t102.5 22h166zM374 489h-114q-61 0 -95.5 -32t-34.5 -76t34.5 -76t95.5 -32h114v216z" />
    <glyph glyph-name="uni0451" unicode="&#x451;" horiz-adv-x="531" 
d="M483 121q-24 -61 -82 -97.5t-126 -36.5q-69 0 -121.5 35.5t-81 100.5t-28.5 152q0 84 27.5 146t78 95.5t117.5 33.5q63 0 111 -30.5t74.5 -83t26.5 -116.5v-42h-380v-3q0 -109 48.5 -174.5t130.5 -65.5q53 0 96 27t62 75zM156 454.5q-43 -47.5 -54 -129.5h323
q-1 78 -45 127.5t-114 49.5q-67 0 -110 -47.5zM155.5 644q-10.5 10 -10.5 25q0 16 10.5 26t24.5 10q15 0 25.5 -10t10.5 -26q0 -15 -10.5 -25t-25.5 -10q-14 0 -24.5 10zM318 644q-10 10 -10 25q0 16 10 26t25 10q14 0 24.5 -10t10.5 -26q0 -15 -10.5 -25t-24.5 -10
q-15 0 -25 10z" />
    <glyph glyph-name="uni0452" unicode="&#x452;" horiz-adv-x="550" 
d="M430.5 496q51.5 -54 51.5 -158v-363q0 -96 -41.5 -133t-119.5 -37v47q54 0 81 26t27 94v361q0 80 -40 123t-101 43q-38 0 -71 -20t-53.5 -59.5t-20.5 -95.5v-324h-54v653h-62v42h62v55h54v-55h158v-42h-158v-202q16 39 56.5 69t98.5 30q81 0 132.5 -54z" />
    <glyph glyph-name="uni0453" unicode="&#x453;" horiz-adv-x="476" 
d="M94 0v537h349v-47h-295v-490h-54zM123 613l-19 39l237 117l20 -42z" />
    <glyph glyph-name="uni0454" unicode="&#x454;" horiz-adv-x="525" 
d="M499 96q-21 -45 -73.5 -77t-125.5 -32q-74 0 -132 32.5t-91 96t-33 153.5q0 89 33 152.5t91 96t131 32.5q72 0 124 -32t73 -76l-48 -20q-19 34 -57 56.5t-91 22.5q-85 0 -140 -54.5t-60 -155.5h254v-46h-254q6 -102 60.5 -155.5t139.5 -53.5q53 0 92.5 23t58.5 57z" />
    <glyph glyph-name="uni0455" unicode="&#x455;" horiz-adv-x="470" 
d="M115 21.5q-52 34.5 -75 87.5l40 26q22 -45 64 -73t99 -28q51 0 86.5 28t35.5 70q0 32 -18.5 53t-45.5 33.5t-74 28.5q-55 19 -88 35t-56 45.5t-23 75.5q0 67 48 107t127 40q64 0 112 -27.5t70 -71.5l-40 -28q-20 37 -57 58.5t-84 21.5q-53 0 -87 -27t-34 -70
q0 -31 18 -51.5t45.5 -33t73.5 -28.5q55 -19 88 -35t56.5 -46t23.5 -77q0 -43 -23.5 -76.5t-64 -52.5t-88.5 -19q-77 0 -129 34.5z" />
    <glyph glyph-name="uni0456" unicode="&#x456;" horiz-adv-x="242" 
d="M94 0v537h54v-537h-54zM95 688.5q-11 10.5 -11 27.5q0 16 11.5 26.5t26.5 10.5t26.5 -10.5t11.5 -26.5q0 -17 -11 -27.5t-27 -10.5t-27 10.5z" />
    <glyph glyph-name="uni0457" unicode="&#x457;" horiz-adv-x="242" 
d="M94 0v537h54v-537h-54zM15.5 644q-10.5 10 -10.5 25q0 16 10.5 26t24.5 10q15 0 25.5 -10t10.5 -26q0 -15 -10.5 -25t-25.5 -10q-14 0 -24.5 10zM178 644q-10 10 -10 25q0 16 10 26t25 10q14 0 24.5 -10t10.5 -26q0 -15 -10.5 -25t-24.5 -10q-15 0 -25 10z" />
    <glyph glyph-name="uni0458" unicode="&#x458;" horiz-adv-x="244" 
d="M-13 -161q55 0 82 26t27 94v578h53v-575q0 -96 -41.5 -133t-120.5 -37v47zM96 688.5q-11 10.5 -11 27.5q0 16 11.5 26.5t26.5 10.5t26.5 -10.5t11.5 -26.5q0 -17 -11 -27.5t-27 -10.5t-27 10.5z" />
    <glyph glyph-name="uni0459" unicode="&#x459;" horiz-adv-x="896" 
d="M765 279q37 -21 56 -55.5t19 -73.5q0 -38 -19 -72.5t-56 -56t-89 -21.5h-227v490h-271l-25 -347q-6 -79 -41 -113t-103 -34v47q44 0 66.5 23t26.5 77l26 394h375v-237h173q52 0 89 -21zM754.5 78q30.5 31 30.5 72q0 42 -30.5 72.5t-85.5 30.5h-166v-206h166q55 0 85.5 31
z" />
    <glyph glyph-name="uni045A" unicode="&#x45a;" horiz-adv-x="938" 
d="M807 279q37 -21 56 -55.5t19 -73.5q0 -38 -19 -72.5t-56 -56t-89 -21.5h-227v249h-343v-249h-54v537h54v-241h343v241h54v-237h173q52 0 89 -21zM796.5 78q30.5 31 30.5 72q0 42 -30.5 72.5t-85.5 30.5h-166v-206h166q55 0 85.5 31z" />
    <glyph glyph-name="uni045B" unicode="&#x45b;" horiz-adv-x="585" 
d="M438.5 496q51.5 -54 51.5 -155v-341h-53v333q0 80 -40.5 123t-102.5 43q-38 0 -71.5 -20t-54 -59.5t-20.5 -95.5v-324h-54v653h-85v42h85v55h54v-55h135v-42h-135v-201q19 40 59.5 69t97.5 29q82 0 133.5 -54z" />
    <glyph glyph-name="uni045C" unicode="&#x45c;" horiz-adv-x="521" 
d="M329 261q28 -26 46.5 -58t43.5 -86q18 -40 32.5 -67t31.5 -50h-64q-14 17 -25.5 39.5t-27.5 58.5q-24 52 -41.5 81.5t-45 50.5t-66.5 21h-65v-251h-54v537h54v-238h60l104 174q26 43 54.5 60t61.5 17q22 0 48 -10l-11 -45q-3 1 -13 4t-21 3q-20 0 -37.5 -10.5
t-34.5 -39.5l-98 -157q40 -8 68 -34zM150 613l-19 39l237 117l20 -42z" />
    <glyph glyph-name="uni045E" unicode="&#x45e;" horiz-adv-x="519" 
d="M480 537l-216 -578q-33 -89 -95 -128t-137 -39l-5 51q59 0 110.5 30.5t76.5 98.5l10 27l-214 538h59l182 -465l172 465h57zM164.5 646.5q-32.5 31.5 -32.5 93.5h44q0 -40 20 -62t54 -22t54.5 22t20.5 62h44q-1 -62 -33.5 -93.5t-85.5 -31.5t-85.5 31.5z" />
    <glyph glyph-name="uni045F" unicode="&#x45f;" horiz-adv-x="618" 
d="M524 537v-537h-189v-177h-50v177h-191v537h54v-490h322v490h54z" />
    <glyph glyph-name="uni0462" unicode="&#x462;" horiz-adv-x="656" 
d="M515 349.5q47 -26.5 71 -69.5t24 -92t-24 -92t-71 -69.5t-114 -26.5h-265v561h-145v46h145v88h55v-88h161v-46h-161v-185h210q67 0 114 -26.5zM482 69q36 20 54 52t18 68q0 35 -18 67t-54 51.5t-87 19.5h-204v-278h204q51 0 87 20z" />
    <glyph glyph-name="uni0463" unicode="&#x463;" horiz-adv-x="547" 
d="M417 276q37 -21 55.5 -55t18.5 -72q0 -39 -18.5 -73t-55.5 -55t-89 -21h-164v490h-143v47h143v213h53v-213h142v-47h-142v-193h111q52 0 89 -21zM406.5 77.5q29.5 30.5 29.5 71.5q0 40 -29.5 70.5t-83.5 30.5h-106v-203h106q54 0 83.5 30.5z" />
    <glyph glyph-name="uni0472" unicode="&#x472;" horiz-adv-x="678" 
d="M545 617.5q74 -90.5 74 -269.5t-74 -270t-206 -91t-205.5 91t-73.5 270t73.5 269.5t205.5 90.5t206 -90.5zM175 583q-58 -74 -59 -230q17 18 42 28.5t54 10.5q32 0 59 -5t65 -15q42 -10 67 -14.5t56 -4.5q39 0 66 16.5t34 45.5q-12 124 -69 183t-151 59q-106 0 -164 -74z
M502 110.5q58 72.5 60 226.5q-38 -35 -103 -35q-35 0 -65.5 5.5t-66.5 15.5q-36 9 -61 13.5t-52 4.5q-37 0 -63 -18.5t-32 -45.5q12 -122 69 -180.5t151 -58.5q105 0 163 72.5z" />
    <glyph glyph-name="uni0473" unicode="&#x473;" horiz-adv-x="540" 
d="M437.5 476.5q60.5 -73.5 60.5 -207.5t-60.5 -208t-166.5 -74t-166.5 74t-60.5 208t60.5 207.5t166.5 73.5t166.5 -73.5zM145.5 442q-45.5 -59 -46.5 -165q30 28 72 28q25 0 45.5 -4t49.5 -12q35 -8 54 -11.5t43 -3.5q29 0 50 12.5t27 33.5q-10 87 -54 134t-115 47
q-80 0 -125.5 -59zM396 94.5q45 58.5 47 164.5q-29 -27 -80 -27q-45 0 -102 17q-21 5 -42.5 9.5t-42.5 4.5q-27 0 -47 -12t-28 -30q10 -89 54 -137t116 -48q80 0 125 58.5z" />
    <glyph glyph-name="uni0474" unicode="&#x474;" horiz-adv-x="648" 
d="M17 695h61l227 -626l192 527q21 59 45.5 82.5t60.5 23.5q19 0 42 -7l-8 -51q-13 4 -25 4q-21 0 -35 -15t-30 -59l-211 -574h-64z" />
    <glyph glyph-name="uni0475" unicode="&#x475;" horiz-adv-x="580" 
d="M30 537h61l174 -462l146 381q18 48 40.5 67.5t55.5 19.5q16 0 39 -7l-8 -51q-12 4 -22 4q-18 0 -30 -11.5t-26 -45.5l-167 -432h-59z" />
    <glyph glyph-name="uni0490" unicode="&#x490;" horiz-adv-x="534" 
d="M436 820h50v-174h-325v-646h-55v695h330v125z" />
    <glyph glyph-name="uni0491" unicode="&#x491;" horiz-adv-x="476" 
d="M396 655h47v-165h-295v-490h-54v537h302v118z" />
    <glyph glyph-name="uni0492" unicode="&#x492;" horiz-adv-x="534" 
d="M486 646h-325v-275h176v-46h-176v-325h-55v325h-113v46h113v324h380v-49z" />
    <glyph glyph-name="uni0493" unicode="&#x493;" horiz-adv-x="440" 
d="M390 490h-205v-193h118v-42h-118v-255h-54v255h-102v42h102v240h259v-47z" />
    <glyph glyph-name="uni0496" unicode="&#x496;" horiz-adv-x="900" 
d="M892 49v-228h-50v179h-36q-16 23 -29.5 52t-32.5 75q-28 68 -49.5 108.5t-55.5 68.5t-82 28h-79v-332h-56v332h-79q-48 0 -82 -28t-55.5 -68.5t-49.5 -108.5q-19 -46 -32.5 -75t-29.5 -52h-64q19 28 34.5 60.5t38.5 86.5q30 71 52.5 113.5t57.5 75.5t84 42l-120 213
q-21 38 -41.5 52.5t-44.5 14.5q-15 0 -40 -9l-11 49q28 10 55 10q37 0 68 -20.5t61 -74.5l125 -232h73v314h56v-314h73l125 232q30 54 61 74.5t68 20.5q27 0 55 -10l-11 -49q-25 9 -40 9q-24 0 -44.5 -14.5t-41.5 -52.5l-120 -213q49 -10 84 -43t57.5 -75t52.5 -113
q26 -63 44 -98h51z" />
    <glyph glyph-name="uni0497" unicode="&#x497;" horiz-adv-x="799" 
d="M780 47v-224h-50v177h-33q-14 17 -25.5 39.5t-27.5 58.5q-24 52 -41.5 81.5t-45 50.5t-66.5 21h-64v-251h-55v251h-64q-39 0 -66.5 -21t-45 -50.5t-41.5 -81.5q-16 -36 -27.5 -58.5t-25.5 -39.5h-64q17 23 31.5 50t32.5 67q25 54 43.5 86t46.5 58t68 34l-98 157
q-17 29 -34.5 39.5t-37.5 10.5q-11 0 -21 -3t-13 -4l-11 45q26 10 48 10q33 0 61.5 -17t54.5 -60l104 -174h59v238h55v-238h59l104 174q26 43 54.5 60t61.5 17q22 0 48 -10l-11 -45q-3 1 -13 4t-21 3q-20 0 -37.5 -10.5t-34.5 -39.5l-98 -157q39 -8 67.5 -33.5t47.5 -58.5
t43 -86q22 -48 34 -70h49z" />
    <glyph glyph-name="uni0498" unicode="&#x498;" horiz-adv-x="549" 
d="M444.5 53.5q-50.5 -52.5 -133.5 -63.5q-3 -70 -34 -110.5t-109 -40.5v44q49 0 69 27.5t23 76.5q-86 3 -143 42t-82 93l50 21q22 -45 70 -75t118 -30q42 0 80 17t61.5 50.5t23.5 81.5q0 50 -26.5 83t-68.5 49t-88 16h-95v47h94q71 0 119.5 34t48.5 112q0 39 -21 68.5
t-55.5 45t-73.5 15.5q-49 0 -90.5 -25t-63.5 -72l-52 20q28 60 83 94t124 34q56 0 103 -21t75 -61t28 -93q0 -69 -34 -112.5t-90 -57.5v-1q53 -12 96.5 -54.5t43.5 -120.5q0 -81 -50.5 -133.5z" />
    <glyph glyph-name="uni0499" unicode="&#x499;" horiz-adv-x="502" 
d="M391 40q-44 -43 -115 -51q-3 -70 -34 -110t-109 -40v44q49 0 69 27.5t23 76.5q-71 4 -118 35t-67 75l49 20q19 -34 58.5 -57.5t95.5 -23.5q54 0 94.5 30t40.5 82q0 53 -45 81t-105 28h-81v39h84q57 0 96 25.5t39 81.5q0 43 -36 70t-86 27q-41 0 -75 -18.5t-52 -52.5
l-52 17q23 46 70.5 75t108.5 29q48 0 89 -17.5t65 -49t24 -73.5q0 -52 -28 -84.5t-75 -44.5v-1q44 -10 80 -42.5t36 -90.5q0 -64 -44 -107z" />
    <glyph glyph-name="uni049A" unicode="&#x49a;" horiz-adv-x="584" 
d="M578 49v-228h-50v179h-38q-16 23 -29.5 52t-32.5 75q-28 68 -49.5 108.5t-55.5 68.5t-82 28h-80v-332h-55v695h55v-314h74l125 232q30 54 61 74.5t68 20.5q27 0 55 -10l-11 -49q-25 9 -40 9q-24 0 -44.5 -14.5t-41.5 -52.5l-120 -213q49 -10 84 -43t57.5 -75t52.5 -113
q26 -63 44 -98h53z" />
    <glyph glyph-name="uni049B" unicode="&#x49b;" horiz-adv-x="521" 
d="M503 47v-224h-50v177h-34q-14 17 -25.5 39.5t-27.5 58.5q-24 52 -41.5 81.5t-45 50.5t-66.5 21h-65v-251h-54v537h54v-238h60l104 174q26 43 54.5 60t61.5 17q22 0 48 -10l-11 -45q-3 1 -13 4t-21 3q-20 0 -37.5 -10.5t-34.5 -39.5l-98 -157q39 -8 67.5 -33.5t47.5 -58.5
t43 -86q22 -48 34 -70h50z" />
    <glyph glyph-name="uni04A0" unicode="&#x4a0;" horiz-adv-x="698" 
d="M485 336q35 -33 57.5 -75.5t52.5 -113.5q23 -54 38.5 -86.5t34.5 -60.5h-64q-16 23 -29.5 52t-32.5 75q-28 68 -49.5 108.5t-55.5 68.5t-82 28h-80v-332h-55v646h-208v49h263v-314h74l125 232q30 54 61 74.5t68 20.5q27 0 55 -10l-11 -49q-25 9 -40 9q-24 0 -44.5 -14.5
t-41.5 -52.5l-120 -213q49 -9 84 -42z" />
    <glyph glyph-name="uni04A1" unicode="&#x4a1;" horiz-adv-x="609" 
d="M417 261q28 -26 46.5 -58t43.5 -86q18 -40 32.5 -67t31.5 -50h-64q-14 17 -25.5 39.5t-27.5 58.5q-24 52 -41.5 81.5t-45 50.5t-66.5 21h-65v-251h-54v490h-164v47h218v-238h60l104 174q26 43 54.5 60t61.5 17q22 0 48 -10l-11 -45q-3 1 -13 4t-21 3q-20 0 -37.5 -10.5
t-34.5 -39.5l-98 -157q40 -8 68 -34z" />
    <glyph glyph-name="uni04A2" unicode="&#x4a2;" horiz-adv-x="739" 
d="M633 49h54v-228h-50v179h-59v327h-417v-327h-55v695h55v-319h417v319h55v-646z" />
    <glyph glyph-name="uni04A3" unicode="&#x4a3;" horiz-adv-x="639" 
d="M545 47h45v-224h-50v177h-49v249h-343v-249h-54v537h54v-241h343v241h54v-490z" />
    <glyph glyph-name="uni04AA" unicode="&#x4aa;" horiz-adv-x="639" 
d="M514.5 30q-54.5 -38 -133.5 -42q-3 -70 -34 -109.5t-109 -39.5v44q49 0 69.5 28t23.5 77q-80 7 -141 50.5t-95.5 122t-34.5 187.5q0 115 38.5 196.5t106.5 122.5t155 41t146 -38.5t84 -95.5l-52 -19q-54 102 -177 102q-111 0 -178 -79t-67 -230q0 -102 31.5 -171.5
t87 -104t127.5 -34.5q126 0 180 102l49 -19q-22 -53 -76.5 -91z" />
    <glyph glyph-name="uni04AB" unicode="&#x4ab;" horiz-adv-x="499" 
d="M398 31q-47 -36 -106 -43q-3 -69 -34 -109t-109 -40v44q49 0 69.5 28.5t23.5 77.5q-58 7 -102.5 42.5t-70 97t-25.5 140.5q0 84 29 148t80 98.5t115 34.5q70 0 120.5 -38t65.5 -95l-49 -16q-16 46 -53 73t-86 27q-48 0 -86 -29t-59.5 -81.5t-21.5 -121.5t21.5 -122
t59.5 -82t86 -29q51 0 91 26.5t59 72.5l48 -13q-19 -55 -66 -91z" />
    <glyph glyph-name="uni04AE" unicode="&#x4ae;" horiz-adv-x="596" 
d="M270 0v259l-234 436h62l200 -374l200 374h62l-235 -436v-259h-55z" />
    <glyph glyph-name="uni04AF" unicode="&#x4af;" horiz-adv-x="506" 
d="M238 -195v237l-200 495h62l165 -442l165 442h61l-199 -495v-237h-54z" />
    <glyph glyph-name="uni04B0" unicode="&#x4b0;" horiz-adv-x="596" 
d="M325 259v-48h156v-46h-156v-165h-55v165h-157v46h157v48l-234 436h62l200 -374l200 374h62z" />
    <glyph glyph-name="uni04B1" unicode="&#x4b1;" horiz-adv-x="506" 
d="M491 537l-199 -495h155v-42h-155v-195h-54v195h-156v42h156l-200 495h62l165 -442l165 442h61z" />
    <glyph glyph-name="uni04B2" unicode="&#x4b2;" horiz-adv-x="657" 
d="M567 49h53v-228h-50v179h-36l-209 304l-210 -304h-61l240 350l-237 345h67l206 -300l201 300h60l-229 -346z" />
    <glyph glyph-name="uni04B3" unicode="&#x4b3;" horiz-adv-x="489" 
d="M426 47h47v-224h-50v177h-29l-152 226l-151 -226h-61l182 270l-180 267h64l150 -222l148 222h61l-181 -265z" />
    <glyph glyph-name="uni04B6" unicode="&#x4b6;" horiz-adv-x="594" 
d="M538 49v-228h-50v179h-55v379q-22 -45 -68.5 -72.5t-102.5 -27.5q-52 0 -94.5 23t-67 64.5t-24.5 94.5v234h55v-227q0 -61 40.5 -100t102.5 -39q45 0 81.5 22t57 61.5t20.5 89.5v193h55v-646h50z" />
    <glyph glyph-name="uni04B7" unicode="&#x4b7;" horiz-adv-x="503" 
d="M433 47v-224h-50v177h-29v272q-24 -36 -64.5 -55t-85.5 -19q-61 0 -105.5 37t-44.5 105v197h54v-190q0 -50 31 -76.5t77 -26.5q35 0 66.5 15t51.5 44.5t20 69.5v164h55v-490h24z" />
    <glyph glyph-name="uni04BA" unicode="&#x4ba;" horiz-adv-x="600" 
d="M149 316q22 45 68.5 72.5t102.5 27.5q52 0 94.5 -23t67 -64.5t24.5 -94.5v-234h-55v227q0 61 -40.5 100t-102.5 39q-45 0 -81.5 -22t-57 -61.5t-20.5 -89.5v-193h-55v695h55v-379z" />
    <glyph glyph-name="uni04BB" unicode="&#x4bb;" horiz-adv-x="585" 
d="M438.5 496q51.5 -54 51.5 -155v-341h-53v333q0 80 -40.5 123t-102.5 43q-38 0 -71.5 -20t-54 -59.5t-20.5 -95.5v-324h-54v750h54v-298q19 40 59.5 69t97.5 29q82 0 133.5 -54z" />
    <glyph glyph-name="uni04C0" unicode="&#x4c0;" horiz-adv-x="267" 
d="M106 0v695h55v-695h-55z" />
    <glyph glyph-name="uni04C9" unicode="&#x4c9;" horiz-adv-x="739" 
d="M633 49h56l-66 -228h-47l48 179h-46v327h-417v-327h-55v695h55v-319h417v319h55v-646z" />
    <glyph glyph-name="uni04CA" unicode="&#x4ca;" horiz-adv-x="643" 
d="M545 49h58l-66 -228h-47l48 179h-47v249h-343v-249h-54v537h54v-241h343v241h54v-488z" />
    <glyph glyph-name="uni04CF" unicode="&#x4cf;" horiz-adv-x="242" 
d="M94 0v537h54v-537h-54z" />
    <glyph glyph-name="uni04D8" unicode="&#x4d8;" horiz-adv-x="667" 
d="M532.5 617.5q74.5 -90.5 74.5 -265.5q0 -117 -34 -199t-96.5 -124t-146.5 -42q-83 0 -144 39.5t-94 110.5t-33 163v34h492v18q0 153 -59.5 229t-163.5 76q-74 0 -127.5 -36t-79.5 -97l-47 18q34 79 99.5 122.5t153.5 43.5q131 0 205.5 -90.5zM479.5 101.5
q56.5 63.5 68.5 187.5h-434q1 -74 27.5 -131t75 -88.5t113.5 -31.5q93 0 149.5 63.5z" />
    <glyph glyph-name="uni04D9" unicode="&#x4d9;" horiz-adv-x="516" 
d="M364.5 516.5q51.5 -33.5 79.5 -96.5t28 -151t-28 -151.5t-79.5 -97t-120.5 -33.5q-63 0 -112 33.5t-75.5 90.5t-26.5 123v37h387q-1 110 -46 170t-126 60q-54 0 -92.5 -27t-58.5 -74l-50 16q26 63 78 98.5t122 35.5q69 0 120.5 -33.5zM362 84.5q45 49.5 53 141.5h-331
q0 -51 20 -95t56 -70t84 -26q73 0 118 49.5z" />
    <glyph glyph-name="uni04E2" unicode="&#x4e2;" horiz-adv-x="722" 
d="M616 0h-55v603l-400 -603h-55v695h55v-602l399 602h56v-695zM495 854v-43h-252v43h252z" />
    <glyph glyph-name="uni04E3" unicode="&#x4e3;" horiz-adv-x="639" 
d="M544 0h-53v458l-341 -458h-56v537h54v-458l341 458h55v-537zM446 696v-43h-252v43h252z" />
    <glyph glyph-name="uni04E8" unicode="&#x4e8;" horiz-adv-x="678" 
d="M545 617.5q74 -90.5 74 -269.5t-74 -270t-206 -91t-205.5 91t-73.5 270t73.5 269.5t205.5 90.5t206 -90.5zM178 587.5q-58 -69.5 -62 -216.5h446q-4 147 -62.5 216.5t-160.5 69.5q-103 0 -161 -69.5zM499.5 108q58.5 70 62.5 217h-446q4 -147 62 -217t161 -70
q102 0 160.5 70z" />
    <glyph glyph-name="uni04E9" unicode="&#x4e9;" horiz-adv-x="542" 
d="M437.5 476.5q60.5 -73.5 60.5 -207.5t-60.5 -208t-166.5 -74t-166.5 74t-60.5 208t60.5 207.5t166.5 73.5t166.5 -73.5zM148.5 446q-44.5 -55 -49.5 -156h344q-4 100 -49.5 155.5t-122.5 55.5q-78 0 -122.5 -55zM393.5 91.5q45.5 55.5 49.5 156.5h-344
q5 -101 49.5 -156.5t122.5 -55.5q77 0 122.5 55.5z" />
    <glyph glyph-name="uni04EE" unicode="&#x4ee;" horiz-adv-x="590" 
d="M553 695l-238 -549q-27 -61 -58 -94t-68 -46t-89 -13l-4 50q57 0 97.5 26t73.5 102l-230 524h59l199 -459l199 459h59zM421 854v-43h-252v43h252z" />
    <glyph glyph-name="uni04EF" unicode="&#x4ef;" horiz-adv-x="519" 
d="M480 537l-216 -578q-33 -89 -95 -128t-137 -39l-5 51q59 0 110.5 30.5t76.5 98.5l10 27l-214 538h59l182 -465l172 465h57zM376 696v-43h-252v43h252z" />
    <glyph glyph-name="Wgrave" unicode="&#x1e80;" horiz-adv-x="947" 
d="M233 0l-186 695h59l163 -628l169 628h71l169 -628l163 628h59l-186 -695h-70l-170 622l-171 -622h-70zM572 771l-238 114l20 42l237 -117z" />
    <glyph glyph-name="wgrave" unicode="&#x1e81;" horiz-adv-x="833" 
d="M208 0l-167 537h54l145 -470l147 470h63l144 -470l144 470h54l-167 -537h-61l-146 475l-149 -475h-61zM515 613l-238 114l20 42l237 -117z" />
    <glyph glyph-name="Wacute" unicode="&#x1e82;" horiz-adv-x="947" 
d="M233 0l-186 695h59l163 -628l169 628h71l169 -628l163 628h59l-186 -695h-70l-170 622l-171 -622h-70zM358 771l-19 39l237 117l20 -42z" />
    <glyph glyph-name="wacute" unicode="&#x1e83;" horiz-adv-x="833" 
d="M208 0l-167 537h54l145 -470l147 470h63l144 -470l144 470h54l-167 -537h-61l-146 475l-149 -475h-61zM301 613l-19 39l237 117l20 -42z" />
    <glyph glyph-name="Wdieresis" unicode="&#x1e84;" horiz-adv-x="947" 
d="M233 0l-186 695h59l163 -628l169 628h71l169 -628l163 628h59l-186 -695h-70l-170 622l-171 -622h-70zM367.5 802q-10.5 10 -10.5 25q0 16 10.5 26t24.5 10q15 0 25.5 -10t10.5 -26q0 -15 -10.5 -25t-25.5 -10q-14 0 -24.5 10zM530 802q-10 10 -10 25q0 16 10 26t25 10
q14 0 24.5 -10t10.5 -26q0 -15 -10.5 -25t-24.5 -10q-15 0 -25 10z" />
    <glyph glyph-name="wdieresis" unicode="&#x1e85;" horiz-adv-x="833" 
d="M208 0l-167 537h54l145 -470l147 470h63l144 -470l144 470h54l-167 -537h-61l-146 475l-149 -475h-61zM310.5 644q-10.5 10 -10.5 25q0 16 10.5 26t24.5 10q15 0 25.5 -10t10.5 -26q0 -15 -10.5 -25t-25.5 -10q-14 0 -24.5 10zM473 644q-10 10 -10 25q0 16 10 26t25 10
q14 0 24.5 -10t10.5 -26q0 -15 -10.5 -25t-24.5 -10q-15 0 -25 10z" />
    <glyph glyph-name="uni1E9E" unicode="&#x1e9e;" horiz-adv-x="694" 
d="M332.5 13.5q-45.5 26.5 -71.5 75.5l39 31q19 -40 55 -61t76 -21q39 0 72 20t52 57t19 86q0 45 -20.5 82.5t-61.5 60t-99 22.5q-23 0 -40 -10l-22 39l171 193q-32 38 -72 53.5t-91 15.5q-46 0 -86.5 -20.5t-66 -63.5t-25.5 -105v-468h-55v469q0 77 33 131t87 81t117 27
q76 0 136.5 -29.5t94.5 -79.5l-170 -188q73 1 124.5 -28.5t77 -78t25.5 -103.5q0 -63 -26 -112t-72 -75.5t-102 -26.5q-53 0 -98.5 26.5z" />
    <glyph glyph-name="uni1EA0" unicode="&#x1ea0;" horiz-adv-x="592" 
d="M513 0l-64 186h-309l-63 -186h-56l241 695h68l241 -695h-58zM157 235h275l-138 404zM270 -143q-11 10 -11 26t11 26t26 10t25.5 -10t10.5 -26t-10.5 -26t-25.5 -10t-26 10z" />
    <glyph glyph-name="uni1EA1" unicode="&#x1ea1;" horiz-adv-x="544" 
d="M103 26q-45 39 -45 104q0 78 53 117.5t153 39.5h132v83q0 57 -37.5 94t-94.5 37q-48 0 -85 -25.5t-53 -67.5l-50 15q18 54 68.5 90.5t118.5 36.5q84 0 135.5 -49t51.5 -131v-229q0 -95 22 -141h-57q-16 33 -18 84q-25 -44 -73.5 -70.5t-103.5 -26.5q-72 0 -117 39z
M312 54.5q38 19.5 61 52t23 68.5v70h-131q-152 0 -152 -111q0 -43 33.5 -71t86.5 -28q41 0 79 19.5zM257 -143q-11 10 -11 26t11 26t26 10t25.5 -10t10.5 -26t-10.5 -26t-25.5 -10t-26 10z" />
    <glyph glyph-name="uni1EB8" unicode="&#x1eb8;" horiz-adv-x="591" 
d="M106 0v695h385v-49h-330v-270h289v-50h-289v-277h358v-49h-413zM287 -143q-11 10 -11 26t11 26t26 10t25.5 -10t10.5 -26t-10.5 -26t-25.5 -10t-26 10z" />
    <glyph glyph-name="uni1EB9" unicode="&#x1eb9;" horiz-adv-x="531" 
d="M483 121q-24 -61 -82 -97.5t-126 -36.5q-69 0 -121.5 35.5t-81 100.5t-28.5 152q0 84 27.5 146t78 95.5t117.5 33.5q63 0 111 -30.5t74.5 -83t26.5 -116.5v-42h-380v-3q0 -109 48.5 -174.5t130.5 -65.5q53 0 96 27t62 75zM156 454.5q-43 -47.5 -54 -129.5h323
q-1 78 -45 127.5t-114 49.5q-67 0 -110 -47.5zM239 -143q-11 10 -11 26t11 26t26 10t25.5 -10t10.5 -26t-10.5 -26t-25.5 -10t-26 10z" />
    <glyph glyph-name="uni1EBC" unicode="&#x1ebc;" horiz-adv-x="591" 
d="M106 0v695h385v-49h-330v-270h289v-50h-289v-277h358v-49h-413zM177 800q2 30 19.5 49.5t45.5 19.5q19 0 59 -8q32 -7 48 -7q33 0 36 40l40 -8q-3 -32 -22 -52.5t-52 -20.5q-18 0 -61 9q-32 6 -42 6q-16 0 -23 -9t-9 -28z" />
    <glyph glyph-name="uni1EBD" unicode="&#x1ebd;" horiz-adv-x="531" 
d="M483 121q-24 -61 -82 -97.5t-126 -36.5q-69 0 -121.5 35.5t-81 100.5t-28.5 152q0 84 27.5 146t78 95.5t117.5 33.5q63 0 111 -30.5t74.5 -83t26.5 -116.5v-42h-380v-3q0 -109 48.5 -174.5t130.5 -65.5q53 0 96 27t62 75zM156 454.5q-43 -47.5 -54 -129.5h323
q-1 78 -45 127.5t-114 49.5q-67 0 -110 -47.5zM138 642q2 30 19.5 49.5t45.5 19.5q19 0 59 -8q32 -7 48 -7q33 0 36 40l40 -8q-3 -32 -22 -52.5t-52 -20.5q-18 0 -61 9q-32 6 -42 6q-16 0 -23 -9t-9 -28z" />
    <glyph glyph-name="uni1ECA" unicode="&#x1eca;" horiz-adv-x="267" 
d="M106 0v695h55v-695h-55zM108 -143q-11 10 -11 26t11 26t26 10t25.5 -10t10.5 -26t-10.5 -26t-25.5 -10t-26 10z" />
    <glyph glyph-name="uni1ECB" unicode="&#x1ecb;" horiz-adv-x="242" 
d="M94 0v537h54v-537h-54zM95 688.5q-11 10.5 -11 27.5q0 16 11.5 26.5t26.5 10.5t26.5 -10.5t11.5 -26.5q0 -17 -11 -27.5t-27 -10.5t-27 10.5zM96 -143q-11 10 -11 26t11 26t26 10t25.5 -10t10.5 -26t-10.5 -26t-25.5 -10t-26 10z" />
    <glyph glyph-name="uni1ECC" unicode="&#x1ecc;" horiz-adv-x="678" 
d="M133.5 78q-73.5 91 -73.5 270t73.5 269.5t205.5 90.5t206 -90.5t74 -269.5t-74 -270t-206 -91t-205.5 91zM503.5 113.5q58.5 75.5 58.5 234.5t-58.5 234t-164.5 75q-107 0 -165 -75t-58 -234q0 -160 58 -235t165 -75q106 0 164.5 75.5zM314 -143q-11 10 -11 26t11 26
t26 10t25.5 -10t10.5 -26t-10.5 -26t-25.5 -10t-26 10z" />
    <glyph glyph-name="uni1ECD" unicode="&#x1ecd;" horiz-adv-x="542" 
d="M104.5 61q-60.5 74 -60.5 208t60.5 207.5t166.5 73.5t166.5 -73.5t60.5 -207.5t-60.5 -208t-166.5 -74t-166.5 74zM397.5 97q45.5 61 45.5 172q0 110 -45.5 171t-126.5 61q-82 0 -127 -61t-45 -171q0 -111 45 -172t127 -61q81 0 126.5 61zM246 -143q-11 10 -11 26t11 26
t26 10t25.5 -10t10.5 -26t-10.5 -26t-25.5 -10t-26 10z" />
    <glyph glyph-name="uni1EE4" unicode="&#x1ee4;" horiz-adv-x="665" 
d="M161 55q-63 68 -63 198v442h55v-442q0 -97 42 -156t136 -59q95 0 138 59t43 156v442h55v-442q0 -130 -64 -198t-172 -68q-107 0 -170 68zM305 -143q-11 10 -11 26t11 26t26 10t25.5 -10t10.5 -26t-10.5 -26t-25.5 -10t-26 10z" />
    <glyph glyph-name="uni1EE5" unicode="&#x1ee5;" horiz-adv-x="543" 
d="M106.5 36.5q-46.5 49.5 -46.5 126.5v374h53v-366q0 -63 35 -98.5t94 -35.5q40 0 75 20t56.5 58.5t21.5 90.5v331h54v-393q0 -43 6 -82t17 -62h-54q-8 15 -13 39t-6 52q-19 -42 -63.5 -73t-104.5 -31q-78 0 -124.5 49.5zM223 -143q-11 10 -11 26t11 26t26 10t25.5 -10
t10.5 -26t-10.5 -26t-25.5 -10t-26 10z" />
    <glyph glyph-name="Ygrave" unicode="&#x1ef2;" horiz-adv-x="596" 
d="M270 0v259l-234 436h62l200 -374l200 374h62l-235 -436v-259h-55zM397 771l-238 114l20 42l237 -117z" />
    <glyph glyph-name="ygrave" unicode="&#x1ef3;" horiz-adv-x="519" 
d="M480 537l-216 -578q-33 -89 -95 -128t-137 -39l-5 51q59 0 110.5 30.5t76.5 98.5l10 27l-214 538h59l182 -465l172 465h57zM348 613l-238 114l20 42l237 -117z" />
    <glyph glyph-name="uni1EF8" unicode="&#x1ef8;" horiz-adv-x="596" 
d="M270 0v259l-234 436h62l200 -374l200 374h62l-235 -436v-259h-55zM175 800q2 30 19.5 49.5t45.5 19.5q19 0 59 -8q32 -7 48 -7q33 0 36 40l40 -8q-3 -32 -22 -52.5t-52 -20.5q-18 0 -61 9q-32 6 -42 6q-16 0 -23 -9t-9 -28z" />
    <glyph glyph-name="uni1EF9" unicode="&#x1ef9;" horiz-adv-x="519" 
d="M480 537l-216 -578q-33 -89 -95 -128t-137 -39l-5 51q59 0 110.5 30.5t76.5 98.5l10 27l-214 538h59l182 -465l172 465h57zM126 642q2 30 19.5 49.5t45.5 19.5q19 0 59 -8q32 -7 48 -7q33 0 36 40l40 -8q-3 -32 -22 -52.5t-52 -20.5q-18 0 -61 9q-32 6 -42 6
q-16 0 -23 -9t-9 -28z" />
    <glyph glyph-name="uni1F74" unicode="&#x1f74;" horiz-adv-x="585" 
d="M437 333q0 80 -40.5 123t-102.5 43q-38 0 -71.5 -20t-54 -59.5t-20.5 -95.5v-324h-54v417q0 49 -15.5 68t-44.5 19q-14 0 -29 -4v44q26 6 38 6q41 0 66.5 -23t29.5 -75q20 41 62.5 69.5t101.5 28.5q82 0 134.5 -53.5t52.5 -155.5v-536h-53v528zM313 591h-49l-44 179h56z
" />
    <glyph glyph-name="uni1FEF" unicode="&#x1fef;" horiz-adv-x="606" 
d="M354 591h-49l-44 179h56z" />
    <glyph glyph-name="endash" unicode="&#x2013;" horiz-adv-x="641" 
d="M70 309v49h502v-49h-502z" />
    <glyph glyph-name="emdash" unicode="&#x2014;" horiz-adv-x="856" 
d="M70 309v49h717v-49h-717z" />
    <glyph glyph-name="quoteleft" unicode="&#x2018;" horiz-adv-x="230" 
d="M168 726q-28 -14 -47.5 -45t-19.5 -60q0 -9 1 -13q10 7 22 7q15 0 26 -11t11 -28q0 -16 -10.5 -28t-29.5 -12q-30 0 -45.5 21t-15.5 54q0 43 23.5 84t65.5 60z" />
    <glyph glyph-name="quoteright" unicode="&#x2019;" horiz-adv-x="230" 
d="M62 572q28 14 47.5 45t19.5 60q0 9 -1 13q-10 -7 -22 -7q-15 0 -26 11t-11 28q0 16 10.5 28t29.5 12q30 0 45.5 -21t15.5 -54q0 -43 -23.5 -84t-65.5 -60z" />
    <glyph glyph-name="quotesinglbase" unicode="&#x201a;" horiz-adv-x="216" 
d="M54 -14q28 14 47.5 45t19.5 60q0 9 -1 13q-10 -7 -22 -7q-15 0 -26 11t-11 28q0 16 10.5 28t29.5 12q30 0 45.5 -21t15.5 -54q0 -43 -23.5 -84t-65.5 -60z" />
    <glyph glyph-name="quotedblleft" unicode="&#x201c;" horiz-adv-x="371" 
d="M168 726q-28 -14 -47.5 -45t-19.5 -60q0 -9 1 -13q10 7 22 7q15 0 26 -11t11 -28q0 -16 -10.5 -28t-29.5 -12q-30 0 -45.5 21t-15.5 54q0 43 23.5 84t65.5 60zM309 726q-28 -14 -47.5 -45t-19.5 -60q0 -9 1 -13q10 7 22 7q15 0 26 -11t11 -28q0 -16 -10.5 -28t-29.5 -12
q-30 0 -45.5 21t-15.5 54q0 43 23.5 84t65.5 60z" />
    <glyph glyph-name="quotedblright" unicode="&#x201d;" horiz-adv-x="371" 
d="M203 572q28 14 47.5 45t19.5 60q0 9 -1 13q-10 -7 -22 -7q-15 0 -26 11t-11 28q0 16 10.5 28t29.5 12q30 0 45.5 -21t15.5 -54q0 -43 -23.5 -84t-65.5 -60zM62 572q28 14 47.5 45t19.5 60q0 9 -1 13q-10 -7 -22 -7q-15 0 -26 11t-11 28q0 16 10.5 28t29.5 12
q30 0 45.5 -21t15.5 -54q0 -43 -23.5 -84t-65.5 -60z" />
    <glyph glyph-name="quotedblbase" unicode="&#x201e;" horiz-adv-x="355" 
d="M195 -14q28 14 47.5 45t19.5 60q0 9 -1 13q-10 -7 -22 -7q-15 0 -26 11t-11 28q0 16 10.5 28t29.5 12q30 0 45.5 -21t15.5 -54q0 -43 -23.5 -84t-65.5 -60zM54 -14q28 14 47.5 45t19.5 60q0 9 -1 13q-10 -7 -22 -7q-15 0 -26 11t-11 28q0 16 10.5 28t29.5 12
q30 0 45.5 -21t15.5 -54q0 -43 -23.5 -84t-65.5 -60z" />
    <glyph glyph-name="dagger" unicode="&#x2020;" horiz-adv-x="498" 
d="M235 120q-1 86 -3.5 127t-11.5 86q9 26 12.5 70.5t3.5 83.5q-44 -1 -105 -8q-36 -4 -46 -4q-13 0 -19 7t-6 18q0 10 6 17t19 7q18 0 44 -3q53 -6 107 -7q-1 55 -8 120q-3 27 -3 45q0 12 7 18.5t18 6.5q9 0 16 -6.5t7 -18.5q0 -18 -3 -45q-7 -65 -8 -120q57 1 107 7
q27 3 44 3q13 0 19.5 -7t6.5 -18q0 -10 -6.5 -17t-19.5 -7q-8 0 -46 4q-58 7 -105 8q0 -39 4 -83.5t13 -70.5q-10 -45 -12.5 -87.5t-2.5 -125.5l-2 -120h-26z" />
    <glyph glyph-name="daggerdbl" unicode="&#x2021;" horiz-adv-x="558" 
d="M262 -0.5q-7 6.5 -7 18.5q0 18 3 45q7 65 8 120q-54 -1 -107 -7q-25 -3 -44 -3q-13 0 -19 7t-6 17q0 11 6 18t19 7q10 0 46 -4q61 -7 105 -8q0 91 -16 139q16 47 16 138q-44 -1 -105 -8q-36 -4 -46 -4q-13 0 -19 7t-6 18q0 10 6 17t19 7q19 0 44 -3q53 -6 107 -7
q-1 55 -8 120q-3 27 -3 45q0 12 7 18.5t18 6.5q9 0 16 -6.5t7 -18.5q0 -18 -3 -45q-7 -65 -8 -120q57 1 107 7q27 3 44 3q13 0 19.5 -7t6.5 -18q0 -10 -6.5 -17t-19.5 -7q-8 0 -46 4q-58 7 -105 8q0 -92 17 -138q-17 -47 -17 -139q47 1 105 8q38 4 46 4q13 0 19.5 -7
t6.5 -17q0 -11 -6.5 -18t-19.5 -7q-17 0 -44 3q-50 6 -107 7q1 -55 8 -120q3 -27 3 -45q0 -12 -7 -18.5t-16 -6.5q-11 0 -18 6.5z" />
    <glyph glyph-name="bullet" unicode="&#x2022;" horiz-adv-x="226" 
d="M158.5 391.5q17.5 -17.5 17.5 -44.5t-17.5 -44.5t-45.5 -17.5t-45.5 17.5t-17.5 44.5t17.5 44.5t45.5 17.5t45.5 -17.5z" />
    <glyph glyph-name="ellipsis" unicode="&#x2026;" horiz-adv-x="506" 
d="M224 4q-11 11 -11 29q0 17 11 28t28 11t28.5 -11t11.5 -28q0 -18 -11.5 -29t-28.5 -11t-28 11zM380 4q-11 11 -11 29q0 17 11 28t28 11t28.5 -11t11.5 -28q0 -18 -11.5 -29t-28.5 -11t-28 11zM69 4q-11 11 -11 29q0 17 11 28t28 11t28.5 -11t11.5 -28q0 -18 -11.5 -29
t-28.5 -11t-28 11z" />
    <glyph glyph-name="uni202F" unicode="&#x202f;" horiz-adv-x="142" 
 />
    <glyph glyph-name="perthousand" unicode="&#x2030;" horiz-adv-x="1042" 
d="M243.5 654.5q31.5 -46.5 31.5 -133.5t-31.5 -134t-91.5 -47q-59 0 -90 47t-31 134t31 133.5t90 46.5q60 0 91.5 -46.5zM92.5 628q-20.5 -38 -20.5 -107q0 -70 20.5 -107.5t59.5 -37.5q40 0 61 37.5t21 107.5q0 69 -21 107t-61 38q-39 0 -59.5 -38zM230 0h-46l322 695h47z
M673.5 307.5q31.5 -46.5 31.5 -133.5t-31.5 -134t-91.5 -47q-59 0 -90 47t-31 134t31 133.5t90 46.5q60 0 91.5 -46.5zM522.5 281q-20.5 -38 -20.5 -107q0 -70 20.5 -107.5t59.5 -37.5q40 0 61 37.5t21 107.5q0 69 -21 107t-61 38q-39 0 -59.5 -38zM979.5 307.5
q31.5 -46.5 31.5 -133.5t-31.5 -134t-91.5 -47q-59 0 -90 47t-31 134t31 133.5t90 46.5q60 0 91.5 -46.5zM828.5 281q-20.5 -38 -20.5 -107q0 -70 20.5 -107.5t59.5 -37.5q40 0 61 37.5t21 107.5q0 69 -21 107t-61 38q-39 0 -59.5 -38z" />
    <glyph glyph-name="guilsinglleft" unicode="&#x2039;" horiz-adv-x="273" 
d="M172 144l-112 179l112 179l42 -15l-102 -164l102 -164z" />
    <glyph glyph-name="guilsinglright" unicode="&#x203a;" horiz-adv-x="273" 
d="M101 144l-42 15l102 164l-102 164l42 15l112 -179z" />
    <glyph glyph-name="fraction" unicode="&#x2044;" horiz-adv-x="124" 
d="M-76 0h-46l322 695h47z" />
    <glyph glyph-name="Euro" unicode="&#x20ac;" horiz-adv-x="579" 
d="M488 140l49 -17q-17 -55 -63 -95.5t-122 -40.5q-98 0 -156.5 68.5t-73.5 197.5h-82v38h79q-2 36 -2 56q0 35 1 51h-78v38h82q14 132 72.5 202t157.5 70q77 0 121.5 -39t63.5 -97l-50 -17q-40 102 -135 102q-73 0 -117.5 -56.5t-56.5 -164.5h276l-7 -38h-273
q-1 -16 -1 -51q0 -20 2 -56h249l-6 -38h-240q14 -105 58 -160t116 -55q94 0 136 102z" />
    <glyph glyph-name="uni20BD" unicode="&#x20bd;" horiz-adv-x="539" 
d="M172 322v-119h142v-49h-142v-154h-55v154h-92v49h92v119h-92v49h92v324h165q67 0 114 -26.5t70.5 -69t23.5 -91.5q0 -48 -23.5 -90.5t-70.5 -69t-114 -26.5h-110zM172 371h104q51 0 86.5 19.5t53.5 51t18 66.5q0 36 -18 67.5t-53.5 51t-86.5 19.5h-104v-275z" />
    <glyph glyph-name="uni2113" unicode="&#x2113;" horiz-adv-x="387" 
d="M172.5 72q32.5 -26 76.5 -26l-3 -49q-69 0 -114.5 38.5t-45.5 129.5v420q0 56 31 89.5t78 33.5q50 0 79 -33.5t29 -86.5q0 -108 -41.5 -194t-121.5 -169v-57q0 -70 32.5 -96zM228.5 420q31.5 72 31.5 165q0 35 -16.5 56.5t-43.5 21.5t-43.5 -20t-16.5 -54v-308
q57 67 88.5 139z" />
    <glyph glyph-name="uni2116" unicode="&#x2116;" horiz-adv-x="1002" 
d="M711.5 497q-36.5 36 -36.5 88q0 33 17 61.5t45.5 45t62.5 16.5q33 0 61.5 -16.5t45 -45t16.5 -61.5q0 -34 -16.5 -62.5t-45 -45t-61.5 -16.5q-52 0 -88.5 36zM106 0v695h56l399 -602v602h55v-695h-55l-400 603v-603h-55zM861 522.5q25 25.5 25 62.5q0 36 -25 61.5
t-61 25.5q-37 0 -62.5 -25.5t-25.5 -61.5q0 -37 25.5 -62.5t62.5 -25.5q36 0 61 25.5zM690 379v36h218v-36h-218z" />
    <glyph glyph-name="trademark" unicode="&#x2122;" horiz-adv-x="723" 
d="M176 386v272h-96v37h230v-37h-97v-272h-37zM359 386v309h52l90 -191l89 191h53v-309h-37v254l-87 -186h-36l-87 186v-254h-37z" />
    <glyph glyph-name="estimated" unicode="&#x212e;" horiz-adv-x="829" 
d="M236 374v-307q89 -54 204 -54q64 0 125.5 23.5t109 65.5t72.5 95l22 -14q-30 -57 -82 -101.5t-116.5 -69.5t-130.5 -25q-110 0 -196.5 45.5t-135 126.5t-48.5 184q0 106 45.5 189t127 129.5t184.5 46.5q102 0 182.5 -39.5t125.5 -110t45 -160.5v-24h-534zM417 682
q-100 0 -181 -49v-234h358v243q-77 40 -177 40z" />
    <glyph glyph-name="arrowleft" unicode="&#x2190;" horiz-adv-x="882" 
d="M364 41l-287 299l287 300l37 -35l-231 -240h634v-50h-634l231 -239z" />
    <glyph glyph-name="arrowup" unicode="&#x2191;" horiz-adv-x="718" 
d="M334 0v613l-235 -226l-35 36l295 283l294 -283l-34 -36l-235 226v-613h-50z" />
    <glyph glyph-name="arrowright" unicode="&#x2192;" horiz-adv-x="882" 
d="M518 41l-37 35l231 239h-634v50h634l-231 240l37 35l287 -300z" />
    <glyph glyph-name="arrowdown" unicode="&#x2193;" horiz-adv-x="718" 
d="M334 695h50v-613l235 226l34 -36l-294 -283l-295 283l35 36l235 -226v613z" />
    <glyph glyph-name="arrowboth" unicode="&#x2194;" horiz-adv-x="1090" 
d="M726 640l287 -300l-287 -299l-37 35l231 239h-750l231 -239l-37 -35l-287 299l287 300l37 -35l-231 -240h750l-231 240z" />
    <glyph glyph-name="arrowupdn" unicode="&#x2195;" horiz-adv-x="718" 
d="M384 -67l235 226l34 -36l-294 -283l-295 283l35 36l235 -226v735l-235 -226l-35 36l295 283l294 -283l-34 -36l-235 226v-735z" />
    <glyph glyph-name="uni2196" unicode="&#x2196;" horiz-adv-x="684" 
d="M78 124v440h441v-49h-355l447 -448l-36 -35l-447 447v-355h-50z" />
    <glyph glyph-name="uni2197" unicode="&#x2197;" horiz-adv-x="684" 
d="M606 178h-50v355l-447 -447l-36 35l447 448h-355v49h441v-440z" />
    <glyph glyph-name="uni2198" unicode="&#x2198;" horiz-adv-x="684" 
d="M606 518v-440h-441v49h355l-447 448l36 35l447 -447v355h50z" />
    <glyph glyph-name="uni2199" unicode="&#x2199;" horiz-adv-x="684" 
d="M78 452h50v-355l447 447l36 -35l-447 -448h355v-49h-441v440z" />
    <glyph glyph-name="partialdiff" unicode="&#x2202;" horiz-adv-x="510" 
d="M72.5 39q-42.5 52 -42.5 137q0 83 28 137t74.5 79.5t103.5 25.5q51 0 93.5 -23t66.5 -56q9 53 9 129q0 91 -32.5 140t-99.5 49q-35 0 -69.5 -14.5t-63.5 -44.5l-28 38q33 34 76 53t93 19q95 0 137 -68t42 -176q0 -133 -30.5 -241.5t-91.5 -172t-148 -63.5
q-75 0 -117.5 52zM319.5 108q50.5 72 66.5 180q-20 33 -59.5 57.5t-88.5 24.5q-69 0 -111.5 -48t-42.5 -146q0 -61 31 -100.5t79 -39.5q75 0 125.5 72z" />
    <glyph glyph-name="emptyset" unicode="&#x2205;" horiz-adv-x="838" 
d="M754.5 478q25.5 -63 25.5 -132q0 -97 -48.5 -179.5t-131.5 -131t-181 -48.5q-66 0 -127 23t-110 65l-85 -88l-28 28l85 87q-46 50 -71 112.5t-25 131.5q0 98 48.5 181t131.5 132t181 49q66 0 127 -23.5t109 -65.5l87 89l28 -28l-86 -89q45 -50 70.5 -113zM131 235
q21 -53 59 -95l429 441q-41 36 -92.5 55.5t-107.5 19.5q-84 0 -155 -42t-112.5 -113t-41.5 -155q0 -58 21 -111zM574 80.5q71 41.5 112.5 112t41.5 153.5q0 59 -21.5 112.5t-59.5 95.5l-428 -442q41 -35 92.5 -54t107.5 -19q84 0 155 41.5z" />
    <glyph glyph-name="product" unicode="&#x220f;" horiz-adv-x="640" 
d="M609 695v-49h-88v-646h-55v646h-291v-646h-55v646h-89v49h578z" />
    <glyph glyph-name="summation" unicode="&#x2211;" horiz-adv-x="492" 
d="M41 -166v46l200 385l-196 384v46h410v-49h-349l187 -369v-24l-192 -370h368v-49h-428z" />
    <glyph glyph-name="minus" unicode="&#x2212;" horiz-adv-x="560" 
d="M60 324v49h440v-49h-440z" />
    <glyph glyph-name="radical" unicode="&#x221a;" horiz-adv-x="596" 
d="M284 0l-183 494l-88 -22l-8 46l136 32l177 -490l204 648l52 -8l-226 -700h-64z" />
    <glyph glyph-name="infinity" unicode="&#x221e;" horiz-adv-x="684" 
d="M109 264.5q-35 32.5 -35 82.5t35 83t84 33q45 0 80 -24t69 -59q34 35 69 59t80 24q50 0 84.5 -33t34.5 -83t-34.5 -82.5t-84.5 -32.5q-45 0 -80 24t-69 59q-34 -35 -69 -59t-80 -24q-49 0 -84 32.5zM255.5 294.5q26.5 18.5 61.5 52.5q-34 34 -61 53t-60 19
q-32 0 -53.5 -20t-21.5 -52t21.5 -51.5t53.5 -19.5q33 0 59.5 18.5zM541.5 295.5q21.5 19.5 21.5 51.5t-21.5 52t-53.5 20q-33 0 -59 -18.5t-62 -53.5q35 -34 61.5 -52.5t59.5 -18.5q32 0 53.5 19.5z" />
    <glyph glyph-name="integral" unicode="&#x222b;" horiz-adv-x="197" 
d="M-38.5 -192.5q-16.5 15.5 -16.5 35.5q0 17 11 29.5t30 12.5q18 0 27.5 -9.5t9.5 -23.5q0 -10 -4.5 -20t-13.5 -15q23 0 39 23t16 68v635q0 88 32 126.5t76 38.5q28 0 44 -15.5t16 -35.5q0 -17 -11 -29.5t-29 -12.5t-28 9.5t-10 23.5q0 10 4.5 20t13.5 15q-22 0 -38 -23
t-16 -68v-635q0 -87 -32 -126t-76 -39q-28 0 -44.5 15.5z" />
    <glyph glyph-name="approxequal" unicode="&#x2248;" horiz-adv-x="552" 
d="M336.5 416.5q-23.5 8.5 -64.5 26.5q-37 16 -59 24t-43 8q-29 0 -48 -18.5t-19 -49.5h-43q0 48 29 80.5t79 32.5q23 0 48.5 -9t64.5 -26q37 -16 59 -24t42 -8q29 0 48 18.5t19 49.5h43q0 -48 -29 -80.5t-79 -32.5q-24 0 -47.5 8.5zM336.5 237.5q-23.5 8.5 -64.5 26.5
q-37 16 -59 24t-43 8q-29 0 -48 -18.5t-19 -48.5h-43q0 47 29 79.5t79 32.5q23 0 49.5 -9t63.5 -25t59 -24t42 -8q29 0 48 18t19 49h43q0 -48 -29 -80.5t-79 -32.5q-24 0 -47.5 8.5z" />
    <glyph glyph-name="notequal" unicode="&#x2260;" horiz-adv-x="560" 
d="M500 464h-139l-122 -231h261v-49h-287l-74 -139h-40l74 139h-113v49h139l122 231h-261v49h287l74 140h40l-74 -140h113v-49z" />
    <glyph glyph-name="lessequal" unicode="&#x2264;" horiz-adv-x="560" 
d="M500 131l-440 209v46l440 209v-52l-384 -180l384 -180v-52zM60 0v49h440v-49h-440z" />
    <glyph glyph-name="greaterequal" unicode="&#x2265;" horiz-adv-x="560" 
d="M60 131v52l384 180l-384 180v52l440 -209v-46zM500 0h-440v49h440v-49z" />
    <glyph glyph-name="lozenge" unicode="&#x25ca;" horiz-adv-x="539" 
d="M241 0l-193 348l193 347h57l193 -347l-193 -348h-57zM270 49l166 299l-166 299l-167 -299z" />
    <glyph glyph-name="i.loclTRK" horiz-adv-x="242" 
d="M94 0v537h54v-537h-54zM95 688.5q-11 10.5 -11 27.5q0 16 11.5 26.5t26.5 10.5t26.5 -10.5t11.5 -26.5q0 -17 -11 -27.5t-27 -10.5t-27 10.5z" />
    <glyph glyph-name="i.TRK" horiz-adv-x="242" 
d="M94 0v537h54v-537h-54zM95 688.5q-11 10.5 -11 27.5q0 16 11.5 26.5t26.5 10.5t26.5 -10.5t11.5 -26.5q0 -17 -11 -27.5t-27 -10.5t-27 10.5z" />
    <glyph glyph-name="zero.dnom" horiz-adv-x="306" 
d="M243.5 307.5q31.5 -46.5 31.5 -133.5t-31.5 -134t-91.5 -47q-59 0 -90 47t-31 134t31 133.5t90 46.5q60 0 91.5 -46.5zM92.5 281q-20.5 -38 -20.5 -107q0 -70 20.5 -107.5t59.5 -37.5q40 0 61 37.5t21 107.5q0 69 -21 107t-61 38q-39 0 -59.5 -38z" />
    <glyph glyph-name="one.dnom" horiz-adv-x="175" 
d="M94 0v303l-73 -44l-4 37l81 52h35v-348h-39z" />
    <glyph glyph-name="two.dnom" horiz-adv-x="265" 
d="M19 36l118 117q36 36 48.5 56t12.5 45q0 29 -19.5 47t-51.5 18q-26 0 -45 -11t-28 -30l-38 12q12 28 41 46t70 18q52 0 82.5 -27t30.5 -70q0 -33 -15.5 -59.5t-55.5 -66.5l-95 -94h175v-37h-230v36z" />
    <glyph glyph-name="three.dnom" horiz-adv-x="281" 
d="M61.5 13.5q-30.5 20.5 -43.5 51.5l36 14q10 -22 32 -36t54 -14q30 0 52 17.5t22 49.5t-24.5 49t-58.5 17h-39v33h40q32 0 53.5 15t21.5 50q0 26 -19.5 42.5t-48.5 16.5q-26 0 -44.5 -11t-27.5 -30l-38 12q12 28 40.5 46t69.5 18q48 0 78.5 -24t30.5 -65q0 -33 -16 -54
t-43 -28v-1q25 -7 45.5 -28.5t20.5 -57.5q0 -46 -32 -74.5t-83 -28.5q-48 0 -78.5 20.5z" />
    <glyph glyph-name="four.dnom" horiz-adv-x="271" 
d="M173 0v78h-157v33l112 237h40l-109 -235h114v97h38v-97h43v-35h-43v-78h-38z" />
    <glyph glyph-name="five.dnom" horiz-adv-x="284" 
d="M62 13.5q-31 20.5 -44 51.5l36 14q10 -22 31.5 -36t53.5 -14q33 0 55.5 23t22.5 59q0 40 -23 62.5t-58 22.5q-34 0 -59 -19l-31 7l12 164h178v-37h-147l-8 -95q29 13 62 13q49 0 82 -31t33 -87q0 -52 -33.5 -85t-83.5 -33q-48 0 -79 20.5z" />
    <glyph glyph-name="six.dnom" horiz-adv-x="290" 
d="M63 35q-32 42 -32 119q0 95 36 147.5t97 52.5q35 0 59 -16t32 -41l-35 -11q-18 32 -56 32q-42 0 -67 -39t-26 -108q12 24 36.5 38.5t54.5 14.5q47 0 79 -32.5t32 -81.5q0 -50 -33 -83.5t-86 -33.5q-59 0 -91 42zM210 51.5q22 22.5 22 58.5q0 34 -22 57t-55 23t-55 -23
t-22 -57q0 -36 22 -58.5t55 -22.5t55 22.5z" />
    <glyph glyph-name="seven.dnom" horiz-adv-x="236" 
d="M227 348v-34l-137 -314h-41l135 313h-174v35h217z" />
    <glyph glyph-name="eight.dnom" horiz-adv-x="288" 
d="M58 21.5q-34 26.5 -34 71.5q0 31 17.5 52t48.5 33q-58 26 -58 83q0 41 31.5 66t79.5 25q49 0 80 -24.5t31 -66.5q0 -32 -14.5 -51t-44.5 -32q68 -23 68 -85q0 -45 -34 -71.5t-86 -26.5q-51 0 -85 26.5zM197 212.5q19 19.5 19 45.5q0 30 -21 47t-52 17q-29 0 -50.5 -17.5
t-21.5 -46.5q0 -26 19 -45.5t53 -19.5q35 0 54 19.5zM200.5 44q23.5 19 23.5 51q0 29 -22.5 48.5t-58.5 19.5q-34 0 -56.5 -19.5t-22.5 -48.5q0 -32 23 -51t56 -19q34 0 57.5 19z" />
    <glyph glyph-name="nine.dnom" horiz-adv-x="294" 
d="M231 313q32 -42 32 -119q0 -95 -36 -147.5t-97 -52.5q-35 0 -59 16t-32 41l35 11q18 -32 56 -32q42 0 67 39t26 108q-12 -24 -36.5 -38.5t-54.5 -14.5q-47 0 -79 32.5t-32 81.5q0 50 33 83.5t86 33.5q59 0 91 -42zM84 296.5q-22 -22.5 -22 -58.5q0 -34 22 -57t55 -23
t55 23t22 57q0 36 -22 58.5t-55 22.5t-55 -22.5z" />
    <glyph glyph-name="zero.numr" horiz-adv-x="306" 
d="M243.5 654.5q31.5 -46.5 31.5 -133.5t-31.5 -134t-91.5 -47q-59 0 -90 47t-31 134t31 133.5t90 46.5q60 0 91.5 -46.5zM92.5 628q-20.5 -38 -20.5 -107q0 -70 20.5 -107.5t59.5 -37.5q40 0 61 37.5t21 107.5q0 69 -21 107t-61 38q-39 0 -59.5 -38z" />
    <glyph glyph-name="one.numr" horiz-adv-x="175" 
d="M94 347v303l-73 -44l-4 37l81 52h35v-348h-39z" />
    <glyph glyph-name="two.numr" horiz-adv-x="265" 
d="M19 383l118 117q36 36 48.5 56t12.5 45q0 29 -19.5 47t-51.5 18q-26 0 -45 -11t-28 -30l-38 12q12 28 41 46t70 18q52 0 82.5 -27t30.5 -70q0 -33 -15.5 -59.5t-55.5 -66.5l-95 -94h175v-37h-230v36z" />
    <glyph glyph-name="three.numr" horiz-adv-x="281" 
d="M61.5 360.5q-30.5 20.5 -43.5 51.5l36 14q10 -22 32 -36t54 -14q30 0 52 17.5t22 49.5t-24.5 49t-58.5 17h-39v33h40q32 0 53.5 15t21.5 50q0 26 -19.5 42.5t-48.5 16.5q-26 0 -44.5 -11t-27.5 -30l-38 12q12 28 40.5 46t69.5 18q48 0 78.5 -24t30.5 -65q0 -33 -16 -54
t-43 -28v-1q25 -7 45.5 -28.5t20.5 -57.5q0 -46 -32 -74.5t-83 -28.5q-48 0 -78.5 20.5z" />
    <glyph glyph-name="four.numr" horiz-adv-x="271" 
d="M173 347v78h-157v33l112 237h40l-109 -235h114v97h38v-97h43v-35h-43v-78h-38z" />
    <glyph glyph-name="five.numr" horiz-adv-x="284" 
d="M62 360.5q-31 20.5 -44 51.5l36 14q10 -22 31.5 -36t53.5 -14q33 0 55.5 23t22.5 59q0 40 -23 62.5t-58 22.5q-34 0 -59 -19l-31 7l12 164h178v-37h-147l-8 -95q29 13 62 13q49 0 82 -31t33 -87q0 -52 -33.5 -85t-83.5 -33q-48 0 -79 20.5z" />
    <glyph glyph-name="six.numr" horiz-adv-x="290" 
d="M63 382q-32 42 -32 119q0 95 36 147.5t97 52.5q35 0 59 -16t32 -41l-35 -11q-18 32 -56 32q-42 0 -67 -39t-26 -108q12 24 36.5 38.5t54.5 14.5q47 0 79 -32.5t32 -81.5q0 -50 -33 -83.5t-86 -33.5q-59 0 -91 42zM210 398.5q22 22.5 22 58.5q0 34 -22 57t-55 23t-55 -23
t-22 -57q0 -36 22 -58.5t55 -22.5t55 22.5z" />
    <glyph glyph-name="seven.numr" horiz-adv-x="236" 
d="M227 695v-34l-137 -314h-41l135 313h-174v35h217z" />
    <glyph glyph-name="eight.numr" horiz-adv-x="288" 
d="M58 368.5q-34 26.5 -34 71.5q0 31 17.5 52t48.5 33q-58 26 -58 83q0 41 31.5 66t79.5 25q49 0 80 -24.5t31 -66.5q0 -32 -14.5 -51t-44.5 -32q68 -23 68 -85q0 -45 -34 -71.5t-86 -26.5q-51 0 -85 26.5zM197 559.5q19 19.5 19 45.5q0 30 -21 47t-52 17q-29 0 -50.5 -17.5
t-21.5 -46.5q0 -26 19 -45.5t53 -19.5q35 0 54 19.5zM200.5 391q23.5 19 23.5 51q0 29 -22.5 48.5t-58.5 19.5q-34 0 -56.5 -19.5t-22.5 -48.5q0 -32 23 -51t56 -19q34 0 57.5 19z" />
    <glyph glyph-name="nine.numr" horiz-adv-x="294" 
d="M231 660q32 -42 32 -119q0 -95 -36 -147.5t-97 -52.5q-35 0 -59 16t-32 41l35 11q18 -32 56 -32q42 0 67 39t26 108q-12 -24 -36.5 -38.5t-54.5 -14.5q-47 0 -79 32.5t-32 81.5q0 50 33 83.5t86 33.5q59 0 91 -42zM84 643.5q-22 -22.5 -22 -58.5q0 -34 22 -57t55 -23
t55 23t22 57q0 36 -22 58.5t-55 22.5t-55 -22.5z" />
    <glyph glyph-name="caroncomb.alt" 
d="M-268 566h-41l18 184h47z" />
    <glyph glyph-name="uni0307.alt" 
d="M-303 650q-11 10 -11 26t11 26t26 10t25.5 -10t10.5 -26t-10.5 -26t-25.5 -10t-26 10z" />
    <glyph glyph-name="uni0307.case" 
d="M-302 641q-10 10 -10 25t10 25t25 10t25 -10t10 -25t-10 -25t-25 -10t-25 10z" />
    <glyph glyph-name="uni0328.case" 
d="M-274 -45.5q-12 -19.5 -12 -42.5q0 -26 15.5 -40t44.5 -15l-8 -36q-46 1 -71 23.5t-25 61.5q0 26 14 52t32 42h45q-23 -26 -35 -45.5z" />
    <glyph glyph-name="uni0335.case" 
d="M-440 210v46h333v-46h-333z" />
    <glyph glyph-name="uni0336.case" 
d="M-724 219v46h691v-46h-691z" />
    <glyph glyph-name="uni0337.case" 
d="M-419 237v50l284 50v-50z" />
    <glyph glyph-name="uni0338.case" 
d="M-129 733l41 -14l-337 -797l-41 14z" />
    <glyph glyph-name="tonos.case" horiz-adv-x="606" 
d="M243 487l56 208h47l-60 -208h-43z" />
    <glyph glyph-name="brevecombcy" 
d="M-368.5 646.5q-32.5 31.5 -32.5 93.5h44q0 -40 20 -62t54 -22t54.5 22t20.5 62h44q-1 -62 -33.5 -93.5t-85.5 -31.5t-85.5 31.5z" />
    <glyph glyph-name="descendercy" horiz-adv-x="735" 
d="M328 -177v177h-21v47h71v-224h-50z" />
    <glyph glyph-name="tailcy" horiz-adv-x="606" 
d="M262 -179l48 179h-18v49h83l-66 -228h-47z" />
    <glyph glyph-name="descendercy.alt" horiz-adv-x="735" 
d="M296 -117q54 0 73.5 33.5t19.5 91.5h50q0 -79 -29.5 -124t-113.5 -45v44z" />
    <glyph glyph-name="descendercy.case" horiz-adv-x="735" 
d="M328 -179v179h-21v49h71v-228h-50z" />
    </font>
</defs>
</svg>
