<svg width="316" height="365" viewBox="0 0 316 365" fill="none" xmlns="http://www.w3.org/2000/svg"><g filter="url(#filter0_f_117_840)"><path d="M120.633 313.612l103.98-15.289 6.181-62.666-134.119 19.721 23.958 58.234zm4.444 30.225c-7.032 1.034-13.5-.202-19.404-3.708-5.904-3.507-10.235-8.531-12.993-15.073L65.783 259.92l195.903-28.805-7.009 70.121c-.758 7.06-3.46 13.118-8.105 18.175-4.644 5.058-10.483 8.103-17.515 9.137l-103.98 15.289zM53.804 230.803l210.973-31.021-4.444-30.225L49.36 200.578l4.444 30.225zm92.154-106.186c-3.704-25.188 1.939-47.89 16.928-68.106 14.988-20.216 35.041-32.17 60.156-35.864 3.333 22.67-.936 43.368-12.808 62.097-11.871 18.728-28.348 31.444-49.429 38.146l4.667 31.736L286.027 134.9l8.889 60.451c1.222 8.312-.681 15.858-5.708 22.639-5.037 6.793-11.699 10.799-19.987 12.017L58.248 261.028c-8.288 1.218-15.821-.7-22.6-5.756-6.767-5.047-10.76-11.726-11.983-20.038l-8.888-60.45 120.556-17.726-4.667-31.736c-22.118-.351-41.557-7.785-58.317-22.304-16.76-14.519-26.807-33.113-30.14-55.782 25.115-3.693 47.76 1.984 67.933 17.03 20.174 15.047 32.112 35.163 35.816 60.351z" fill="#97DA78"/></g><defs><filter id="filter0_f_117_840" x="-5.223" y=".647" width="320.498" height="363.543" filterUnits="userSpaceOnUse" color-interpolation-filters="sRGB"><feFlood flood-opacity="0" result="BackgroundImageFix"/><feBlend in="SourceGraphic" in2="BackgroundImageFix" result="shape"/><feGaussianBlur stdDeviation="10" result="effect1_foregroundBlur_117_840"/></filter></defs></svg>