<svg width="1440" height="3763" viewBox="0 0 1440 3763" fill="none" xmlns="http://www.w3.org/2000/svg"><path d="M-684.48 615.022L973.685 2273.19M-550.13 480.672L1108.04 2138.84M-415.78 346.322L1242.39 2004.49M-281.43 211.971L1376.74 1870.14M-147.079 77.621L1511.09 1735.79M-12.729-56.73L1645.44 1601.44M121.622-191.079L1779.79 1467.09M255.972-325.43L1914.14 1332.74M390.322-459.78L2048.49 1198.39M523.965-594.837L2182.13 1063.33M-617.305 547.847L1040.86 2206.01M-482.955 413.497L1175.21 2071.66M-348.604 279.147L1309.56 1937.31M-214.254 144.796L1443.91 1802.96M-79.904 10.446L1578.26 1668.61M54.446-123.904L1712.61 1534.26M188.796-258.255L1846.96 1399.91M323.147-392.605L1981.31 1265.56M457.497-526.955L2115.66 1131.21M591.847-661.305L2250.01 996.86M659.022-728.481L2317.19 929.685M925.603-476.043L-466.691 916.25M858.427-543.219L-533.867 849.075M791.251-610.394L-601.043 781.9M1059.95-341.693L-332.341 1050.6M1194.3-207.343L-197.99 1184.95M1328.65-72.991L-63.64 1319.3M1463 61.359L70.711 1453.65M1597.35 195.709L205.061 1588M1731.71 330.06L339.412 1722.35M1866.06 464.41L473.762 1856.7M2000.41 598.76L608.113 1991.05M992.778-408.868L-399.516 983.425M1127.13-274.518L-265.166 1117.78M1261.48-140.167L-130.815 1252.13M1395.83-5.816L3.536 1386.48M1530.18 128.534L137.886 1520.83M1664.53 262.884L272.237 1655.18M1798.88 397.235L406.587 1789.53M1933.23 531.585L540.937 1923.88M2067.58 665.935L675.288 2058.23M2134.76 733.11L742.462 2125.4M2201.93 800.286L809.638 2192.58M2269.1 867.459L876.811 2259.75m-2495.101 229.46L39.872 4147.38M-1483.94 2354.86L174.223 4013.03M-1349.59 2220.51L308.573 3878.68M-1215.24 2086.16L442.923 3744.33M-1080.89 1951.81L577.274 3609.98M-946.542 1817.46L711.624 3475.62M-812.191 1683.11L845.974 3341.27M-677.841 1548.76L980.324 3206.92M-543.491 1414.41L1114.67 3072.57M-409.847 1279.35L1248.32 2937.52m-2799.44-515.48L107.048 4080.2M-1416.77 2287.69L241.398 3945.85M-1282.42 2153.34L375.748 3811.5M-1148.07 2018.98L510.098 3677.15M-1013.72 1884.63L644.449 3542.8M-879.366 1750.28L778.799 3408.45M-745.016 1615.93L913.149 3274.1M-610.666 1481.58L1047.5 3139.75M-476.315 1347.23L1181.85 3005.4M-341.965 1212.88L1316.2 2871.05M-274.79 1145.71L1473.5 2894M972 2270.84L2630.17 3929M1043.33 2211.34L2701.5 3869.5m-1612-1747l1658.17 1658.17M1178 2075l1658.17 1658.17M1242.83 2004.84L2901 3663M1311.5 1940l1658.17 1658.17M1375 1874l1658.17 1658.16M126.14 1532.5l-1392.29 1392.29M260.491 1666.85L-1131.8 3059.14M394.842 1801.2L-997.452 3193.49M529.192 1935.55L-863.101 3327.84M663.542 2069.9L-728.751 3462.19M797.893 2204.25L-594.401 3596.54M1580.29 1700L-8 3274m1440.3-1166.76l-1758 1758M58.965 1465.32L-1333.33 2857.61M193.315 1599.67L-1198.98 2991.96M327.667 1734.02l-1392.297 1392.3M462.017 1868.37l-1392.293 1392.3M596.367 2002.72l-1392.293 1392.3M730.718 2137.07l-1392.294 1392.3M865.068 2271.42l-1392.294 1392.3M1438 1976L45.707 3368.29M1576.48 2097.42l-1835.005 1835M1512.65 2295.59l-1703.999 1704M1484.83 2457.77l-1609.005 1609M1494 2582.94l-1551.002 1551m718.161 1287.68L2319.32 3763.45M526.809 5287.27L2184.97 3629.1M392.458 5152.92L2050.62 3494.75M258.108 5018.57L1916.27 3360.4M123.758 4884.22L1781.92 3226.05M-10.592 4749.87L1647.57 3091.7M-145.65 4616.22l1658.17-1658.16M593.984 5354.44L2252.15 3696.28M459.634 5220.09L2117.8 3561.93M325.283 5085.74L1983.45 3427.58M190.933 4951.39L1849.1 3293.23M56.583 4817.04L1714.75 3158.88M-77.768 4682.69L1580.4 3024.53M-212.118 4548.34L1446.05 2890.18M-279.293 4481.17L1480.37 2721.5m-969.824 955.68l1392.294 1392.3M644.896 3542.83l1392.294 1392.3M779.247 3408.48l1392.293 1392.3M913.597 3274.13l1392.293 1392.3M1047.95 3139.78l1392.29 1392.3M443.371 3744.36L1835.66 5136.65M577.722 3610.01L1970.02 5002.3M712.072 3475.66L2104.37 4867.95M846.422 3341.31L2238.72 4733.6M980.772 3206.96L2373.07 4599.25M1115.12 3072.61l1392.3 1392.29M1182.3 3005.43l1392.29 1392.3M1249.47 2938.26l1392.3 1392.29M1316.65 2871.08l1392.29 1392.3" stroke="#fff" stroke-opacity=".3" stroke-width="2" stroke-dasharray="8 8"/></svg>