<svg width="128" height="142" viewBox="0 0 128 142" fill="none" xmlns="http://www.w3.org/2000/svg"><g filter="url(#filter0_f_117_841)"><path d="M46.665 119.845l40.415-2.572 4.362-23.87-52.13 3.319 7.353 23.123zm.748 11.748c-2.734.174-5.179-.506-7.335-2.039-2.156-1.534-3.66-3.601-4.511-6.201l-8.263-25.867 76.145-4.846-4.916 26.705c-.515 2.687-1.745 4.928-3.689 6.723s-4.283 2.779-7.016 2.953l-40.416 2.572zM23.628 85.925l82.002-5.22-.748-11.748-82.002 5.22.748 11.748zM62.386 48.07c-.623-9.79 2.264-18.33 8.661-25.617 6.397-7.289 14.477-11.243 24.24-11.865.56 8.812-1.736 16.625-6.89 23.44-5.152 6.816-11.883 11.176-20.191 13.081l.785 12.336 46.858-2.983 1.496 23.496c.205 3.231-.765 6.069-2.91 8.513-2.15 2.45-4.835 3.776-8.057 3.981l-82.002 5.22c-3.222.205-6.054-.771-8.496-2.927-2.439-2.153-3.761-4.845-3.967-8.076l-1.495-23.496 46.858-2.983-.785-12.335c-8.483-.836-15.712-4.308-21.688-10.415C28.828 31.333 25.56 23.874 25 15.063c9.762-.621 18.278 2.277 25.548 8.695 7.27 6.419 11.216 14.523 11.839 24.313z" fill="#97DA78"/></g><defs><filter id="filter0_f_117_841" x=".418" y=".589" width="126.954" height="141.03" filterUnits="userSpaceOnUse" color-interpolation-filters="sRGB"><feFlood flood-opacity="0" result="BackgroundImageFix"/><feBlend in="SourceGraphic" in2="BackgroundImageFix" result="shape"/><feGaussianBlur stdDeviation="5" result="effect1_foregroundBlur_117_841"/></filter></defs></svg>