<svg width="131" height="152" viewBox="0 0 131 152" fill="none" xmlns="http://www.w3.org/2000/svg"><g filter="url(#filter0_f_117_842)"><path d="M66.548 129.352l37.174-16.066-3.953-23.94L51.82 110.07l14.728 19.283zm4.67 10.806c-2.514 1.087-5.045 1.272-7.592.556-2.548-.716-4.66-2.154-6.34-4.313l-16.51-21.559 70.038-30.269 4.388 26.798c.422 2.703.021 5.227-1.203 7.573s-3.093 4.062-5.607 5.148l-37.174 16.066zM33.412 105.2l75.425-32.597-4.67-10.806-75.425 32.597 4.67 10.806zm23.702-48.716c-3.891-9.005-4.057-18.017-.495-27.037 3.56-9.02 9.831-15.47 18.81-19.35 3.503 8.104 3.98 16.233 1.43 24.389-2.55 8.155-7.413 14.531-14.59 19.13l4.903 11.346 43.1-18.628 9.34 21.612c1.285 2.972 1.33 5.97.135 8.996-1.197 3.03-3.276 5.186-6.24 6.467l-75.425 32.597c-2.963 1.281-5.959 1.319-8.986.113-3.022-1.203-5.175-3.29-6.46-6.262l-9.34-21.612 43.1-18.627-4.903-11.346c-8.267 2.077-16.244 1.25-23.93-2.482-7.687-3.731-13.282-9.649-16.784-17.753 8.98-3.88 17.974-4.028 26.983-.44 9.01 3.586 15.46 9.882 19.352 18.887z" fill="#97DA78"/></g><defs><filter id="filter0_f_117_842" x=".779" y=".096" width="129.832" height="151.044" filterUnits="userSpaceOnUse" color-interpolation-filters="sRGB"><feFlood flood-opacity="0" result="BackgroundImageFix"/><feBlend in="SourceGraphic" in2="BackgroundImageFix" result="shape"/><feGaussianBlur stdDeviation="5" result="effect1_foregroundBlur_117_842"/></filter></defs></svg>