<svg width="129" height="146" viewBox="0 0 129 146" fill="none" xmlns="http://www.w3.org/2000/svg"><g filter="url(#filter0_f_117_843)"><path d="M37.028 117.771l39.985 6.42 9.527-22.316-51.575-8.28 2.063 24.176zm-1.866 11.623c-2.704-.434-4.938-1.638-6.702-3.61-1.764-1.972-2.774-4.32-3.03-7.044l-2.344-27.053 75.334 12.095-10.695 24.96c-1.096 2.507-2.79 4.421-5.083 5.742-2.292 1.32-4.79 1.764-7.495 1.33l-39.985-6.42zM22.055 79.599l81.129 13.026 1.866-11.623-81.13-13.026-1.866 11.623zm46.163-28.356c1.555-9.686 6.257-17.376 14.106-23.07 7.85-5.695 16.603-7.767 26.262-6.217-1.4 8.718-5.366 15.83-11.897 21.34-6.532 5.508-14.06 8.274-22.583 8.296l-1.96 12.204 46.36 7.444-3.732 23.246c-.514 3.196-2.087 5.749-4.72 7.659-2.637 1.914-5.549 2.614-8.737 2.103L20.188 91.222c-3.187-.512-5.733-2.09-7.64-4.732-1.902-2.638-2.597-5.556-2.083-8.752l3.732-23.246 46.36 7.443 1.959-12.204c-8.088-2.69-14.372-7.672-18.85-14.949-4.48-7.277-6.02-15.273-4.62-23.99 9.659 1.55 17.324 6.258 22.996 14.124 5.672 7.865 7.73 16.641 6.176 26.327z" fill="#97DA78"/></g><defs><filter id="filter0_f_117_843" x=".301" y=".791" width="128.205" height="145.183" filterUnits="userSpaceOnUse" color-interpolation-filters="sRGB"><feFlood flood-opacity="0" result="BackgroundImageFix"/><feBlend in="SourceGraphic" in2="BackgroundImageFix" result="shape"/><feGaussianBlur stdDeviation="5" result="effect1_foregroundBlur_117_843"/></filter></defs></svg>