<svg width="1440" height="3245" viewBox="0 0 1440 3245" fill="none" xmlns="http://www.w3.org/2000/svg"><g filter="url(#filter0_f_117_836)"><path d="M55.862 248.07l76.63 45.494 37.555-37.957-98.842-58.681-15.343 51.144zm-13.225 22.275c-5.182-3.077-8.78-7.347-10.794-12.811-2.014-5.463-2.18-11.085-.5-16.866l17.095-57.259 144.376 85.714-42.084 42.423c-4.271 4.243-9.287 6.788-15.048 7.636-5.76.848-11.232-.266-16.414-3.343l-76.63-45.494zM56.11 157.838l155.482 92.307 13.224-22.276-155.481-92.307-13.225 22.276zm117.414-20.672c11.02-18.563 26.866-30.495 47.537-35.797 20.671-5.301 40.262-2.458 58.771 8.531-9.918 16.707-23.789 28.054-41.613 34.041-17.824 5.988-35.467 5.556-52.928-1.296l-13.885 23.389 88.846 52.747-26.448 44.55c-3.637 6.126-8.922 10.078-15.856 11.856-6.945 1.782-13.472.859-19.58-2.767L42.885 180.113c-6.108-3.627-10.043-8.915-11.805-15.866-1.758-6.938-.82-13.47 2.817-19.596l26.45-44.55 88.846 52.746 13.886-23.388c-14.376-12.05-23.202-27.332-26.48-45.847-3.277-18.515.044-36.126 9.962-52.832 18.51 10.989 30.386 26.826 35.629 47.513 5.242 20.686 2.353 40.31-8.667 58.873z" fill="#97DA78"/></g><g filter="url(#filter1_f_117_836)"><path d="M1317.58 765.671l53.52-49.129-20.8-38.237-69.04 63.37 36.32 23.996zm14.28 15.559c-3.62 3.322-7.8 5.128-12.54 5.416-4.73.288-9.16-.903-13.28-3.573l-40.68-26.802 100.84-92.562 23.23 42.822c2.31 4.332 3.11 8.845 2.42 13.541-.69 4.697-2.85 8.706-6.47 12.029l-53.52 49.129zm-84.66-36.957l108.6-99.682-14.28-15.559-108.6 99.682 14.28 15.559zm11.46-96.516c-11.9-12.966-17.5-28.14-16.78-45.522.72-17.383 7.55-32.008 20.48-43.875 10.71 11.669 16.3 25.164 16.79 40.486.49 15.321-4 28.992-13.45 41.012l14.99 16.337 62.06-56.961 28.56 31.116c3.93 4.279 5.77 9.333 5.53 15.164-.24 5.841-2.49 10.719-6.76 14.635l-108.6 99.682c-4.27 3.916-9.32 5.745-15.16 5.487-5.83-.258-10.71-2.526-14.63-6.805l-28.57-31.117 62.06-56.961-14.99-16.336c-12.79 8.39-26.79 11.689-42.02 9.896-15.22-1.793-28.19-8.524-38.9-20.193 12.93-11.867 28.08-17.416 45.46-16.647 17.38.769 32.03 7.636 43.93 20.602z" fill="#97DA78"/></g><g filter="url(#filter2_f_117_836)"><path d="M1340.58 2624.67l53.52-49.13-20.8-38.23-69.04 63.36 36.32 24zm14.28 15.56c-3.62 3.32-7.8 5.13-12.54 5.42-4.73.28-9.16-.91-13.28-3.58l-40.68-26.8 100.84-92.56 23.23 42.82c2.31 4.33 3.11 8.85 2.42 13.54-.69 4.7-2.85 8.71-6.47 12.03l-53.52 49.13zm-84.66-36.96l108.6-99.68-14.28-15.56-108.6 99.68 14.28 15.56zm11.46-96.51c-11.9-12.97-17.5-28.14-16.78-45.53.72-17.38 7.55-32 20.48-43.87 10.71 11.67 16.3 25.16 16.79 40.49.49 15.32-4 28.99-13.45 41.01l14.99 16.33 62.06-56.96 28.56 31.12c3.93 4.28 5.77 9.33 5.53 15.16-.24 5.84-2.49 10.72-6.76 14.64l-108.6 99.68c-4.27 3.92-9.32 5.75-15.16 5.49-5.83-.26-10.71-2.53-14.63-6.81l-28.57-31.11 62.06-56.97-14.99-16.33c-12.79 8.39-26.79 11.69-42.02 9.89-15.22-1.79-28.19-8.52-38.9-20.19 12.93-11.86 28.08-17.41 45.46-16.64 17.38.76 32.03 7.63 43.93 20.6z" fill="#97DA78"/></g><g filter="url(#filter3_f_117_836)"><path d="M120.633 1340.61l103.98-15.29 6.181-62.66-134.119 19.72 23.958 58.23zm4.444 30.23c-7.032 1.03-13.5-.21-19.404-3.71-5.904-3.51-10.235-8.53-12.993-15.07l-26.897-65.14 195.903-28.8-7.009 70.12c-.758 7.06-3.46 13.11-8.105 18.17-4.644 5.06-10.483 8.1-17.515 9.14l-103.98 15.29zM53.804 1257.8l210.973-31.02-4.444-30.22-210.973 31.02 4.444 30.22zm92.154-106.18c-3.704-25.19 1.939-47.89 16.928-68.11 14.988-20.22 35.041-32.17 60.156-35.86 3.333 22.67-.936 43.36-12.808 62.09-11.871 18.73-28.348 31.45-49.429 38.15l4.667 31.74 120.555-17.73 8.889 60.45c1.222 8.31-.681 15.86-5.708 22.64-5.037 6.79-11.699 10.8-19.987 12.02l-210.973 31.02c-8.288 1.22-15.821-.7-22.6-5.76-6.767-5.04-10.76-11.72-11.983-20.04l-8.888-60.45 120.556-17.72-4.667-31.74c-22.118-.35-41.557-7.78-58.317-22.3-16.76-14.52-26.807-33.11-30.14-55.78 25.115-3.7 47.76 1.98 67.933 17.03 20.174 15.04 32.112 35.16 35.816 60.35z" fill="#97DA78"/></g><g filter="url(#filter4_f_117_836)"><path d="M1328.66 307.845l40.42-2.572 4.36-23.869-52.13 3.318 7.35 23.123zm.75 11.748c-2.73.174-5.18-.506-7.33-2.039-2.16-1.534-3.66-3.601-4.51-6.201l-8.27-25.867 76.15-4.846-4.92 26.705c-.51 2.687-1.74 4.928-3.69 6.723-1.94 1.795-4.28 2.779-7.01 2.953l-40.42 2.572zm-23.78-45.668l82-5.22-.75-11.748-82 5.22.75 11.748zm38.75-37.854c-.62-9.79 2.27-18.329 8.67-25.617 6.39-7.289 14.47-11.243 24.24-11.865.56 8.812-1.74 16.625-6.89 23.44-5.16 6.816-11.89 11.176-20.2 13.081l.79 12.336 46.86-2.983 1.49 23.496c.21 3.231-.76 6.069-2.91 8.513-2.15 2.449-4.83 3.776-8.05 3.981l-82.01 5.22c-3.22.205-6.05-.771-8.49-2.927-2.44-2.153-3.76-4.845-3.97-8.076l-1.49-23.496 46.86-2.983-.79-12.335c-8.48-.836-15.71-4.308-21.69-10.415-5.97-6.107-9.24-13.567-9.8-22.378 9.76-.621 18.28 2.277 25.55 8.695s11.21 14.523 11.83 24.313z" fill="#97DA78"/></g><g filter="url(#filter5_f_117_836)"><path d="M1144.55 1690.35l37.17-16.06-3.95-23.94-47.95 20.72 14.73 19.28zm4.67 10.81c-2.52 1.08-5.05 1.27-7.59.55-2.55-.71-4.66-2.15-6.34-4.31l-16.51-21.56 70.03-30.27 4.39 26.8c.42 2.7.02 5.23-1.2 7.57-1.22 2.35-3.09 4.07-5.61 5.15l-37.17 16.07zm-37.81-34.96l75.43-32.6-4.67-10.8-75.43 32.59 4.67 10.81zm23.7-48.72c-3.89-9-4.05-18.01-.49-27.03 3.56-9.02 9.83-15.47 18.81-19.35 3.5 8.1 3.98 16.23 1.43 24.39-2.55 8.15-7.41 14.53-14.59 19.13l4.9 11.34 43.1-18.63 9.34 21.62c1.29 2.97 1.33 5.97.14 8.99-1.2 3.03-3.28 5.19-6.24 6.47l-75.43 32.6c-2.96 1.28-5.96 1.31-8.98.11-3.03-1.2-5.18-3.29-6.46-6.26l-9.34-21.61 43.1-18.63-4.91-11.35c-8.26 2.08-16.24 1.25-23.93-2.48-7.68-3.73-13.28-9.65-16.78-17.75 8.98-3.88 17.97-4.03 26.98-.44 9.01 3.58 15.46 9.88 19.35 18.88z" fill="#97DA78"/></g><g filter="url(#filter6_f_117_836)"><path d="M50.028 3216.77l39.985 6.42 9.527-22.31-51.575-8.29 2.063 24.18zm-1.866 11.62c-2.704-.43-4.938-1.63-6.702-3.61-1.764-1.97-2.774-4.32-3.03-7.04l-2.344-27.05 75.334 12.09-10.695 24.96c-1.096 2.51-2.79 4.42-5.083 5.74-2.292 1.32-4.79 1.77-7.495 1.33l-39.985-6.42zm-13.108-49.79l81.13 13.02 1.866-11.62-81.13-13.02-1.866 11.62zm46.164-28.36c1.555-9.68 6.257-17.37 14.106-23.07 7.85-5.69 16.603-7.76 26.262-6.21-1.4 8.71-5.366 15.83-11.897 21.34-6.532 5.5-14.06 8.27-22.583 8.29l-1.96 12.21 46.36 7.44-3.732 23.25c-.514 3.19-2.087 5.75-4.72 7.66-2.637 1.91-5.549 2.61-8.737 2.1l-81.129-13.03c-3.187-.51-5.733-2.09-7.64-4.73-1.902-2.64-2.596-5.56-2.083-8.75l3.732-23.25 46.36 7.45 1.959-12.21c-8.088-2.69-14.372-7.67-18.85-14.95-4.48-7.27-6.02-15.27-4.62-23.99 9.659 1.55 17.324 6.26 22.996 14.13 5.672 7.86 7.73 16.64 6.176 26.32z" fill="#97DA78"/></g><defs><filter id="filter0_f_117_836" x=".196" y=".78" width="309.635" height="348.677" filterUnits="userSpaceOnUse" color-interpolation-filters="sRGB"><feFlood flood-opacity="0" result="BackgroundImageFix"/><feBlend in="SourceGraphic" in2="BackgroundImageFix" result="shape"/><feGaussianBlur stdDeviation="15" result="effect1_foregroundBlur_117_836"/></filter><filter id="filter1_f_117_836" x="1149.27" y="538.36" width="262.821" height="268.327" filterUnits="userSpaceOnUse" color-interpolation-filters="sRGB"><feFlood flood-opacity="0" result="BackgroundImageFix"/><feBlend in="SourceGraphic" in2="BackgroundImageFix" result="shape"/><feGaussianBlur stdDeviation="10" result="effect1_foregroundBlur_117_836"/></filter><filter id="filter2_f_117_836" x="1172.27" y="2397.36" width="262.821" height="268.327" filterUnits="userSpaceOnUse" color-interpolation-filters="sRGB"><feFlood flood-opacity="0" result="BackgroundImageFix"/><feBlend in="SourceGraphic" in2="BackgroundImageFix" result="shape"/><feGaussianBlur stdDeviation="10" result="effect1_foregroundBlur_117_836"/></filter><filter id="filter3_f_117_836" x="-5.223" y="1027.65" width="320.498" height="363.543" filterUnits="userSpaceOnUse" color-interpolation-filters="sRGB"><feFlood flood-opacity="0" result="BackgroundImageFix"/><feBlend in="SourceGraphic" in2="BackgroundImageFix" result="shape"/><feGaussianBlur stdDeviation="10" result="effect1_foregroundBlur_117_836"/></filter><filter id="filter4_f_117_836" x="1282.42" y="188.589" width="126.954" height="141.03" filterUnits="userSpaceOnUse" color-interpolation-filters="sRGB"><feFlood flood-opacity="0" result="BackgroundImageFix"/><feBlend in="SourceGraphic" in2="BackgroundImageFix" result="shape"/><feGaussianBlur stdDeviation="5" result="effect1_foregroundBlur_117_836"/></filter><filter id="filter5_f_117_836" x="1078.78" y="1561.1" width="129.832" height="151.044" filterUnits="userSpaceOnUse" color-interpolation-filters="sRGB"><feFlood flood-opacity="0" result="BackgroundImageFix"/><feBlend in="SourceGraphic" in2="BackgroundImageFix" result="shape"/><feGaussianBlur stdDeviation="5" result="effect1_foregroundBlur_117_836"/></filter><filter id="filter6_f_117_836" x="13.301" y="3099.79" width="128.205" height="145.183" filterUnits="userSpaceOnUse" color-interpolation-filters="sRGB"><feFlood flood-opacity="0" result="BackgroundImageFix"/><feBlend in="SourceGraphic" in2="BackgroundImageFix" result="shape"/><feGaussianBlur stdDeviation="5" result="effect1_foregroundBlur_117_836"/></filter></defs></svg>