<svg width="310" height="350" viewBox="0 0 310 350" fill="none" xmlns="http://www.w3.org/2000/svg"><g filter="url(#filter0_f_117_837)"><path d="M55.862 248.07l76.63 45.494 37.555-37.957-98.842-58.681-15.343 51.144zm-13.225 22.275c-5.182-3.077-8.78-7.347-10.794-12.811-2.014-5.463-2.18-11.085-.5-16.866l17.095-57.259 144.376 85.714-42.084 42.423c-4.271 4.243-9.287 6.788-15.048 7.636-5.76.848-11.232-.266-16.414-3.343l-76.63-45.494zM56.11 157.838l155.482 92.307 13.224-22.276-155.481-92.307-13.225 22.276zm117.414-20.672c11.02-18.563 26.866-30.495 47.537-35.797 20.671-5.301 40.262-2.458 58.771 8.531-9.918 16.707-23.789 28.054-41.613 34.041-17.824 5.988-35.467 5.556-52.928-1.296l-13.885 23.389 88.846 52.747-26.448 44.55c-3.637 6.126-8.922 10.078-15.856 11.856-6.945 1.782-13.472.859-19.58-2.767L42.885 180.113c-6.108-3.627-10.043-8.915-11.805-15.866-1.758-6.938-.82-13.47 2.817-19.596l26.45-44.55 88.846 52.746 13.886-23.388c-14.376-12.05-23.202-27.332-26.48-45.847-3.277-18.515.044-36.126 9.962-52.832 18.51 10.989 30.386 26.826 35.629 47.513 5.242 20.686 2.353 40.31-8.667 58.873z" fill="#97DA78"/></g><defs><filter id="filter0_f_117_837" x=".196" y=".78" width="309.635" height="348.677" filterUnits="userSpaceOnUse" color-interpolation-filters="sRGB"><feFlood flood-opacity="0" result="BackgroundImageFix"/><feBlend in="SourceGraphic" in2="BackgroundImageFix" result="shape"/><feGaussianBlur stdDeviation="15" result="effect1_foregroundBlur_117_837"/></filter></defs></svg>