<svg width="264" height="269" viewBox="0 0 264 269" fill="none" xmlns="http://www.w3.org/2000/svg"><g filter="url(#filter0_f_117_838)"><path d="M168.581 227.671l53.524-49.129-20.805-38.237-69.038 63.37 36.319 23.996zm14.281 15.559c-3.62 3.322-7.799 5.128-12.537 5.416-4.738.288-9.166-.903-13.284-3.573l-40.681-26.802 100.842-92.562 23.227 42.822c2.308 4.332 3.116 8.845 2.425 13.541-.692 4.697-2.848 8.706-6.468 12.029l-53.524 49.129zm-84.661-36.957l108.598-99.682-14.281-15.559L83.92 190.714l14.28 15.559zm11.456-96.516c-11.9-12.966-17.491-28.14-16.772-45.522.72-17.383 7.543-32.008 20.471-43.875 10.711 11.67 16.309 25.164 16.795 40.486.485 15.32-3.998 28.992-13.451 41.012l14.995 16.337 62.056-56.961 28.562 31.116c3.928 4.279 5.771 9.333 5.529 15.164-.241 5.841-2.495 10.719-6.762 14.635l-108.598 99.682c-4.266 3.916-9.32 5.745-15.16 5.487-5.83-.258-10.708-2.526-14.635-6.805l-28.562-31.117 62.056-56.961-14.995-16.336c-12.784 8.39-26.789 11.689-42.012 9.896-15.224-1.793-28.191-8.524-38.902-20.193C33.2 93.935 48.355 88.386 65.735 89.155c17.38.77 32.021 7.636 43.922 20.602z" fill="#97DA78"/></g><defs><filter id="filter0_f_117_838" x=".272" y=".36" width="262.821" height="268.327" filterUnits="userSpaceOnUse" color-interpolation-filters="sRGB"><feFlood flood-opacity="0" result="BackgroundImageFix"/><feBlend in="SourceGraphic" in2="BackgroundImageFix" result="shape"/><feGaussianBlur stdDeviation="10" result="effect1_foregroundBlur_117_838"/></filter></defs></svg>