<svg width="882" height="119" viewBox="0 0 882 119" fill="none" xmlns="http://www.w3.org/2000/svg"><path d="M174.323 4.886c10.205-1.09 20.704-1.977 31.431-2.704 5.364-.35 10.781-.753 16.251-.955 5.47-.175 10.981-.363 16.532-.552 11.101-.31 22.35-.511 33.678-.659 11.329-.067 22.725.094 34.134.175 45.636.242 91.285 1.978 132.748.753C451.536.5 464.108.46 476.775.352c6.339 0 12.693-.013 19.073-.027 6.38-.026 12.773.23 19.193.35 12.827.337 25.72.754 38.641 1.238 12.92.592 25.854 1.44 38.788 2.247 6.473.43 12.933.847 19.393 1.278 6.461.498 12.908 1.09 19.341 1.655 12.88 1.17 25.72 2.34 38.507 3.511 12.76 1.426 25.453 2.853 38.039 4.252 6.299.726 12.573 1.44 18.805 2.166 6.233.82 12.439 1.628 18.605 2.435-.441 3.43-9.296 7.507-1.311 10.306 32.141 9.458 31.151 16.32 30.215 23.18-.468 3.432-24.463-3.215-16.773 1.292-12.225-1.587-28.569-3.363-38.868-3.753-10.312-.31-14.525.511-2.501 3.632 3.879 2.126 14.031 3.525 24.169 5.059 10.138 1.547 20.237 3.31 23.955 6.418 7.423 6.215-9.483 9.229-2.087 15.445 8.106.968 24.236 3.404 32.315 4.601 7.543 4.628-9.537 9.095-1.485 10.292 5.912 1.75 12.359 3.256 19.22 4.601 6.861 1.359 14.137 2.476 21.641 3.781 15.02 2.489 31.124 4.709 47.147 7.359-.294 1.709 1.432 3.767 1.177 5.261-.254 1.493-2.501 2.408-10.633 1.951-140.091-22.334-283.566-34.98-427.108-39.124-143.569-4.212-287.151-.068-428.379 10.13-32.395 1.063-8.894-7.91 14.967-15.19-7.932 2.423-8.386-2.757-16.345-.322-.227-2.583 3.505-6.39 11.37-10.104 3.932-1.857 8.894-3.7 14.9-5.355a141.585 141.585 0 0121.172-4.143c-8.159.51-16.277 1.278-24.423 1.977C29.215 55.73 10.781 52.444 10.5 49c8.172-.7 42.604-2.285 42.47-4.007-.134-1.723 22.664-5.49 22.53-7.212-8.172.7-47.608 2.435-55.78 3.135 8.172-.7-7.086-5.194-7.22-6.916-.147-1.722 23.002-1.398 22.868-3.12 4.066-.781 8.667-1.292 13.55-1.655 4.868-.377 19.446.161 24.582 0 10.299-.283 25.828-5.005 33.987-6.445l-14.993-1.359c-8.28-.296-18.565.417-28.837 1.36-5.136.483-10.259.94-15.127 1.506-4.869.552-9.483 1.063-13.59 1.413 8.079-2.436 7.945-4.158 7.678-7.615 3.063-.471 6.139-.875 9.229-1.144 3.09-.242 6.179-.417 9.282-.551 6.193-.27 12.399-.377 18.591-.593 6.193-.215 12.372-.538 18.538-1.237 3.077-.35 6.153-.808 9.229-1.36a104.43 104.43 0 009.189-1.977c-8.253.377-16.492.969-24.73 1.547 3.985-2.435 9.576-4.05 16.116-5.058 6.541-.942 14.031-1.332 21.788-1.534 7.758-.188 15.783-.175 23.407-.31 3.812-.053 7.53-.188 11.061-.322 3.531-.122 6.888-.323 9.978-.646l.027-.014z" fill="#fff"/></svg>