<svg width="583" height="117" viewBox="0 0 583 117" fill="none" xmlns="http://www.w3.org/2000/svg"><path d="M473.891 22.997c-6.731-1.515-13.691-2.83-20.807-3.988-3.566-.571-7.159-1.172-10.796-1.6a809.845 809.845 0 00-11.024-1.258c-7.402-.786-14.918-1.458-22.491-2.073-7.573-.557-15.217-.929-22.847-1.372-30.548-1.786-61.153-2.444-88.82-6.103-8.3-1.186-16.715-2.03-25.186-2.901-8.486-.843-17.043-1.63-25.642-2.058-8.614-.5-17.271-.915-25.956-1.244-8.685-.257-17.385-.3-26.099-.371L181.16 0c-4.35.057-8.7.172-13.035.272l-25.971.771c-8.614.472-17.17.944-25.67 1.401-4.25.257-8.486.5-12.693.743-4.207.329-8.4.643-12.564.972.285 3.673 6.218 8.747.813 11.006C70.347 22.383 68.387 23.168 69 30.5c.314 3.673 45.102-2.588 39.939 1.5 8.186-.615-6.888 6.805 0 7.262 6.903.515 9.698 1.73 1.64 4.045-5.205 3.974-27.239 2.073-32.216 7.976C73.4 57.2 84.68 61.859 79.732 67.777c-5.405.343-16.158 1.415-21.535 1.93-5.006 4.187 6.39 10.476 1.027 10.99-3.922 1.301-8.215 2.302-12.764 3.088-4.55.8-9.384 1.329-14.376 1.943-9.997 1.158-20.708 1.93-31.36 3.16.227 1.829-.9 3.815-.7 5.416.2 1.587 1.74 2.787 7.131 3.102C100.17 87.829 195.093 85.9 289.52 89.888c94.468 3.959 188.423 13.735 280.709 26.913 21.321 1.729 6.902-8.161-8.086-16.279 4.977 2.701 5.904-2.745 10.895-.029.471-2.716-1.554-6.79-6.346-10.863-2.396-2.03-5.476-4.073-9.299-5.931a63.135 63.135 0 00-13.619-4.817c5.362.758 10.696 1.715 16.044 2.602 5.647-.915 18.099.146 18.683-3.484-5.376-.9-12.094-5.17-11.809-7 0 0-14.989-7.668-14.704-9.484 5.391.9 16.187 2.73 21.564 3.63-5.391-.9 8.15-1.814 8.449-3.63.3-1.815-18.033-5.445-17.748-7.26-10.539-3.76-9.897-1.959-20.479-5.446H556c11.167-.157 12.662-1.958 23.5 0-5.148-2.73-8.211-5.889-18.2-8.81-4.007-1.172-8.528-1.18-12.664-1.595-4.122-.443-8.286-.715-12.422-1.1-4.136-.387-8.243-.887-12.308-1.773-2.025-.443-4.05-1-6.046-1.672a46.369 46.369 0 01-5.947-2.373c5.49.672 10.967 1.5 16.429 2.316-2.41-2.673-6.004-4.517-10.283-5.76-4.292-1.201-9.284-1.844-14.461-2.287-10.382-.844-21.521-1.044-29.692-2.773l-.015.014z" fill="#fff"/></svg>