<svg width="28" height="31" viewBox="0 0 28 31" fill="none" xmlns="http://www.w3.org/2000/svg"><path d="M13.5 16a7.5 7.5 0 100-15 7.5 7.5 0 000 15z" stroke="#5BB031" stroke-width="2"/><path d="M21.442 19h.524c1.088 0 2.138.368 2.954 1.033.816.665 1.34 1.583 1.475 2.58l.582 4.296c.052.387.015.78-.11 1.152a2.702 2.702 0 01-.612 1.01c-.28.291-.623.526-1.008.686-.385.16-.802.243-1.224.243H3.977a3.19 3.19 0 01-1.224-.243 2.974 2.974 0 01-1.008-.687 2.701 2.701 0 01-.612-1.009 2.55 2.55 0 01-.11-1.152l.58-4.296c.135-.997.66-1.915 1.477-2.58A4.684 4.684 0 016.036 19h.522" stroke="#5BB031" stroke-width="2" stroke-linecap="round" stroke-linejoin="round"/></svg>