<svg width="54" height="54" viewBox="0 0 54 54" fill="none" xmlns="http://www.w3.org/2000/svg"><g filter="url(#filter0_di_212_359)"><circle cx="27" cy="25" r="25" fill="#F2F2F2"/></g><path d="M16 18.552a.72.72 0 01.21-.508v1.016a.72.72 0 01-.21-.508zm20.879-.596l-.089.088.089-.088a.84.84 0 00-.595-.248h-5.843a3.966 3.966 0 00-1.153-2.673 3.936 3.936 0 00-5.576 0 3.966 3.966 0 00-1.153 2.673h-5.843a.84.84 0 00-.841.844.845.845 0 00.84.844h1.136l1.152 13.88a4.204 4.204 0 001.336 2.74 4.173 4.173 0 002.832 1.109h6.659a4.17 4.17 0 002.831-1.109 4.204 4.204 0 001.335-2.74l1.153-13.88h1.135a.84.84 0 00.841-.844.846.846 0 00-.246-.596zm-16.2 15.18h0l-1.14-13.74h13.923l-1.142 13.74h0a2.514 2.514 0 01-.798 1.638 2.494 2.494 0 01-1.692.663h-6.66a2.494 2.494 0 01-1.692-.663 2.514 2.514 0 01-.798-1.639zm7.42-16.909c.395.397.628.924.659 1.481h-4.516c.03-.556.264-1.084.66-1.48a2.257 2.257 0 013.197 0zm-3.152 6.52a.84.84 0 00-1.436.597v8.146a.845.845 0 00.841.843.84.84 0 00.841-.843v-8.146a.845.845 0 00-.246-.597zm4.542.597a.845.845 0 00-.841-.844.84.84 0 00-.841.844v8.146a.845.845 0 00.84.843.84.84 0 00.842-.843v-8.146z" fill="#5BB031" stroke="#5BB031" stroke-width=".25"/><defs><filter id="filter0_di_212_359" x="0" y="0" width="54" height="54" filterUnits="userSpaceOnUse" color-interpolation-filters="sRGB"><feFlood flood-opacity="0" result="BackgroundImageFix"/><feColorMatrix in="SourceAlpha" values="0 0 0 0 0 0 0 0 0 0 0 0 0 0 0 0 0 0 127 0" result="hardAlpha"/><feOffset dy="2"/><feGaussianBlur stdDeviation="1"/><feComposite in2="hardAlpha" operator="out"/><feColorMatrix values="0 0 0 0 0 0 0 0 0 0 0 0 0 0 0 0 0 0 0.25 0"/><feBlend in2="BackgroundImageFix" result="effect1_dropShadow_212_359"/><feBlend in="SourceGraphic" in2="effect1_dropShadow_212_359" result="shape"/><feColorMatrix in="SourceAlpha" values="0 0 0 0 0 0 0 0 0 0 0 0 0 0 0 0 0 0 127 0" result="hardAlpha"/><feOffset dy="2"/><feGaussianBlur stdDeviation=".5"/><feComposite in2="hardAlpha" operator="arithmetic" k2="-1" k3="1"/><feColorMatrix values="0 0 0 0 1 0 0 0 0 1 0 0 0 0 1 0 0 0 0.1 0"/><feBlend in2="shape" result="effect2_innerShadow_212_359"/></filter></defs></svg>