<svg width="128" height="79" viewBox="0 0 128 79" fill="none" xmlns="http://www.w3.org/2000/svg"><path d="M11.678 76.287l7.707-7.816-2.588-2.625-4.825 4.895-8.777-8.901-2.878 2.922 11.36 11.525zm3.176-21.572l1.943 1.964 3.995-4.055 2.32 2.353-4.003 4.055 2.475 2.506 4.942-5.012 2.32 2.344-7.829 7.943L9.652 55.288l7.83-7.943 2.319 2.353-4.947 5.017zm25.305-7.317l-7.73-2.227h.01c.89-1.718.493-4.045-1.074-5.633-1.683-1.706-4.557-1.645-6.47.297l-5.76 5.844 11.364 11.53 2.883-2.931-9.197-9.33 1.857-1.88c.826-.845 2.142-.87 2.943-.057.8.809.779 2.152-.052 2.991l-1.692 1.72 9.824 2.82 3.094-3.136v-.008zm-5.206-18.283c3.553-3.608 8.253-3.258 11.58.123 3.329 3.376 3.675 8.14.122 11.743-3.553 3.604-8.253 3.254-11.581-.118-3.332-3.38-3.674-8.144-.126-11.744m2.26 2.288c-1.8 1.828-1.2 4.05.995 6.28 2.194 2.227 4.384 2.84 6.188 1.011 1.8-1.828 1.2-4.05-.995-6.28-2.198-2.227-4.388-2.84-6.189-1.011zm12.744-8.35L47.84 16.55l3.363-3.411 2.822 11.157 4.449 4.518-2.883 2.926-4.427-4.492-10.538-3.376 3.172-3.22 6.098 2.398.056.008zm52.582 39.728l11.365-11.525-3.026-3.075-11.364 11.53 3.025 3.07zM59.05 18.675l8.836-4.278-6.526 6.622 2.627 2.664 11.36-11.525-3.605-3.661-8.556 4.23 4.28-8.569L63.75.388 52.39 11.913l2.627 2.664 6.522-6.618-4.216 8.962 1.727 1.754zm19.703 1.631l-1.939 1.968 4.358 4.418-2.32 2.353-4.353-4.422-2.476 2.51 5.306 5.376-2.32 2.353-8.188-8.306 11.365-11.525 8.188 8.302-2.32 2.353-5.301-5.38zM89.72 49.799l7.707 7.82 2.588-2.628-4.83-4.895 8.777-8.905-2.882-2.917-11.36 11.525zm30.61 7.978l-3.64 12.22-.008.004 7.846-7.96 2.7 2.738-11.36 11.516-3.562-3.608 3.108-12.588.008-.009-7.768 7.878-2.623-2.66 11.361-11.525 3.938 3.994zM87.568 47.616l2.19-7.842h.005c1.687.91 3.985.503 5.552-1.085 1.684-1.705 1.619-4.618-.294-6.56l-6.115-6.207-11.365 11.53 2.882 2.926 9.197-9.334 2.22 2.248c.826.844.852 2.174.052 2.987-.8.814-2.12.792-2.943-.048l-2.051-2.086-2.424 10.33 3.094 3.146v-.005z" fill="#000"/><path d="M13.837 78.491h99.893L63.783 27.825 13.837 78.49z" fill="#78BE20"/></svg>