<svg width="20" height="22" viewBox="0 0 20 22" fill="none" xmlns="http://www.w3.org/2000/svg"><path d="M6.49 3.925H1.244a.768.768 0 00-.77.772.773.773 0 00.77.772h1.01l1.036 12.48c.079.948.51 1.83 1.206 2.475a3.769 3.769 0 002.557 1.001h5.993c.947 0 1.86-.358 2.557-1.001a3.796 3.796 0 001.206-2.475l1.036-12.48h1.01a.768.768 0 00.77-.772.773.773 0 00-.77-.772H13.61a3.581 3.581 0 00-1.041-2.403 3.554 3.554 0 00-5.037 0 3.582 3.582 0 00-1.04 2.403zM4.824 17.821h0L3.798 5.469h12.504L15.275 17.82h0a2.25 2.25 0 01-.714 1.467 2.232 2.232 0 01-1.515.593H7.053a2.232 2.232 0 01-1.515-.593 2.25 2.25 0 01-.714-1.467zM11.48 2.614c.35.351.558.818.588 1.311H8.032c.03-.493.239-.96.588-1.311a2.018 2.018 0 012.86 0zm-2.82 5.85a.768.768 0 00-1.313.545v7.332a.773.773 0 00.77.772.768.768 0 00.769-.772V9.009c0-.204-.081-.4-.225-.545zm4.092.545a.773.773 0 00-.77-.771.768.768 0 00-.769.771v7.332a.773.773 0 00.77.772.767.767 0 00.769-.772V9.009z" fill="#fff" stroke="#5BB031" stroke-width=".25"/></svg>